{
    "asset" : {
        "generator" : "Khronos glTF Blender I/O v1.0.5",
        "version" : "2.0"
    },
    "scene" : 0,
    "scenes" : [
        {
            "name" : "Scene",
            "nodes" : [
                0,
                1,
                2,
                3,
                4,
                5,
                6,
                7,
                8,
                9
            ]
        }
    ],
    "nodes" : [
        {
            "name" : "Light",
            "rotation" : [
                0.06487468630075455,
                0.10876826196908951,
                -0.8053407073020935,
                0.5791261792182922
            ],
            "translation" : [
                -0.6994242668151855,
                7.222895622253418,
                0.24913561344146729
            ]
        },
        {
            "name" : "Camera",
            "rotation" : [
                0.20690713822841644,
                0.5109574794769287,
                -0.20302100479602814,
                0.8092554211616516
            ],
            "translation" : [
                6.007791996002197,
                11.845929145812988,
                1.930264949798584
            ]
        },
        {
            "mesh" : 0,
            "name" : "Icosphere",
            "rotation" : [
                -0.42334744334220886,
                -0.7059729099273682,
                -0.546511173248291,
                0.15396352112293243
            ],
            "scale" : [
                0.3620798587799072,
                0.3620798587799072,
                0.3620798587799072
            ],
            "translation" : [
                -1.3760058879852295,
                2.7935891151428223,
                0.21050012111663818
            ]
        },
        {
            "name" : "Point",
            "rotation" : [
                -0.6400136947631836,
                -0.25714266300201416,
                -0.33283311128616333,
                0.6430258750915527
            ],
            "translation" : [
                -3.944929599761963,
                9.96957778930664,
                -4.072906494140625
            ]
        },
        {
            "mesh" : 1,
            "name" : "Icosphere.001",
            "rotation" : [
                0.5641250014305115,
                0.5668428540229797,
                0.41173362731933594,
                -0.4369525909423828
            ],
            "scale" : [
                0.3620798587799072,
                0.362079918384552,
                0.3620798587799072
            ],
            "translation" : [
                -0.7463297843933105,
                1.4064314365386963,
                1.0286502838134766
            ]
        },
        {
            "mesh" : 2,
            "name" : "Icosphere.002",
            "rotation" : [
                -0.7756941318511963,
                -0.02097977325320244,
                -0.20677363872528076,
                -0.5959053039550781
            ],
            "scale" : [
                0.3620798587799072,
                0.3620798587799072,
                0.3620798587799072
            ],
            "translation" : [
                -2.60906720161438,
                3.8701670169830322,
                -1.289035677909851
            ]
        },
        {
            "mesh" : 3,
            "name" : "Icosphere.003",
            "rotation" : [
                0.02996297925710678,
                0.47939175367355347,
                -0.8632403016090393,
                0.15524806082248688
            ],
            "scale" : [
                0.3620798587799072,
                0.3620798587799072,
                0.3620798587799072
            ],
            "translation" : [
                -0.540444552898407,
                3.553596019744873,
                1.1334327459335327
            ]
        },
        {
            "mesh" : 4,
            "name" : "Icosphere.004",
            "rotation" : [
                0.39862483739852905,
                0.48798009753227234,
                0.7173992395401001,
                0.297173410654068
            ],
            "scale" : [
                0.3620798587799072,
                0.3620798587799072,
                0.3620798587799072
            ],
            "translation" : [
                -2.4654922485351562,
                1.669523000717163,
                -0.984581470489502
            ]
        },
        {
            "mesh" : 5,
            "name" : "Icosphere.005",
            "rotation" : [
                0.45012232661247253,
                0.7112597823143005,
                0.5341343879699707,
                0.0787392258644104
            ],
            "scale" : [
                0.3620798587799072,
                0.3620798587799072,
                0.3620798587799072
            ],
            "translation" : [
                -1.2398011684417725,
                1.6034934520721436,
                -2.0398664474487305
            ]
        },
        {
            "mesh" : 6,
            "name" : "Icosphere.006",
            "rotation" : [
                -0.37052690982818604,
                0.43322083353996277,
                -0.3908159136772156,
                -0.7226980328559875
            ],
            "scale" : [
                0.3620798587799072,
                0.362079918384552,
                0.3620798587799072
            ],
            "translation" : [
                -3.774719715118408,
                1.7400527000427246,
                0.14262604713439941
            ]
        }
    ],
    "meshes" : [
        {
            "name" : "Icosphere",
            "primitives" : [
                {
                    "attributes" : {
                        "POSITION" : 0,
                        "NORMAL" : 1,
                        "TEXCOORD_0" : 2
                    },
                    "indices" : 3
                }
            ]
        },
        {
            "name" : "Icosphere.001",
            "primitives" : [
                {
                    "attributes" : {
                        "POSITION" : 4,
                        "NORMAL" : 5,
                        "TEXCOORD_0" : 6
                    },
                    "indices" : 7
                }
            ]
        },
        {
            "name" : "Icosphere.002",
            "primitives" : [
                {
                    "attributes" : {
                        "POSITION" : 8,
                        "NORMAL" : 9,
                        "TEXCOORD_0" : 10
                    },
                    "indices" : 3
                }
            ]
        },
        {
            "name" : "Icosphere.003",
            "primitives" : [
                {
                    "attributes" : {
                        "POSITION" : 11,
                        "NORMAL" : 12,
                        "TEXCOORD_0" : 13
                    },
                    "indices" : 3
                }
            ]
        },
        {
            "name" : "Icosphere.004",
            "primitives" : [
                {
                    "attributes" : {
                        "POSITION" : 14,
                        "NORMAL" : 15,
                        "TEXCOORD_0" : 16
                    },
                    "indices" : 3
                }
            ]
        },
        {
            "name" : "Icosphere.005",
            "primitives" : [
                {
                    "attributes" : {
                        "POSITION" : 17,
                        "NORMAL" : 18,
                        "TEXCOORD_0" : 19
                    },
                    "indices" : 20
                }
            ]
        },
        {
            "name" : "Icosphere.006",
            "primitives" : [
                {
                    "attributes" : {
                        "POSITION" : 21,
                        "NORMAL" : 22,
                        "TEXCOORD_0" : 23
                    },
                    "indices" : 3
                }
            ]
        }
    ],
    "accessors" : [
        {
            "bufferView" : 0,
            "componentType" : 5126,
            "count" : 240,
            "max" : [
                1.5859415531158447,
                2.191462993621826,
                0.9999999403953552
            ],
            "min" : [
                -1.6311628818511963,
                -1.0248831510543823,
                -2.204955577850342
            ],
            "type" : "VEC3"
        },
        {
            "bufferView" : 1,
            "componentType" : 5126,
            "count" : 240,
            "type" : "VEC3"
        },
        {
            "bufferView" : 2,
            "componentType" : 5126,
            "count" : 240,
            "type" : "VEC2"
        },
        {
            "bufferView" : 3,
            "componentType" : 5123,
            "count" : 240,
            "type" : "SCALAR"
        },
        {
            "bufferView" : 4,
            "componentType" : 5126,
            "count" : 244,
            "max" : [
                6.077423095703125,
                4.346294403076172,
                2.3421897888183594
            ],
            "min" : [
                -19.746002197265625,
                -17.321260452270508,
                -6.5005202293396
            ],
            "type" : "VEC3"
        },
        {
            "bufferView" : 5,
            "componentType" : 5126,
            "count" : 244,
            "type" : "VEC3"
        },
        {
            "bufferView" : 6,
            "componentType" : 5126,
            "count" : 244,
            "type" : "VEC2"
        },
        {
            "bufferView" : 7,
            "componentType" : 5123,
            "count" : 246,
            "type" : "SCALAR"
        },
        {
            "bufferView" : 8,
            "componentType" : 5126,
            "count" : 240,
            "max" : [
                1.5859415531158447,
                2.191462993621826,
                0.9999999403953552
            ],
            "min" : [
                -1.6311628818511963,
                -1.0248831510543823,
                -2.204955577850342
            ],
            "type" : "VEC3"
        },
        {
            "bufferView" : 9,
            "componentType" : 5126,
            "count" : 240,
            "type" : "VEC3"
        },
        {
            "bufferView" : 10,
            "componentType" : 5126,
            "count" : 240,
            "type" : "VEC2"
        },
        {
            "bufferView" : 11,
            "componentType" : 5126,
            "count" : 240,
            "max" : [
                1.5859415531158447,
                2.191462993621826,
                0.9999999403953552
            ],
            "min" : [
                -1.6311628818511963,
                -1.0248831510543823,
                -2.204955577850342
            ],
            "type" : "VEC3"
        },
        {
            "bufferView" : 12,
            "componentType" : 5126,
            "count" : 240,
            "type" : "VEC3"
        },
        {
            "bufferView" : 13,
            "componentType" : 5126,
            "count" : 240,
            "type" : "VEC2"
        },
        {
            "bufferView" : 14,
            "componentType" : 5126,
            "count" : 240,
            "max" : [
                1.5859415531158447,
                2.191462993621826,
                0.9999999403953552
            ],
            "min" : [
                -1.6311628818511963,
                -1.0248831510543823,
                -2.204955577850342
            ],
            "type" : "VEC3"
        },
        {
            "bufferView" : 15,
            "componentType" : 5126,
            "count" : 240,
            "type" : "VEC3"
        },
        {
            "bufferView" : 16,
            "componentType" : 5126,
            "count" : 240,
            "type" : "VEC2"
        },
        {
            "bufferView" : 17,
            "componentType" : 5126,
            "count" : 239,
            "max" : [
                1.5859415531158447,
                2.191462993621826,
                0.9999999403953552
            ],
            "min" : [
                -1.6311628818511963,
                -1.0248831510543823,
                -2.204955577850342
            ],
            "type" : "VEC3"
        },
        {
            "bufferView" : 18,
            "componentType" : 5126,
            "count" : 239,
            "type" : "VEC3"
        },
        {
            "bufferView" : 19,
            "componentType" : 5126,
            "count" : 239,
            "type" : "VEC2"
        },
        {
            "bufferView" : 20,
            "componentType" : 5123,
            "count" : 240,
            "type" : "SCALAR"
        },
        {
            "bufferView" : 21,
            "componentType" : 5126,
            "count" : 240,
            "max" : [
                1.5859415531158447,
                2.191462993621826,
                0.9999999403953552
            ],
            "min" : [
                -1.6311628818511963,
                -1.0248831510543823,
                -2.204955577850342
            ],
            "type" : "VEC3"
        },
        {
            "bufferView" : 22,
            "componentType" : 5126,
            "count" : 240,
            "type" : "VEC3"
        },
        {
            "bufferView" : 23,
            "componentType" : 5126,
            "count" : 240,
            "type" : "VEC2"
        }
    ],
    "bufferViews" : [
        {
            "buffer" : 0,
            "byteLength" : 2880,
            "byteOffset" : 0
        },
        {
            "buffer" : 0,
            "byteLength" : 2880,
            "byteOffset" : 2880
        },
        {
            "buffer" : 0,
            "byteLength" : 1920,
            "byteOffset" : 5760
        },
        {
            "buffer" : 0,
            "byteLength" : 480,
            "byteOffset" : 7680
        },
        {
            "buffer" : 0,
            "byteLength" : 2928,
            "byteOffset" : 8160
        },
        {
            "buffer" : 0,
            "byteLength" : 2928,
            "byteOffset" : 11088
        },
        {
            "buffer" : 0,
            "byteLength" : 1952,
            "byteOffset" : 14016
        },
        {
            "buffer" : 0,
            "byteLength" : 492,
            "byteOffset" : 15968
        },
        {
            "buffer" : 0,
            "byteLength" : 2880,
            "byteOffset" : 16460
        },
        {
            "buffer" : 0,
            "byteLength" : 2880,
            "byteOffset" : 19340
        },
        {
            "buffer" : 0,
            "byteLength" : 1920,
            "byteOffset" : 22220
        },
        {
            "buffer" : 0,
            "byteLength" : 2880,
            "byteOffset" : 24140
        },
        {
            "buffer" : 0,
            "byteLength" : 2880,
            "byteOffset" : 27020
        },
        {
            "buffer" : 0,
            "byteLength" : 1920,
            "byteOffset" : 29900
        },
        {
            "buffer" : 0,
            "byteLength" : 2880,
            "byteOffset" : 31820
        },
        {
            "buffer" : 0,
            "byteLength" : 2880,
            "byteOffset" : 34700
        },
        {
            "buffer" : 0,
            "byteLength" : 1920,
            "byteOffset" : 37580
        },
        {
            "buffer" : 0,
            "byteLength" : 2868,
            "byteOffset" : 39500
        },
        {
            "buffer" : 0,
            "byteLength" : 2868,
            "byteOffset" : 42368
        },
        {
            "buffer" : 0,
            "byteLength" : 1912,
            "byteOffset" : 45236
        },
        {
            "buffer" : 0,
            "byteLength" : 480,
            "byteOffset" : 47148
        },
        {
            "buffer" : 0,
            "byteLength" : 2880,
            "byteOffset" : 47628
        },
        {
            "buffer" : 0,
            "byteLength" : 2880,
            "byteOffset" : 50508
        },
        {
            "buffer" : 0,
            "byteLength" : 1920,
            "byteOffset" : 53388
        }
    ],
    "buffers" : [
        {
            "byteLength" : 55308,
            "uri" : "data:application/octet-stream;base64,"
        }
    ]
}
