{
    "asset" : {
        "generator" : "Khronos glTF Blender I/O v1.0.5",
        "version" : "2.0"
    },
    "extensionsUsed" : [
        "KHR_lights_punctual"
    ],
    "extensionsRequired" : [
        "KHR_lights_punctual"
    ],
    "extensions" : {
        "KHR_lights_punctual" : {
            "lights" : [
                {
                    "color" : [
                        0.4833047389984131,
                        1,
                        0.1141202300786972
                    ],
                    "intensity" : 200,
                    "spot" : {
                        "innerConeAngle" : 0.17608775596522053,
                        "outerConeAngle" : 0.2071620672941208
                    },
                    "type" : "spot",
                    "range" : 2,
                    "name" : "Light"
                },
                {
                    "color" : [
                        0.003257370088249445,
                        1,
                        0.7094310522079468
                    ],
                    "intensity" : 50,
                    "spot" : {
                        "innerConeAngle" : 0.3180443843457894,
                        "outerConeAngle" : 0.6276575326919556
                    },
                    "type" : "spot",
                    "name" : "Spot"
                },
                {
                    "color" : [
                        0.6046018004417419,
                        0.4166237711906433,
                        1
                    ],
                    "intensity" : 100,
                    "type" : "point",
                    "name" : "Light.001"
                },
                {
                    "color" : [
                        0.8282471895217896,
                        0.4655194878578186,
                        1
                    ],
                    "intensity" : 1000,
                    "type" : "point",
                    "name" : "Light.002"
                }
            ]
        }
    },
    "scene" : 0,
    "scenes" : [
        {
            "name" : "Scene",
            "nodes" : [
                0,
                2,
                4,
                6,
                8,
                9
            ]
        }
    ],
    "nodes" : [
        {
            "mesh" : 0,
            "name" : "Cube",
            "translation" : [
                0,
                0.565122127532959,
                0
            ]
        },
        {
            "extensions" : {
                "KHR_lights_punctual" : {
                    "light" : 0
                }
            },
            "name" : "Light_Orientation",
            "rotation" : [
                -0.7071067690849304,
                0,
                0,
                0.7071067690849304
            ]
        },
        {
            "children" : [
                1
            ],
            "name" : "Light",
            "rotation" : [
                0.2533191442489624,
                0.07694122195243835,
                0.2507515251636505,
                0.9311461448669434
            ],
            "translation" : [
                -14.53956127166748,
                24.924179077148438,
                17.652313232421875
            ]
        },
        {
            "extensions" : {
                "KHR_lights_punctual" : {
                    "light" : 1
                }
            },
            "name" : "Spot_Orientation",
            "rotation" : [
                -0.7071067690849304,
                0,
                0,
                0.7071067690849304
            ]
        },
        {
            "children" : [
                3
            ],
            "name" : "Spot",
            "rotation" : [
                0.12344667315483093,
                -0.13563919067382812,
                0.02192121185362339,
                -0.9827931523323059
            ],
            "scale" : [
                -0.3241269588470459,
                -0.3241269588470459,
                -0.3241269588470459
            ],
            "translation" : [
                -0.022905051708221436,
                0.8838049173355103,
                0.03841989487409592
            ]
        },
        {
            "extensions" : {
                "KHR_lights_punctual" : {
                    "light" : 2
                }
            },
            "name" : "Light.001_Orientation",
            "rotation" : [
                -0.7071067690849304,
                0,
                0,
                0.7071067690849304
            ]
        },
        {
            "children" : [
                5
            ],
            "name" : "Light.001",
            "rotation" : [
                0.3993419110774994,
                0.6636773943901062,
                -0.4386936128139496,
                0.4556382894515991
            ],
            "translation" : [
                2.4230427742004395,
                1.6991841793060303,
                -2.509328603744507
            ]
        },
        {
            "extensions" : {
                "KHR_lights_punctual" : {
                    "light" : 3
                }
            },
            "name" : "Light.002_Orientation",
            "rotation" : [
                -0.7071067690849304,
                0,
                0,
                0.7071067690849304
            ]
        },
        {
            "children" : [
                7
            ],
            "name" : "Light.002",
            "rotation" : [
                0.3993419110774994,
                0.6636773943901062,
                -0.4386936128139496,
                0.4556382894515991
            ],
            "translation" : [
                1.3594753742218018,
                1.561671495437622,
                2.5609841346740723
            ]
        },
        {
            "mesh" : 1,
            "name" : "Icosphere",
            "translation" : [
                -2.38112211227417,
                1.358243465423584,
                4.962623596191406
            ]
        }
    ],
    "materials" : [
        {
            "doubleSided" : true,
            "name" : "Material",
            "pbrMetallicRoughness" : {
                "baseColorFactor" : [
                    0.0014113177312538028,
                    0,
                    0.004532977007329464,
                    1
                ],
                "metallicFactor" : 0.7666666507720947,
                "roughnessFactor" : 0.25833332538604736
            }
        },
        {
            "doubleSided" : true,
            "name" : "Material.001",
            "pbrMetallicRoughness" : {
                "baseColorFactor" : [
                    0.09842272847890854,
                    0.8000000715255737,
                    0.5674855709075928,
                    1
                ],
                "metallicFactor" : 0,
                "roughnessFactor" : 0
            }
        },
        {
            "alphaCutoff" : 0.5,
            "alphaMode" : "MASK",
            "doubleSided" : true,
            "name" : "Material.003",
            "pbrMetallicRoughness" : {}
        }
    ],
    "meshes" : [
        {
            "name" : "Cube",
            "primitives" : [
                {
                    "attributes" : {
                        "POSITION" : 0,
                        "NORMAL" : 1,
                        "TANGENT" : 2,
                        "TEXCOORD_0" : 3
                    },
                    "indices" : 4,
                    "material" : 0
                },
                {
                    "attributes" : {
                        "POSITION" : 5,
                        "NORMAL" : 6,
                        "TANGENT" : 7,
                        "TEXCOORD_0" : 8
                    },
                    "indices" : 9,
                    "material" : 1
                }
            ]
        },
        {
            "name" : "Icosphere",
            "primitives" : [
                {
                    "attributes" : {
                        "POSITION" : 10,
                        "NORMAL" : 11,
                        "TANGENT" : 12,
                        "TEXCOORD_0" : 13
                    },
                    "indices" : 14,
                    "material" : 2
                }
            ]
        }
    ],
    "accessors" : [
        {
            "bufferView" : 0,
            "componentType" : 5126,
            "count" : 72,
            "max" : [
                0.5,
                0.5525058507919312,
                0.5
            ],
            "min" : [
                -0.5,
                -0.3153719902038574,
                -0.5
            ],
            "type" : "VEC3"
        },
        {
            "bufferView" : 1,
            "componentType" : 5126,
            "count" : 72,
            "type" : "VEC3"
        },
        {
            "bufferView" : 2,
            "componentType" : 5126,
            "count" : 72,
            "type" : "VEC4"
        },
        {
            "bufferView" : 3,
            "componentType" : 5126,
            "count" : 72,
            "type" : "VEC2"
        },
        {
            "bufferView" : 4,
            "componentType" : 5123,
            "count" : 108,
            "type" : "SCALAR"
        },
        {
            "bufferView" : 5,
            "componentType" : 5126,
            "count" : 97,
            "max" : [
                0.29596081376075745,
                0.7021803855895996,
                0.29596081376075745
            ],
            "min" : [
                -0.29596081376075745,
                0.23938505351543427,
                -0.29596081376075745
            ],
            "type" : "VEC3"
        },
        {
            "bufferView" : 6,
            "componentType" : 5126,
            "count" : 97,
            "type" : "VEC3"
        },
        {
            "bufferView" : 7,
            "componentType" : 5126,
            "count" : 97,
            "type" : "VEC4"
        },
        {
            "bufferView" : 8,
            "componentType" : 5126,
            "count" : 97,
            "type" : "VEC2"
        },
        {
            "bufferView" : 9,
            "componentType" : 5123,
            "count" : 150,
            "type" : "SCALAR"
        },
        {
            "bufferView" : 10,
            "componentType" : 5126,
            "count" : 240,
            "max" : [
                0.9510578513145447,
                1,
                0.9999999403953552
            ],
            "min" : [
                -0.9510578513145447,
                -1,
                -0.9999999403953552
            ],
            "type" : "VEC3"
        },
        {
            "bufferView" : 11,
            "componentType" : 5126,
            "count" : 240,
            "type" : "VEC3"
        },
        {
            "bufferView" : 12,
            "componentType" : 5126,
            "count" : 240,
            "type" : "VEC4"
        },
        {
            "bufferView" : 13,
            "componentType" : 5126,
            "count" : 240,
            "type" : "VEC2"
        },
        {
            "bufferView" : 14,
            "componentType" : 5123,
            "count" : 240,
            "type" : "SCALAR"
        }
    ],
    "bufferViews" : [
        {
            "buffer" : 0,
            "byteLength" : 864,
            "byteOffset" : 0
        },
        {
            "buffer" : 0,
            "byteLength" : 864,
            "byteOffset" : 864
        },
        {
            "buffer" : 0,
            "byteLength" : 1152,
            "byteOffset" : 1728
        },
        {
            "buffer" : 0,
            "byteLength" : 576,
            "byteOffset" : 2880
        },
        {
            "buffer" : 0,
            "byteLength" : 216,
            "byteOffset" : 3456
        },
        {
            "buffer" : 0,
            "byteLength" : 1164,
            "byteOffset" : 3672
        },
        {
            "buffer" : 0,
            "byteLength" : 1164,
            "byteOffset" : 4836
        },
        {
            "buffer" : 0,
            "byteLength" : 1552,
            "byteOffset" : 6000
        },
        {
            "buffer" : 0,
            "byteLength" : 776,
            "byteOffset" : 7552
        },
        {
            "buffer" : 0,
            "byteLength" : 300,
            "byteOffset" : 8328
        },
        {
            "buffer" : 0,
            "byteLength" : 2880,
            "byteOffset" : 8628
        },
        {
            "buffer" : 0,
            "byteLength" : 2880,
            "byteOffset" : 11508
        },
        {
            "buffer" : 0,
            "byteLength" : 3840,
            "byteOffset" : 14388
        },
        {
            "buffer" : 0,
            "byteLength" : 1920,
            "byteOffset" : 18228
        },
        {
            "buffer" : 0,
            "byteLength" : 480,
            "byteOffset" : 20148
        }
    ],
    "buffers" : [
        {
            "byteLength" : 20628,
            "uri" : "data:application/octet-stream;base64,"
        }
    ]
}
