{
    "asset" : {
        "generator" : "Khronos glTF Blender I/O v1.0.5",
        "version" : "2.0"
    },
    "scene" : 0,
    "scenes" : [
        {
            "name" : "Scene",
            "nodes" : [
                0
            ]
        }
    ],
    "nodes" : [
        {
            "mesh" : 0,
            "name" : "GradHat",
            "rotation" : [
                -0.7071067690849304,
                0,
                0,
                0.7071068286895752
            ],
            "scale" : [
                0.0005000000237487257,
                -0.0769553855061531,
                0.0005000000237487257
            ],
            "translation" : [
                0,
                0.2726743519306183,
                0.0006957422010600567
            ]
        }
    ],
    "materials" : [
        {
            "doubleSided" : true,
            "name" : "goldString",
            "pbrMetallicRoughness" : {
                "baseColorFactor" : [
                    1,
                    0.6795424222946167,
                    0,
                    1
                ],
                "metallicFactor" : 0,
                "roughnessFactor" : 0.5
            }
        },
        {
            "doubleSided" : true,
            "name" : "blackFelt",
            "pbrMetallicRoughness" : {
                "baseColorFactor" : [
                    0.013411149382591248,
                    0.013411149382591248,
                    0.013411149382591248,
                    1
                ],
                "metallicFactor" : 0,
                "roughnessFactor" : 0.8141413927078247
            }
        }
    ],
    "meshes" : [
        {
            "name" : "Cylinder.001",
            "primitives" : [
                {
                    "attributes" : {
                        "POSITION" : 0,
                        "NORMAL" : 1,
                        "TEXCOORD_0" : 2
                    },
                    "indices" : 3,
                    "material" : 0
                },
                {
                    "attributes" : {
                        "POSITION" : 4,
                        "NORMAL" : 5,
                        "TEXCOORD_0" : 6
                    },
                    "indices" : 7,
                    "material" : 1
                }
            ]
        }
    ],
    "accessors" : [
        {
            "bufferView" : 0,
            "componentType" : 5126,
            "count" : 752,
            "max" : [
                29.999990463256836,
                2.3523528575897217,
                86.6256103515625
            ],
            "min" : [
                -30.000009536743164,
                -0.03320375829935074,
                -391.5464172363281
            ],
            "type" : "VEC3"
        },
        {
            "bufferView" : 1,
            "componentType" : 5126,
            "count" : 752,
            "type" : "VEC3"
        },
        {
            "bufferView" : 2,
            "componentType" : 5126,
            "count" : 752,
            "type" : "VEC2"
        },
        {
            "bufferView" : 3,
            "componentType" : 5123,
            "count" : 1170,
            "type" : "SCALAR"
        },
        {
            "bufferView" : 4,
            "componentType" : 5126,
            "count" : 164,
            "max" : [
                300,
                1.9401403665542603,
                81.42279052734375
            ],
            "min" : [
                -300,
                -1.958222508430481,
                -148.52960205078125
            ],
            "type" : "VEC3"
        },
        {
            "bufferView" : 5,
            "componentType" : 5126,
            "count" : 164,
            "type" : "VEC3"
        },
        {
            "bufferView" : 6,
            "componentType" : 5126,
            "count" : 164,
            "type" : "VEC2"
        },
        {
            "bufferView" : 7,
            "componentType" : 5123,
            "count" : 288,
            "type" : "SCALAR"
        }
    ],
    "bufferViews" : [
        {
            "buffer" : 0,
            "byteLength" : 9024,
            "byteOffset" : 0
        },
        {
            "buffer" : 0,
            "byteLength" : 9024,
            "byteOffset" : 9024
        },
        {
            "buffer" : 0,
            "byteLength" : 6016,
            "byteOffset" : 18048
        },
        {
            "buffer" : 0,
            "byteLength" : 2340,
            "byteOffset" : 24064
        },
        {
            "buffer" : 0,
            "byteLength" : 1968,
            "byteOffset" : 26404
        },
        {
            "buffer" : 0,
            "byteLength" : 1968,
            "byteOffset" : 28372
        },
        {
            "buffer" : 0,
            "byteLength" : 1312,
            "byteOffset" : 30340
        },
        {
            "buffer" : 0,
            "byteLength" : 576,
            "byteOffset" : 31652
        }
    ],
    "buffers" : [
        {
            "byteLength" : 32228,
            "uri" : "data:application/octet-stream;base64,"
        }
    ]
}
