{
    "asset" : {
        "generator" : "Khronos glTF Blender I/O v1.0.5",
        "version" : "2.0"
    },
    "scene" : 0,
    "scenes" : [
        {
            "name" : "Scene",
            "nodes" : [
                0,
                1,
                2,
                3,
                4,
                5
            ]
        }
    ],
    "nodes" : [
        {
            "mesh" : 0,
            "name" : "Text.002",
            "rotation" : [
                0.4777143895626068,
                -0.5213338136672974,
                0.4777144193649292,
                0.5213338136672974
            ],
            "translation" : [
                10,
                3.5830278396606445,
                -0.092620849609375
            ]
        },
        {
            "mesh" : 1,
            "name" : "Text",
            "rotation" : [
                0.4434141516685486,
                0.40018942952156067,
                -0.23104944825172424,
                0.7680159211158752
            ],
            "scale" : [
                0.34990501403808594,
                0.34990501403808594,
                0.34990501403808594
            ],
            "translation" : [
                -14.451616287231445,
                0,
                -4.205679893493652
            ]
        },
        {
            "mesh" : 2,
            "name" : "Text.004",
            "rotation" : [
                0.027837222442030907,
                -0.7233371734619141,
                0.6801009774208069,
                0.11606497317552567
            ],
            "scale" : [
                1.3343050479888916,
                1.3343050479888916,
                1.3343050479888916
            ],
            "translation" : [
                8.910852432250977,
                3,
                21.91132926940918
            ]
        },
        {
            "mesh" : 3,
            "name" : "Text.005",
            "rotation" : [
                0.4685431718826294,
                -0.5295916199684143,
                0.5295916199684143,
                0.4685431718826294
            ],
            "translation" : [
                9.616544723510742,
                2.6103646755218506,
                3.7652759552001953
            ]
        },
        {
            "mesh" : 4,
            "name" : "Text.006",
            "rotation" : [
                0.7057065367698669,
                -0.28946423530578613,
                -0.4055497646331787,
                -0.5037043690681458
            ],
            "scale" : [
                0.38935959339141846,
                0.38935959339141846,
                0.38935959339141846
            ],
            "translation" : [
                -13.62838363647461,
                0.23999997973442078,
                -5.522991180419922
            ]
        },
        {
            "mesh" : 5,
            "name" : "GradHat",
            "rotation" : [
                0,
                0,
                0,
                -2
            ],
            "translation" : [
                8,
                5.272674560546875,
                21.000696182250977
            ]
        }
    ],
    "animations" : [
        {
            "channels" : [
                {
                    "sampler" : 0,
                    "target" : {
                        "node" : 5,
                        "path" : "translation"
                    }
                },
                {
                    "sampler" : 1,
                    "target" : {
                        "node" : 5,
                        "path" : "rotation"
                    }
                },
                {
                    "sampler" : 2,
                    "target" : {
                        "node" : 5,
                        "path" : "scale"
                    }
                }
            ],
            "name" : "GradHatAction.003",
            "samplers" : [
                {
                    "input" : 23,
                    "interpolation" : "LINEAR",
                    "output" : 24
                },
                {
                    "input" : 23,
                    "interpolation" : "LINEAR",
                    "output" : 25
                },
                {
                    "input" : 23,
                    "interpolation" : "LINEAR",
                    "output" : 26
                }
            ]
        }
    ],
    "materials" : [
        {
            "doubleSided" : true,
            "name" : "Gold.003",
            "pbrMetallicRoughness" : {
                "baseColorFactor" : [
                    1,
                    0.7284015417098999,
                    0.24260297417640686,
                    1
                ],
                "metallicFactor" : 0.2634146213531494,
                "roughnessFactor" : 0.4292683005332947
            }
        },
        {
            "doubleSided" : true,
            "name" : "Gold",
            "pbrMetallicRoughness" : {
                "baseColorFactor" : [
                    1,
                    1,
                    1,
                    1
                ],
                "metallicFactor" : 0.8383838534355164,
                "roughnessFactor" : 0.09595959633588791
            }
        },
        {
            "doubleSided" : true,
            "name" : "Material.001",
            "pbrMetallicRoughness" : {
                "baseColorFactor" : [
                    1,
                    0.0012698279460892081,
                    0,
                    1
                ],
                "metallicFactor" : 0.24390244483947754,
                "roughnessFactor" : 0.10975611209869385
            }
        },
        {
            "doubleSided" : true,
            "name" : "goldString.001",
            "pbrMetallicRoughness" : {
                "baseColorFactor" : [
                    1,
                    0.6795424222946167,
                    0,
                    1
                ],
                "metallicFactor" : 0,
                "roughnessFactor" : 0.5
            }
        },
        {
            "doubleSided" : true,
            "name" : "blackFelt.001",
            "pbrMetallicRoughness" : {
                "baseColorFactor" : [
                    0.013411149382591248,
                    0.013411149382591248,
                    0.013411149382591248,
                    1
                ],
                "metallicFactor" : 0,
                "roughnessFactor" : 0.8141413927078247
            }
        }
    ],
    "meshes" : [
        {
            "name" : "Text.011",
            "primitives" : [
                {
                    "attributes" : {
                        "POSITION" : 0,
                        "NORMAL" : 1
                    },
                    "indices" : 2,
                    "material" : 0
                }
            ]
        },
        {
            "name" : "Text.012",
            "primitives" : [
                {
                    "attributes" : {
                        "POSITION" : 3,
                        "NORMAL" : 4
                    },
                    "indices" : 5,
                    "material" : 1
                }
            ]
        },
        {
            "name" : "Text.013",
            "primitives" : [
                {
                    "attributes" : {
                        "POSITION" : 6,
                        "NORMAL" : 7
                    },
                    "indices" : 8,
                    "material" : 0
                }
            ]
        },
        {
            "name" : "Text.014",
            "primitives" : [
                {
                    "attributes" : {
                        "POSITION" : 9,
                        "NORMAL" : 10
                    },
                    "indices" : 11,
                    "material" : 0
                }
            ]
        },
        {
            "name" : "Text.015",
            "primitives" : [
                {
                    "attributes" : {
                        "POSITION" : 12,
                        "NORMAL" : 13
                    },
                    "indices" : 14,
                    "material" : 2
                }
            ]
        },
        {
            "name" : "Cylinder.000",
            "primitives" : [
                {
                    "attributes" : {
                        "POSITION" : 15,
                        "NORMAL" : 16,
                        "TEXCOORD_0" : 17
                    },
                    "indices" : 18,
                    "material" : 3
                },
                {
                    "attributes" : {
                        "POSITION" : 19,
                        "NORMAL" : 20,
                        "TEXCOORD_0" : 21
                    },
                    "indices" : 22,
                    "material" : 4
                }
            ]
        }
    ],
    "accessors" : [
        {
            "bufferView" : 0,
            "componentType" : 5126,
            "count" : 31734,
            "max" : [
                2.8144946098327637,
                0.08999998867511749,
                1.0140860080718994
            ],
            "min" : [
                -2.813326835632324,
                -0.08999998867511749,
                -0.4796643853187561
            ],
            "type" : "VEC3"
        },
        {
            "bufferView" : 1,
            "componentType" : 5126,
            "count" : 31734,
            "type" : "VEC3"
        },
        {
            "bufferView" : 2,
            "componentType" : 5123,
            "count" : 87432,
            "type" : "SCALAR"
        },
        {
            "bufferView" : 3,
            "componentType" : 5126,
            "count" : 23299,
            "max" : [
                10.99909496307373,
                0.1599999964237213,
                0.27997058629989624
            ],
            "min" : [
                0.03300000727176666,
                -0.1599999964237213,
                -0.7310247421264648
            ],
            "type" : "VEC3"
        },
        {
            "bufferView" : 4,
            "componentType" : 5126,
            "count" : 23299,
            "type" : "VEC3"
        },
        {
            "bufferView" : 5,
            "componentType" : 5123,
            "count" : 100428,
            "type" : "SCALAR"
        },
        {
            "bufferView" : 6,
            "componentType" : 5126,
            "count" : 17477,
            "max" : [
                13.803092956542969,
                0.1599999964237213,
                0.049091920256614685
            ],
            "min" : [
                0.03500000387430191,
                -0.1599999964237213,
                -0.7312520742416382
            ],
            "type" : "VEC3"
        },
        {
            "bufferView" : 7,
            "componentType" : 5126,
            "count" : 17477,
            "type" : "VEC3"
        },
        {
            "bufferView" : 8,
            "componentType" : 5123,
            "count" : 75576,
            "type" : "SCALAR"
        },
        {
            "bufferView" : 9,
            "componentType" : 5126,
            "count" : 34,
            "max" : [
                0.5290000438690186,
                0.03999999910593033,
                -0.11100000888109207
            ],
            "min" : [
                0.055000003427267075,
                -0.03999999910593033,
                -0.597000002861023
            ],
            "type" : "VEC3"
        },
        {
            "bufferView" : 10,
            "componentType" : 5126,
            "count" : 34,
            "type" : "VEC3"
        },
        {
            "bufferView" : 11,
            "componentType" : 5123,
            "count" : 72,
            "type" : "SCALAR"
        },
        {
            "bufferView" : 12,
            "componentType" : 5126,
            "count" : 704,
            "max" : [
                1.008000135421753,
                0.14000000059604645,
                0.009000000543892384
            ],
            "min" : [
                0.055000003427267075,
                -0.14000000059604645,
                -0.6910000443458557
            ],
            "type" : "VEC3"
        },
        {
            "bufferView" : 13,
            "componentType" : 5126,
            "count" : 704,
            "type" : "VEC3"
        },
        {
            "bufferView" : 14,
            "componentType" : 5123,
            "count" : 1824,
            "type" : "SCALAR"
        },
        {
            "bufferView" : 15,
            "componentType" : 5126,
            "count" : 1144,
            "max" : [
                0.05544634163379669,
                0.16010241210460663,
                0.6691495776176453
            ],
            "min" : [
                -0.05544637516140938,
                -0.7236608862876892,
                -0.009445112198591232
            ],
            "type" : "VEC3"
        },
        {
            "bufferView" : 16,
            "componentType" : 5126,
            "count" : 1144,
            "type" : "VEC3"
        },
        {
            "bufferView" : 17,
            "componentType" : 5126,
            "count" : 1144,
            "type" : "VEC2"
        },
        {
            "bufferView" : 18,
            "componentType" : 5123,
            "count" : 1170,
            "type" : "SCALAR"
        },
        {
            "bufferView" : 19,
            "componentType" : 5126,
            "count" : 272,
            "max" : [
                0.5544635653495789,
                0.15048664808273315,
                0.5518918037414551
            ],
            "min" : [
                -0.5544635653495789,
                -0.27451419830322266,
                -0.5570354461669922
            ],
            "type" : "VEC3"
        },
        {
            "bufferView" : 20,
            "componentType" : 5126,
            "count" : 272,
            "type" : "VEC3"
        },
        {
            "bufferView" : 21,
            "componentType" : 5126,
            "count" : 272,
            "type" : "VEC2"
        },
        {
            "bufferView" : 22,
            "componentType" : 5123,
            "count" : 288,
            "type" : "SCALAR"
        },
        {
            "bufferView" : 23,
            "componentType" : 5126,
            "count" : 49,
            "max" : [
                2
            ],
            "min" : [
                0
            ],
            "type" : "SCALAR"
        },
        {
            "bufferView" : 24,
            "componentType" : 5126,
            "count" : 49,
            "type" : "VEC3"
        },
        {
            "bufferView" : 25,
            "componentType" : 5126,
            "count" : 49,
            "type" : "VEC4"
        },
        {
            "bufferView" : 26,
            "componentType" : 5126,
            "count" : 49,
            "type" : "VEC3"
        }
    ],
    "bufferViews" : [
        {
            "buffer" : 0,
            "byteLength" : 380808,
            "byteOffset" : 0
        },
        {
            "buffer" : 0,
            "byteLength" : 380808,
            "byteOffset" : 380808
        },
        {
            "buffer" : 0,
            "byteLength" : 174864,
            "byteOffset" : 761616
        },
        {
            "buffer" : 0,
            "byteLength" : 279588,
            "byteOffset" : 936480
        },
        {
            "buffer" : 0,
            "byteLength" : 279588,
            "byteOffset" : 1216068
        },
        {
            "buffer" : 0,
            "byteLength" : 200856,
            "byteOffset" : 1495656
        },
        {
            "buffer" : 0,
            "byteLength" : 209724,
            "byteOffset" : 1696512
        },
        {
            "buffer" : 0,
            "byteLength" : 209724,
            "byteOffset" : 1906236
        },
        {
            "buffer" : 0,
            "byteLength" : 151152,
            "byteOffset" : 2115960
        },
        {
            "buffer" : 0,
            "byteLength" : 408,
            "byteOffset" : 2267112
        },
        {
            "buffer" : 0,
            "byteLength" : 408,
            "byteOffset" : 2267520
        },
        {
            "buffer" : 0,
            "byteLength" : 144,
            "byteOffset" : 2267928
        },
        {
            "buffer" : 0,
            "byteLength" : 8448,
            "byteOffset" : 2268072
        },
        {
            "buffer" : 0,
            "byteLength" : 8448,
            "byteOffset" : 2276520
        },
        {
            "buffer" : 0,
            "byteLength" : 3648,
            "byteOffset" : 2284968
        },
        {
            "buffer" : 0,
            "byteLength" : 13728,
            "byteOffset" : 2288616
        },
        {
            "buffer" : 0,
            "byteLength" : 13728,
            "byteOffset" : 2302344
        },
        {
            "buffer" : 0,
            "byteLength" : 9152,
            "byteOffset" : 2316072
        },
        {
            "buffer" : 0,
            "byteLength" : 2340,
            "byteOffset" : 2325224
        },
        {
            "buffer" : 0,
            "byteLength" : 3264,
            "byteOffset" : 2327564
        },
        {
            "buffer" : 0,
            "byteLength" : 3264,
            "byteOffset" : 2330828
        },
        {
            "buffer" : 0,
            "byteLength" : 2176,
            "byteOffset" : 2334092
        },
        {
            "buffer" : 0,
            "byteLength" : 576,
            "byteOffset" : 2336268
        },
        {
            "buffer" : 0,
            "byteLength" : 196,
            "byteOffset" : 2336844
        },
        {
            "buffer" : 0,
            "byteLength" : 588,
            "byteOffset" : 2337040
        },
        {
            "buffer" : 0,
            "byteLength" : 784,
            "byteOffset" : 2337628
        },
        {
            "buffer" : 0,
            "byteLength" : 588,
            "byteOffset" : 2338412
        }
    ],
    "buffers" : [
        {
            "byteLength" : 2339000,
            "uri" : "data:application/octet-stream;base64,"
        }
    ]
}
