{
    "asset" : {
        "generator" : "Khronos glTF Blender I/O v1.0.5",
        "version" : "2.0"
    },
    "scene" : 0,
    "scenes" : [
        {
            "name" : "Scene",
            "nodes" : [
                0,
                1
            ]
        }
    ],
    "nodes" : [
        {
            "mesh" : 0,
            "name" : "Plane",
            "translation" : [
                0,
                1.1040053367614746,
                0
            ]
        },
        {
            "mesh" : 1,
            "name" : "Icosphere",
            "scale" : [
                0.4392995238304138,
                0.4392995238304138,
                0.4392995238304138
            ],
            "translation" : [
                0.01302480697631836,
                0.6077620387077332,
                0.08304029703140259
            ]
        }
    ],
    "animations" : [
        {
            "channels" : [
                {
                    "sampler" : 0,
                    "target" : {
                        "node" : 0,
                        "path" : "translation"
                    }
                },
                {
                    "sampler" : 1,
                    "target" : {
                        "node" : 0,
                        "path" : "rotation"
                    }
                },
                {
                    "sampler" : 2,
                    "target" : {
                        "node" : 0,
                        "path" : "scale"
                    }
                }
            ],
            "name" : "PlaneAction",
            "samplers" : [
                {
                    "input" : 8,
                    "interpolation" : "LINEAR",
                    "output" : 9
                },
                {
                    "input" : 8,
                    "interpolation" : "LINEAR",
                    "output" : 10
                },
                {
                    "input" : 8,
                    "interpolation" : "LINEAR",
                    "output" : 11
                }
            ]
        },
        {
            "channels" : [
                {
                    "sampler" : 0,
                    "target" : {
                        "node" : 1,
                        "path" : "translation"
                    }
                },
                {
                    "sampler" : 1,
                    "target" : {
                        "node" : 1,
                        "path" : "rotation"
                    }
                },
                {
                    "sampler" : 2,
                    "target" : {
                        "node" : 1,
                        "path" : "scale"
                    }
                }
            ],
            "name" : "IcosphereAction",
            "samplers" : [
                {
                    "input" : 12,
                    "interpolation" : "STEP",
                    "output" : 13
                },
                {
                    "input" : 12,
                    "interpolation" : "STEP",
                    "output" : 14
                },
                {
                    "input" : 12,
                    "interpolation" : "STEP",
                    "output" : 15
                }
            ]
        }
    ],
    "materials" : [
        {
            "doubleSided" : true,
            "name" : "Material.002",
            "pbrMetallicRoughness" : {
                "baseColorFactor" : [
                    0.028651632368564606,
                    0.2430407553911209,
                    0.8000000715255737,
                    1
                ],
                "metallicFactor" : 0.4141414165496826,
                "roughnessFactor" : 0.8333333730697632
            }
        }
    ],
    "meshes" : [
        {
            "name" : "Plane",
            "primitives" : [
                {
                    "attributes" : {
                        "POSITION" : 0,
                        "NORMAL" : 1,
                        "TEXCOORD_0" : 2
                    },
                    "indices" : 3,
                    "material" : 0
                }
            ]
        },
        {
            "name" : "Icosphere",
            "primitives" : [
                {
                    "attributes" : {
                        "POSITION" : 4,
                        "NORMAL" : 5,
                        "TEXCOORD_0" : 6
                    },
                    "indices" : 7
                }
            ]
        }
    ],
    "accessors" : [
        {
            "bufferView" : 0,
            "componentType" : 5126,
            "count" : 10107,
            "max" : [
                1.0342568159103394,
                0.05687299370765686,
                1.0411901473999023
            ],
            "min" : [
                -1.0489522218704224,
                -0.140715092420578,
                -1.0598161220550537
            ],
            "type" : "VEC3"
        },
        {
            "bufferView" : 1,
            "componentType" : 5126,
            "count" : 10107,
            "type" : "VEC3"
        },
        {
            "bufferView" : 2,
            "componentType" : 5126,
            "count" : 10107,
            "type" : "VEC2"
        },
        {
            "bufferView" : 3,
            "componentType" : 5123,
            "count" : 15606,
            "type" : "SCALAR"
        },
        {
            "bufferView" : 4,
            "componentType" : 5126,
            "count" : 3840,
            "max" : [
                0.4188207685947418,
                1.0164448022842407,
                0.48933252692222595
            ],
            "min" : [
                -0.3927711248397827,
                0.1990794837474823,
                -0.323251873254776
            ],
            "type" : "VEC3"
        },
        {
            "bufferView" : 5,
            "componentType" : 5126,
            "count" : 3840,
            "type" : "VEC3"
        },
        {
            "bufferView" : 6,
            "componentType" : 5126,
            "count" : 3840,
            "type" : "VEC2"
        },
        {
            "bufferView" : 7,
            "componentType" : 5123,
            "count" : 5760,
            "type" : "SCALAR"
        },
        {
            "bufferView" : 8,
            "componentType" : 5126,
            "count" : 238,
            "max" : [
                9.916666666666666
            ],
            "min" : [
                0.041666666666666664
            ],
            "type" : "SCALAR"
        },
        {
            "bufferView" : 9,
            "componentType" : 5126,
            "count" : 238,
            "type" : "VEC3"
        },
        {
            "bufferView" : 10,
            "componentType" : 5126,
            "count" : 238,
            "type" : "VEC4"
        },
        {
            "bufferView" : 11,
            "componentType" : 5126,
            "count" : 238,
            "type" : "VEC3"
        },
        {
            "bufferView" : 12,
            "componentType" : 5126,
            "count" : 1,
            "max" : [
                0.041666666666666664
            ],
            "min" : [
                0.041666666666666664
            ],
            "type" : "SCALAR"
        },
        {
            "bufferView" : 13,
            "componentType" : 5126,
            "count" : 1,
            "type" : "VEC3"
        },
        {
            "bufferView" : 14,
            "componentType" : 5126,
            "count" : 1,
            "type" : "VEC4"
        },
        {
            "bufferView" : 15,
            "componentType" : 5126,
            "count" : 1,
            "type" : "VEC3"
        }
    ],
    "bufferViews" : [
        {
            "buffer" : 0,
            "byteLength" : 121284,
            "byteOffset" : 0
        },
        {
            "buffer" : 0,
            "byteLength" : 121284,
            "byteOffset" : 121284
        },
        {
            "buffer" : 0,
            "byteLength" : 80856,
            "byteOffset" : 242568
        },
        {
            "buffer" : 0,
            "byteLength" : 31212,
            "byteOffset" : 323424
        },
        {
            "buffer" : 0,
            "byteLength" : 46080,
            "byteOffset" : 354636
        },
        {
            "buffer" : 0,
            "byteLength" : 46080,
            "byteOffset" : 400716
        },
        {
            "buffer" : 0,
            "byteLength" : 30720,
            "byteOffset" : 446796
        },
        {
            "buffer" : 0,
            "byteLength" : 11520,
            "byteOffset" : 477516
        },
        {
            "buffer" : 0,
            "byteLength" : 952,
            "byteOffset" : 489036
        },
        {
            "buffer" : 0,
            "byteLength" : 2856,
            "byteOffset" : 489988
        },
        {
            "buffer" : 0,
            "byteLength" : 3808,
            "byteOffset" : 492844
        },
        {
            "buffer" : 0,
            "byteLength" : 2856,
            "byteOffset" : 496652
        },
        {
            "buffer" : 0,
            "byteLength" : 4,
            "byteOffset" : 499508
        },
        {
            "buffer" : 0,
            "byteLength" : 12,
            "byteOffset" : 499512
        },
        {
            "buffer" : 0,
            "byteLength" : 16,
            "byteOffset" : 499524
        },
        {
            "buffer" : 0,
            "byteLength" : 12,
            "byteOffset" : 499540
        }
    ],
    "buffers" : [
        {
            "byteLength" : 499552,
            "uri" : "data:application/octet-stream;base64,"
        }
    ]
}
