{
    "asset" : {
        "generator" : "Khronos glTF Blender I/O v1.0.5",
        "version" : "2.0"
    },
    "extensionsUsed" : [
        "KHR_lights_punctual"
    ],
    "extensionsRequired" : [
        "KHR_lights_punctual"
    ],
    "extensions" : {
        "KHR_lights_punctual" : {
            "lights" : [
                {
                    "color" : [
                        0.25697824358940125,
                        0.7562048435211182,
                        1
                    ],
                    "intensity" : 200,
                    "type" : "point",
                    "name" : "Light"
                },
                {
                    "color" : [
                        0.003257370088249445,
                        1,
                        0.7094310522079468
                    ],
                    "intensity" : 50,
                    "spot" : {
                        "innerConeAngle" : 0.3180443843457894,
                        "outerConeAngle" : 0.6276575326919556
                    },
                    "type" : "spot",
                    "name" : "Spot"
                },
                {
                    "color" : [
                        0.6046018004417419,
                        0.4166237711906433,
                        1
                    ],
                    "intensity" : 500,
                    "type" : "point",
                    "name" : "Light.001"
                },
                {
                    "color" : [
                        0.8282471895217896,
                        0.4655194878578186,
                        1
                    ],
                    "intensity" : 1000,
                    "type" : "point",
                    "name" : "Light.002"
                }
            ]
        }
    },
    "scene" : 0,
    "scenes" : [
        {
            "name" : "Scene",
            "nodes" : [
                0,
                2,
                4,
                6,
                8,
                10
            ]
        }
    ],
    "nodes" : [
        {
            "mesh" : 0,
            "name" : "Cube",
            "translation" : [
                0,
                0.565122127532959,
                0
            ]
        },
        {
            "extensions" : {
                "KHR_lights_punctual" : {
                    "light" : 0
                }
            },
            "name" : "Light_Orientation",
            "rotation" : [
                -0.7071067690849304,
                0,
                0,
                0.7071067690849304
            ]
        },
        {
            "children" : [
                1
            ],
            "name" : "Light",
            "rotation" : [
                0.16907575726509094,
                0.7558803558349609,
                -0.27217137813568115,
                0.570947527885437
            ],
            "translation" : [
                -2.189687967300415,
                0.6465978622436523,
                0.2632303237915039
            ]
        },
        {
            "extensions" : {
                "KHR_lights_punctual" : {
                    "light" : 1
                }
            },
            "name" : "Spot_Orientation",
            "rotation" : [
                -0.7071067690849304,
                0,
                0,
                0.7071067690849304
            ]
        },
        {
            "children" : [
                3
            ],
            "name" : "Spot",
            "rotation" : [
                0.12344667315483093,
                -0.13563919067382812,
                0.02192121185362339,
                -0.9827931523323059
            ],
            "scale" : [
                -0.3241269588470459,
                -0.3241269588470459,
                -0.3241269588470459
            ],
            "translation" : [
                -0.022905051708221436,
                0.8838049173355103,
                0.03841989487409592
            ]
        },
        {
            "extensions" : {
                "KHR_lights_punctual" : {
                    "light" : 2
                }
            },
            "name" : "Light.001_Orientation",
            "rotation" : [
                -0.7071067690849304,
                0,
                0,
                0.7071067690849304
            ]
        },
        {
            "children" : [
                5
            ],
            "name" : "Light.001",
            "rotation" : [
                0.3993419110774994,
                0.6636773943901062,
                -0.4386936128139496,
                0.4556382894515991
            ],
            "translation" : [
                2.4230427742004395,
                1.6991841793060303,
                -2.509328603744507
            ]
        },
        {
            "extensions" : {
                "KHR_lights_punctual" : {
                    "light" : 3
                }
            },
            "name" : "Light.002_Orientation",
            "rotation" : [
                -0.7071067690849304,
                0,
                0,
                0.7071067690849304
            ]
        },
        {
            "children" : [
                7
            ],
            "name" : "Light.002",
            "rotation" : [
                0.3993419110774994,
                0.6636773943901062,
                -0.4386936128139496,
                0.4556382894515991
            ],
            "translation" : [
                1.3594753742218018,
                1.561671495437622,
                2.5609841346740723
            ]
        },
        {
            "camera" : 0,
            "name" : "Camera.001_Orientation",
            "rotation" : [
                -0.7071067690849304,
                0,
                0,
                0.7071067690849304
            ]
        },
        {
            "children" : [
                9
            ],
            "name" : "Camera.001",
            "rotation" : [
                0.12032303214073181,
                -0.7407699227333069,
                0.644392192363739,
                0.14676856994628906
            ],
            "translation" : [
                -2.198385238647461,
                1.872021198272705,
                -5.681375026702881
            ]
        }
    ],
    "cameras" : [
        {
            "name" : "Camera.001",
            "perspective" : {
                "yfov" : 0.39959648408210363,
                "zfar" : 1000,
                "znear" : 0.10000000149011612
            },
            "type" : "perspective"
        }
    ],
    "materials" : [
        {
            "doubleSided" : true,
            "name" : "Material",
            "pbrMetallicRoughness" : {
                "baseColorFactor" : [
                    0.0014113177312538028,
                    0,
                    0.004532977007329464,
                    1
                ],
                "metallicFactor" : 0.7666666507720947,
                "roughnessFactor" : 0.25833332538604736
            }
        },
        {
            "doubleSided" : true,
            "name" : "Material.001",
            "pbrMetallicRoughness" : {
                "baseColorFactor" : [
                    0.09842272847890854,
                    0.8000000715255737,
                    0.5674855709075928,
                    1
                ],
                "metallicFactor" : 0,
                "roughnessFactor" : 0
            }
        }
    ],
    "meshes" : [
        {
            "name" : "Cube",
            "primitives" : [
                {
                    "attributes" : {
                        "POSITION" : 0,
                        "NORMAL" : 1,
                        "TANGENT" : 2,
                        "TEXCOORD_0" : 3
                    },
                    "indices" : 4,
                    "material" : 0
                },
                {
                    "attributes" : {
                        "POSITION" : 5,
                        "NORMAL" : 6,
                        "TANGENT" : 7,
                        "TEXCOORD_0" : 8
                    },
                    "indices" : 9,
                    "material" : 1
                }
            ]
        }
    ],
    "accessors" : [
        {
            "bufferView" : 0,
            "componentType" : 5126,
            "count" : 72,
            "max" : [
                0.5,
                0.5525058507919312,
                0.5
            ],
            "min" : [
                -0.5,
                -0.3153719902038574,
                -0.5
            ],
            "type" : "VEC3"
        },
        {
            "bufferView" : 1,
            "componentType" : 5126,
            "count" : 72,
            "type" : "VEC3"
        },
        {
            "bufferView" : 2,
            "componentType" : 5126,
            "count" : 72,
            "type" : "VEC4"
        },
        {
            "bufferView" : 3,
            "componentType" : 5126,
            "count" : 72,
            "type" : "VEC2"
        },
        {
            "bufferView" : 4,
            "componentType" : 5123,
            "count" : 108,
            "type" : "SCALAR"
        },
        {
            "bufferView" : 5,
            "componentType" : 5126,
            "count" : 97,
            "max" : [
                0.29596081376075745,
                0.7021803855895996,
                0.29596081376075745
            ],
            "min" : [
                -0.29596081376075745,
                0.23938505351543427,
                -0.29596081376075745
            ],
            "type" : "VEC3"
        },
        {
            "bufferView" : 6,
            "componentType" : 5126,
            "count" : 97,
            "type" : "VEC3"
        },
        {
            "bufferView" : 7,
            "componentType" : 5126,
            "count" : 97,
            "type" : "VEC4"
        },
        {
            "bufferView" : 8,
            "componentType" : 5126,
            "count" : 97,
            "type" : "VEC2"
        },
        {
            "bufferView" : 9,
            "componentType" : 5123,
            "count" : 150,
            "type" : "SCALAR"
        }
    ],
    "bufferViews" : [
        {
            "buffer" : 0,
            "byteLength" : 864,
            "byteOffset" : 0
        },
        {
            "buffer" : 0,
            "byteLength" : 864,
            "byteOffset" : 864
        },
        {
            "buffer" : 0,
            "byteLength" : 1152,
            "byteOffset" : 1728
        },
        {
            "buffer" : 0,
            "byteLength" : 576,
            "byteOffset" : 2880
        },
        {
            "buffer" : 0,
            "byteLength" : 216,
            "byteOffset" : 3456
        },
        {
            "buffer" : 0,
            "byteLength" : 1164,
            "byteOffset" : 3672
        },
        {
            "buffer" : 0,
            "byteLength" : 1164,
            "byteOffset" : 4836
        },
        {
            "buffer" : 0,
            "byteLength" : 1552,
            "byteOffset" : 6000
        },
        {
            "buffer" : 0,
            "byteLength" : 776,
            "byteOffset" : 7552
        },
        {
            "buffer" : 0,
            "byteLength" : 300,
            "byteOffset" : 8328
        }
    ],
    "buffers" : [
        {
            "byteLength" : 8628,
            "uri" : "data:application/octet-stream;base64,"
        }
    ]
}
