{
    "asset" : {
        "generator" : "Khronos glTF Blender I/O v1.0.5",
        "version" : "2.0"
    },
    "extensionsUsed" : [
        "KHR_lights_punctual"
    ],
    "extensionsRequired" : [
        "KHR_lights_punctual"
    ],
    "extensions" : {
        "KHR_lights_punctual" : {
            "lights" : [
                {
                    "color" : [
                        0.4833047389984131,
                        1,
                        0.1141202300786972
                    ],
                    "intensity" : 200,
                    "spot" : {
                        "innerConeAngle" : 0.17608775596522053,
                        "outerConeAngle" : 0.2071620672941208
                    },
                    "type" : "spot",
                    "range" : 2,
                    "name" : "Light"
                },
                {
                    "color" : [
                        0.6321340799331665,
                        1,
                        0.03130599483847618
                    ],
                    "intensity" : 10,
                    "type" : "point",
                    "name" : "Spot"
                },
                {
                    "color" : [
                        0.6046018004417419,
                        0.4166237711906433,
                        1
                    ],
                    "intensity" : 100,
                    "type" : "point",
                    "name" : "Light.001"
                },
                {
                    "color" : [
                        0.8282471895217896,
                        0.4655194878578186,
                        1
                    ],
                    "intensity" : 1000,
                    "type" : "point",
                    "name" : "Light.002"
                }
            ]
        }
    },
    "scene" : 0,
    "scenes" : [
        {
            "name" : "Scene",
            "nodes" : [
                0,
                2,
                4,
                6,
                8,
                9
            ]
        }
    ],
    "nodes" : [
        {
            "mesh" : 0,
            "name" : "Cube",
            "translation" : [
                0,
                0.565122127532959,
                0
            ]
        },
        {
            "extensions" : {
                "KHR_lights_punctual" : {
                    "light" : 0
                }
            },
            "name" : "Light_Orientation",
            "rotation" : [
                -0.7071067690849304,
                0,
                0,
                0.7071067690849304
            ]
        },
        {
            "children" : [
                1
            ],
            "name" : "Light",
            "rotation" : [
                0.2533191442489624,
                0.07694122195243835,
                0.2507515251636505,
                0.9311461448669434
            ],
            "translation" : [
                -14.53956127166748,
                24.924179077148438,
                17.652313232421875
            ]
        },
        {
            "extensions" : {
                "KHR_lights_punctual" : {
                    "light" : 1
                }
            },
            "name" : "Spot_Orientation",
            "rotation" : [
                -0.7071067690849304,
                0,
                0,
                0.7071067690849304
            ]
        },
        {
            "children" : [
                3
            ],
            "name" : "Spot",
            "rotation" : [
                0.12344667315483093,
                -0.13563919067382812,
                0.02192121185362339,
                -0.9827931523323059
            ],
            "scale" : [
                -0.3241269588470459,
                -0.3241269588470459,
                -0.3241269588470459
            ],
            "translation" : [
                -0.022905051708221436,
                0.8838049173355103,
                0.03841989487409592
            ]
        },
        {
            "extensions" : {
                "KHR_lights_punctual" : {
                    "light" : 2
                }
            },
            "name" : "Light.001_Orientation",
            "rotation" : [
                -0.7071067690849304,
                0,
                0,
                0.7071067690849304
            ]
        },
        {
            "children" : [
                5
            ],
            "name" : "Light.001",
            "rotation" : [
                0.3993419110774994,
                0.6636773943901062,
                -0.4386936128139496,
                0.4556382894515991
            ],
            "translation" : [
                2.4230427742004395,
                1.6991841793060303,
                -2.509328603744507
            ]
        },
        {
            "extensions" : {
                "KHR_lights_punctual" : {
                    "light" : 3
                }
            },
            "name" : "Light.002_Orientation",
            "rotation" : [
                -0.7071067690849304,
                0,
                0,
                0.7071067690849304
            ]
        },
        {
            "children" : [
                7
            ],
            "name" : "Light.002",
            "rotation" : [
                0.3993419110774994,
                0.6636773943901062,
                -0.4386936128139496,
                0.4556382894515991
            ],
            "translation" : [
                1.3594753742218018,
                1.561671495437622,
                2.5609841346740723
            ]
        },
        {
            "name" : "Camera",
            "rotation" : [
                0.5238179564476013,
                0.38694900274276733,
                -0.283724844455719,
                0.70383620262146
            ],
            "translation" : [
                8.027193069458008,
                4.3499345779418945,
                8.710609436035156
            ]
        }
    ],
    "materials" : [
        {
            "doubleSided" : true,
            "name" : "Material",
            "pbrMetallicRoughness" : {
                "baseColorFactor" : [
                    0.007257112767547369,
                    0.00285288505256176,
                    0.0385361984372139,
                    1
                ],
                "metallicFactor" : 0.8878787755966187,
                "roughnessFactor" : 0.39974746108055115
            }
        },
        {
            "alphaMode" : "BLEND",
            "doubleSided" : true,
            "name" : "Material.001",
            "pbrMetallicRoughness" : {
                "baseColorFactor" : [
                    1,
                    1,
                    1,
                    1
                ],
                "metallicFactor" : 0,
                "roughnessFactor" : 1
            }
        }
    ],
    "meshes" : [
        {
            "name" : "Cube",
            "primitives" : [
                {
                    "attributes" : {
                        "POSITION" : 0,
                        "NORMAL" : 1,
                        "TEXCOORD_0" : 2
                    },
                    "indices" : 3,
                    "material" : 0
                },
                {
                    "attributes" : {
                        "POSITION" : 4,
                        "NORMAL" : 5,
                        "TEXCOORD_0" : 6
                    },
                    "indices" : 7,
                    "material" : 1
                }
            ]
        }
    ],
    "accessors" : [
        {
            "bufferView" : 0,
            "componentType" : 5126,
            "count" : 72,
            "max" : [
                0.5,
                0.5525058507919312,
                0.5
            ],
            "min" : [
                -0.5,
                -0.3153719902038574,
                -0.5
            ],
            "type" : "VEC3"
        },
        {
            "bufferView" : 1,
            "componentType" : 5126,
            "count" : 72,
            "type" : "VEC3"
        },
        {
            "bufferView" : 2,
            "componentType" : 5126,
            "count" : 72,
            "type" : "VEC2"
        },
        {
            "bufferView" : 3,
            "componentType" : 5123,
            "count" : 108,
            "type" : "SCALAR"
        },
        {
            "bufferView" : 4,
            "componentType" : 5126,
            "count" : 97,
            "max" : [
                0.29596081376075745,
                0.7021803855895996,
                0.29596081376075745
            ],
            "min" : [
                -0.29596081376075745,
                0.23938505351543427,
                -0.29596081376075745
            ],
            "type" : "VEC3"
        },
        {
            "bufferView" : 5,
            "componentType" : 5126,
            "count" : 97,
            "type" : "VEC3"
        },
        {
            "bufferView" : 6,
            "componentType" : 5126,
            "count" : 97,
            "type" : "VEC2"
        },
        {
            "bufferView" : 7,
            "componentType" : 5123,
            "count" : 150,
            "type" : "SCALAR"
        }
    ],
    "bufferViews" : [
        {
            "buffer" : 0,
            "byteLength" : 864,
            "byteOffset" : 0
        },
        {
            "buffer" : 0,
            "byteLength" : 864,
            "byteOffset" : 864
        },
        {
            "buffer" : 0,
            "byteLength" : 576,
            "byteOffset" : 1728
        },
        {
            "buffer" : 0,
            "byteLength" : 216,
            "byteOffset" : 2304
        },
        {
            "buffer" : 0,
            "byteLength" : 1164,
            "byteOffset" : 2520
        },
        {
            "buffer" : 0,
            "byteLength" : 1164,
            "byteOffset" : 3684
        },
        {
            "buffer" : 0,
            "byteLength" : 776,
            "byteOffset" : 4848
        },
        {
            "buffer" : 0,
            "byteLength" : 300,
            "byteOffset" : 5624
        }
    ],
    "buffers" : [
        {
            "byteLength" : 5924,
            "uri" : "data:application/octet-stream;base64,"
        }
    ]
}
