{
    "asset" : {
        "generator" : "Khronos glTF Blender I/O v1.1.46",
        "version" : "2.0"
    },
    "scene" : 0,
    "scenes" : [
        {
            "extras" : {
                "rpr" : {
                    "limits" : {
                        "min_samples" : 16
                    },
                    "viewport_limits" : {
                        "max_samples" : 128,
                        "min_samples" : 16,
                        "preview_samples" : 32
                    },
                    "use_tile_render" : 0
                }
            },
            "name" : "Scene",
            "nodes" : [
                0
            ]
        }
    ],
    "nodes" : [
        {
            "mesh" : 0,
            "name" : "mangoCrossSectionMeshed.005",
            "rotation" : [
                0.18301273882389069,
                0.18301264941692352,
                -0.6830126643180847,
                0.6830127239227295
            ],
            "scale" : [
                0.6457511782646179,
                -0.6457511782646179,
                0.6457511782646179
            ],
            "translation" : [
                0,
                1.4528422355651855,
                2.9983911514282227
            ]
        }
    ],
    "materials" : [
        {
            "doubleSided" : true,
            "emissiveFactor" : [
                0,
                0,
                0
            ],
            "name" : "Material.005",
            "pbrMetallicRoughness" : {
                "baseColorFactor" : [
                    0.8000000715255737,
                    0.31362348794937134,
                    0,
                    1
                ],
                "metallicFactor" : 0,
                "roughnessFactor" : 0.800000011920929
            }
        },
        {
            "doubleSided" : true,
            "emissiveFactor" : [
                0,
                0,
                0
            ],
            "name" : "Material.006",
            "pbrMetallicRoughness" : {
                "baseColorFactor" : [
                    0.07998673617839813,
                    0.04078999161720276,
                    0.016456015408039093,
                    1
                ],
                "metallicFactor" : 0,
                "roughnessFactor" : 1
            }
        }
    ],
    "meshes" : [
        {
            "name" : "BezierCurve.007",
            "primitives" : [
                {
                    "attributes" : {
                        "POSITION" : 0,
                        "NORMAL" : 1,
                        "TEXCOORD_0" : 2
                    },
                    "indices" : 3,
                    "material" : 0
                },
                {
                    "attributes" : {
                        "POSITION" : 4,
                        "NORMAL" : 5,
                        "TEXCOORD_0" : 6
                    },
                    "indices" : 7,
                    "material" : 1
                }
            ]
        }
    ],
    "accessors" : [
        {
            "bufferView" : 0,
            "componentType" : 5126,
            "count" : 1466,
            "max" : [
                1.6818751096725464,
                1.1916897296905518,
                1.2420222759246826
            ],
            "min" : [
                -2.0178797245025635,
                -1.1916897296905518,
                -1.789135217666626
            ],
            "type" : "VEC3"
        },
        {
            "bufferView" : 1,
            "componentType" : 5126,
            "count" : 1466,
            "type" : "VEC3"
        },
        {
            "bufferView" : 2,
            "componentType" : 5126,
            "count" : 1466,
            "type" : "VEC2"
        },
        {
            "bufferView" : 3,
            "componentType" : 5123,
            "count" : 2022,
            "type" : "SCALAR"
        },
        {
            "bufferView" : 4,
            "componentType" : 5126,
            "count" : 192,
            "max" : [
                -1.4052324295043945,
                0.08141346275806427,
                -1.0997673273086548
            ],
            "min" : [
                -1.6344103813171387,
                -0.0814136192202568,
                -1.3288949728012085
            ],
            "type" : "VEC3"
        },
        {
            "bufferView" : 5,
            "componentType" : 5126,
            "count" : 192,
            "type" : "VEC3"
        },
        {
            "bufferView" : 6,
            "componentType" : 5126,
            "count" : 192,
            "type" : "VEC2"
        },
        {
            "bufferView" : 7,
            "componentType" : 5123,
            "count" : 372,
            "type" : "SCALAR"
        }
    ],
    "bufferViews" : [
        {
            "buffer" : 0,
            "byteLength" : 17592,
            "byteOffset" : 0
        },
        {
            "buffer" : 0,
            "byteLength" : 17592,
            "byteOffset" : 17592
        },
        {
            "buffer" : 0,
            "byteLength" : 11728,
            "byteOffset" : 35184
        },
        {
            "buffer" : 0,
            "byteLength" : 4044,
            "byteOffset" : 46912
        },
        {
            "buffer" : 0,
            "byteLength" : 2304,
            "byteOffset" : 50956
        },
        {
            "buffer" : 0,
            "byteLength" : 2304,
            "byteOffset" : 53260
        },
        {
            "buffer" : 0,
            "byteLength" : 1536,
            "byteOffset" : 55564
        },
        {
            "buffer" : 0,
            "byteLength" : 744,
            "byteOffset" : 57100
        }
    ],
    "buffers" : [
        {
            "byteLength" : 57844,
            "uri" : "data:application/octet-stream;base64,"
        }
    ]
}
