{
    "asset" : {
        "generator" : "Khronos glTF Blender I/O v1.0.5",
        "version" : "2.0"
    },
    "extensionsUsed" : [
        "KHR_lights_punctual"
    ],
    "extensionsRequired" : [
        "KHR_lights_punctual"
    ],
    "extensions" : {
        "KHR_lights_punctual" : {
            "lights" : [
                {
                    "color" : [
                        1,
                        0,
                        0.6822445392608643
                    ],
                    "intensity" : 615.800048828125,
                    "type" : "point",
                    "name" : "Light"
                },
                {
                    "color" : [
                        0,
                        0.2203843742609024,
                        1
                    ],
                    "intensity" : 1000,
                    "type" : "point",
                    "name" : "Light.001"
                }
            ]
        }
    },
    "scene" : 0,
    "scenes" : [
        {
            "name" : "Scene",
            "nodes" : [
                1,
                2,
                3,
                4,
                5,
                6,
                7,
                9
            ]
        }
    ],
    "nodes" : [
        {
            "extensions" : {
                "KHR_lights_punctual" : {
                    "light" : 0
                }
            },
            "name" : "Light_Orientation",
            "rotation" : [
                -0.7071067690849304,
                0,
                0,
                0.7071067690849304
            ]
        },
        {
            "children" : [
                0
            ],
            "name" : "Light",
            "rotation" : [
                0.16907575726509094,
                0.7558803558349609,
                -0.27217137813568115,
                0.570947527885437
            ],
            "translation" : [
                4.076245307922363,
                5.903861999511719,
                -1.0054539442062378
            ]
        },
        {
            "mesh" : 0,
            "name" : "Torus",
            "scale" : [
                4.577035427093506,
                13.084320068359375,
                4.577035427093506
            ]
        },
        {
            "mesh" : 1,
            "name" : "Sphere",
            "scale" : [
                0.25,
                0.25,
                0.24999994039535522
            ],
            "translation" : [
                0,
                0,
                6.857830047607422
            ]
        },
        {
            "mesh" : 2,
            "name" : "Sphere.001",
            "scale" : [
                0.25,
                0.25,
                0.24999994039535522
            ],
            "translation" : [
                0,
                0,
                -8.905962944030762
            ]
        },
        {
            "mesh" : 3,
            "name" : "Sphere.002",
            "scale" : [
                0.25,
                0.25,
                0.24999994039535522
            ],
            "translation" : [
                7.191167831420898,
                0,
                -0.07540655136108398
            ]
        },
        {
            "mesh" : 4,
            "name" : "Sphere.003",
            "scale" : [
                0.25,
                0.25,
                0.24999994039535522
            ],
            "translation" : [
                0,
                0,
                -2
            ]
        },
        {
            "mesh" : 5,
            "name" : "Sphere.004",
            "scale" : [
                0.25,
                0.25,
                0.24999994039535522
            ],
            "translation" : [
                -8.805036544799805,
                0,
                -0.07540655136108398
            ]
        },
        {
            "extensions" : {
                "KHR_lights_punctual" : {
                    "light" : 1
                }
            },
            "name" : "Light.001_Orientation",
            "rotation" : [
                -0.7071067690849304,
                0,
                0,
                0.7071067690849304
            ]
        },
        {
            "children" : [
                8
            ],
            "name" : "Light.001",
            "rotation" : [
                0.16907575726509094,
                0.7558803558349609,
                -0.27217137813568115,
                0.570947527885437
            ],
            "translation" : [
                0.1602790355682373,
                0.3142690658569336,
                10.062679290771484
            ]
        }
    ],
    "materials" : [
        {
            "doubleSided" : true,
            "name" : "Material.001",
            "pbrMetallicRoughness" : {
                "baseColorFactor" : [
                    1,
                    0.9355295896530151,
                    0,
                    1
                ],
                "metallicFactor" : 0,
                "roughnessFactor" : 0.5
            }
        },
        {
            "doubleSided" : true,
            "name" : "Material.002",
            "pbrMetallicRoughness" : {
                "baseColorFactor" : [
                    0,
                    0.3568883538246155,
                    1,
                    1
                ],
                "metallicFactor" : 1,
                "roughnessFactor" : 0.5707070827484131
            }
        },
        {
            "doubleSided" : true,
            "name" : "Material.003",
            "pbrMetallicRoughness" : {
                "baseColorFactor" : [
                    0,
                    0.3568883538246155,
                    1,
                    1
                ],
                "metallicFactor" : 1,
                "roughnessFactor" : 0.5707070827484131
            }
        },
        {
            "doubleSided" : true,
            "name" : "Material.004",
            "pbrMetallicRoughness" : {
                "baseColorFactor" : [
                    0,
                    0.3568883538246155,
                    1,
                    1
                ],
                "metallicFactor" : 1,
                "roughnessFactor" : 0.5707070827484131
            }
        },
        {
            "doubleSided" : true,
            "name" : "Material.005",
            "pbrMetallicRoughness" : {
                "baseColorFactor" : [
                    0,
                    0.3568883538246155,
                    1,
                    1
                ],
                "metallicFactor" : 1,
                "roughnessFactor" : 0.5707070827484131
            }
        },
        {
            "doubleSided" : true,
            "name" : "Material.006",
            "pbrMetallicRoughness" : {
                "baseColorFactor" : [
                    0,
                    0.3568883538246155,
                    1,
                    1
                ],
                "metallicFactor" : 1,
                "roughnessFactor" : 0.5707070827484131
            }
        }
    ],
    "meshes" : [
        {
            "name" : "Torus",
            "primitives" : [
                {
                    "attributes" : {
                        "POSITION" : 0,
                        "NORMAL" : 1,
                        "TEXCOORD_0" : 2
                    },
                    "indices" : 3,
                    "material" : 0
                }
            ]
        },
        {
            "name" : "Sphere",
            "primitives" : [
                {
                    "attributes" : {
                        "POSITION" : 4,
                        "NORMAL" : 5
                    },
                    "indices" : 6,
                    "material" : 1
                }
            ]
        },
        {
            "name" : "Sphere.001",
            "primitives" : [
                {
                    "attributes" : {
                        "POSITION" : 7,
                        "NORMAL" : 8
                    },
                    "indices" : 6,
                    "material" : 2
                }
            ]
        },
        {
            "name" : "Sphere.002",
            "primitives" : [
                {
                    "attributes" : {
                        "POSITION" : 9,
                        "NORMAL" : 10
                    },
                    "indices" : 6,
                    "material" : 3
                }
            ]
        },
        {
            "name" : "Sphere.003",
            "primitives" : [
                {
                    "attributes" : {
                        "POSITION" : 11,
                        "NORMAL" : 12
                    },
                    "indices" : 6,
                    "material" : 4
                }
            ]
        },
        {
            "name" : "Sphere.004",
            "primitives" : [
                {
                    "attributes" : {
                        "POSITION" : 13,
                        "NORMAL" : 14
                    },
                    "indices" : 6,
                    "material" : 5
                }
            ]
        }
    ],
    "accessors" : [
        {
            "bufferView" : 0,
            "componentType" : 5126,
            "count" : 37345,
            "max" : [
                1.0924102067947388,
                0.09553419798612595,
                1.0924102067947388
            ],
            "min" : [
                -1.0924102067947388,
                -0.09553419798612595,
                -1.0924102067947388
            ],
            "type" : "VEC3"
        },
        {
            "bufferView" : 1,
            "componentType" : 5126,
            "count" : 37345,
            "type" : "VEC3"
        },
        {
            "bufferView" : 2,
            "componentType" : 5126,
            "count" : 37345,
            "type" : "VEC2"
        },
        {
            "bufferView" : 3,
            "componentType" : 5123,
            "count" : 221184,
            "type" : "SCALAR"
        },
        {
            "bufferView" : 4,
            "componentType" : 5126,
            "count" : 888,
            "max" : [
                1.0196874141693115,
                1.0103344917297363,
                1.0196893215179443
            ],
            "min" : [
                -1.0196895599365234,
                -1.0103366374969482,
                -1.0196866989135742
            ],
            "type" : "VEC3"
        },
        {
            "bufferView" : 5,
            "componentType" : 5126,
            "count" : 888,
            "type" : "VEC3"
        },
        {
            "bufferView" : 6,
            "componentType" : 5123,
            "count" : 1332,
            "type" : "SCALAR"
        },
        {
            "bufferView" : 7,
            "componentType" : 5126,
            "count" : 888,
            "max" : [
                1.0196874141693115,
                1.0103344917297363,
                1.0196893215179443
            ],
            "min" : [
                -1.0196895599365234,
                -1.0103366374969482,
                -1.0196866989135742
            ],
            "type" : "VEC3"
        },
        {
            "bufferView" : 8,
            "componentType" : 5126,
            "count" : 888,
            "type" : "VEC3"
        },
        {
            "bufferView" : 9,
            "componentType" : 5126,
            "count" : 888,
            "max" : [
                1.0196874141693115,
                1.0103344917297363,
                1.0196893215179443
            ],
            "min" : [
                -1.0196895599365234,
                -1.0103366374969482,
                -1.0196866989135742
            ],
            "type" : "VEC3"
        },
        {
            "bufferView" : 10,
            "componentType" : 5126,
            "count" : 888,
            "type" : "VEC3"
        },
        {
            "bufferView" : 11,
            "componentType" : 5126,
            "count" : 888,
            "max" : [
                1.0196874141693115,
                1.0103344917297363,
                1.0196893215179443
            ],
            "min" : [
                -1.0196895599365234,
                -1.0103366374969482,
                -1.0196866989135742
            ],
            "type" : "VEC3"
        },
        {
            "bufferView" : 12,
            "componentType" : 5126,
            "count" : 888,
            "type" : "VEC3"
        },
        {
            "bufferView" : 13,
            "componentType" : 5126,
            "count" : 888,
            "max" : [
                1.0196874141693115,
                1.0103344917297363,
                1.0196893215179443
            ],
            "min" : [
                -1.0196895599365234,
                -1.0103366374969482,
                -1.0196866989135742
            ],
            "type" : "VEC3"
        },
        {
            "bufferView" : 14,
            "componentType" : 5126,
            "count" : 888,
            "type" : "VEC3"
        }
    ],
    "bufferViews" : [
        {
            "buffer" : 0,
            "byteLength" : 448140,
            "byteOffset" : 0
        },
        {
            "buffer" : 0,
            "byteLength" : 448140,
            "byteOffset" : 448140
        },
        {
            "buffer" : 0,
            "byteLength" : 298760,
            "byteOffset" : 896280
        },
        {
            "buffer" : 0,
            "byteLength" : 442368,
            "byteOffset" : 1195040
        },
        {
            "buffer" : 0,
            "byteLength" : 10656,
            "byteOffset" : 1637408
        },
        {
            "buffer" : 0,
            "byteLength" : 10656,
            "byteOffset" : 1648064
        },
        {
            "buffer" : 0,
            "byteLength" : 2664,
            "byteOffset" : 1658720
        },
        {
            "buffer" : 0,
            "byteLength" : 10656,
            "byteOffset" : 1661384
        },
        {
            "buffer" : 0,
            "byteLength" : 10656,
            "byteOffset" : 1672040
        },
        {
            "buffer" : 0,
            "byteLength" : 10656,
            "byteOffset" : 1682696
        },
        {
            "buffer" : 0,
            "byteLength" : 10656,
            "byteOffset" : 1693352
        },
        {
            "buffer" : 0,
            "byteLength" : 10656,
            "byteOffset" : 1704008
        },
        {
            "buffer" : 0,
            "byteLength" : 10656,
            "byteOffset" : 1714664
        },
        {
            "buffer" : 0,
            "byteLength" : 10656,
            "byteOffset" : 1725320
        },
        {
            "buffer" : 0,
            "byteLength" : 10656,
            "byteOffset" : 1735976
        }
    ],
    "buffers" : [
        {
            "byteLength" : 1746632,
            "uri" : "data:application/octet-stream;base64,"
        }
    ]
}
