{
    "asset" : {
        "generator" : "Khronos glTF Blender I/O v1.0.5",
        "version" : "2.0"
    },
    "scene" : 0,
    "scenes" : [
        {
            "name" : "Scene",
            "nodes" : [
                0,
                1,
                2,
                3,
                4,
                5,
                6,
                7,
                8
            ]
        }
    ],
    "nodes" : [
        {
            "name" : "Light",
            "rotation" : [
                0.16907575726509094,
                0.7558803558349609,
                -0.27217137813568115,
                0.570947527885437
            ],
            "translation" : [
                4.076245307922363,
                5.903861999511719,
                -1.0054539442062378
            ]
        },
        {
            "mesh" : 0,
            "name" : "Sphere",
            "scale" : [
                0.25,
                0.25,
                0.24999994039535522
            ],
            "translation" : [
                0,
                0,
                65.05976867675781
            ]
        },
        {
            "mesh" : 1,
            "name" : "Sphere.001",
            "scale" : [
                0.25,
                0.25,
                0.24999994039535522
            ],
            "translation" : [
                0,
                11.869328498840332,
                -53.437767028808594
            ]
        },
        {
            "mesh" : 2,
            "name" : "Sphere.002",
            "scale" : [
                0.25,
                0.25,
                0.24999994039535522
            ],
            "translation" : [
                59.52040100097656,
                0,
                -0.07540655136108398
            ]
        },
        {
            "mesh" : 3,
            "name" : "Sphere.003",
            "scale" : [
                0.25,
                0.25,
                0.24999994039535522
            ],
            "translation" : [
                0,
                0,
                -2
            ]
        },
        {
            "mesh" : 4,
            "name" : "Sphere.004",
            "scale" : [
                0.25,
                0.25,
                0.24999994039535522
            ],
            "translation" : [
                -55.9554443359375,
                -4.59580135345459,
                -0.07540655136108398
            ]
        },
        {
            "name" : "Light.001",
            "rotation" : [
                0.16907575726509094,
                0.7558803558349609,
                -0.27217137813568115,
                0.570947527885437
            ],
            "translation" : [
                0.1602790355682373,
                0.3142690658569336,
                10.062679290771484
            ]
        },
        {
            "mesh" : 5,
            "name" : "Torus.001"
        },
        {
            "mesh" : 6,
            "name" : "Torus.000",
            "translation" : [
                0,
                20.261056900024414,
                0
            ]
        }
    ],
    "materials" : [
        {
            "doubleSided" : true,
            "name" : "Material.002",
            "pbrMetallicRoughness" : {
                "baseColorFactor" : [
                    0,
                    0.3568883538246155,
                    1,
                    1
                ],
                "metallicFactor" : 1,
                "roughnessFactor" : 0.5707070827484131
            }
        },
        {
            "doubleSided" : true,
            "name" : "Material.003",
            "pbrMetallicRoughness" : {
                "baseColorFactor" : [
                    0,
                    0.3568883538246155,
                    1,
                    1
                ],
                "metallicFactor" : 1,
                "roughnessFactor" : 0.5707070827484131
            }
        },
        {
            "doubleSided" : true,
            "name" : "Material.004",
            "pbrMetallicRoughness" : {
                "baseColorFactor" : [
                    0,
                    0.3568883538246155,
                    1,
                    1
                ],
                "metallicFactor" : 1,
                "roughnessFactor" : 0.5707070827484131
            }
        },
        {
            "doubleSided" : true,
            "name" : "Material.005",
            "pbrMetallicRoughness" : {
                "baseColorFactor" : [
                    0,
                    0.3568883538246155,
                    1,
                    1
                ],
                "metallicFactor" : 1,
                "roughnessFactor" : 0.5707070827484131
            }
        },
        {
            "doubleSided" : true,
            "name" : "Material.006",
            "pbrMetallicRoughness" : {
                "baseColorFactor" : [
                    0,
                    0.3568883538246155,
                    1,
                    1
                ],
                "metallicFactor" : 1,
                "roughnessFactor" : 0.5707070827484131
            }
        },
        {
            "doubleSided" : true,
            "name" : "Material.007",
            "pbrMetallicRoughness" : {
                "baseColorFactor" : [
                    1,
                    0.3714922368526459,
                    0.04211236163973808,
                    1
                ],
                "metallicFactor" : 0.7676767110824585,
                "roughnessFactor" : 0.5
            }
        },
        {
            "doubleSided" : true,
            "name" : "Material.008",
            "pbrMetallicRoughness" : {
                "baseColorFactor" : [
                    1,
                    0.9071923494338989,
                    0,
                    1
                ],
                "metallicFactor" : 0.23232322931289673,
                "roughnessFactor" : 0.5
            }
        }
    ],
    "meshes" : [
        {
            "name" : "Sphere",
            "primitives" : [
                {
                    "attributes" : {
                        "POSITION" : 0,
                        "NORMAL" : 1
                    },
                    "indices" : 2,
                    "material" : 0
                }
            ]
        },
        {
            "name" : "Sphere.001",
            "primitives" : [
                {
                    "attributes" : {
                        "POSITION" : 3,
                        "NORMAL" : 4
                    },
                    "indices" : 2,
                    "material" : 1
                }
            ]
        },
        {
            "name" : "Sphere.002",
            "primitives" : [
                {
                    "attributes" : {
                        "POSITION" : 5,
                        "NORMAL" : 6
                    },
                    "indices" : 2,
                    "material" : 2
                }
            ]
        },
        {
            "name" : "Sphere.003",
            "primitives" : [
                {
                    "attributes" : {
                        "POSITION" : 7,
                        "NORMAL" : 8
                    },
                    "indices" : 2,
                    "material" : 3
                }
            ]
        },
        {
            "name" : "Sphere.004",
            "primitives" : [
                {
                    "attributes" : {
                        "POSITION" : 9,
                        "NORMAL" : 10
                    },
                    "indices" : 2,
                    "material" : 4
                }
            ]
        },
        {
            "name" : "Torus.001",
            "primitives" : [
                {
                    "attributes" : {
                        "POSITION" : 11,
                        "NORMAL" : 12,
                        "TEXCOORD_0" : 13
                    },
                    "indices" : 14,
                    "material" : 5
                }
            ]
        },
        {
            "name" : "Torus.002",
            "primitives" : [
                {
                    "attributes" : {
                        "POSITION" : 15,
                        "NORMAL" : 16,
                        "TEXCOORD_0" : 17
                    },
                    "indices" : 14,
                    "material" : 6
                }
            ]
        }
    ],
    "accessors" : [
        {
            "bufferView" : 0,
            "componentType" : 5126,
            "count" : 888,
            "max" : [
                1.0196874141693115,
                1.0103344917297363,
                1.0196893215179443
            ],
            "min" : [
                -1.0196895599365234,
                -1.0103366374969482,
                -1.0196866989135742
            ],
            "type" : "VEC3"
        },
        {
            "bufferView" : 1,
            "componentType" : 5126,
            "count" : 888,
            "type" : "VEC3"
        },
        {
            "bufferView" : 2,
            "componentType" : 5123,
            "count" : 1332,
            "type" : "SCALAR"
        },
        {
            "bufferView" : 3,
            "componentType" : 5126,
            "count" : 888,
            "max" : [
                1.0196874141693115,
                1.0103344917297363,
                1.0196893215179443
            ],
            "min" : [
                -1.0196895599365234,
                -1.0103366374969482,
                -1.0196866989135742
            ],
            "type" : "VEC3"
        },
        {
            "bufferView" : 4,
            "componentType" : 5126,
            "count" : 888,
            "type" : "VEC3"
        },
        {
            "bufferView" : 5,
            "componentType" : 5126,
            "count" : 888,
            "max" : [
                1.0196874141693115,
                1.0103344917297363,
                1.0196893215179443
            ],
            "min" : [
                -1.0196895599365234,
                -1.0103366374969482,
                -1.0196866989135742
            ],
            "type" : "VEC3"
        },
        {
            "bufferView" : 6,
            "componentType" : 5126,
            "count" : 888,
            "type" : "VEC3"
        },
        {
            "bufferView" : 7,
            "componentType" : 5126,
            "count" : 888,
            "max" : [
                1.0196874141693115,
                1.0103344917297363,
                1.0196893215179443
            ],
            "min" : [
                -1.0196895599365234,
                -1.0103366374969482,
                -1.0196866989135742
            ],
            "type" : "VEC3"
        },
        {
            "bufferView" : 8,
            "componentType" : 5126,
            "count" : 888,
            "type" : "VEC3"
        },
        {
            "bufferView" : 9,
            "componentType" : 5126,
            "count" : 888,
            "max" : [
                1.0196874141693115,
                1.0103344917297363,
                1.0196893215179443
            ],
            "min" : [
                -1.0196895599365234,
                -1.0103366374969482,
                -1.0196866989135742
            ],
            "type" : "VEC3"
        },
        {
            "bufferView" : 10,
            "componentType" : 5126,
            "count" : 888,
            "type" : "VEC3"
        },
        {
            "bufferView" : 11,
            "componentType" : 5126,
            "count" : 2304,
            "max" : [
                106.12000274658203,
                6.120002746582031,
                106.12000274658203
            ],
            "min" : [
                -106.12000274658203,
                -6.120002746582031,
                -106.12000274658203
            ],
            "type" : "VEC3"
        },
        {
            "bufferView" : 12,
            "componentType" : 5126,
            "count" : 2304,
            "type" : "VEC3"
        },
        {
            "bufferView" : 13,
            "componentType" : 5126,
            "count" : 2304,
            "type" : "VEC2"
        },
        {
            "bufferView" : 14,
            "componentType" : 5123,
            "count" : 3456,
            "type" : "SCALAR"
        },
        {
            "bufferView" : 15,
            "componentType" : 5126,
            "count" : 2304,
            "max" : [
                106.12000274658203,
                6.120002746582031,
                106.12000274658203
            ],
            "min" : [
                -106.12000274658203,
                -6.120002746582031,
                -106.12000274658203
            ],
            "type" : "VEC3"
        },
        {
            "bufferView" : 16,
            "componentType" : 5126,
            "count" : 2304,
            "type" : "VEC3"
        },
        {
            "bufferView" : 17,
            "componentType" : 5126,
            "count" : 2304,
            "type" : "VEC2"
        }
    ],
    "bufferViews" : [
        {
            "buffer" : 0,
            "byteLength" : 10656,
            "byteOffset" : 0
        },
        {
            "buffer" : 0,
            "byteLength" : 10656,
            "byteOffset" : 10656
        },
        {
            "buffer" : 0,
            "byteLength" : 2664,
            "byteOffset" : 21312
        },
        {
            "buffer" : 0,
            "byteLength" : 10656,
            "byteOffset" : 23976
        },
        {
            "buffer" : 0,
            "byteLength" : 10656,
            "byteOffset" : 34632
        },
        {
            "buffer" : 0,
            "byteLength" : 10656,
            "byteOffset" : 45288
        },
        {
            "buffer" : 0,
            "byteLength" : 10656,
            "byteOffset" : 55944
        },
        {
            "buffer" : 0,
            "byteLength" : 10656,
            "byteOffset" : 66600
        },
        {
            "buffer" : 0,
            "byteLength" : 10656,
            "byteOffset" : 77256
        },
        {
            "buffer" : 0,
            "byteLength" : 10656,
            "byteOffset" : 87912
        },
        {
            "buffer" : 0,
            "byteLength" : 10656,
            "byteOffset" : 98568
        },
        {
            "buffer" : 0,
            "byteLength" : 27648,
            "byteOffset" : 109224
        },
        {
            "buffer" : 0,
            "byteLength" : 27648,
            "byteOffset" : 136872
        },
        {
            "buffer" : 0,
            "byteLength" : 18432,
            "byteOffset" : 164520
        },
        {
            "buffer" : 0,
            "byteLength" : 6912,
            "byteOffset" : 182952
        },
        {
            "buffer" : 0,
            "byteLength" : 27648,
            "byteOffset" : 189864
        },
        {
            "buffer" : 0,
            "byteLength" : 27648,
            "byteOffset" : 217512
        },
        {
            "buffer" : 0,
            "byteLength" : 18432,
            "byteOffset" : 245160
        }
    ],
    "buffers" : [
        {
            "byteLength" : 263592,
            "uri" : "data:application/octet-stream;base64,"
        }
    ]
}
