{
    "asset" : {
        "generator" : "Khronos glTF Blender I/O v1.1.46",
        "version" : "2.0"
    },
    "scene" : 0,
    "scenes" : [
        {
            "name" : "Scene",
            "nodes" : [
                0,
                1,
                2
            ]
        }
    ],
    "nodes" : [
        {
            "mesh" : 0,
            "name" : "Text",
            "rotation" : [
                0.4434141516685486,
                0.40018942952156067,
                -0.23104944825172424,
                0.7680159211158752
            ],
            "scale" : [
                0.34990501403808594,
                0.34990501403808594,
                0.34990501403808594
            ],
            "translation" : [
                -14.451616287231445,
                0,
                -4.205679893493652
            ]
        },
        {
            "mesh" : 1,
            "name" : "Text.006",
            "rotation" : [
                0.7057065367698669,
                -0.28946423530578613,
                -0.4055497646331787,
                -0.5037043690681458
            ],
            "scale" : [
                0.38935959339141846,
                0.38935959339141846,
                0.38935959339141846
            ],
            "translation" : [
                -13.62838363647461,
                0.23999997973442078,
                -5.522991180419922
            ]
        },
        {
            "mesh" : 2,
            "name" : "Text.001",
            "rotation" : [
                0.4904603064060211,
                -0.5089667439460754,
                0.48299139738082886,
                0.5168373584747314
            ],
            "translation" : [
                10,
                3,
                0
            ]
        }
    ],
    "materials" : [
        {
            "doubleSided" : true,
            "emissiveFactor" : [
                0,
                0,
                0
            ],
            "name" : "White",
            "pbrMetallicRoughness" : {
                "baseColorFactor" : [
                    1,
                    1,
                    1,
                    1
                ],
                "metallicFactor" : 0.8383838534355164,
                "roughnessFactor" : 0.09595959633588791
            }
        },
        {
            "doubleSided" : true,
            "emissiveFactor" : [
                0,
                0,
                0
            ],
            "name" : "Gold.003",
            "pbrMetallicRoughness" : {
                "baseColorFactor" : [
                    1,
                    0.7284015417098999,
                    0.24260297417640686,
                    1
                ],
                "metallicFactor" : 0.2634146213531494,
                "roughnessFactor" : 0.4292683005332947
            }
        }
    ],
    "meshes" : [
        {
            "name" : "Text.012",
            "primitives" : [
                {
                    "attributes" : {
                        "POSITION" : 0,
                        "NORMAL" : 1
                    },
                    "indices" : 2,
                    "material" : 0
                }
            ]
        },
        {
            "name" : "Text.015",
            "primitives" : [
                {
                    "attributes" : {
                        "POSITION" : 3,
                        "NORMAL" : 4
                    },
                    "indices" : 5,
                    "material" : 0
                }
            ]
        },
        {
            "name" : "Text",
            "primitives" : [
                {
                    "attributes" : {
                        "POSITION" : 6,
                        "NORMAL" : 7,
                        "TEXCOORD_0" : 8
                    },
                    "indices" : 9,
                    "material" : 1
                }
            ]
        }
    ],
    "accessors" : [
        {
            "bufferView" : 0,
            "componentType" : 5126,
            "count" : 23299,
            "max" : [
                10.99909496307373,
                0.1599999964237213,
                0.27997058629989624
            ],
            "min" : [
                0.03300000727176666,
                -0.1599999964237213,
                -0.7310247421264648
            ],
            "type" : "VEC3"
        },
        {
            "bufferView" : 1,
            "componentType" : 5126,
            "count" : 23299,
            "type" : "VEC3"
        },
        {
            "bufferView" : 2,
            "componentType" : 5123,
            "count" : 100428,
            "type" : "SCALAR"
        },
        {
            "bufferView" : 3,
            "componentType" : 5126,
            "count" : 704,
            "max" : [
                1.008000135421753,
                0.14000000059604645,
                0.009000000543892384
            ],
            "min" : [
                0.055000003427267075,
                -0.14000000059604645,
                -0.6910000443458557
            ],
            "type" : "VEC3"
        },
        {
            "bufferView" : 4,
            "componentType" : 5126,
            "count" : 704,
            "type" : "VEC3"
        },
        {
            "bufferView" : 5,
            "componentType" : 5123,
            "count" : 1824,
            "type" : "SCALAR"
        },
        {
            "bufferView" : 6,
            "componentType" : 5126,
            "count" : 18365,
            "max" : [
                4.41584587097168,
                0.12999998033046722,
                0.19219106435775757
            ],
            "min" : [
                -4.396133899688721,
                -0.12999998033046722,
                -0.6747536063194275
            ],
            "type" : "VEC3"
        },
        {
            "bufferView" : 7,
            "componentType" : 5126,
            "count" : 18365,
            "type" : "VEC3"
        },
        {
            "bufferView" : 8,
            "componentType" : 5126,
            "count" : 18365,
            "type" : "VEC2"
        },
        {
            "bufferView" : 9,
            "componentType" : 5123,
            "count" : 47352,
            "type" : "SCALAR"
        }
    ],
    "bufferViews" : [
        {
            "buffer" : 0,
            "byteLength" : 279588,
            "byteOffset" : 0
        },
        {
            "buffer" : 0,
            "byteLength" : 279588,
            "byteOffset" : 279588
        },
        {
            "buffer" : 0,
            "byteLength" : 200856,
            "byteOffset" : 559176
        },
        {
            "buffer" : 0,
            "byteLength" : 8448,
            "byteOffset" : 760032
        },
        {
            "buffer" : 0,
            "byteLength" : 8448,
            "byteOffset" : 768480
        },
        {
            "buffer" : 0,
            "byteLength" : 3648,
            "byteOffset" : 776928
        },
        {
            "buffer" : 0,
            "byteLength" : 220380,
            "byteOffset" : 780576
        },
        {
            "buffer" : 0,
            "byteLength" : 220380,
            "byteOffset" : 1000956
        },
        {
            "buffer" : 0,
            "byteLength" : 146920,
            "byteOffset" : 1221336
        },
        {
            "buffer" : 0,
            "byteLength" : 94704,
            "byteOffset" : 1368256
        }
    ],
    "buffers" : [
        {
            "byteLength" : 1462960,
            "uri" : "data:application/octet-stream;base64,"
        }
    ]
}
