{
    "asset" : {
        "generator" : "Khronos glTF Blender I/O v1.0.5",
        "version" : "2.0"
    },
    "scene" : 0,
    "scenes" : [
        {
            "name" : "Scene",
            "nodes" : [
                0
            ]
        }
    ],
    "nodes" : [
        {
            "mesh" : 0,
            "name" : "Text.002",
            "rotation" : [
                0.45451945066452026,
                -0.5416752099990845,
                0.45451948046684265,
                0.5416752099990845
            ],
            "translation" : [
                -0.08297732472419739,
                3.5830278396606445,
                -0.092620849609375
            ]
        }
    ],
    "materials" : [
        {
            "doubleSided" : true,
            "name" : "Gold.001",
            "pbrMetallicRoughness" : {
                "baseColorFactor" : [
                    1,
                    0.5930103659629822,
                    0,
                    1
                ],
                "metallicFactor" : 0,
                "roughnessFactor" : 0
            }
        }
    ],
    "meshes" : [
        {
            "name" : "Text.011",
            "primitives" : [
                {
                    "attributes" : {
                        "POSITION" : 0,
                        "NORMAL" : 1
                    },
                    "indices" : 2,
                    "material" : 0
                }
            ]
        }
    ],
    "accessors" : [
        {
            "bufferView" : 0,
            "componentType" : 5126,
            "count" : 31734,
            "max" : [
                2.8144946098327637,
                0.08999998867511749,
                1.0140860080718994
            ],
            "min" : [
                -2.813326835632324,
                -0.08999998867511749,
                -0.4796643853187561
            ],
            "type" : "VEC3"
        },
        {
            "bufferView" : 1,
            "componentType" : 5126,
            "count" : 31734,
            "type" : "VEC3"
        },
        {
            "bufferView" : 2,
            "componentType" : 5123,
            "count" : 87432,
            "type" : "SCALAR"
        }
    ],
    "bufferViews" : [
        {
            "buffer" : 0,
            "byteLength" : 380808,
            "byteOffset" : 0
        },
        {
            "buffer" : 0,
            "byteLength" : 380808,
            "byteOffset" : 380808
        },
        {
            "buffer" : 0,
            "byteLength" : 174864,
            "byteOffset" : 761616
        }
    ],
    "buffers" : [
        {
            "byteLength" : 936480,
            "uri" : "data:application/octet-stream;base64,"
        }
    ]
}
