<svg xmlns="http://www.w3.org/2000/svg" viewBox="0 0 898.81 499.17"><defs><style>.cls-1,.cls-4{fill:#fff;}.cls-14,.cls-16,.cls-17,.cls-19,.cls-2,.cls-20,.cls-21,.cls-3{fill:none;}.cls-2,.cls-20,.cls-21,.cls-3,.cls-4{stroke:#000;stroke-width:0.6px;}.cls-2{stroke-miterlimit:10;}.cls-14,.cls-15,.cls-16,.cls-17,.cls-18,.cls-19,.cls-20,.cls-21,.cls-3,.cls-4{stroke-linecap:round;stroke-linejoin:round;}.cls-5{font-size:10px;font-family:ObjektivMk2-Regular, Objektiv Mk2;}.cls-6{letter-spacing:-0.02em;}.cls-7{letter-spacing:-0.01em;}.cls-8{letter-spacing:0.01em;}.cls-9{letter-spacing:0.01em;}.cls-10{letter-spacing:0.01em;}.cls-11{letter-spacing:-0.02em;}.cls-12{letter-spacing:-0.01em;}.cls-13{letter-spacing:0.02em;}.cls-14,.cls-15,.cls-17,.cls-18{stroke:#f9cf00;}.cls-14,.cls-15{stroke-width:1.24px;}.cls-15,.cls-18{fill:#f9cf00;}.cls-16,.cls-19{stroke:#a0a0a0;}.cls-16{stroke-width:0.31px;}.cls-17,.cls-18{stroke-width:3.09px;}.cls-19{stroke-width:0.77px;}.cls-20{stroke-dasharray:1.24 2.48;}.cls-21{stroke-dasharray:1.22 2.45;}</style></defs><title>Asset 2</title><g id="Layer_2" data-name="Layer 2"><g id="Layer_8" data-name="Layer 8"><rect class="cls-1" width="898.81" height="499.17"/></g><g id="Layer_2-2" data-name="Layer 2"><path class="cls-2" d="M452.8,8.53,425.47,35.86c3.95,0,8.13.2,12.54.54,5.28.41,10.24,1,14.82,1.75l17.92-21.91"/><path class="cls-3" d="M452.83,38.15a9.91,9.91,0,0,1,1.47,1.9,8.83,8.83,0,0,1,.51,1,9.77,9.77,0,0,1,.73,2.49c.21,1.36,1,7.53,1.86,16Q461,54.77,464.65,50q10.14-13.22,20.29-26.19"/><path class="cls-2" d="M424,37.05l6.94.41c5.49.32,6.62.37,8,.47a111.24,111.24,0,0,1,12.76,1.63A9.41,9.41,0,0,1,453,41a9.7,9.7,0,0,1,1.35,3.37c.44,2.05,1.22,8,1.89,16.07l-83.49,110.7c-.12-7.67-1.14-15.19-1.93-22.81a9.43,9.43,0,0,0-.88-3.68,6.87,6.87,0,0,0-4.28-2.89c-2.91-.8-6-1.26-8.94-1.89L347.86,138l-16.1-3.35c11.79-10.84,21.18-20.14,27.72-26.79,4.64-4.72,13-13.37,42.31-46C411,51.65,418.69,43.06,424,37.05Z"/><path class="cls-3" d="M330.6,135.77c1.58.35,4,.87,7,1.48,4.65.95,8.9,1.75,11.06,2.17,5.86,1.13,11.56,2.48,17.29,4.17a5.82,5.82,0,0,1,1.9.8c1.39,1,1.6,3,1.71,4.72.46,7.8,1.14,15.58,1.78,23.36l.05.62S283,292.28,282.62,292.78c0,0-.19.27-.47.63a7.92,7.92,0,0,1-.73.89,5.08,5.08,0,0,1-.9.66A8.06,8.06,0,0,1,278.2,296a6.93,6.93,0,0,1-1.71.19,28.68,28.68,0,0,1-5.71-.5c-2.73-.62-14-4.22-29.23-9.7a4.76,4.76,0,0,1-1-.7,6.1,6.1,0,0,1-1.32-2.1c-.8-1.68-.74-1.37-1.16-2.33a100.74,100.74,0,0,1-3.57-10.4,59.29,59.29,0,0,1-1.94-8.39,19.27,19.27,0,0,1-.24-4.34,18.46,18.46,0,0,1,1-4.89c3.21-9.49,7.4-19.85,8.15-22,.07-.19.34-1,.78-1.94s.74-1.51.93-1.86c0,0,.66-1.18,1.48-2.33a60.65,60.65,0,0,1,5.74-6.91c9-9,33.46-32.77,47.2-47.36,5.92-6.28,7.61-8.47,16.7-18C321.18,145.23,326.91,139.45,330.6,135.77Z"/><path class="cls-3" d="M245.36,231.81a3.84,3.84,0,0,0-1.76.62,4.11,4.11,0,0,0-1.45,1.76c-.74,1.54-2.86,8.43-5.39,17.9a3.05,3.05,0,0,0,.11,1.35,3.86,3.86,0,0,0,1.34,1.76c1.26.94,15.62,5.52,35.3,11.28a6.11,6.11,0,0,0,2.07-.1,6.25,6.25,0,0,0,4.45-3.73L285.31,246a1.8,1.8,0,0,0,.11-1.35,1.86,1.86,0,0,0-.73-.83,4.25,4.25,0,0,0-2.07-.72C281.38,243,269.73,239.5,245.36,231.81Z"/><path class="cls-3" d="M292.71,240.19l73.68-93.65"/><path class="cls-3" d="M371.64,141.85c24.56-31.21,55.15-68.51,79.71-99.72"/><path class="cls-3" d="M294.61,246.5c.27,1.42.54,2.86.8,4.32.21,1.19.41,2.38.6,3.55a2,2,0,0,0,1.57.25,1.93,1.93,0,0,0,.87-.54q30.9-40.43,61.81-80.86a5,5,0,0,0,.62-1.08,5.42,5.42,0,0,0,.39-1.9,36.39,36.39,0,0,0-.4-5.54,1.15,1.15,0,0,0-.63-.73,1.37,1.37,0,0,0-1,.18,2.61,2.61,0,0,0-.68.47l-62.71,79.77a7.55,7.55,0,0,0-.66,1A8.18,8.18,0,0,0,294.61,246.5Z"/><path class="cls-3" d="M374.5,142c.22,1.43.42,2.88.62,4.35.17,1.2.32,2.39.47,3.57a2,2,0,0,0,1.55.31,1.9,1.9,0,0,0,.89-.5c21.65-26.13,47.7-59.49,69.34-85.61a4.57,4.57,0,0,0,.66-1,5.3,5.3,0,0,0,.47-1.88,36.76,36.76,0,0,0-.17-5.55,1.19,1.19,0,0,0-.61-.76,1.31,1.31,0,0,0-1,.14,2.23,2.23,0,0,0-.7.44C424,81.25,397.71,114.23,375.78,140a7.4,7.4,0,0,0-.7.94A8.07,8.07,0,0,0,374.5,142Z"/><path class="cls-3" d="M472.57,18.26q-4.11,4.51-8.28,9.42c-2.23,2.61-4.36,5.2-6.42,7.76a12.09,12.09,0,0,0-.31,1.87,13.5,13.5,0,0,0,0,2.27,13.59,13.59,0,0,0,1,4.56,2.57,2.57,0,0,0,1.65.31A3.15,3.15,0,0,0,462,43c1.07-1.61,7.14-9.66,15.63-20.91"/></g><g id="Layer_3" data-name="Layer 3"><path class="cls-4" d="M495.81,186.62c1.32-3.82,2.5-7.56,3.57-11.18a43.76,43.76,0,0,1,7.6-1.08"/><path class="cls-4" d="M519.87,175.6c-1.7,4.11-3.38,8.57-5,13.35-1.77,5.35-3.19,10.45-4.34,15.22-3.61.12-7.45.14-11.49,0-3.43-.12-6.69-.34-9.79-.62"/><path class="cls-3" d="M232.52,271.45l-87,90.47"/><path class="cls-3" d="M205.25,399.3l81.57-108.84L491.3,17.61"/><path class="cls-3" d="M286.82,290.46c.16,2.39.57,8.15.92,12.46.53,6.54,1,11.62,1.56,17.39.26,2.77.63,6.59,1.08,11.18a39.71,39.71,0,0,1-.46,4.5,40.66,40.66,0,0,1-5,13.82l16.92-25.15a3.65,3.65,0,0,1-3.72.31,4.19,4.19,0,0,1-1.87-2.49c-1.56-4.6-3.85-37.4-4-39.35"/><path class="cls-3" d="M336.65,224c-.14,3.79.13,8.66.11,10.54-.09,7.9.16,11.51.1,21.42,0,5.31-.11,6.76-.21,8a75.78,75.78,0,0,1-1.86,11.9l13.66-21.32a4,4,0,0,1-3.31-.21c-1.31-.92-1.33-2.94-1.34-3.73-.07-3.83-.55-17.84-1.14-34.59"/><line class="cls-3" x1="300.32" y1="272.44" x2="334.79" y2="275.8"/><path class="cls-3" d="M374.92,172.9c.1,2,.5,7.09.76,11,.7,10.44,1.29,13.93,1,20a74.25,74.25,0,0,1-1,9.62c1.22-1.65,2.47-3.3,3.72-5q3.12-4.11,6.22-8.08a6.51,6.51,0,0,1-2.8-.83c-3-1.68-3.48-5.72-3.83-8.59-.82-6.73-1.76-14.87-2.13-20.7"/><line class="cls-3" x1="347.64" y1="209.3" x2="375.68" y2="213.48"/><path class="cls-3" d="M403.1,135.3c.23,2.11.89,5.7,1,6.76,1,6.95,2.06,9.85,2.8,16.46.16,1.43.26,2.37.31,3.73a39.25,39.25,0,0,1-.72,8.9c1.86-2.51,3.75-5.27,5.58-8.28.77-1.26,1.5-2.51,2.18-3.73a3,3,0,0,1-2.3-.21,3,3,0,0,1-1.17-2.07c-.41-2.14-2.32-13-4.44-25.93"/><path class="cls-3" d="M427.62,102.59c.18,1.91.65,4.37.78,5.32.82,6.28,1.64,8.9,2.23,14.87.12,1.29.21,2.15.24,3.37a39.52,39.52,0,0,1-.57,8c1.49-2.27,3-4.76,4.46-7.48.61-1.14,1.19-2.26,1.73-3.37a2.11,2.11,0,0,1-1.84-.18,3,3,0,0,1-.93-1.87c-.33-1.94-1.63-10.43-3.33-22.07"/><path class="cls-3" d="M444.82,79.63c.19,1.66.57,3.14.7,4,.82,5.47,1.64,7.76,2.23,13,.13,1.12.21,1.87.25,2.93a30,30,0,0,1-.58,7c1.49-2,3-4.15,4.46-6.52.61-1,1.19-2,1.74-2.93a2,2,0,0,1-2.77-1.8c-.33-1.68-1.64-9.09-3.34-19.24"/><path class="cls-3" d="M460.24,59.06c.16,1.48.51,3.45.62,4.2.73,4.87,1.46,6.91,2,11.54.11,1,.18,1.67.22,2.61a26.92,26.92,0,0,1-.52,6.25c1.33-1.76,2.67-3.7,4-5.81.55-.88,1.06-1.76,1.55-2.61a2.18,2.18,0,0,1-1.64-.15,2.14,2.14,0,0,1-.83-1.45c-.29-1.5-1.46-8.1-3-17.13"/><path class="cls-3" d="M468.07,48.61c.13,1.26.43,3.55.52,4.18.62,4.13,1.24,5.86,1.69,9.79.09.85.15,1.41.18,2.21a23,23,0,0,1-.43,5.29c1.12-1.49,2.25-3.13,3.36-4.92.47-.75.9-1.49,1.31-2.22a1.77,1.77,0,0,1-1.39-.12,1.84,1.84,0,0,1-.7-1.23c-.25-1.27-1.23-8-2.51-15.68"/><path class="cls-3" d="M475,39.32c.14,1.26.43,3.21.53,3.84.61,4.13,1.23,5.86,1.68,9.79.1.85.16,1.41.19,2.21a22.85,22.85,0,0,1-.44,5.29c1.12-1.49,2.26-3.13,3.37-4.92.46-.75.89-1.49,1.31-2.21a1.82,1.82,0,0,1-1.39-.13,1.76,1.76,0,0,1-.7-1.23c-.25-1.27-1.24-7.69-2.52-15.34"/><line class="cls-3" x1="378.68" y1="167.89" x2="406.53" y2="171.15"/><line class="cls-3" x1="430.3" y1="134.19" x2="406.86" y2="133.73"/><line class="cls-3" x1="431.32" y1="105.53" x2="447.42" y2="106.51"/><line class="cls-3" x1="462.55" y1="83.66" x2="449.22" y2="83.66"/><line class="cls-3" x1="470.03" y1="70.08" x2="465.53" y2="70.08"/><line class="cls-3" x1="476.99" y1="60.45" x2="472.42" y2="60.45"/><line class="cls-3" x1="284.95" y1="349.81" x2="246.23" y2="344.62"/><path class="cls-4" d="M499.38,164.42a43.39,43.39,0,0,1,20.49.15c-1.26,3.06-2.52,6.3-3.73,9.73-.42,1.18-.83,2.39-1.24,3.63-1.77,5.35-3.19,10.44-4.34,15.21-3.61.13-7.45.14-11.49,0-3.43-.11-6.69-.33-9.79-.62,2.25-5.25,4.45-10.9,6.53-16.92C497.13,171.77,498.31,168,499.38,164.42Z"/><path class="cls-3" d="M443,166q7,1,14.13,1.87,7.67,1,15.22,1.86c6.09-13.31,10.74-24.16,13.82-31.52,4.09-9.77,6.32-15.51,11.8-28.57,3.81-9.09,7-16.45,9-21.12l1.87,10.41c-1.9,4.87-4.59,11.82-7.77,20.18-4.74,12.48-8.67,22.82-13,35.09-3.24,9.1-7.51,21.49-12.26,36.49q-8.7-1.93-17.71-4.19-5.74-1.46-11.33-2.95Q444.88,174.74,443,166Z"/><line class="cls-3" x1="472.36" y1="169.7" x2="475.78" y2="190.66"/><polyline class="cls-3" points="443.01 165.97 450.47 151.06 485.5 86.77"/><path class="cls-3" d="M427.49,222c2.82.48,5.66.95,8.54,1.4,3.45.55,6.86,1.06,10.24,1.55q2.34-6.41,4.66-12.88,2.43-6.78,4.82-13.51c-2.63-.43-5.43-.81-8.39-1.09q-3.56-.35-6.83-.46a86,86,0,0,0-13,25Z"/><path class="cls-3" d="M427.49,231.9c2.82.48,5.66.95,8.54,1.4,3.45.55,6.86,1.06,10.24,1.55q2.34-6.4,4.66-12.88,2.43-6.78,4.82-13.51"/><path class="cls-3" d="M425,253.34c-2.54-.58-5-1.21-7.3-1.87-2.13,3.3-4.27,6.82-6.36,10.56"/><path class="cls-3" d="M399.69,286.87q5.21,1.58,10.56,3.11,6,1.71,11.8,3.26,3.88-10.77,8.23-21.89,3.15-8.07,6.37-15.84"/><path class="cls-3" d="M399.69,391.42c3.92.27,7.9.57,12,.93q6.33.57,12.42,1.25c2-9.62,3.66-19.88,4.81-30.75q.45-4.25.78-8.38"/><path class="cls-3" d="M421,354.31c-3.62,0-7,.21-10.25.47-1.8,5.45-3.15,9.89-4,12.89"/><path class="cls-3" d="M366.88,358.73q-5.08-.94-9.73-2.07-2.7,4-5.38,8.49"/><path class="cls-3" d="M341.21,385.44q5.81,1.26,11.8,2.69,6.35,1.51,12.42,3.11c3.13-4.41,6.35-9.38,9.52-14.91,3.09-5.37,5.68-10.52,7.87-15.32"/><path class="cls-3" d="M357.77,425.64c-1.49,3.41-3.36,7.62-5.59,12.43"/><path class="cls-3" d="M336,471.91c4.35.18,8.91.48,13.67.94,5.82.56,11.31,1.31,16.46,2.17,2.54-7,5-14.38,7.45-22q4.23-13.49,7.45-26.08"/><path class="cls-3" d="M470.19,406.33l-8.39-.93q-2.57,9-5.59,18.32"/><path class="cls-3" d="M448.14,447a125.8,125.8,0,0,0,12.73,1.24c4.24.2,8.19.17,11.8,0,1.07-6.91,2.39-14.17,4-21.74,1.44-6.63,3-12.95,4.66-18.94"/><path class="cls-3" d="M476.6,224.25c-1.29,5.16-3,12.25-5,20.7-.93,4.06-4.63,20.22-8.9,42.24-1.73,8.94-3.81,20.14-6,33.12q1.75,12,3.52,24l39.95,6.22q1.88-12.84,3.73-25.68c.26-13.18.78-24.25,1.24-32.5,1-17.66,2.34-31.76,3.52-44.3.8-8.47,1.54-15.53,2.07-20.5Z"/><line class="cls-3" x1="456.73" y1="320.31" x2="503.93" y2="324.86"/><line class="cls-3" x1="489.28" y1="203.55" x2="489.28" y2="192.52"/><line class="cls-3" x1="510.56" y1="204.17" x2="510.56" y2="193.14"/><line class="cls-3" x1="519.87" y1="175.6" x2="519.87" y2="164.57"/><line class="cls-3" x1="427.49" y1="222.02" x2="427.49" y2="231.9"/><line class="cls-3" x1="446.27" y1="224.97" x2="446.27" y2="234.85"/><line class="cls-3" x1="455.75" y1="198.58" x2="455.75" y2="208.46"/><path class="cls-4" d="M417.7,241.12c-2.13,3.3-4.27,6.82-6.36,10.56a191.44,191.44,0,0,0-11.65,24.84q5.21,1.58,10.56,3.11,6,1.71,11.8,3.26,3.88-10.77,8.23-21.89,3.15-8.07,6.37-15.84c-3.67-.53-7.57-1.24-11.65-2.17C422.46,242.41,420,241.78,417.7,241.12Z"/><line class="cls-3" x1="399.69" y1="276.52" x2="399.69" y2="286.87"/><line class="cls-3" x1="422.05" y1="282.89" x2="422.05" y2="293.24"/><line class="cls-3" x1="436.65" y1="245.16" x2="436.65" y2="255.51"/><path class="cls-4" d="M357.15,346.39q-2.7,4-5.38,8.49a193.21,193.21,0,0,0-10.56,20.29q5.81,1.26,11.8,2.69,6.35,1.51,12.42,3.11c3.13-4.41,6.35-9.38,9.52-14.91,3.09-5.37,5.68-10.52,7.87-15.32-5-.5-10.34-1.23-15.94-2.27C363.49,347.84,360.25,347.14,357.15,346.39Z"/><line class="cls-3" x1="382.82" y1="350.74" x2="382.82" y2="361.01"/><line class="cls-3" x1="365.43" y1="380.97" x2="365.43" y2="391.24"/><line class="cls-3" x1="341.21" y1="375.17" x2="341.21" y2="385.44"/><path class="cls-4" d="M410.72,345.31c-1.8,5.44-3.15,9.89-4,12.89-1.61,5.43-2.36,8.36-4.35,15.06-1.11,3.74-2,6.78-2.64,8.69q5.88.39,12,.93,6.33.57,12.42,1.25c2-9.62,3.66-19.88,4.81-30.75.3-2.83.56-5.63.78-8.38-2.76-.13-5.66-.19-8.69-.16C417.35,344.88,413.93,345.05,410.72,345.31Z"/><line class="cls-3" x1="399.69" y1="381.95" x2="399.69" y2="391.42"/><line class="cls-3" x1="424.07" y1="384.13" x2="424.07" y2="393.6"/><line class="cls-3" x1="429.66" y1="345" x2="429.66" y2="354.47"/><path class="cls-3" d="M447,169.39c.21,2,.41,4.07.62,6.11l21.22,3.2q-.21-3.25-.41-6.52Z"/><path class="cls-3" d="M460.66,323.52l1.35,10,33.85,5.07L497,328.49Z"/><path class="cls-4" d="M461.8,393.6q-2.57,9-5.59,18.32c-2.61,8.08-5.32,15.85-8.07,23.29a125.8,125.8,0,0,0,12.73,1.24c4.24.2,8.19.17,11.8,0,1.07-6.91,2.39-14.17,4-21.74,1.44-6.63,3-12.95,4.66-18.94l-11.18-1.24Z"/><line class="cls-3" x1="448.14" y1="447.01" x2="448.14" y2="435.21"/><line class="cls-3" x1="472.67" y1="448.25" x2="472.67" y2="436.45"/><line class="cls-3" x1="481.37" y1="407.57" x2="481.37" y2="395.77"/><line class="cls-3" x1="336.03" y1="458.5" x2="336.03" y2="471.91"/><line class="cls-3" x1="366.16" y1="475.02" x2="366.16" y2="461.6"/><line class="cls-3" x1="381.06" y1="426.89" x2="381.06" y2="413.47"/><path class="cls-4" d="M357.77,412.23c-1.49,3.41-3.36,7.62-5.59,12.42-3.34,7.21-5.29,11.07-10.25,21.43-1.64,3.43-3.64,7.62-5.9,12.42,4.35.17,8.91.47,13.67.93,5.82.57,11.31,1.31,16.46,2.17,2.54-7,5-14.37,7.45-22q4.23-13.5,7.45-26.09Z"/><line class="cls-3" x1="506.98" y1="88.49" x2="485.5" y2="86.77"/><ellipse cx="506.4" cy="106.5" rx="3.14" ry="5.74"/><ellipse cx="480.25" cy="177.39" rx="3.74" ry="6.83"/><ellipse cx="501.84" cy="345.28" rx="5.21" ry="0.73" transform="matrix(0.15, -0.99, 0.99, 0.15, 86.06, 790.46)"/><ellipse cx="458.75" cy="339.77" rx="0.73" ry="5.21" transform="translate(-34.82 52.92) rotate(-6.36)"/><ellipse cx="434.37" cy="260.72" rx="2.28" ry="5.21"/><ellipse cx="425" cy="285.74" rx="2.28" ry="5.21"/><ellipse cx="450.22" cy="226.69" rx="2.28" ry="5.21"/><ellipse cx="454.78" cy="211" rx="2.28" ry="5.21"/><ellipse cx="518.58" cy="179.57" rx="2.28" ry="5.21"/><ellipse cx="513.04" cy="197.03" rx="2.28" ry="5.21"/><ellipse cx="370.39" cy="385.47" rx="2.06" ry="5.77"/><ellipse cx="370.39" cy="465.21" rx="2.06" ry="5.77"/><ellipse cx="474.47" cy="438.42" rx="2.06" ry="5.77"/><ellipse cx="481.37" cy="409.85" rx="2.06" ry="5.77"/><ellipse cx="426.13" cy="384.71" rx="1.48" ry="4.15"/><ellipse cx="429.66" cy="360.16" rx="1.48" ry="4.15"/><ellipse cx="379.97" cy="432.66" rx="2.06" ry="5.77"/><ellipse cx="381.37" cy="364.17" rx="1.79" ry="5.02"/></g><g id="Layer_4" data-name="Layer 4"><line class="cls-3" x1="432.88" y1="135.51" x2="499.58" y2="33.95"/><line class="cls-3" x1="243.7" y1="423.51" x2="424.41" y2="148.4"/><line class="cls-3" x1="496.89" y1="56.51" x2="270.2" y2="438.94"/><line class="cls-3" x1="521.63" y1="389.39" x2="519.5" y2="497.31"/><line class="cls-3" x1="527.95" y1="70.08" x2="522.31" y2="356.02"/><text class="cls-5" transform="translate(635.97 182.86)">going off <tspan class="cls-6" x="47.17" y="0">f</tspan><tspan x="50.98" y="0">or deli</tspan><tspan class="cls-7" x="81.59" y="0">v</tspan><tspan x="86.78" y="0">eri</tspan><tspan class="cls-8" x="99.54" y="0">e</tspan><tspan x="105.63" y="0">s</tspan></text><text class="cls-5" transform="translate(587.66 77.88)">f<tspan class="cls-6" x="4.01" y="0">r</tspan><tspan x="7.98" y="0">om </tspan><tspan class="cls-9" x="25.99" y="0">p</tspan><tspan x="32.7" y="0">ackage n</tspan><tspan class="cls-10" x="77.85" y="0">o</tspan><tspan x="84.29" y="0">de</tspan></text><text class="cls-5" transform="translate(683.75 459.27)">f<tspan class="cls-6" x="4.01" y="0">r</tspan><tspan x="7.98" y="0">om </tspan><tspan class="cls-9" x="25.99" y="0">p</tspan><tspan x="32.7" y="0">ackage n</tspan><tspan class="cls-10" x="77.85" y="0">o</tspan><tspan x="84.29" y="0">de</tspan></text><text class="cls-5" transform="translate(238.92 90.81)">t<tspan class="cls-6" x="4.38" y="0">r</tspan><tspan x="8.35" y="0">ans</tspan><tspan class="cls-11" x="25.66" y="0">f</tspan><tspan x="29.47" y="0">er </tspan><tspan class="cls-10" x="41.83" y="0">b</tspan><tspan x="48.54" y="0">e</tspan><tspan class="cls-10" x="54.48" y="0">t</tspan><tspan class="cls-12" x="58.96" y="0">w</tspan><tspan class="cls-13" x="67" y="0">e</tspan><tspan x="73.09" y="0">en m</tspan><tspan class="cls-10" x="96.8" y="0">o</tspan><tspan x="103.24" y="0">d</tspan><tspan class="cls-8" x="109.85" y="0">e</tspan><tspan x="115.94" y="0">s</tspan></text></g><g id="Layer_5" data-name="Layer 5"><polyline class="cls-3" points="319.05 184.78 312.23 192.64 296.5 190.37"/><polygon class="cls-4" points="312.23 187.97 296.5 185.69 303.31 177.83 319.05 180.1 312.23 187.97"/><line class="cls-3" x1="296.5" y1="190.37" x2="296.5" y2="185.69"/><line class="cls-3" x1="312.23" y1="192.64" x2="312.23" y2="187.96"/><line class="cls-3" x1="319.05" y1="184.78" x2="319.05" y2="180.1"/></g><g id="Layer_6" data-name="Layer 6"><ellipse class="cls-14" cx="305.26" cy="172.1" rx="4.22" ry="2.58" transform="translate(-19.07 39.4) rotate(-7.16)"/><ellipse class="cls-14" cx="293.48" cy="186.77" rx="5.2" ry="3.18" transform="translate(-20.99 38.04) rotate(-7.16)"/><ellipse class="cls-14" cx="308.88" cy="192.65" rx="5.9" ry="3.61" transform="translate(-21.61 40.01) rotate(-7.16)"/><ellipse class="cls-14" cx="321.59" cy="178.09" rx="5.2" ry="3.18" transform="translate(-19.69 41.48) rotate(-7.16)"/><ellipse class="cls-15" cx="307.14" cy="181.85" rx="7.17" ry="4.39" transform="translate(-20.27 39.71) rotate(-7.16)"/><ellipse class="cls-15" cx="307.14" cy="180.22" rx="7.17" ry="4.39" transform="translate(-20.07 39.69) rotate(-7.16)"/><path class="cls-15" d="M303.86,186a2.78,2.78,0,0,1,1.66,1.7,2.82,2.82,0,0,1-.56,2.54,7.43,7.43,0,0,1,2.81-1.21,7.59,7.59,0,0,1,3.11,0,1.94,1.94,0,0,1-1.06-3.36,10.77,10.77,0,0,1-2.53.52A11,11,0,0,1,303.86,186Z"/><path class="cls-15" d="M295.73,183.72a3,3,0,0,1,2.25,1.12,3.16,3.16,0,0,1,.51,2.36,3.06,3.06,0,0,1,1.22-1.54,3.52,3.52,0,0,1,2.21-.4,3.36,3.36,0,0,1-1.59-1.57,3.25,3.25,0,0,1-.31-1.6,4.23,4.23,0,0,1-1.23,1.18A4.65,4.65,0,0,1,295.73,183.72Z"/><path class="cls-15" d="M303.45,174.59a1.73,1.73,0,0,1,.92,1.13,3.05,3.05,0,0,1-.77,2.58,9.13,9.13,0,0,1,2.28-.85,9.38,9.38,0,0,1,2.9,0,2.44,2.44,0,0,1-1.82-2,1.75,1.75,0,0,1,.41-1.14c-.36.12-1.45.26-2.11.37A9.12,9.12,0,0,1,303.45,174.59Z"/><path class="cls-15" d="M312.56,178.44a4,4,0,0,0,3.93-.94,2.49,2.49,0,0,0,0,1.55,2.53,2.53,0,0,0,1,1.32,3.41,3.41,0,0,0-3.28,1.46,3.53,3.53,0,0,0-.34-1.93A3.42,3.42,0,0,0,312.56,178.44Z"/><path class="cls-16" d="M319.28,176.71a4.66,4.66,0,0,1,4.5-.33"/><path class="cls-16" d="M319.9,177.15a3.45,3.45,0,0,1,1.39-.5,3.4,3.4,0,0,1,1.81.27"/><path class="cls-16" d="M320.42,177.62a1.89,1.89,0,0,1,1-.45,2,2,0,0,1,1.15.27"/><path class="cls-16" d="M323.89,179.47a4.73,4.73,0,0,1-4.5.33"/><path class="cls-16" d="M323.27,179a3.23,3.23,0,0,1-1.38.51,3.42,3.42,0,0,1-1.82-.27"/><path class="cls-16" d="M322.75,178.56a1.27,1.27,0,0,1-1,.4,2.21,2.21,0,0,1-1.23-.22"/><path class="cls-16" d="M306.13,191.15a5.48,5.48,0,0,1,5.23-.61"/><path class="cls-16" d="M306.87,191.64a4,4,0,0,1,1.59-.66,3.94,3.94,0,0,1,2.13.23"/><path class="cls-16" d="M307.5,192.16a2.27,2.27,0,0,1,1.19-.58,2.35,2.35,0,0,1,1.36.26"/><path class="cls-16" d="M311.64,194.14a5.48,5.48,0,0,1-5.23.61"/><path class="cls-16" d="M310.9,193.65a3.95,3.95,0,0,1-3.73.44"/><path class="cls-16" d="M310.27,193.14a1.52,1.52,0,0,1-1.11.52,2.6,2.6,0,0,1-1.44-.21"/><path class="cls-16" d="M291,185.5a4.74,4.74,0,0,1,1.93-.8,4.86,4.86,0,0,1,2.58.27"/><path class="cls-16" d="M291.6,185.93a3.43,3.43,0,0,1,1.37-.58,3.38,3.38,0,0,1,1.84.2"/><path class="cls-16" d="M292.14,186.37a2,2,0,0,1,1-.5,2,2,0,0,1,1.17.23"/><path class="cls-16" d="M295.71,188.08a4.75,4.75,0,0,1-1.92.8,4.88,4.88,0,0,1-2.59-.27"/><path class="cls-16" d="M295.07,187.66a3.3,3.3,0,0,1-1.37.57,3.38,3.38,0,0,1-1.84-.2"/><path class="cls-16" d="M294.53,187.21a1.25,1.25,0,0,1-.95.45,2.19,2.19,0,0,1-1.25-.17"/><path class="cls-16" d="M303.35,171.07a3.69,3.69,0,0,1,1.55-.64,3.75,3.75,0,0,1,2.07.22"/><path class="cls-16" d="M303.86,171.41A2.81,2.81,0,0,1,305,171a2.69,2.69,0,0,1,1.48.16"/><path class="cls-16" d="M304.3,171.77a1.53,1.53,0,0,1,.82-.41,1.58,1.58,0,0,1,.94.19"/><path class="cls-16" d="M307.17,173.14a3.83,3.83,0,0,1-3.63.42"/><path class="cls-16" d="M306.65,172.8a2.74,2.74,0,0,1-1.1.46,2.69,2.69,0,0,1-1.48-.16"/><path class="cls-16" d="M306.22,172.44a1.05,1.05,0,0,1-.77.36,1.7,1.7,0,0,1-1-.14"/><polyline class="cls-3" points="340.3 163.53 333.48 171.4 317.74 169.12"/><polygon class="cls-4" points="333.48 166.72 317.74 164.45 324.56 156.58 340.3 158.86 333.48 166.72"/><line class="cls-3" x1="317.74" y1="169.12" x2="317.74" y2="164.45"/><line class="cls-3" x1="333.48" y1="171.4" x2="333.48" y2="166.72"/><line class="cls-3" x1="340.3" y1="163.53" x2="340.3" y2="158.86"/><ellipse class="cls-14" cx="326.5" cy="150.86" rx="4.22" ry="2.58" transform="translate(-16.26 41.88) rotate(-7.16)"/><ellipse class="cls-14" cx="314.73" cy="165.53" rx="5.2" ry="3.18" transform="translate(-18.18 40.52) rotate(-7.16)"/><ellipse class="cls-14" cx="330.13" cy="171.4" rx="5.9" ry="3.61" transform="translate(-18.79 42.49) rotate(-7.16)"/><ellipse class="cls-14" cx="342.83" cy="156.84" rx="5.2" ry="3.18" transform="translate(-16.88 43.96) rotate(-7.16)"/><ellipse class="cls-15" cx="328.38" cy="160.6" rx="7.17" ry="4.39" transform="translate(-17.46 42.19) rotate(-7.16)"/><ellipse class="cls-15" cx="328.38" cy="158.98" rx="7.17" ry="4.39" transform="translate(-17.26 42.18) rotate(-7.16)"/><path class="cls-15" d="M325.1,164.78a2.7,2.7,0,0,1,1.66,1.7,2.78,2.78,0,0,1-.56,2.53,7.57,7.57,0,0,1,5.92-1.18,2.07,2.07,0,0,1-1.68-1.74,2.11,2.11,0,0,1,.62-1.61,11.19,11.19,0,0,1-2.53.52A11.65,11.65,0,0,1,325.1,164.78Z"/><path class="cls-15" d="M317,162.47a3,3,0,0,1,2.25,1.13,3,3,0,0,1,.51,2.35,3.11,3.11,0,0,1,1.23-1.54,3.49,3.49,0,0,1,2.2-.4,3.26,3.26,0,0,1-1.59-1.57,3.3,3.3,0,0,1-.3-1.59A4.43,4.43,0,0,1,320,162,4.62,4.62,0,0,1,317,162.47Z"/><path class="cls-15" d="M324.69,153.34a1.76,1.76,0,0,1,.93,1.14,3.07,3.07,0,0,1-.78,2.57,9.25,9.25,0,0,1,2.29-.84,9,9,0,0,1,2.89,0,2.43,2.43,0,0,1-1.81-2,1.81,1.81,0,0,1,.4-1.14,18.4,18.4,0,0,1-2.1.37A9.24,9.24,0,0,1,324.69,153.34Z"/><path class="cls-15" d="M333.81,157.19a4,4,0,0,0,3.92-.94,2.63,2.63,0,0,0,0,1.56,2.57,2.57,0,0,0,1,1.32,3.34,3.34,0,0,0-1.67.18,3.43,3.43,0,0,0-1.62,1.27,3.5,3.5,0,0,0-.33-1.93A3.55,3.55,0,0,0,333.81,157.19Z"/><path class="cls-16" d="M340.53,155.46a4.72,4.72,0,0,1,4.5-.33"/><path class="cls-16" d="M341.15,155.91a3.31,3.31,0,0,1,1.38-.51,3.42,3.42,0,0,1,1.82.27"/><path class="cls-16" d="M341.67,156.37a1.94,1.94,0,0,1,1-.45,2.08,2.08,0,0,1,1.16.28"/><path class="cls-16" d="M345.13,158.22a4.62,4.62,0,0,1-1.94.72,4.7,4.7,0,0,1-2.55-.39"/><path class="cls-16" d="M344.51,157.78a3.33,3.33,0,0,1-1.38.5,3.26,3.26,0,0,1-1.81-.27"/><path class="cls-16" d="M344,157.31a1.3,1.3,0,0,1-1,.41,2.18,2.18,0,0,1-1.22-.23"/><path class="cls-16" d="M327.37,169.91a5.43,5.43,0,0,1,2.24-.93,5.52,5.52,0,0,1,3,.31"/><path class="cls-16" d="M328.12,170.4a3.86,3.86,0,0,1,3.72-.44"/><path class="cls-16" d="M328.74,170.91a2.14,2.14,0,0,1,2.55-.32"/><path class="cls-16" d="M332.89,172.9a5.5,5.5,0,0,1-5.24.61"/><path class="cls-16" d="M332.14,172.41a3.9,3.9,0,0,1-3.72.43"/><path class="cls-16" d="M331.51,171.89a1.47,1.47,0,0,1-1.1.52,2.48,2.48,0,0,1-1.44-.2"/><path class="cls-16" d="M312.2,164.26a4.73,4.73,0,0,1,1.93-.8,4.78,4.78,0,0,1,2.59.27"/><path class="cls-16" d="M312.85,164.68a3.3,3.3,0,0,1,1.37-.57,3.52,3.52,0,0,1,1.84.19"/><path class="cls-16" d="M313.39,165.12a2,2,0,0,1,1-.5,2,2,0,0,1,1.17.23"/><path class="cls-16" d="M317,166.83a4.69,4.69,0,0,1-4.51.53"/><path class="cls-16" d="M316.32,166.41A3.3,3.3,0,0,1,315,167a3.39,3.39,0,0,1-1.84-.19"/><path class="cls-16" d="M315.77,166a1.28,1.28,0,0,1-.95.45,2.25,2.25,0,0,1-1.24-.18"/><path class="cls-16" d="M324.59,149.83a3.94,3.94,0,0,1,1.55-.65,3.89,3.89,0,0,1,2.08.22"/><path class="cls-16" d="M325.11,150.16a2.76,2.76,0,0,1,1.1-.45,2.82,2.82,0,0,1,1.48.15"/><path class="cls-16" d="M325.54,150.52a1.62,1.62,0,0,1,.82-.4,1.69,1.69,0,0,1,.95.18"/><path class="cls-16" d="M328.41,151.89a3.81,3.81,0,0,1-1.55.65,3.85,3.85,0,0,1-2.07-.22"/><path class="cls-16" d="M327.9,151.55a2.67,2.67,0,0,1-1.1.46,2.82,2.82,0,0,1-1.48-.15"/><path class="cls-16" d="M327.46,151.2a1,1,0,0,1-.76.36,1.75,1.75,0,0,1-1-.14"/><polygon class="cls-4" points="488.52 316.49 475.25 314.39 477.74 303.75 489.5 305.61 488.52 316.49"/><polygon class="cls-4" points="488.9 314.08 475.63 311.98 478.12 301.34 489.88 303.2 488.9 314.08"/><path class="cls-14" d="M480.84,298.08c-.07,1.42-1.79,2.55-3.84,2.52s-3.68-1.21-3.61-2.63,1.79-2.55,3.84-2.52S480.91,296.66,480.84,298.08Z"/><ellipse class="cls-15" cx="483.37" cy="306.93" rx="4.37" ry="6.33" transform="translate(104.81 736.52) rotate(-81.03)"/><ellipse class="cls-15" cx="483.5" cy="306.11" rx="4.37" ry="6.33" transform="translate(105.73 735.96) rotate(-81.03)"/><path class="cls-16" d="M475.62,296.74a3,3,0,0,1,1.44-.42,3,3,0,0,1,1.77.5"/><path class="cls-16" d="M476,297.15a2.12,2.12,0,0,1,2.29.05"/><path class="cls-16" d="M476.33,297.56a1.38,1.38,0,0,1,.78-.29,1.32,1.32,0,0,1,.79.31"/><path class="cls-16" d="M478.61,299.31a3,3,0,0,1-1.44.42,3,3,0,0,1-1.77-.5"/><path class="cls-16" d="M478.22,298.9a2.1,2.1,0,0,1-1,.3,2.15,2.15,0,0,1-1.26-.35"/><path class="cls-16" d="M477.9,298.49a.89.89,0,0,1-.73.25,1.36,1.36,0,0,1-.84-.27"/><ellipse class="cls-14" cx="493.87" cy="300.67" rx="3.73" ry="2.58" transform="translate(-4.12 6.87) rotate(-0.79)"/><path class="cls-16" d="M492.37,299.39a3.14,3.14,0,0,1,1.44-.43,3.1,3.1,0,0,1,1.77.5"/><path class="cls-16" d="M492.76,299.79a2.34,2.34,0,0,1,1-.3,2.14,2.14,0,0,1,1.26.36"/><path class="cls-16" d="M493.08,300.2a1.37,1.37,0,0,1,.78-.28,1.32,1.32,0,0,1,.79.31"/><path class="cls-16" d="M495.36,302a3.14,3.14,0,0,1-1.44.43,3,3,0,0,1-1.77-.51"/><path class="cls-16" d="M495,301.55a2.34,2.34,0,0,1-1,.3,2.14,2.14,0,0,1-1.26-.36"/><path class="cls-16" d="M494.65,301.14a.91.91,0,0,1-.73.25,1.37,1.37,0,0,1-.84-.28"/><ellipse class="cls-14" cx="470.76" cy="312.78" rx="4.82" ry="3.33" transform="matrix(1, -0.01, 0.01, 1, -4.29, 6.55)"/><path class="cls-16" d="M468.82,311.12a4,4,0,0,1,1.87-.55,3.91,3.91,0,0,1,2.29.65"/><path class="cls-16" d="M469.34,311.64a2.92,2.92,0,0,1,1.33-.39,2.78,2.78,0,0,1,1.62.46"/><path class="cls-16" d="M469.75,312.17a1.75,1.75,0,0,1,1-.36,1.64,1.64,0,0,1,1,.4"/><path class="cls-16" d="M472.7,314.44a4.17,4.17,0,0,1-1.87.54,3.86,3.86,0,0,1-2.29-.65"/><path class="cls-16" d="M472.19,313.91a2.79,2.79,0,0,1-3-.07"/><path class="cls-16" d="M471.77,313.38a1.14,1.14,0,0,1-.93.32,1.83,1.83,0,0,1-1.1-.35"/><ellipse class="cls-14" cx="492" cy="316.57" rx="4.82" ry="3.33" transform="translate(-4.34 6.84) rotate(-0.79)"/><path class="cls-16" d="M490.06,314.91a4.28,4.28,0,0,1,1.87-.55,3.94,3.94,0,0,1,2.29.65"/><path class="cls-16" d="M490.57,315.44a2.79,2.79,0,0,1,3,.07"/><path class="cls-16" d="M491,316a1.53,1.53,0,0,1,2,0"/><path class="cls-16" d="M493.94,318.23a4,4,0,0,1-1.87.55,3.91,3.91,0,0,1-2.29-.65"/><path class="cls-16" d="M493.42,317.71a3,3,0,0,1-1.33.39,2.78,2.78,0,0,1-1.62-.46"/><path class="cls-16" d="M493,317.17a1.11,1.11,0,0,1-.94.33,1.74,1.74,0,0,1-1.09-.36"/><polyline class="cls-3" points="439.63 145.42 432.91 151.37 420.35 146.86"/><polygon class="cls-4" points="433.58 147.19 421.02 142.68 427.75 136.73 440.31 141.24 433.58 147.19"/><line class="cls-3" x1="420.35" y1="146.86" x2="421.02" y2="142.68"/><line class="cls-3" x1="432.91" y1="151.37" x2="433.58" y2="147.19"/><line class="cls-3" x1="439.63" y1="145.42" x2="440.31" y2="141.24"/><ellipse class="cls-14" cx="430.16" cy="131.93" rx="2.34" ry="3.51" transform="translate(272.17 553.22) rotate(-86.49)"/><ellipse class="cls-14" cx="418.4" cy="143.17" rx="2.89" ry="4.33" transform="translate(249.9 552.03) rotate(-86.49)"/><ellipse class="cls-14" cx="430.16" cy="150.85" rx="3.27" ry="4.91" transform="translate(253.29 570.98) rotate(-86.49)"/><ellipse class="cls-14" cx="442.67" cy="139.85" rx="2.89" ry="4.33" transform="translate(276.01 573.14) rotate(-86.49)"/><ellipse class="cls-15" cx="430.29" cy="140.93" rx="3.98" ry="5.96" transform="translate(263.31 561.79) rotate(-86.49)"/><ellipse class="cls-15" cx="430.53" cy="139.47" rx="3.98" ry="5.96" transform="translate(264.98 560.66) rotate(-86.49)"/><path class="cls-15" d="M427,144.14a2.47,2.47,0,0,1,1.11,1.77,2.63,2.63,0,0,1-.83,2.18,6,6,0,0,1,2.48-.63,5.86,5.86,0,0,1,2.54.51,1.87,1.87,0,0,1-1.12-1.82,1.9,1.9,0,0,1,.74-1.34,8.61,8.61,0,0,1-2.15.07A9.19,9.19,0,0,1,427,144.14Z"/><path class="cls-15" d="M420.68,140.79a2.52,2.52,0,0,1,1.68,1.37,3.1,3.1,0,0,1,.08,2.18,2.54,2.54,0,0,1,1.22-1.18,2.6,2.6,0,0,1,1.86,0,3,3,0,0,1-1.07-1.65,3.32,3.32,0,0,1,0-1.48,3.56,3.56,0,0,1-1.18.86A3.52,3.52,0,0,1,420.68,140.79Z"/><path class="cls-15" d="M428.32,133.86a1.61,1.61,0,0,1,.6,1.16,2.9,2.9,0,0,1-1,2.18,6.89,6.89,0,0,1,2-.4,7.21,7.21,0,0,1,2.38.44,2.25,2.25,0,0,1-1.21-2,1.71,1.71,0,0,1,.5-1,14.93,14.93,0,0,1-1.78,0A7.16,7.16,0,0,1,428.32,133.86Z"/><path class="cls-15" d="M435.23,138.73a3.06,3.06,0,0,0,3.35-.21,2.5,2.5,0,0,0-.22,1.38,2.37,2.37,0,0,0,.64,1.34,2.61,2.61,0,0,0-1.4-.1,2.84,2.84,0,0,0-1.5.88,3.47,3.47,0,0,0,0-1.77A3.18,3.18,0,0,0,435.23,138.73Z"/><path class="cls-16" d="M441,138.25a3.63,3.63,0,0,1,1.69-.33,3.76,3.76,0,0,1,2,.75"/><path class="cls-16" d="M441.43,138.75a2.5,2.5,0,0,1,1.21-.24,2.69,2.69,0,0,1,1.44.53"/><path class="cls-16" d="M441.79,139.24a1.57,1.57,0,0,1,.91-.24,1.68,1.68,0,0,1,.91.43"/><path class="cls-16" d="M444.36,141.44a3.64,3.64,0,0,1-1.7.33,3.85,3.85,0,0,1-2-.74"/><path class="cls-16" d="M443.92,141a2.68,2.68,0,0,1-1.21.23,2.65,2.65,0,0,1-1.45-.53"/><path class="cls-16" d="M443.56,140.45a1,1,0,0,1-.85.21,1.76,1.76,0,0,1-1-.4"/><path class="cls-16" d="M428.12,149.08a4.26,4.26,0,0,1,2-.48,4.42,4.42,0,0,1,2.41.75"/><path class="cls-16" d="M428.66,149.63a3,3,0,0,1,3.11.2"/><path class="cls-16" d="M429.1,150.19a1.85,1.85,0,0,1,1.06-.33,1.81,1.81,0,0,1,1.07.45"/><path class="cls-16" d="M432.21,152.62a4.24,4.24,0,0,1-4.38-.28"/><path class="cls-16" d="M431.67,152.06a3.05,3.05,0,0,1-1.4.34,3.1,3.1,0,0,1-1.72-.54"/><path class="cls-16" d="M431.23,151.5a1.15,1.15,0,0,1-1,.29,2,2,0,0,1-1.16-.41"/><path class="cls-16" d="M416.51,141.64a3.62,3.62,0,0,1,1.7-.41,3.7,3.7,0,0,1,2.08.65"/><path class="cls-16" d="M417,142.12a2.56,2.56,0,0,1,2.68.17"/><path class="cls-16" d="M417.36,142.6a1.54,1.54,0,0,1,.91-.29,1.65,1.65,0,0,1,.93.39"/><path class="cls-16" d="M420,144.69a3.62,3.62,0,0,1-1.7.41,3.78,3.78,0,0,1-2.08-.65"/><path class="cls-16" d="M419.57,144.21a2.59,2.59,0,0,1-1.2.3,2.72,2.72,0,0,1-1.48-.47"/><path class="cls-16" d="M419.19,143.73a1,1,0,0,1-.84.25,1.75,1.75,0,0,1-1-.35"/><path class="cls-16" d="M428.75,130.7a3,3,0,0,1,3,.19"/><path class="cls-16" d="M429.12,131.09a2.09,2.09,0,0,1,1-.24,2.17,2.17,0,0,1,1.19.37"/><path class="cls-16" d="M429.43,131.47a1.32,1.32,0,0,1,.73-.23,1.39,1.39,0,0,1,.75.31"/><path class="cls-16" d="M431.58,133.15a3,3,0,0,1-3-.19"/><path class="cls-16" d="M431.2,132.77a2.11,2.11,0,0,1-2.15-.14"/><path class="cls-16" d="M430.9,132.38a.82.82,0,0,1-.68.2,1.43,1.43,0,0,1-.8-.28"/><polyline class="cls-3" points="473.68 141.19 470.91 146.08 462.34 146.56"/><polygon class="cls-4" points="470.41 143.6 461.84 144.08 464.61 139.19 473.18 138.71 470.41 143.6"/><line class="cls-3" x1="462.34" y1="146.56" x2="461.84" y2="144.08"/><line class="cls-3" x1="470.91" y1="146.08" x2="470.41" y2="143.6"/><line class="cls-3" x1="473.68" y1="141.19" x2="473.18" y2="138.71"/><ellipse class="cls-14" cx="465.02" cy="135.96" rx="2.28" ry="1.39" transform="translate(-19.08 155.38) rotate(-18.59)"/><ellipse class="cls-14" cx="460.36" cy="144.98" rx="2.81" ry="1.72" transform="translate(-22.2 154.36) rotate(-18.59)"/><ellipse class="cls-14" cx="469.14" cy="146.44" rx="3.18" ry="1.95" transform="translate(-22.2 157.24) rotate(-18.59)"/><ellipse class="cls-14" cx="474.3" cy="137.37" rx="2.81" ry="1.72" transform="translate(-19.05 158.41) rotate(-18.59)"/><ellipse class="cls-15" cx="467.06" cy="140.91" rx="3.87" ry="2.37" transform="translate(-20.55 156.29) rotate(-18.59)"/><ellipse class="cls-15" cx="466.88" cy="140.05" rx="3.87" ry="2.37" transform="translate(-20.29 156.19) rotate(-18.59)"/><path class="cls-15" d="M465.77,143.47a1.41,1.41,0,0,1,1,2.12,3.91,3.91,0,0,1,1.35-.93,4,4,0,0,1,1.65-.32,1.11,1.11,0,0,1-1.07-.75,1.15,1.15,0,0,1,.15-.92,5.77,5.77,0,0,1-1.28.55A6,6,0,0,1,465.77,143.47Z"/><path class="cls-15" d="M461.22,143.12a1.59,1.59,0,0,1,1.31.36,1.62,1.62,0,0,1,.52,1.19,1.73,1.73,0,0,1,.49-.95,1.84,1.84,0,0,1,1.12-.45,1.78,1.78,0,0,1-1-.66,1.7,1.7,0,0,1-.33-.81,2.45,2.45,0,0,1-.53.76A2.48,2.48,0,0,1,461.22,143.12Z"/><path class="cls-15" d="M464.33,137.46a1,1,0,0,1,.61.5,1.66,1.66,0,0,1-.13,1.45,5.25,5.25,0,0,1,1.11-.69,4.64,4.64,0,0,1,1.53-.32,1.32,1.32,0,0,1-1.16-.84.93.93,0,0,1,.09-.65,9.12,9.12,0,0,1-1.08.42A4.83,4.83,0,0,1,464.33,137.46Z"/><path class="cls-15" d="M469.57,138.52a2.18,2.18,0,0,0,1-.15,2.24,2.24,0,0,0,.94-.76,1.43,1.43,0,0,0,.17.82,1.35,1.35,0,0,0,.68.59,1.77,1.77,0,0,0-.87.28,1.93,1.93,0,0,0-.72.84,1.82,1.82,0,0,0-.38-1A2,2,0,0,0,469.57,138.52Z"/><path class="cls-16" d="M472.94,136.89a2.51,2.51,0,0,1,2.34-.66"/><path class="cls-16" d="M473.31,137.06a1.94,1.94,0,0,1,.68-.42,1.92,1.92,0,0,1,1,0"/><path class="cls-16" d="M473.64,137.25a1,1,0,0,1,.5-.35,1.16,1.16,0,0,1,.64,0"/><path class="cls-16" d="M475.67,137.86a2.59,2.59,0,0,1-.95.58,2.45,2.45,0,0,1-1.4.07"/><path class="cls-16" d="M475.29,137.69a1.76,1.76,0,0,1-.67.41,1.72,1.72,0,0,1-1,.05"/><path class="cls-16" d="M475,137.5a.68.68,0,0,1-.47.31,1.18,1.18,0,0,1-.67,0"/><path class="cls-16" d="M467.52,145.94a3.1,3.1,0,0,1,1.08-.73,3,3,0,0,1,1.62-.15"/><path class="cls-16" d="M468,146.12a2.06,2.06,0,0,1,.77-.52,2.16,2.16,0,0,1,1.15-.11"/><path class="cls-16" d="M468.35,146.33a1.31,1.31,0,0,1,.57-.44,1.2,1.2,0,0,1,.75,0"/><path class="cls-16" d="M470.76,146.93a2.93,2.93,0,0,1-2.71.89"/><path class="cls-16" d="M470.31,146.75a2.11,2.11,0,0,1-1.92.63"/><path class="cls-16" d="M469.92,146.55a.78.78,0,0,1-.53.39,1.31,1.31,0,0,1-.78.05"/><path class="cls-16" d="M458.89,144.58a2.71,2.71,0,0,1,.93-.64,2.63,2.63,0,0,1,1.4-.13"/><path class="cls-16" d="M459.27,144.73a2,2,0,0,1,.67-.45,1.83,1.83,0,0,1,1-.09"/><path class="cls-16" d="M459.61,144.91a1,1,0,0,1,.49-.38,1.07,1.07,0,0,1,.64,0"/><path class="cls-16" d="M461.68,145.43a2.5,2.5,0,0,1-.93.63,2.53,2.53,0,0,1-1.4.13"/><path class="cls-16" d="M461.3,145.28a1.83,1.83,0,0,1-.67.44,1.77,1.77,0,0,1-1,.1"/><path class="cls-16" d="M461,145.1a.71.71,0,0,1-.45.34,1.22,1.22,0,0,1-.68,0"/><path class="cls-16" d="M463.9,135.61a2.13,2.13,0,0,1,.75-.5,2.06,2.06,0,0,1,1.12-.11"/><path class="cls-16" d="M464.21,135.74a1.41,1.41,0,0,1,.53-.36,1.52,1.52,0,0,1,.8-.08"/><path class="cls-16" d="M464.48,135.88a.78.78,0,0,1,.39-.3.92.92,0,0,1,.52,0"/><path class="cls-16" d="M466.14,136.3a2,2,0,0,1-.75.5,2,2,0,0,1-1.12.11"/><path class="cls-16" d="M465.83,136.17a1.33,1.33,0,0,1-.53.36,1.52,1.52,0,0,1-.8.08"/><path class="cls-16" d="M465.56,136a.51.51,0,0,1-.36.27,1,1,0,0,1-.54,0"/><polyline class="cls-3" points="482.49 126.06 479.73 130.95 471.15 131.43"/><polygon class="cls-4" points="479.23 128.48 470.65 128.96 473.42 124.07 481.99 123.58 479.23 128.48"/><line class="cls-3" x1="471.15" y1="131.43" x2="470.65" y2="128.96"/><line class="cls-3" x1="479.73" y1="130.95" x2="479.23" y2="128.48"/><line class="cls-3" x1="482.49" y1="126.06" x2="481.99" y2="123.58"/><ellipse class="cls-14" cx="473.84" cy="120.83" rx="2.28" ry="1.39" transform="translate(-13.79 157.4) rotate(-18.59)"/><ellipse class="cls-14" cx="469.17" cy="129.85" rx="2.81" ry="1.72" transform="translate(-16.91 156.38) rotate(-18.59)"/><ellipse class="cls-14" cx="477.95" cy="131.31" rx="3.18" ry="1.95" transform="translate(-16.92 159.26) rotate(-18.59)"/><ellipse class="cls-14" cx="483.12" cy="122.25" rx="2.81" ry="1.72" transform="translate(-13.76 160.43) rotate(-18.59)"/><ellipse class="cls-15" cx="475.87" cy="125.79" rx="3.87" ry="2.37" transform="translate(-15.27 158.31) rotate(-18.59)"/><ellipse class="cls-15" cx="475.7" cy="124.92" rx="3.87" ry="2.37" transform="matrix(0.95, -0.32, 0.32, 0.95, -15, 158.21)"/><path class="cls-15" d="M474.59,128.34a1.46,1.46,0,0,1,1.05.73,1.51,1.51,0,0,1,0,1.4,4.07,4.07,0,0,1,1.36-.94,4.2,4.2,0,0,1,1.65-.32,1,1,0,0,1-.92-1.66,6,6,0,0,1-3.12.79Z"/><path class="cls-15" d="M470,128a1.63,1.63,0,0,1,1.31.36,1.67,1.67,0,0,1,.52,1.19,1.62,1.62,0,0,1,.48-.94,1.88,1.88,0,0,1,1.13-.45,1.78,1.78,0,0,1-1-.66,1.74,1.74,0,0,1-.33-.81,2.43,2.43,0,0,1-.53.75A2.45,2.45,0,0,1,470,128Z"/><path class="cls-15" d="M473.14,122.34a1,1,0,0,1,.62.5,1.67,1.67,0,0,1-.14,1.44,5.35,5.35,0,0,1,1.12-.69,5.16,5.16,0,0,1,1.53-.32,1.31,1.31,0,0,1-1.17-.84,1,1,0,0,1,.09-.64c-.17.1-.73.29-1.07.42A4.9,4.9,0,0,1,473.14,122.34Z"/><path class="cls-15" d="M478.38,123.4a2.13,2.13,0,0,0,1-.16,2.17,2.17,0,0,0,.94-.76,1.32,1.32,0,0,0,.16.82,1.38,1.38,0,0,0,.68.59,1.85,1.85,0,0,0-.86.28,1.81,1.81,0,0,0-.72.85,2,2,0,0,0-.38-1A1.89,1.89,0,0,0,478.38,123.4Z"/><path class="cls-16" d="M481.75,121.76a2.59,2.59,0,0,1,.95-.58,2.65,2.65,0,0,1,1.4-.07"/><path class="cls-16" d="M482.13,121.93a1.76,1.76,0,0,1,.67-.41,1.81,1.81,0,0,1,1,0"/><path class="cls-16" d="M482.45,122.12a1.13,1.13,0,0,1,.5-.35,1.07,1.07,0,0,1,.64,0"/><path class="cls-16" d="M484.48,122.73a2.5,2.5,0,0,1-1,.59,2.61,2.61,0,0,1-1.39.07"/><path class="cls-16" d="M484.11,122.56a1.8,1.8,0,0,1-1.67.47"/><path class="cls-16" d="M483.78,122.37a.66.66,0,0,1-.46.32,1.21,1.21,0,0,1-.68,0"/><path class="cls-16" d="M476.33,130.82a3.16,3.16,0,0,1,1.09-.74,3.08,3.08,0,0,1,1.62-.15"/><path class="cls-16" d="M476.78,131a2.15,2.15,0,0,1,.77-.52,2.07,2.07,0,0,1,1.15-.11"/><path class="cls-16" d="M477.17,131.2a1.21,1.21,0,0,1,.56-.43,1.28,1.28,0,0,1,.75,0"/><path class="cls-16" d="M479.57,131.81a3,3,0,0,1-2.7.88"/><path class="cls-16" d="M479.13,131.63a2.25,2.25,0,0,1-.77.52,2.2,2.2,0,0,1-1.16.11"/><path class="cls-16" d="M478.74,131.42a.81.81,0,0,1-.53.4,1.34,1.34,0,0,1-.79,0"/><path class="cls-16" d="M467.7,129.45a2.55,2.55,0,0,1,.94-.63,2.49,2.49,0,0,1,1.39-.13"/><path class="cls-16" d="M468.09,129.6a1.81,1.81,0,0,1,.66-.44,1.9,1.9,0,0,1,1-.1"/><path class="cls-16" d="M468.42,129.78a1.07,1.07,0,0,1,.49-.37,1.11,1.11,0,0,1,.65,0"/><path class="cls-16" d="M470.5,130.3a2.68,2.68,0,0,1-.94.64,2.59,2.59,0,0,1-1.39.13"/><path class="cls-16" d="M470.11,130.15a1.8,1.8,0,0,1-.66.45,1.87,1.87,0,0,1-1,.09"/><path class="cls-16" d="M469.78,130a.67.67,0,0,1-.46.34,1.14,1.14,0,0,1-.68,0"/><path class="cls-16" d="M472.72,120.49a2,2,0,0,1,.75-.51,2.16,2.16,0,0,1,1.12-.11"/><path class="cls-16" d="M473,120.61a1.47,1.47,0,0,1,.54-.36,1.39,1.39,0,0,1,.8-.07"/><path class="cls-16" d="M473.29,120.75a1,1,0,0,1,.39-.3.92.92,0,0,1,.52,0"/><path class="cls-16" d="M475,121.17a2.13,2.13,0,0,1-.75.51,2,2,0,0,1-1.12.1"/><path class="cls-16" d="M474.65,121.05a1.54,1.54,0,0,1-.53.36,1.4,1.4,0,0,1-.8.07"/><path class="cls-16" d="M474.38,120.91a.57.57,0,0,1-.37.27.91.91,0,0,1-.54,0"/><polyline class="cls-3" points="530.43 92.08 527.04 97.72 516.54 98.28"/><polygon class="cls-4" points="526.43 94.87 515.93 95.42 519.32 89.78 529.82 89.23 526.43 94.87"/><line class="cls-3" x1="516.54" y1="98.28" x2="515.93" y2="95.42"/><line class="cls-3" x1="527.04" y1="97.72" x2="526.43" y2="94.87"/><line class="cls-3" x1="530.43" y1="92.08" x2="529.82" y2="89.23"/><ellipse class="cls-14" cx="519.83" cy="86.05" rx="2.78" ry="1.62" transform="matrix(0.96, -0.28, 0.28, 0.96, -3.04, 151.1)"/><ellipse class="cls-14" cx="514.11" cy="96.46" rx="3.42" ry="1.99" transform="translate(-6.23 149.9) rotate(-16.49)"/><ellipse class="cls-14" cx="524.87" cy="98.14" rx="3.88" ry="2.26" transform="translate(-6.27 153.03) rotate(-16.49)"/><ellipse class="cls-14" cx="531.2" cy="87.69" rx="3.42" ry="1.99" transform="translate(-3.04 154.39) rotate(-16.49)"/><ellipse class="cls-15" cx="522.32" cy="91.77" rx="4.72" ry="2.75" transform="translate(-4.56 152.04) rotate(-16.49)"/><ellipse class="cls-15" cx="522.11" cy="90.77" rx="4.72" ry="2.75" transform="translate(-4.29 151.94) rotate(-16.49)"/><path class="cls-15" d="M520.74,94.72a1.81,1.81,0,0,1,1.3.83,1.66,1.66,0,0,1,0,1.62,5,5,0,0,1,1.67-1.09,5.22,5.22,0,0,1,2-.36,1.36,1.36,0,0,1-1.31-.86,1.2,1.2,0,0,1,.19-1.06,7.39,7.39,0,0,1-1.58.63A7.84,7.84,0,0,1,520.74,94.72Z"/><path class="cls-15" d="M515.17,94.31a2.07,2.07,0,0,1,1.61.41,2,2,0,0,1,.64,1.38A1.8,1.8,0,0,1,518,95a2.37,2.37,0,0,1,1.37-.52,2.22,2.22,0,0,1-1.23-.76,2,2,0,0,1-.41-.94,2.58,2.58,0,0,1-.64.87A3.21,3.21,0,0,1,515.17,94.31Z"/><path class="cls-15" d="M519,87.79a1.14,1.14,0,0,1,.75.58,1.82,1.82,0,0,1-.17,1.67,6.11,6.11,0,0,1,1.37-.8,6.43,6.43,0,0,1,1.88-.37,1.62,1.62,0,0,1-1.44-1,1.06,1.06,0,0,1,.12-.75,11.55,11.55,0,0,1-1.32.49A6.76,6.76,0,0,1,519,87.79Z"/><path class="cls-15" d="M525.39,89a2.6,2.6,0,0,0,1.27-.18,2.69,2.69,0,0,0,1.16-.87,1.44,1.44,0,0,0,.2.94,1.65,1.65,0,0,0,.83.69,2.36,2.36,0,0,0-1.06.31,2.17,2.17,0,0,0-.88,1,2.13,2.13,0,0,0-.47-1.14A2.34,2.34,0,0,0,525.39,89Z"/><path class="cls-16" d="M529.52,87.13a3.22,3.22,0,0,1,1.17-.68,3.42,3.42,0,0,1,1.71-.08"/><path class="cls-16" d="M530,87.33a2.17,2.17,0,0,1,.83-.48,2.27,2.27,0,0,1,1.22-.06"/><path class="cls-16" d="M530.38,87.55a1.38,1.38,0,0,1,.61-.41,1.41,1.41,0,0,1,.79,0"/><path class="cls-16" d="M532.87,88.25a3.14,3.14,0,0,1-1.17.67A3.26,3.26,0,0,1,530,89"/><path class="cls-16" d="M532.41,88.05a2.22,2.22,0,0,1-.83.48,2.46,2.46,0,0,1-1.21.06"/><path class="cls-16" d="M532,87.83a.84.84,0,0,1-.57.37,1.52,1.52,0,0,1-.82,0"/><path class="cls-16" d="M522.89,97.57a3.63,3.63,0,0,1,1.32-.85,3.88,3.88,0,0,1,2-.17"/><path class="cls-16" d="M523.43,97.77a2.77,2.77,0,0,1,1-.6,2.86,2.86,0,0,1,1.41-.12"/><path class="cls-16" d="M523.91,98a1.55,1.55,0,0,1,.69-.5,1.69,1.69,0,0,1,.92,0"/><path class="cls-16" d="M526.85,98.71a3.63,3.63,0,0,1-1.32.85,3.88,3.88,0,0,1-2,.17"/><path class="cls-16" d="M526.31,98.5a2.42,2.42,0,0,1-.95.6,2.77,2.77,0,0,1-1.41.13"/><path class="cls-16" d="M525.83,98.27a1,1,0,0,1-.65.45,1.76,1.76,0,0,1-1,.06"/><path class="cls-16" d="M512.31,96a3.24,3.24,0,0,1,1.15-.73,3.42,3.42,0,0,1,1.71-.15"/><path class="cls-16" d="M512.78,96.17a2.26,2.26,0,0,1,.82-.52,2.55,2.55,0,0,1,1.22-.11"/><path class="cls-16" d="M513.19,96.37a1.41,1.41,0,0,1,.6-.43,1.51,1.51,0,0,1,.79,0"/><path class="cls-16" d="M515.73,97a3.18,3.18,0,0,1-1.14.73,3.42,3.42,0,0,1-1.71.15"/><path class="cls-16" d="M515.26,96.8a2.29,2.29,0,0,1-.81.52,2.4,2.4,0,0,1-1.22.1"/><path class="cls-16" d="M514.85,96.59a.86.86,0,0,1-.56.4,1.57,1.57,0,0,1-.83,0"/><path class="cls-16" d="M518.45,85.66a2.54,2.54,0,0,1,.92-.59,2.7,2.7,0,0,1,1.37-.12"/><path class="cls-16" d="M518.83,85.8a1.85,1.85,0,0,1,.65-.42,2,2,0,0,1,1-.08"/><path class="cls-16" d="M519.16,86a1.05,1.05,0,0,1,.48-.34,1.13,1.13,0,0,1,.63,0"/><path class="cls-16" d="M521.2,86.45a2.62,2.62,0,0,1-2.29.7"/><path class="cls-16" d="M520.82,86.3a1.72,1.72,0,0,1-.65.42,2,2,0,0,1-1,.09"/><path class="cls-16" d="M520.49,86.14a.66.66,0,0,1-.45.31,1.16,1.16,0,0,1-.66,0"/><polyline class="cls-3" points="495.53 96.95 493.35 100.7 486.59 101.07"/><polygon class="cls-4" points="492.96 98.8 486.19 99.17 488.38 95.43 495.14 95.06 492.96 98.8"/><line class="cls-3" x1="486.59" y1="101.07" x2="486.19" y2="99.17"/><line class="cls-3" x1="493.35" y1="100.7" x2="492.96" y2="98.8"/><line class="cls-3" x1="495.53" y1="96.95" x2="495.14" y2="95.06"/><ellipse class="cls-14" cx="488.7" cy="92.95" rx="1.79" ry="1.07" transform="translate(-5.34 151.21) rotate(-17.49)"/><ellipse class="cls-14" cx="485.03" cy="99.86" rx="2.21" ry="1.32" transform="translate(-7.58 150.42) rotate(-17.49)"/><ellipse class="cls-14" cx="491.95" cy="100.98" rx="2.51" ry="1.5" transform="translate(-7.6 152.55) rotate(-17.49)"/><ellipse class="cls-14" cx="496.03" cy="94.04" rx="2.21" ry="1.32" transform="translate(-5.33 153.46) rotate(-17.49)"/><ellipse class="cls-15" cx="490.31" cy="96.74" rx="3.04" ry="1.82" transform="translate(-6.4 151.87) rotate(-17.49)"/><ellipse class="cls-15" cx="490.17" cy="96.08" rx="3.04" ry="1.82" transform="translate(-6.21 151.79) rotate(-17.49)"/><path class="cls-15" d="M489.3,98.7a1.19,1.19,0,0,1,.83.56,1.1,1.1,0,0,1,0,1.07,3.29,3.29,0,0,1,1.07-.72,3.25,3.25,0,0,1,1.3-.24.88.88,0,0,1-.84-.57.84.84,0,0,1,.12-.71,4.66,4.66,0,0,1-1,.42A4.71,4.71,0,0,1,489.3,98.7Z"/><path class="cls-15" d="M485.71,98.44a1.25,1.25,0,0,1,1,.27,1.22,1.22,0,0,1,.41.91,1.28,1.28,0,0,1,.38-.72,1.53,1.53,0,0,1,.89-.35,1.44,1.44,0,0,1-.8-.5,1.5,1.5,0,0,1-.26-.62A1.76,1.76,0,0,1,487,98,2.06,2.06,0,0,1,485.71,98.44Z"/><path class="cls-15" d="M488.16,94.11a.74.74,0,0,1,.48.38,1.22,1.22,0,0,1-.1,1.11,3.45,3.45,0,0,1,.88-.53,4,4,0,0,1,1.2-.25,1,1,0,0,1-.92-.64.71.71,0,0,1,.08-.5,8.28,8.28,0,0,1-.85.32A4,4,0,0,1,488.16,94.11Z"/><path class="cls-15" d="M492.29,94.92a1.85,1.85,0,0,0,.82-.12,1.73,1.73,0,0,0,.74-.58,1,1,0,0,0,.13.62,1.1,1.1,0,0,0,.54.46,1.51,1.51,0,0,0-.69.21,1.4,1.4,0,0,0-.56.65,1.5,1.5,0,0,0-.31-.76A1.42,1.42,0,0,0,492.29,94.92Z"/><path class="cls-16" d="M495,93.67a1.9,1.9,0,0,1,.75-.45,2.15,2.15,0,0,1,1.1-.06"/><path class="cls-16" d="M495.25,93.8a1.44,1.44,0,0,1,1.31-.36"/><path class="cls-16" d="M495.5,93.94a.79.79,0,0,1,.9-.25"/><path class="cls-16" d="M497.11,94.41a2.24,2.24,0,0,1-.76.45,2.07,2.07,0,0,1-1.09,0"/><path class="cls-16" d="M496.81,94.28a1.4,1.4,0,0,1-.54.32,1.5,1.5,0,0,1-.78,0"/><path class="cls-16" d="M496.55,94.13c-.07.11-.12.17-.36.24a.91.91,0,0,1-.54,0"/><path class="cls-16" d="M490.68,100.6a2.13,2.13,0,0,1,.85-.56,2.36,2.36,0,0,1,1.28-.12"/><path class="cls-16" d="M491,100.73a1.76,1.76,0,0,1,.61-.4,1.71,1.71,0,0,1,.91-.08"/><path class="cls-16" d="M491.33,100.89a1,1,0,0,1,.45-.33,1.08,1.08,0,0,1,.59,0"/><path class="cls-16" d="M493.23,101.35a2.29,2.29,0,0,1-.85.56,2.37,2.37,0,0,1-1.28.12"/><path class="cls-16" d="M492.88,101.22a1.86,1.86,0,0,1-.61.4,1.71,1.71,0,0,1-.91.08"/><path class="cls-16" d="M492.57,101.06a.6.6,0,0,1-.41.3,1.11,1.11,0,0,1-.62,0"/><path class="cls-16" d="M483.87,99.55a1.93,1.93,0,0,1,.73-.48,2,2,0,0,1,1.11-.1"/><path class="cls-16" d="M484.17,99.67a1.48,1.48,0,0,1,.52-.35,1.56,1.56,0,0,1,.79-.07"/><path class="cls-16" d="M484.43,99.8a.8.8,0,0,1,.39-.28.89.89,0,0,1,.51,0"/><path class="cls-16" d="M486.07,100.2a2.08,2.08,0,0,1-.74.49,2.16,2.16,0,0,1-1.1.1"/><path class="cls-16" d="M485.77,100.09a1.55,1.55,0,0,1-.53.34,1.52,1.52,0,0,1-.78.07"/><path class="cls-16" d="M485.5,100a.53.53,0,0,1-.36.26,1,1,0,0,1-.53,0"/><path class="cls-16" d="M487.82,92.69a1.57,1.57,0,0,1,.59-.39,1.64,1.64,0,0,1,.89-.08"/><path class="cls-16" d="M488.06,92.78a1.27,1.27,0,0,1,.43-.27,1.11,1.11,0,0,1,.62-.06"/><path class="cls-16" d="M488.28,92.89a.64.64,0,0,1,.3-.23.81.81,0,0,1,.41,0"/><path class="cls-16" d="M489.59,93.21a1.57,1.57,0,0,1-.59.39,1.64,1.64,0,0,1-.89.08"/><path class="cls-16" d="M489.35,93.12a1.27,1.27,0,0,1-.43.27,1.11,1.11,0,0,1-.62.06"/><path class="cls-16" d="M489.13,93c-.05.09-.09.14-.29.21a.68.68,0,0,1-.42,0"/><polyline class="cls-3" points="293.85 209.98 287.03 217.84 271.29 215.57"/><polygon class="cls-4" points="287.03 213.17 271.29 210.9 278.11 203.03 293.85 205.31 287.03 213.17"/><line class="cls-3" x1="271.29" y1="215.57" x2="271.29" y2="210.9"/><line class="cls-3" x1="287.03" y1="217.85" x2="287.03" y2="213.17"/><line class="cls-3" x1="293.85" y1="209.98" x2="293.85" y2="205.3"/><ellipse class="cls-14" cx="280.05" cy="197.31" rx="4.22" ry="2.58" transform="translate(-22.41 36.45) rotate(-7.16)"/><ellipse class="cls-14" cx="268.28" cy="211.98" rx="5.2" ry="3.18" transform="translate(-24.33 35.1) rotate(-7.16)"/><ellipse class="cls-14" cx="283.68" cy="217.85" rx="5.9" ry="3.61" transform="translate(-24.94 37.06) rotate(-7.16)"/><ellipse class="cls-14" cx="296.38" cy="203.29" rx="5.2" ry="3.18" transform="translate(-23.03 38.53) rotate(-7.16)"/><ellipse class="cls-15" cx="281.93" cy="207.05" rx="7.17" ry="4.39" transform="translate(-23.61 36.76) rotate(-7.16)"/><ellipse class="cls-15" cx="281.93" cy="205.42" rx="7.17" ry="4.39" transform="translate(-23.41 36.75) rotate(-7.16)"/><path class="cls-15" d="M278.66,211.22a2.78,2.78,0,0,1,1.65,1.7,2.81,2.81,0,0,1-.56,2.54,7.75,7.75,0,0,1,2.82-1.2,7.4,7.4,0,0,1,3.1,0,2.08,2.08,0,0,1-1.68-1.74,2,2,0,0,1,.63-1.61,11.41,11.41,0,0,1-2.54.52A11.17,11.17,0,0,1,278.66,211.22Z"/><path class="cls-15" d="M270.52,208.92a2.93,2.93,0,0,1,2.25,1.13,3,3,0,0,1,.51,2.35,3.07,3.07,0,0,1,1.23-1.54,3.49,3.49,0,0,1,2.2-.4,3.24,3.24,0,0,1-1.89-3.16,4.42,4.42,0,0,1-1.24,1.17A4.64,4.64,0,0,1,270.52,208.92Z"/><path class="cls-15" d="M278.24,199.79a1.73,1.73,0,0,1,.93,1.14,3.06,3.06,0,0,1-.77,2.57,9.38,9.38,0,0,1,2.28-.85,9.63,9.63,0,0,1,2.89,0,2.41,2.41,0,0,1-1.81-1.95,1.75,1.75,0,0,1,.41-1.14,19,19,0,0,1-2.11.37A9.24,9.24,0,0,1,278.24,199.79Z"/><path class="cls-15" d="M287.36,203.64a4,4,0,0,0,3.93-.94,2.49,2.49,0,0,0,0,1.55,2.56,2.56,0,0,0,1,1.33,3.34,3.34,0,0,0-1.67.18A3.49,3.49,0,0,0,289,207a3.52,3.52,0,0,0-1.65-3.39Z"/><path class="cls-16" d="M294.08,201.91a4.73,4.73,0,0,1,4.5-.33"/><path class="cls-16" d="M294.7,202.36a3.23,3.23,0,0,1,1.38-.51,3.42,3.42,0,0,1,1.82.27"/><path class="cls-16" d="M295.22,202.82a2,2,0,0,1,1-.45,2.08,2.08,0,0,1,1.16.27"/><path class="cls-16" d="M298.68,204.67a4.76,4.76,0,0,1-1.94.72,4.82,4.82,0,0,1-2.55-.39"/><path class="cls-16" d="M298.07,204.23a3.45,3.45,0,0,1-1.39.5,3.4,3.4,0,0,1-1.81-.27"/><path class="cls-16" d="M297.55,203.76a1.3,1.3,0,0,1-1,.41,2.18,2.18,0,0,1-1.22-.23"/><path class="cls-16" d="M280.92,216.36a5.47,5.47,0,0,1,5.24-.62"/><path class="cls-16" d="M281.67,216.85a3.81,3.81,0,0,1,1.59-.67,3.94,3.94,0,0,1,2.13.23"/><path class="cls-16" d="M282.3,217.36a2.35,2.35,0,0,1,1.18-.58,2.32,2.32,0,0,1,1.36.26"/><path class="cls-16" d="M286.44,219.34a5.47,5.47,0,0,1-5.24.62"/><path class="cls-16" d="M285.69,218.86a3.9,3.9,0,0,1-3.72.43"/><path class="cls-16" d="M285.06,218.34a1.46,1.46,0,0,1-1.1.52,2.48,2.48,0,0,1-1.44-.2"/><path class="cls-16" d="M265.76,210.71a4.68,4.68,0,0,1,4.51-.53"/><path class="cls-16" d="M266.4,211.13a3.3,3.3,0,0,1,1.37-.57,3.4,3.4,0,0,1,1.84.19"/><path class="cls-16" d="M266.94,211.57a2,2,0,0,1,1-.5,2.06,2.06,0,0,1,1.18.23"/><path class="cls-16" d="M270.51,213.28a4.69,4.69,0,0,1-4.51.53"/><path class="cls-16" d="M269.87,212.86a3.3,3.3,0,0,1-1.37.57,3.4,3.4,0,0,1-1.84-.19"/><path class="cls-16" d="M269.33,212.42a1.37,1.37,0,0,1-1,.45,2.25,2.25,0,0,1-1.24-.18"/><path class="cls-16" d="M278.15,196.27a3.83,3.83,0,0,1,1.54-.64,3.89,3.89,0,0,1,2.08.22"/><path class="cls-16" d="M278.66,196.61a2.9,2.9,0,0,1,1.1-.46,2.79,2.79,0,0,1,1.48.16"/><path class="cls-16" d="M279.1,197a1.59,1.59,0,0,1,.82-.4,1.67,1.67,0,0,1,.94.18"/><path class="cls-16" d="M282,198.34a3.82,3.82,0,0,1-1.54.65,3.89,3.89,0,0,1-2.08-.22"/><path class="cls-16" d="M281.45,198a2.67,2.67,0,0,1-1.1.46,2.82,2.82,0,0,1-1.48-.15"/><path class="cls-16" d="M281,197.65a1,1,0,0,1-.76.36,1.77,1.77,0,0,1-1-.14"/><polyline class="cls-3" points="566.25 373.86 549.32 393.39 510.23 387.75"/><polygon class="cls-4" points="549.32 381.78 510.23 376.13 527.16 356.6 566.25 362.25 549.32 381.78"/><line class="cls-4" x1="510.23" y1="387.75" x2="510.23" y2="376.13"/><line class="cls-3" x1="549.32" y1="393.39" x2="549.32" y2="381.78"/><line class="cls-4" x1="566.25" y1="373.86" x2="566.25" y2="362.25"/><ellipse class="cls-17" cx="531.99" cy="342.38" rx="10.48" ry="6.41" transform="translate(-38.53 68.99) rotate(-7.16)"/><ellipse class="cls-17" cx="502.74" cy="378.82" rx="12.92" ry="7.91" transform="translate(-43.3 65.63) rotate(-7.16)"/><ellipse class="cls-17" cx="541" cy="393.41" rx="14.65" ry="8.97" transform="translate(-44.82 70.51) rotate(-7.16)"/><ellipse class="cls-17" cx="572.55" cy="357.25" rx="12.92" ry="7.91" transform="translate(-40.07 74.16) rotate(-7.16)"/><ellipse class="cls-18" cx="536.66" cy="366.59" rx="17.8" ry="10.89" transform="translate(-41.51 69.76) rotate(-7.16)"/><ellipse class="cls-18" cx="536.66" cy="362.54" rx="17.8" ry="10.89" transform="translate(-41.01 69.73) rotate(-7.16)"/><path class="cls-18" d="M528.52,377a6.83,6.83,0,0,1,4.11,4.22,7,7,0,0,1-1.39,6.31A18.62,18.62,0,0,1,546,384.55a4.82,4.82,0,0,1-2.63-8.34A27.69,27.69,0,0,1,537,377.5,28,28,0,0,1,528.52,377Z"/><path class="cls-18" d="M508.32,371.22a7.41,7.41,0,0,1,5.59,2.8,7.77,7.77,0,0,1,1.27,5.85,7.56,7.56,0,0,1,3-3.82,8.57,8.57,0,0,1,5.47-1,8.34,8.34,0,0,1-4-3.9,8.18,8.18,0,0,1-.75-4,10.59,10.59,0,0,1-3.07,2.93C512.73,372.12,509.48,371.21,508.32,371.22Z"/><path class="cls-18" d="M527.5,348.55a4.34,4.34,0,0,1,2.29,2.82c.72,2.2-.61,4.62-1.92,6.4a23.4,23.4,0,0,1,5.67-2.11,23.06,23.06,0,0,1,7.19-.05c-2.41-.59-4.42-2.9-4.5-4.85a4.31,4.31,0,0,1,1-2.83,50,50,0,0,1-5.24.92A22.54,22.54,0,0,1,527.5,348.55Z"/><path class="cls-18" d="M550.14,358.11a9.94,9.94,0,0,0,4.82.24,10.15,10.15,0,0,0,4.93-2.56,6.25,6.25,0,0,0,0,3.85,6.37,6.37,0,0,0,2.52,3.28,8.46,8.46,0,0,0-4.16.46,8.66,8.66,0,0,0-4,3.15,8.75,8.75,0,0,0-.82-4.79A8.84,8.84,0,0,0,550.14,358.11Z"/><path class="cls-19" d="M566.83,353.82a11.65,11.65,0,0,1,4.83-1.77A11.86,11.86,0,0,1,578,353"/><path class="cls-19" d="M568.37,354.93a8.31,8.31,0,0,1,3.43-1.26,8.42,8.42,0,0,1,4.51.67"/><path class="cls-19" d="M569.65,356.08a4.55,4.55,0,0,1,5.44-.44"/><path class="cls-19" d="M578.26,360.67a11.59,11.59,0,0,1-11.16.82"/><path class="cls-19" d="M576.73,359.57a8.37,8.37,0,0,1-3.44,1.26,8.52,8.52,0,0,1-4.51-.68"/><path class="cls-19" d="M575.44,358.41a3.15,3.15,0,0,1-2.39,1,5.4,5.4,0,0,1-3-.57"/><path class="cls-19" d="M534.15,389.7a13.7,13.7,0,0,1,5.55-2.32,13.86,13.86,0,0,1,7.45.79"/><path class="cls-19" d="M536,390.91a9.65,9.65,0,0,1,4-1.64,9.8,9.8,0,0,1,5.29.56"/><path class="cls-19" d="M537.56,392.19a5.71,5.71,0,0,1,2.94-1.44,5.9,5.9,0,0,1,3.39.65"/><path class="cls-19" d="M547.85,397.12a13.65,13.65,0,0,1-13,1.52"/><path class="cls-19" d="M546,395.9a9.7,9.7,0,0,1-9.25,1.09"/><path class="cls-19" d="M544.44,394.62a3.69,3.69,0,0,1-2.75,1.29,6.26,6.26,0,0,1-3.58-.5"/><path class="cls-19" d="M496.48,375.66a11.76,11.76,0,0,1,4.78-2,11.93,11.93,0,0,1,6.42.68"/><path class="cls-19" d="M498.07,376.71a8.34,8.34,0,0,1,8-.93"/><path class="cls-19" d="M499.42,377.82a4.89,4.89,0,0,1,2.54-1.25,5,5,0,0,1,2.91.56"/><path class="cls-19" d="M508.29,382.06a11.75,11.75,0,0,1-11.21,1.32"/><path class="cls-19" d="M506.69,381a8.2,8.2,0,0,1-3.4,1.42,8.54,8.54,0,0,1-4.57-.48"/><path class="cls-19" d="M505.35,379.91A3.21,3.21,0,0,1,503,381a5.45,5.45,0,0,1-3.09-.43"/><path class="cls-19" d="M527.25,339.82a9.54,9.54,0,0,1,3.84-1.61,9.69,9.69,0,0,1,5.16.55"/><path class="cls-19" d="M528.53,340.66a6.62,6.62,0,0,1,2.73-1.14,6.74,6.74,0,0,1,3.67.39"/><path class="cls-19" d="M529.61,341.54a3.92,3.92,0,0,1,2-1A4,4,0,0,1,534,341"/><path class="cls-19" d="M536.73,345a9.35,9.35,0,0,1-3.84,1.6,9.56,9.56,0,0,1-5.15-.54"/><path class="cls-19" d="M535.45,344.11a6.83,6.83,0,0,1-2.73,1.14,6.74,6.74,0,0,1-3.67-.39"/><path class="cls-19" d="M534.37,343.22a2.53,2.53,0,0,1-1.9.9,4.4,4.4,0,0,1-2.48-.35"/><polyline class="cls-3" points="372.8 127 365.98 134.86 350.24 132.59"/><polygon class="cls-4" points="365.98 130.19 350.24 127.91 357.06 120.05 372.8 122.32 365.98 130.19"/><line class="cls-3" x1="350.24" y1="132.59" x2="350.24" y2="127.91"/><line class="cls-3" x1="365.98" y1="134.86" x2="365.98" y2="130.19"/><line class="cls-3" x1="372.8" y1="127" x2="372.8" y2="122.32"/><ellipse class="cls-14" cx="359" cy="114.33" rx="4.22" ry="2.58" transform="translate(-11.45 45.64) rotate(-7.16)"/><ellipse class="cls-14" cx="347.23" cy="128.99" rx="5.2" ry="3.18" transform="translate(-13.37 44.29) rotate(-7.16)"/><ellipse class="cls-14" cx="362.63" cy="134.87" rx="5.9" ry="3.61" transform="translate(-13.98 46.26) rotate(-7.16)"/><ellipse class="cls-14" cx="375.33" cy="120.31" rx="5.2" ry="3.18" transform="translate(-12.07 47.73) rotate(-7.16)"/><ellipse class="cls-15" cx="360.88" cy="124.07" rx="7.17" ry="4.39" transform="translate(-12.65 45.95) rotate(-7.16)"/><ellipse class="cls-15" cx="360.88" cy="122.44" rx="7.17" ry="4.39" transform="translate(-12.45 45.94) rotate(-7.16)"/><path class="cls-15" d="M357.61,128.24a2.62,2.62,0,0,1,1.09,4.24,7.49,7.49,0,0,1,5.92-1.18,2.08,2.08,0,0,1-1.68-1.74,2,2,0,0,1,.63-1.61,12,12,0,0,1-2.54.52A11.17,11.17,0,0,1,357.61,128.24Z"/><path class="cls-15" d="M349.48,125.94a3,3,0,0,1,2.25,1.12,3.16,3.16,0,0,1,.51,2.36,3,3,0,0,1,1.22-1.54,3.49,3.49,0,0,1,2.2-.4,3.44,3.44,0,0,1-1.59-1.57,3.33,3.33,0,0,1-.3-1.6,4.37,4.37,0,0,1-1.23,1.18A4.65,4.65,0,0,1,349.48,125.94Z"/><path class="cls-15" d="M357.2,116.81a1.73,1.73,0,0,1,.92,1.13,3.05,3.05,0,0,1-.77,2.58,9,9,0,0,1,2.28-.85,9.31,9.31,0,0,1,2.89,0,2.42,2.42,0,0,1-1.81-2,1.75,1.75,0,0,1,.41-1.14,18.62,18.62,0,0,1-2.11.37A9.12,9.12,0,0,1,357.2,116.81Z"/><path class="cls-15" d="M366.31,120.66a4,4,0,0,0,3.93-.94,2.5,2.5,0,0,0,1,2.87,3.39,3.39,0,0,0-1.67.19,3.49,3.49,0,0,0-1.62,1.27,3.52,3.52,0,0,0-1.65-3.39Z"/><path class="cls-16" d="M373,118.93a4.63,4.63,0,0,1,2-.71,4.77,4.77,0,0,1,2.55.38"/><path class="cls-16" d="M373.65,119.38a3.23,3.23,0,0,1,1.38-.51,3.42,3.42,0,0,1,1.82.27"/><path class="cls-16" d="M374.17,119.84a1.89,1.89,0,0,1,1-.45,2,2,0,0,1,1.16.27"/><path class="cls-16" d="M377.64,121.69a4.9,4.9,0,0,1-1.95.71,4.74,4.74,0,0,1-2.55-.38"/><path class="cls-16" d="M377,121.24a3.29,3.29,0,0,1-1.39.51,3.4,3.4,0,0,1-1.81-.27"/><path class="cls-16" d="M376.5,120.78a1.28,1.28,0,0,1-1,.4,2.09,2.09,0,0,1-1.22-.22"/><path class="cls-16" d="M359.87,133.37a5.5,5.5,0,0,1,5.24-.61"/><path class="cls-16" d="M360.62,133.86a3.9,3.9,0,0,1,3.72-.43"/><path class="cls-16" d="M361.25,134.38a2.27,2.27,0,0,1,1.18-.58,2.32,2.32,0,0,1,1.36.26"/><path class="cls-16" d="M365.39,136.36a5.43,5.43,0,0,1-2.24.93,5.52,5.52,0,0,1-3-.31"/><path class="cls-16" d="M364.64,135.87a3.86,3.86,0,0,1-3.72.44"/><path class="cls-16" d="M364,135.36a1.54,1.54,0,0,1-1.11.52,2.57,2.57,0,0,1-1.44-.2"/><path class="cls-16" d="M344.71,127.72a4.71,4.71,0,0,1,4.51-.52"/><path class="cls-16" d="M345.35,128.15a3.43,3.43,0,0,1,1.37-.58,3.48,3.48,0,0,1,1.84.2"/><path class="cls-16" d="M345.89,128.59a2,2,0,0,1,1-.5,2.06,2.06,0,0,1,1.18.23"/><path class="cls-16" d="M349.46,130.3a4.75,4.75,0,0,1-4.51.53"/><path class="cls-16" d="M348.82,129.88a3.3,3.3,0,0,1-1.37.57,3.38,3.38,0,0,1-1.84-.2"/><path class="cls-16" d="M348.28,129.43a1.29,1.29,0,0,1-1,.45,2.16,2.16,0,0,1-1.24-.17"/><path class="cls-16" d="M357.1,113.29a3.7,3.7,0,0,1,1.54-.64,3.79,3.79,0,0,1,2.08.22"/><path class="cls-16" d="M357.61,113.63a2.74,2.74,0,0,1,1.1-.46,2.69,2.69,0,0,1,1.48.16"/><path class="cls-16" d="M358.05,114a1.68,1.68,0,0,1,.82-.41,1.6,1.6,0,0,1,.94.19"/><path class="cls-16" d="M360.91,115.36a3.7,3.7,0,0,1-1.54.64,3.79,3.79,0,0,1-2.08-.22"/><path class="cls-16" d="M360.4,115a2.74,2.74,0,0,1-1.1.46,2.69,2.69,0,0,1-1.48-.16"/><path class="cls-16" d="M360,114.66a1,1,0,0,1-.76.36,1.68,1.68,0,0,1-1-.14"/><polyline class="cls-3" points="573.53 204.97 569.47 218.92 548.19 225.22"/><polygon class="cls-4" points="566.75 212.99 545.46 219.29 549.52 205.34 570.8 199.04 566.75 212.99"/><line class="cls-3" x1="548.19" y1="225.22" x2="545.46" y2="219.29"/><line class="cls-3" x1="569.47" y1="218.92" x2="566.74" y2="212.99"/><line class="cls-3" x1="573.53" y1="204.97" x2="570.8" y2="199.04"/><ellipse class="cls-14" cx="548.64" cy="196.95" rx="5.89" ry="3.6" transform="translate(-21.27 319.4) rotate(-31.87)"/><ellipse class="cls-14" cx="542.27" cy="222.42" rx="7.26" ry="4.44" transform="translate(-35.68 319.87) rotate(-31.87)"/><ellipse class="cls-14" cx="565.23" cy="220.88" rx="8.23" ry="5.04" transform="translate(-31.41 331.76) rotate(-31.87)"/><ellipse class="cls-14" cx="572.84" cy="195.01" rx="7.26" ry="4.44" transform="translate(-16.6 331.88) rotate(-31.87)"/><ellipse class="cls-15" cx="556.71" cy="208.21" rx="10.01" ry="6.12" transform="translate(-26 325.35) rotate(-31.87)"/><ellipse class="cls-15" cx="555.76" cy="206.14" rx="10.01" ry="6.12" transform="translate(-25.05 324.54) rotate(-31.87)"/><path class="cls-15" d="M555,215.41a3.82,3.82,0,0,1,3.09,1.19,3.9,3.9,0,0,1,.78,3.54,10.38,10.38,0,0,1,2.86-3.16,10.71,10.71,0,0,1,4-1.79,2.7,2.7,0,0,1-3.3-3.63,16,16,0,0,1-2.91,2.13A15.6,15.6,0,0,1,555,215.41Z"/><path class="cls-15" d="M543.33,217.23a4.19,4.19,0,0,1,3.52.12,4.34,4.34,0,0,1,2,2.69,4.26,4.26,0,0,1,.65-2.67,4.78,4.78,0,0,1,2.56-1.79,4.68,4.68,0,0,1-2.93-1.06,4.51,4.51,0,0,1-1.31-1.85,6.25,6.25,0,0,1-.88,2.21A6.49,6.49,0,0,1,543.33,217.23Z"/><path class="cls-15" d="M547.8,201.15a2.46,2.46,0,0,1,1.83.9c.88.95.78,2.5.52,3.72a13.49,13.49,0,0,1,2.4-2.41,12.77,12.77,0,0,1,3.66-1.71,3.39,3.39,0,0,1-3.44-1.42,2.39,2.39,0,0,1-.14-1.68,27.89,27.89,0,0,1-2.46,1.69A12.34,12.34,0,0,1,547.8,201.15Z"/><path class="cls-15" d="M561.6,200.71a5.58,5.58,0,0,0,2.52-1,5.75,5.75,0,0,0,1.92-2.47,3.49,3.49,0,0,0,.9,2,3.62,3.62,0,0,0,2.06,1.09,4.72,4.72,0,0,0-2,1.2,4.84,4.84,0,0,0-1.3,2.56,5,5,0,0,0-1.55-2.26A4.89,4.89,0,0,0,561.6,200.71Z"/><path class="cls-16" d="M569.12,194.6a6.48,6.48,0,0,1,2-2,6.58,6.58,0,0,1,3.46-1"/><path class="cls-16" d="M570.16,194.8a4.66,4.66,0,0,1,3.92-2.16"/><path class="cls-16" d="M571.09,195.09a2.53,2.53,0,0,1,2.67-1.5"/><path class="cls-16" d="M576.57,195.41a6.54,6.54,0,0,1-5.51,3"/><path class="cls-16" d="M575.52,195.21a4.66,4.66,0,0,1-3.92,2.16"/><path class="cls-16" d="M574.59,194.92a1.78,1.78,0,0,1-1,1.08,3.06,3.06,0,0,1-1.69.42"/><path class="cls-16" d="M560.86,220.6a7.61,7.61,0,0,1,2.29-2.49,7.84,7.84,0,0,1,4-1.35"/><path class="cls-16" d="M562.09,220.78a5.55,5.55,0,0,1,1.63-1.77,5.43,5.43,0,0,1,2.84-.95"/><path class="cls-16" d="M563.19,221.07a3.2,3.2,0,0,1,1.16-1.43,3.27,3.27,0,0,1,1.88-.46"/><path class="cls-16" d="M569.6,221.17a7.69,7.69,0,0,1-6.28,3.83"/><path class="cls-16" d="M568.37,221a5.46,5.46,0,0,1-4.47,2.73"/><path class="cls-16" d="M567.27,220.69a2.08,2.08,0,0,1-1.1,1.31,3.49,3.49,0,0,1-1.94.58"/><path class="cls-16" d="M538.33,222.28a6.59,6.59,0,0,1,5.41-3.3"/><path class="cls-16" d="M539.39,222.44a4.71,4.71,0,0,1,3.85-2.35"/><path class="cls-16" d="M540.34,222.69a2.56,2.56,0,0,1,2.62-1.63"/><path class="cls-16" d="M545.86,222.77a6.54,6.54,0,0,1-2,2.15,6.66,6.66,0,0,1-3.44,1.16"/><path class="cls-16" d="M544.8,222.61a4.63,4.63,0,0,1-1.4,1.53A4.7,4.7,0,0,1,541,225"/><path class="cls-16" d="M543.86,222.37a1.8,1.8,0,0,1-1,1.12,3.09,3.09,0,0,1-1.68.51"/><path class="cls-16" d="M545.62,196.75A5.28,5.28,0,0,1,550,194.1"/><path class="cls-16" d="M546.47,196.88a3.76,3.76,0,0,1,1.13-1.23,3.84,3.84,0,0,1,2-.66"/><path class="cls-16" d="M547.23,197.08a2.11,2.11,0,0,1,.81-1,2.23,2.23,0,0,1,1.3-.32"/><path class="cls-16" d="M551.67,197.14a5.35,5.35,0,0,1-4.35,2.66"/><path class="cls-16" d="M550.81,197a3.71,3.71,0,0,1-1.12,1.23,3.86,3.86,0,0,1-2,.66"/><path class="cls-16" d="M550.06,196.82a1.46,1.46,0,0,1-.77.9,2.38,2.38,0,0,1-1.34.4"/><polyline class="cls-3" points="432.4 59.03 426.32 66.04 412.28 64.02"/><polygon class="cls-4" points="426.32 61.87 412.28 59.84 418.36 52.83 432.4 54.86 426.32 61.87"/><line class="cls-3" x1="412.28" y1="64.02" x2="412.28" y2="59.84"/><line class="cls-3" x1="426.32" y1="66.04" x2="426.32" y2="61.87"/><line class="cls-3" x1="432.4" y1="59.03" x2="432.4" y2="54.86"/><ellipse class="cls-14" cx="420.09" cy="47.73" rx="3.76" ry="2.3" transform="translate(-2.67 52.74) rotate(-7.16)"/><ellipse class="cls-14" cx="409.59" cy="60.81" rx="4.64" ry="2.84" transform="translate(-4.39 51.53) rotate(-7.16)"/><ellipse class="cls-14" cx="423.33" cy="66.05" rx="5.26" ry="3.22" transform="translate(-4.93 53.29) rotate(-7.16)"/><ellipse class="cls-14" cx="434.66" cy="53.06" rx="4.64" ry="2.84" transform="translate(-3.22 54.6) rotate(-7.16)"/><ellipse class="cls-15" cx="421.77" cy="56.42" rx="6.39" ry="3.91" transform="translate(-3.74 53.02) rotate(-7.16)"/><ellipse class="cls-15" cx="421.77" cy="54.96" rx="6.39" ry="3.91" transform="translate(-3.56 53.01) rotate(-7.16)"/><path class="cls-15" d="M418.85,60.14a2.46,2.46,0,0,1,1.47,1.51,2.51,2.51,0,0,1-.49,2.27,6.64,6.64,0,0,1,5.28-1.05,1.86,1.86,0,0,1-1.5-1.56,1.9,1.9,0,0,1,.55-1.44,9.79,9.79,0,0,1-2.26.47A10.19,10.19,0,0,1,418.85,60.14Z"/><path class="cls-15" d="M411.6,58.08a2.64,2.64,0,0,1,2,1,2.8,2.8,0,0,1,.46,2.1,2.66,2.66,0,0,1,1.09-1.37,3,3,0,0,1,2-.36,3,3,0,0,1-1.41-1.4,2.92,2.92,0,0,1-.27-1.43,3.79,3.79,0,0,1-1.11,1.06A4.11,4.11,0,0,1,411.6,58.08Z"/><path class="cls-15" d="M418.48,49.94a1.6,1.6,0,0,1,.83,1,2.76,2.76,0,0,1-.69,2.3,8.52,8.52,0,0,1,2-.76,8.21,8.21,0,0,1,2.58,0,2.16,2.16,0,0,1-1.61-1.75,1.55,1.55,0,0,1,.36-1,18.11,18.11,0,0,1-1.88.33A8.27,8.27,0,0,1,418.48,49.94Z"/><path class="cls-15" d="M426.61,53.37a3.58,3.58,0,0,0,1.73.09,3.64,3.64,0,0,0,1.77-.92,2.26,2.26,0,0,0,0,1.38A2.29,2.29,0,0,0,431,55.1a3.1,3.1,0,0,0-1.5.16,3,3,0,0,0-1.43,1.14,3.14,3.14,0,0,0-.3-1.72A3.21,3.21,0,0,0,426.61,53.37Z"/><path class="cls-16" d="M432.61,51.83a4.18,4.18,0,0,1,1.73-.63,4.31,4.31,0,0,1,2.28.34"/><path class="cls-16" d="M433.16,52.23a2.88,2.88,0,0,1,1.23-.45A3.1,3.1,0,0,1,436,52"/><path class="cls-16" d="M433.62,52.64a1.75,1.75,0,0,1,.92-.4,1.82,1.82,0,0,1,1,.25"/><path class="cls-16" d="M436.71,54.29a4.22,4.22,0,0,1-1.73.64,4.27,4.27,0,0,1-2.28-.34"/><path class="cls-16" d="M436.16,53.9a3.17,3.17,0,0,1-1.23.45,3.05,3.05,0,0,1-1.62-.24"/><path class="cls-16" d="M435.7,53.48a1.15,1.15,0,0,1-.86.36,2,2,0,0,1-1.1-.2"/><path class="cls-16" d="M420.87,64.72a4.84,4.84,0,0,1,4.67-.55"/><path class="cls-16" d="M421.53,65.15a3.64,3.64,0,0,1,1.42-.59,3.57,3.57,0,0,1,1.9.2"/><path class="cls-16" d="M422.09,65.61a1.9,1.9,0,0,1,2.28-.28"/><path class="cls-16" d="M425.79,67.38a4.89,4.89,0,0,1-2,.83,5,5,0,0,1-2.68-.28"/><path class="cls-16" d="M425.12,66.94a3.42,3.42,0,0,1-1.41.6,3.51,3.51,0,0,1-1.91-.21"/><path class="cls-16" d="M424.56,66.48a1.31,1.31,0,0,1-1,.47,2.33,2.33,0,0,1-1.29-.18"/><path class="cls-16" d="M407.34,59.68a4.13,4.13,0,0,1,1.72-.72,4.24,4.24,0,0,1,2.31.25"/><path class="cls-16" d="M407.92,60.05a3,3,0,0,1,1.22-.51,3,3,0,0,1,1.64.18"/><path class="cls-16" d="M408.4,60.45a1.82,1.82,0,0,1,.91-.45,2,2,0,0,1,1.05.2"/><path class="cls-16" d="M411.58,62a4.08,4.08,0,0,1-1.71.72,4.35,4.35,0,0,1-2.31-.24"/><path class="cls-16" d="M411,61.6a3,3,0,0,1-1.22.51,3,3,0,0,1-1.64-.18"/><path class="cls-16" d="M410.53,61.2a1.15,1.15,0,0,1-.85.4,2,2,0,0,1-1.11-.15"/><path class="cls-16" d="M418.39,46.8a3.57,3.57,0,0,1,1.38-.57,3.42,3.42,0,0,1,1.85.2"/><path class="cls-16" d="M418.85,47.11a2.4,2.4,0,0,1,1-.41,2.36,2.36,0,0,1,1.32.14"/><path class="cls-16" d="M419.24,47.42a1.35,1.35,0,0,1,.73-.35,1.41,1.41,0,0,1,.84.16"/><path class="cls-16" d="M421.8,48.65a3.43,3.43,0,0,1-3.23.38"/><path class="cls-16" d="M421.34,48.35a2.71,2.71,0,0,1-1,.41,2.56,2.56,0,0,1-1.32-.14"/><path class="cls-16" d="M421,48a.92.92,0,0,1-.68.32,1.57,1.57,0,0,1-.89-.13"/><polyline class="cls-3" points="457.29 25.76 451.93 31.95 439.55 30.16"/><polygon class="cls-4" points="451.93 28.27 439.55 26.48 444.92 20.3 457.29 22.08 451.93 28.27"/><line class="cls-3" x1="439.55" y1="30.16" x2="439.55" y2="26.48"/><line class="cls-3" x1="451.93" y1="31.95" x2="451.93" y2="28.27"/><line class="cls-3" x1="457.29" y1="25.76" x2="457.29" y2="22.08"/><ellipse class="cls-14" cx="446.45" cy="15.79" rx="3.32" ry="2.03" transform="translate(1.51 55.78) rotate(-7.16)"/><ellipse class="cls-14" cx="437.18" cy="27.33" rx="4.09" ry="2.5" transform="translate(0 54.71) rotate(-7.16)"/><ellipse class="cls-14" cx="449.3" cy="31.95" rx="4.64" ry="2.84" transform="translate(-0.48 56.26) rotate(-7.16)"/><ellipse class="cls-14" cx="459.29" cy="20.5" rx="4.09" ry="2.5" transform="translate(1.03 57.41) rotate(-7.16)"/><ellipse class="cls-15" cx="447.92" cy="23.46" rx="5.64" ry="3.45" transform="translate(0.57 56.02) rotate(-7.16)"/><ellipse class="cls-15" cx="447.92" cy="22.18" rx="5.64" ry="3.45" transform="translate(0.73 56.01) rotate(-7.16)"/><path class="cls-15" d="M445.34,26.74a2.16,2.16,0,0,1,1.31,1.33,2.2,2.2,0,0,1-.44,2,5.89,5.89,0,0,1,4.65-.93,1.52,1.52,0,0,1-.83-2.63,9.09,9.09,0,0,1-4.69.23Z"/><path class="cls-15" d="M439,24.93a2.31,2.31,0,0,1,1.77.88,2.44,2.44,0,0,1,.4,1.85,2.44,2.44,0,0,1,1-1.21,2.68,2.68,0,0,1,1.73-.31,2.64,2.64,0,0,1-1.25-1.24,2.48,2.48,0,0,1-.24-1.25,3.62,3.62,0,0,1-1,.93A3.71,3.71,0,0,1,439,24.93Z"/><path class="cls-15" d="M445,17.75a1.37,1.37,0,0,1,.73.89,2.4,2.4,0,0,1-.61,2,7.3,7.3,0,0,1,1.8-.66,7.2,7.2,0,0,1,2.27,0,1.9,1.9,0,0,1-1.42-1.54,1.33,1.33,0,0,1,.32-.89,15.82,15.82,0,0,1-1.66.29A7.58,7.58,0,0,1,445,17.75Z"/><path class="cls-15" d="M452.19,20.77a3.17,3.17,0,0,0,1.53.08,3.24,3.24,0,0,0,1.56-.81,2,2,0,0,0,.8,2.26,2.67,2.67,0,0,0-1.32.14,2.78,2.78,0,0,0-1.27,1,2.77,2.77,0,0,0-1.3-2.67Z"/><path class="cls-16" d="M457.48,19.41a3.69,3.69,0,0,1,3.53-.26"/><path class="cls-16" d="M458,19.76a2.63,2.63,0,0,1,1.09-.39,2.69,2.69,0,0,1,1.43.21"/><path class="cls-16" d="M458.37,20.13a1.42,1.42,0,0,1,1.72-.14"/><path class="cls-16" d="M461.1,21.58a3.64,3.64,0,0,1-3.54.26"/><path class="cls-16" d="M460.61,21.23a2.56,2.56,0,0,1-1.09.4,2.63,2.63,0,0,1-1.42-.21"/><path class="cls-16" d="M460.2,20.87a1,1,0,0,1-.76.32,1.73,1.73,0,0,1-1-.18"/><path class="cls-16" d="M447.13,30.77a4.49,4.49,0,0,1,1.76-.73,4.37,4.37,0,0,1,2.35.25"/><path class="cls-16" d="M447.71,31.16a3.1,3.1,0,0,1,1.25-.52,3,3,0,0,1,1.68.18"/><path class="cls-16" d="M448.21,31.56a1.77,1.77,0,0,1,.93-.45,1.84,1.84,0,0,1,1.07.2"/><path class="cls-16" d="M451.47,33.12a4.47,4.47,0,0,1-1.76.74,4.41,4.41,0,0,1-2.36-.25"/><path class="cls-16" d="M450.88,32.74a3.1,3.1,0,0,1-1.25.52,3.06,3.06,0,0,1-1.68-.18"/><path class="cls-16" d="M450.39,32.33a1.17,1.17,0,0,1-.87.41,1.91,1.91,0,0,1-1.14-.16"/><path class="cls-16" d="M435.2,26.33a3.71,3.71,0,0,1,3.55-.41"/><path class="cls-16" d="M435.71,26.66a2.59,2.59,0,0,1,1.07-.45,2.67,2.67,0,0,1,1.45.16"/><path class="cls-16" d="M436.13,27a1.55,1.55,0,0,1,.8-.39,1.62,1.62,0,0,1,.93.18"/><path class="cls-16" d="M438.94,28.36a4,4,0,0,1-1.52.63,3.82,3.82,0,0,1-2-.22"/><path class="cls-16" d="M438.43,28a2.47,2.47,0,0,1-1.07.44,2.69,2.69,0,0,1-1.45-.15"/><path class="cls-16" d="M438,27.68a1.07,1.07,0,0,1-.75.35,1.7,1.7,0,0,1-1-.14"/><path class="cls-16" d="M444.94,15a3,3,0,0,1,1.22-.51,3,3,0,0,1,1.63.18"/><path class="cls-16" d="M445.35,15.25a2,2,0,0,1,.86-.36,2.08,2.08,0,0,1,1.17.12"/><path class="cls-16" d="M445.69,15.53a1.25,1.25,0,0,1,.65-.32,1.33,1.33,0,0,1,.74.14"/><path class="cls-16" d="M448,16.61a3.18,3.18,0,0,1-1.22.5,2.9,2.9,0,0,1-1.63-.17"/><path class="cls-16" d="M447.54,16.34a2.13,2.13,0,0,1-.86.36,2.28,2.28,0,0,1-1.17-.12"/><path class="cls-16" d="M447.2,16.06a.82.82,0,0,1-.6.28,1.4,1.4,0,0,1-.79-.11"/><polyline class="cls-3" points="529.78 53.73 522.88 58.12 511.53 52.87"/><polygon class="cls-4" points="523.93 54.59 512.58 49.34 519.48 44.95 530.84 50.2 523.93 54.59"/><line class="cls-3" x1="511.53" y1="52.87" x2="512.58" y2="49.35"/><line class="cls-3" x1="522.88" y1="58.12" x2="523.93" y2="54.59"/><line class="cls-3" x1="529.78" y1="53.73" x2="530.83" y2="50.2"/><ellipse class="cls-14" cx="522.23" cy="41.07" rx="2.03" ry="3.32" transform="translate(396.06 549.5) rotate(-80.56)"/><ellipse class="cls-14" cx="510.06" cy="49.48" rx="2.5" ry="4.09" transform="translate(377.59 544.52) rotate(-80.56)"/><ellipse class="cls-14" cx="520.35" cy="57.37" rx="2.84" ry="4.64" transform="translate(378.41 561.27) rotate(-80.56)"/><ellipse class="cls-14" cx="533.2" cy="49.25" rx="2.5" ry="4.09" transform="translate(397.16 567.15) rotate(-80.56)"/><ellipse class="cls-15" cx="521.46" cy="48.84" rx="3.45" ry="5.64" transform="translate(387.75 555.23) rotate(-80.56)"/><ellipse class="cls-15" cx="521.83" cy="47.61" rx="3.45" ry="5.64" transform="translate(389.27 554.56) rotate(-80.56)"/><path class="cls-15" d="M518.05,51.25a2.14,2.14,0,0,1,.87,1.65,2.22,2.22,0,0,1-1,1.79,5.89,5.89,0,0,1,4.73.44,1.63,1.63,0,0,1-.88-1.69,1.66,1.66,0,0,1,.83-1.08,8.52,8.52,0,0,1-2-.17A9.07,9.07,0,0,1,518.05,51.25Z"/><path class="cls-15" d="M512.44,47.68A2.35,2.35,0,0,1,513.89,49a2.48,2.48,0,0,1-.15,1.89A2.43,2.43,0,0,1,515,50a2.74,2.74,0,0,1,1.75.2,2.72,2.72,0,0,1-.85-1.54,2.57,2.57,0,0,1,.14-1.27,3.5,3.5,0,0,1-1.2.61A3.65,3.65,0,0,1,512.44,47.68Z"/><path class="cls-15" d="M520.31,42.54a1.35,1.35,0,0,1,.44,1.06,2.4,2.4,0,0,1-1.16,1.77,7.19,7.19,0,0,1,1.91-.13,7.27,7.27,0,0,1,2.19.64,1.91,1.91,0,0,1-.93-1.88,1.41,1.41,0,0,1,.56-.77,14.45,14.45,0,0,1-1.67-.19A7.19,7.19,0,0,1,520.31,42.54Z"/><path class="cls-15" d="M526.32,47.49a3.12,3.12,0,0,0,3.17.17,2,2,0,0,0,.12,2.4,2.68,2.68,0,0,0-1.31-.24,2.63,2.63,0,0,0-1.5.6,2.74,2.74,0,0,0,.19-1.53A2.79,2.79,0,0,0,526.32,47.49Z"/><path class="cls-16" d="M531.77,47.7a3.71,3.71,0,0,1,1.63-.11,3.84,3.84,0,0,1,1.84.87"/><path class="cls-16" d="M532.14,48.17a2.62,2.62,0,0,1,1.15-.07,2.73,2.73,0,0,1,1.31.61"/><path class="cls-16" d="M532.42,48.64a1.42,1.42,0,0,1,1.69.36"/><path class="cls-16" d="M534.62,50.81a3.7,3.7,0,0,1-3.46-.76"/><path class="cls-16" d="M534.26,50.33a2.59,2.59,0,0,1-2.47-.54"/><path class="cls-16" d="M534,49.87a1,1,0,0,1-.82.09,1.77,1.77,0,0,1-.87-.45"/><path class="cls-16" d="M518.61,55.63a4.25,4.25,0,0,1,1.89-.2,4.4,4.4,0,0,1,2.19.91"/><path class="cls-16" d="M519.06,56.16a3.12,3.12,0,0,1,1.35-.14,3,3,0,0,1,1.55.65"/><path class="cls-16" d="M519.42,56.69a1.86,1.86,0,0,1,1-.17,2,2,0,0,1,1,.5"/><path class="cls-16" d="M522.09,59.12a4.4,4.4,0,0,1-1.89.2A4.3,4.3,0,0,1,518,58.4"/><path class="cls-16" d="M521.64,58.58a3.07,3.07,0,0,1-1.34.14,3.1,3.1,0,0,1-1.56-.65"/><path class="cls-16" d="M521.29,58.05a1.17,1.17,0,0,1-1,.14,2,2,0,0,1-1-.47"/><path class="cls-16" d="M508.45,48a3.64,3.64,0,0,1,1.63-.17,3.85,3.85,0,0,1,1.89.78"/><path class="cls-16" d="M508.84,48.42a2.65,2.65,0,0,1,2.5.44"/><path class="cls-16" d="M509.15,48.88a1.54,1.54,0,0,1,.88-.15,1.6,1.6,0,0,1,.83.44"/><path class="cls-16" d="M511.45,51a3.64,3.64,0,0,1-1.63.17,3.74,3.74,0,0,1-1.89-.79"/><path class="cls-16" d="M511.06,50.51a2.79,2.79,0,0,1-1.16.12,2.65,2.65,0,0,1-1.34-.56"/><path class="cls-16" d="M510.75,50.05a1,1,0,0,1-.81.12,1.66,1.66,0,0,1-.9-.41"/><path class="cls-16" d="M521,39.87a3,3,0,0,1,2.82.49"/><path class="cls-16" d="M521.34,40.24a2,2,0,0,1,.93-.1,2.07,2.07,0,0,1,1.08.45"/><path class="cls-16" d="M521.59,40.6a1.41,1.41,0,0,1,.71-.12,1.35,1.35,0,0,1,.67.35"/><path class="cls-16" d="M523.44,42.28a3,3,0,0,1-1.31.14,3,3,0,0,1-1.51-.63"/><path class="cls-16" d="M523.13,41.91a2.16,2.16,0,0,1-.93.1,2.26,2.26,0,0,1-1.08-.45"/><path class="cls-16" d="M522.88,41.54a.8.8,0,0,1-.66.1,1.33,1.33,0,0,1-.72-.33"/><path class="cls-15" d="M475.87,300.46a3.16,3.16,0,0,1,1.66,1.43,4,4,0,0,1,.27,2.54,6,6,0,0,1,1.74-1.59,4.73,4.73,0,0,1,2-.2,3.66,3.66,0,0,1-1.79-1.49,1.68,1.68,0,0,1-.19-1.21,4.48,4.48,0,0,1-1.35.53A3.91,3.91,0,0,1,475.87,300.46Z"/><path class="cls-15" d="M477.24,307.66a4.37,4.37,0,0,1-1.11,1.4,4.49,4.49,0,0,1-2.44,1,2.72,2.72,0,0,1,1.06.91,4.26,4.26,0,0,1,.79,1.47,8.13,8.13,0,0,1,1.57-1.67,10.5,10.5,0,0,1,1.65-.95,3.32,3.32,0,0,1-1.52-2.13Z"/><path class="cls-15" d="M485.64,311.23a4.68,4.68,0,0,1,1.4,1.83,4.81,4.81,0,0,1,.31,2.68,4.55,4.55,0,0,1,3.68-2.42,3.09,3.09,0,0,1-1.9-1.38,3,3,0,0,1-.39-1.91,5.8,5.8,0,0,1-1.26.75A5.91,5.91,0,0,1,485.64,311.23Z"/><path class="cls-15" d="M489.08,305.13a3.9,3.9,0,0,1,.69-1.22,4,4,0,0,1,1.8-1.2,2.56,2.56,0,0,1-.94-.74,2.68,2.68,0,0,1-.44-.86,6.1,6.1,0,0,1-3,2.19c.26.23.52.46.79.72S488.76,304.77,489.08,305.13Z"/><polygon class="cls-4" points="491.81 289.07 479.68 287.15 481.96 277.43 492.71 279.13 491.81 289.07"/><polygon class="cls-4" points="492.16 286.87 480.03 284.95 482.3 275.23 493.06 276.93 492.16 286.87"/><path class="cls-14" d="M484.79,272.25c-.06,1.3-1.63,2.33-3.51,2.3s-3.36-1.11-3.3-2.41,1.64-2.33,3.52-2.3S484.85,271,484.79,272.25Z"/><ellipse class="cls-15" cx="487.11" cy="280.34" rx="4" ry="5.79" transform="translate(134.23 717.76) rotate(-81.03)"/><ellipse class="cls-15" cx="487.23" cy="279.58" rx="4" ry="5.79" transform="translate(135.07 717.24) rotate(-81.03)"/><path class="cls-16" d="M480,271a3,3,0,0,1,1.32-.39,2.81,2.81,0,0,1,1.62.46"/><path class="cls-16" d="M480.38,271.39a2,2,0,0,1,.94-.27,2,2,0,0,1,1.15.32"/><path class="cls-16" d="M480.67,271.77a1.24,1.24,0,0,1,.71-.26,1.26,1.26,0,0,1,.73.28"/><path class="cls-16" d="M482.76,273.37a3.09,3.09,0,0,1-1.32.39,2.75,2.75,0,0,1-1.62-.46"/><path class="cls-16" d="M482.39,273a2,2,0,0,1-.93.27,2.06,2.06,0,0,1-1.16-.32"/><path class="cls-16" d="M482.1,272.62a.8.8,0,0,1-.66.23,1.27,1.27,0,0,1-.77-.25"/><ellipse class="cls-14" cx="496.69" cy="274.61" rx="3.41" ry="2.35" transform="translate(-3.75 6.9) rotate(-0.79)"/><path class="cls-16" d="M495.32,273.44a2.84,2.84,0,0,1,1.33-.39,2.74,2.74,0,0,1,1.61.46"/><path class="cls-16" d="M495.69,273.81a2.14,2.14,0,0,1,.94-.28,2,2,0,0,1,1.15.33"/><path class="cls-16" d="M496,274.19a1.15,1.15,0,0,1,.71-.26,1.1,1.1,0,0,1,.72.28"/><path class="cls-16" d="M498.06,275.78a2.75,2.75,0,0,1-2.94-.07"/><path class="cls-16" d="M497.7,275.41a2,2,0,0,1-.94.28,2,2,0,0,1-1.15-.33"/><path class="cls-16" d="M497.41,275a.81.81,0,0,1-.66.23A1.32,1.32,0,0,1,496,275"/><ellipse class="cls-14" cx="475.58" cy="285.68" rx="4.4" ry="3.04" transform="translate(-3.91 6.61) rotate(-0.79)"/><path class="cls-16" d="M473.81,284.16a3.74,3.74,0,0,1,1.71-.5,3.58,3.58,0,0,1,2.09.59"/><path class="cls-16" d="M474.28,284.64a2.67,2.67,0,0,1,1.21-.36,2.61,2.61,0,0,1,1.49.42"/><path class="cls-16" d="M474.66,285.13a1.53,1.53,0,0,1,.92-.34,1.5,1.5,0,0,1,.93.37"/><path class="cls-16" d="M477.35,287.19a3.74,3.74,0,0,1-1.71.5,3.58,3.58,0,0,1-2.09-.59"/><path class="cls-16" d="M476.89,286.71a2.63,2.63,0,0,1-1.22.36,2.54,2.54,0,0,1-1.49-.42"/><path class="cls-16" d="M476.5,286.23a1,1,0,0,1-.85.29,1.64,1.64,0,0,1-1-.32"/><ellipse class="cls-14" cx="494.99" cy="289.15" rx="4.4" ry="3.04" transform="translate(-3.96 6.88) rotate(-0.79)"/><path class="cls-16" d="M493.22,287.63a3.73,3.73,0,0,1,1.7-.5,3.59,3.59,0,0,1,2.1.59"/><path class="cls-16" d="M493.68,288.11a2.63,2.63,0,0,1,1.22-.36,2.54,2.54,0,0,1,1.49.42"/><path class="cls-16" d="M494.07,288.6a1.52,1.52,0,0,1,.91-.34,1.58,1.58,0,0,1,.94.36"/><path class="cls-16" d="M496.76,290.66a3.74,3.74,0,0,1-1.71.5,3.58,3.58,0,0,1-2.09-.59"/><path class="cls-16" d="M496.29,290.18a2.53,2.53,0,0,1-2.7-.06"/><path class="cls-16" d="M495.91,289.7a1.05,1.05,0,0,1-.85.29,1.64,1.64,0,0,1-1-.32"/><path class="cls-15" d="M480.25,274.42a2.89,2.89,0,0,1,1.52,1.31,3.8,3.8,0,0,1,.25,2.32,5.41,5.41,0,0,1,1.58-1.45,4.41,4.41,0,0,1,1.85-.19,3.3,3.3,0,0,1-1.64-1.36,1.54,1.54,0,0,1-.17-1.11,4,4,0,0,1-1.23.49A3.58,3.58,0,0,1,480.25,274.42Z"/><path class="cls-15" d="M481.5,281a3.83,3.83,0,0,1-1,1.28,4,4,0,0,1-2.22.88,2.8,2.8,0,0,1,1,.83,4,4,0,0,1,.72,1.35,7.51,7.51,0,0,1,1.43-1.52,8.43,8.43,0,0,1,1.51-.87,3.14,3.14,0,0,1-1.06-1.11A3,3,0,0,1,481.5,281Z"/><path class="cls-15" d="M489.18,284.26a4.31,4.31,0,0,1,1.56,4.12,4.09,4.09,0,0,1,1.34-1.49,4.2,4.2,0,0,1,2-.72,2.8,2.8,0,0,1-1.75-1.26,2.75,2.75,0,0,1-.35-1.74,5.53,5.53,0,0,1-1.15.68A5.37,5.37,0,0,1,489.18,284.26Z"/><path class="cls-15" d="M492.32,278.69a3.49,3.49,0,0,1,.64-1.12,3.56,3.56,0,0,1,1.63-1.09,2.41,2.41,0,0,1-1.26-1.46,5.55,5.55,0,0,1-2.72,2c.24.2.48.42.72.65S492,278.36,492.32,278.69Z"/><path class="cls-20" d="M561.56,379.62a85.54,85.54,0,0,0,23.6,7.46c17.67,2.81,24-2.12,37.27-1.25,18.14,1.19,39.52,5.77,58.72,21.74,22.89,19.05,24.74,28.71,28,40.82"/></g><g id="Layer_7" data-name="Layer 7"><path class="cls-20" d="M382.3,105c5.49-5.8,4.2-11.31,9.94-11.5s10.72,32.73,21.43,39.13,9.42,5.66,9.42,5.66"/><path class="cls-20" d="M516.23,91.77c-6.69-.11-32.22,2.24-31.14,17.85"/><polygon points="484.01 108.5 485.09 109.45 486.04 108.36 486.1 109.23 485.15 110.31 484.07 109.36 484.01 108.5"/><path class="cls-20" d="M437.78,147.87c8.4,2.65,20.73,4.15,24.28,11.29"/><polygon points="460.58 158.57 461.95 159.02 462.39 157.65 462.79 158.42 462.34 159.78 460.97 159.34 460.58 158.57"/><path class="cls-20" d="M461.93,11.81a13.17,13.17,0,0,1,8.33-8.44,6.06,6.06,0,0,1,4.11-.13,7.79,7.79,0,0,1,3.2,3c5.34,7.51,9.72,15.68,15.3,23S505.52,43.18,514.28,46"/><polygon points="463.29 11 462.01 11.65 461.36 10.37 461.09 11.19 461.74 12.47 463.02 11.82 463.29 11"/><path class="cls-3" d="M543,210.17l-.59.17"/><path class="cls-21" d="M540,211c-17,4.51-42.95,10.05-47.93,27.23"/><path class="cls-3" d="M491.77,239.38c0,.2-.09.4-.13.6"/><path class="cls-20" d="M575.52,205c16.86-3.6,24-16.95,37.2-16.17S629.8,205.46,639.27,205c9.09-.47,7.46-4.43,9.37-9.41"/><polygon points="649.22 197.03 648.61 195.73 647.31 196.35 647.6 195.53 648.9 194.92 649.51 196.22 649.22 197.03"/><path class="cls-20" d="M530.43,92.08a26.57,26.57,0,0,0,8.38,1.33,28.41,28.41,0,0,0,11.6-2.69c4.82-2.06,13.16-3.39,28.57.31"/><path class="cls-20" d="M529.71,56.46a63.13,63.13,0,0,0,15,3.41c9.29.94,16.64-.44,26.09-2.28,13.69-2.66,13.76-4.24,20.5-4.76,6.43-.49,15.31.27,26.29,5.59"/><path class="cls-20" d="M514.28,361.92c-9.84-2.48-11.54-4.15-23.81-1.86-18.29,3.42-29.41-4.48-38.3-12.63-10.54-9.68-12.27-23.16-13.66-33.95s-3.67-28.59,7.87-43.27c9.36-11.91,22.38-14.87,27.12-15.94,4.51-1,12.5-2.84,16.35,1.45a8.72,8.72,0,0,1,2,5.11"/><polygon points="490.74 259.74 491.84 260.65 492.76 259.55 492.84 260.41 491.92 261.51 490.82 260.6 490.74 259.74"/></g></g></svg>