<svg xmlns="http://www.w3.org/2000/svg" viewBox="0 0 1298.3 730.3"><defs><style>.a,.d,.f{fill:#fff;}.b,.c,.e,.g,.i,.j{fill:none;}.b,.f{stroke:#039;}.b,.c,.d,.e,.f,.g,.i,.j{stroke-linecap:round;stroke-linejoin:round;stroke-width:1.41px;}.c,.d{stroke:#000;}.e,.g{stroke:#11a3e9;}.g,.j{stroke-dasharray:2.92 5.84;}.h{fill:#11a3e9;}.i,.j{stroke:#ff4759;}.k{fill:#ff4759;}</style></defs><title>Asset 9</title><rect class="a" width="1298.3" height="730.27"/><rect class="a" x="3.4" y="100.3" width="1291.8" height="529.59"/><line class="b" x1="412.9" y1="320" x2="412.9" y2="310.2"/><polyline class="b" points="447.2 305.5 440 322.6 412.9 320"/><path class="c" d="M101.7,328.2l11-16.5V255.8"/><polygon class="c" points="321.6 328.2 68.7 328.2 68.7 255.8 312.5 255.8 321.6 266.8 321.6 328.2"/><rect class="c" x="117.7" y="264.1" width="39.6" height="18.33"/><rect class="c" x="160.8" y="264.1" width="39.6" height="18.33"/><rect class="c" x="203.8" y="264.1" width="39.6" height="18.33"/><rect class="c" x="246.9" y="264.1" width="39.6" height="18.33"/><polygon class="c" points="312.2 282.4 290.2 282.4 290.2 264.1 309.9 264.1 312.2 267 312.2 282.4"/><circle class="d" cx="107.2" cy="326.1" r="10.8"/><circle class="d" cx="278.7" cy="326.1" r="10.8"/><circle class="e" cx="404.7" cy="291.2" r="8.8"/><line class="e" x1="397.5" y1="296.3" x2="395.8" y2="321.3"/><line class="e" x1="409.3" y1="298.7" x2="411.2" y2="322.3"/><line class="e" x1="395.8" y1="321.3" x2="411.2" y2="322.3"/><path class="e" d="M418.4,314.5a34.8,34.8,0,0,1-21.3-10.6"/><path class="e" d="M424,308.6l-13.7-5"/><line class="e" x1="397.9" y1="321.4" x2="397" y2="336.8"/><line class="e" x1="408.6" y1="322.2" x2="409.7" y2="336.3"/><polygon class="b" points="440 312.7 412.9 310.2 420 293.1 447.2 295.7 440 312.7"/><line class="b" x1="440" y1="322.6" x2="440" y2="312.7"/><line class="b" x1="447.2" y1="305.5" x2="447.2" y2="295.7"/><polyline class="b" points="948.3 304.7 941.1 321.8 913.9 319.2"/><circle class="b" cx="1074.8" cy="290.4" r="8.8"/><line class="b" x1="1067.6" y1="296.3" x2="1064.4" y2="320.4"/><line class="b" x1="1081.6" y1="296.7" x2="1082.7" y2="321"/><line class="b" x1="1064.4" y1="320.4" x2="1082.7" y2="321"/><path class="b" d="M1082,300.1c.4.4,1,1.6,1.9,5.3s1.1,5.4,1.4,7.6"/><path class="b" d="M1066.8,300.2c-.4.4-1.1,1.5-2.3,5.2s-1.5,5.2-2,7.4"/><line class="b" x1="1068" y1="320.6" x2="1067.1" y2="336"/><line class="b" x1="1078.8" y1="321.4" x2="1079.8" y2="335.5"/><polygon class="f" points="941.1 312 913.9 309.4 921.1 292.3 948.3 294.9 941.1 312"/><line class="b" x1="913.9" y1="319.2" x2="913.9" y2="309.4"/><line class="b" x1="941.1" y1="321.8" x2="941.1" y2="312"/><line class="b" x1="948.3" y1="304.7" x2="948.3" y2="294.9"/><line class="c" x1="7.4" y1="336.9" x2="613.3" y2="336.9"/><line class="c" x1="685.4" y1="336.9" x2="1295.3" y2="336.9"/><path class="c" d="M613.3,336.9V360h36.3"/><path class="c" d="M649.6,360.1v23.1h36.3"/><path class="c" d="M685.9,383.3v23.1h36.3"/><path class="c" d="M722.2,406.5v23.1h36.3"/><path class="c" d="M758.5,429.7v23.1h36.3"/><path class="c" d="M794.8,452.8V476h36.3"/><path class="c" d="M831.1,476v23.2h36.3"/><path class="c" d="M867.4,499.3v23.2h36.2"/><line class="c" x1="903.6" y1="522.4" x2="903.6" y2="535.6"/><polyline class="c" points="1057.3 535.6 82.5 535.6 74.1 544.1 74.1 594.9 82.9 603.7 1057.3 603.7"/><line class="c" x1="966.4" y1="535.6" x2="966.4" y2="603.7"/><line class="c" x1="758.5" y1="535.6" x2="758.5" y2="603.7"/><line class="c" x1="545.2" y1="535.6" x2="545.2" y2="603.7"/><line class="c" x1="304.7" y1="535.6" x2="304.7" y2="603.7"/><rect class="c" x="127" y="544.1" width="165.8" height="25.59"/><rect class="c" x="315.3" y="544.1" width="218.3" height="25.59"/><rect class="c" x="767.6" y="544.1" width="188.1" height="25.59"/><polyline class="c" points="1057.3 569.7 977.9 569.7 977.9 544.1 1057.3 544.1"/><rect class="c" x="82.6" y="544.1" width="37.4" height="37.44"/><line class="c" x1="2.5" y1="603.7" x2="1295.7" y2="603.7"/><line class="c" x1="2.5" y1="581.5" x2="74.1" y2="581.5"/><polygon class="c" points="740.3 595.3 565.7 595.3 565.7 595.3 740.3 595.3 740.3 595.3"/><polygon class="c" points="740.3 569.7 565.7 569.7 565.7 569.7 740.3 569.7 740.3 569.7"/><polygon class="c" points="740.3 556.9 653 556.9 653 556.9 740.3 556.9 740.3 556.9"/><polygon class="c" points="740.3 582.5 565.7 582.5 565.7 582.5 740.3 582.5 740.3 582.5"/><line class="c" x1="565.7" y1="544.1" x2="565.7" y2="595.3"/><line class="c" x1="587" y1="569.7" x2="587" y2="595.3"/><line class="c" x1="608.9" y1="569.7" x2="608.9" y2="595.3"/><line class="c" x1="630.8" y1="569.7" x2="630.8" y2="595.3"/><line class="c" x1="653" y1="556.9" x2="652.7" y2="595.3"/><line class="c" x1="674.6" y1="556.9" x2="674.6" y2="595.3"/><line class="c" x1="696.5" y1="556.9" x2="696.5" y2="595.3"/><line class="c" x1="718.4" y1="556.9" x2="718.4" y2="595.3"/><line class="c" x1="740.3" y1="544.1" x2="740.3" y2="595.3"/><line class="c" x1="565.7" y1="544.1" x2="740.3" y2="544.1"/><rect class="c" x="594.2" y="260.8" width="109.8" height="35.94"/><circle class="c" cx="606.6" cy="251.1" r="9.6"/><circle class="c" cx="693" cy="251.1" r="9.6"/><line class="c" x1="613.3" y1="296.7" x2="613.3" y2="336.9"/><polyline class="c" points="685.9 296.7 685.4 336.9 1015.2 535.6"/><path d="M18.2,233h3.4a4,4,0,0,1,2.9,1,3.6,3.6,0,0,1,.7,4.5,2.9,2.9,0,0,1-1.4,1.3,4.1,4.1,0,0,1-2.1.5H19.5v4.6H18.2Zm1.3,6.1h1.8a2.6,2.6,0,0,0,2.1-.6,2.5,2.5,0,0,0,.1-3.5h-.1a3.1,3.1,0,0,0-2.1-.6H19.5Z"/><path d="M30.5,245.1a3.5,3.5,0,0,1-3.3-2,4.6,4.6,0,0,1-.4-2.1,3.5,3.5,0,0,1,.5-2,3.4,3.4,0,0,1,1.4-1.5,3.6,3.6,0,0,1,2-.6,3.1,3.1,0,0,1,2.8,1.8v-1.5h1.3v7.9H33.5v-1.4a3.4,3.4,0,0,1-1.2,1.2A3.7,3.7,0,0,1,30.5,245.1Zm.3-1.2a2.4,2.4,0,0,0,2-.8,3.2,3.2,0,0,0,0-4.3,2.7,2.7,0,0,0-3.9,0h0a3.5,3.5,0,0,0,0,4.3,2.8,2.8,0,0,0,2,.8Z"/><path d="M41.4,245.1a5.4,5.4,0,0,1-2.2-.5,3.4,3.4,0,0,1-1.5-1.4,4.7,4.7,0,0,1,0-4.3,2.9,2.9,0,0,1,1.4-1.5,4.6,4.6,0,0,1,2.3-.6l1.2.2,1.1.4v1.1l-1-.3-1.1-.2a3,3,0,0,0-2.9,3.2,2.7,2.7,0,0,0,.8,1.9,3.5,3.5,0,0,0,2.2.8,5.9,5.9,0,0,0,2.2-.5l.2,1.1-1.2.4Z"/><path d="M46.1,232.1h1.4v8L51,237h1.8l-4,3.4,4.6,4.4H51.7l-4.2-3.9v3.9H46.2Z"/><path d="M58.2,245.1a3.5,3.5,0,0,1-3.3-2,4.6,4.6,0,0,1-.5-2.1,4.6,4.6,0,0,1,.5-2,4.3,4.3,0,0,1,1.4-1.6,4.6,4.6,0,0,1,2-.5,3.4,3.4,0,0,1,2.9,1.6v-1.4h1.3V245H61.3v-1.5a2.7,2.7,0,0,1-1.3,1.3A2.8,2.8,0,0,1,58.2,245.1Zm.3-1.2a2.8,2.8,0,0,0,2-.8,3.2,3.2,0,0,0,0-4.3,2.6,2.6,0,0,0-3.8,0h-.1a3.2,3.2,0,0,0,0,4.3A2.7,2.7,0,0,0,58.5,243.9Z"/><path d="M68.6,248.8a3.7,3.7,0,0,1-1.8-.2,2.1,2.1,0,0,1-1.2-.5l.2-1.1,1.2.5,1.5.2a3,3,0,0,0,2.2-.8,2.9,2.9,0,0,0,.8-2.3v-1.1a2.8,2.8,0,0,1-1.2,1.2,3.5,3.5,0,0,1-1.8.5,3.8,3.8,0,0,1-3.1-2.1,3.7,3.7,0,0,1-.6-2.1,4.6,4.6,0,0,1,.5-2,4.3,4.3,0,0,1,1.4-1.6,4.6,4.6,0,0,1,2-.5,3.1,3.1,0,0,1,2.8,1.6v-1.4h1.3v7.4a4.8,4.8,0,0,1-1,3.3A4.1,4.1,0,0,1,68.6,248.8Zm.3-4.9a3,3,0,0,0,2-.8,3.5,3.5,0,0,0,0-4.3,2.3,2.3,0,0,0-2-.8,2.2,2.2,0,0,0-2,.8,3.5,3.5,0,0,0,0,4.3A2.8,2.8,0,0,0,68.9,243.9Z"/><path d="M79.5,245.1a4.2,4.2,0,0,1-3.2-1.1,3.8,3.8,0,0,1-1.1-3,5.4,5.4,0,0,1,.4-2.2,4,4,0,0,1,1.4-1.5,4.6,4.6,0,0,1,2.1-.5,3,3,0,0,1,2.5,1,4.2,4.2,0,0,1,1,2.8v.8H76.5a2.8,2.8,0,0,0,.9,1.9,3.3,3.3,0,0,0,2.2.6,6.6,6.6,0,0,0,2.7-.6v1.1l-1.3.5A4.4,4.4,0,0,1,79.5,245.1Zm1.8-4.8a3.1,3.1,0,0,0-.7-1.8,2.7,2.7,0,0,0-3.4,0,3.7,3.7,0,0,0-.8,1.8Z"/><path d="M88.5,232.1h1.4v12.7H88.6Z"/><path d="M96.2,245.1a4.6,4.6,0,0,1-2-.5,5.4,5.4,0,0,1-1.5-1.5,3.6,3.6,0,0,1-.5-2.1,3.5,3.5,0,0,1,.5-2,3.6,3.6,0,0,1,1.4-1.6,3.3,3.3,0,0,1,2.1-.5,3.8,3.8,0,0,1,3.6,2,3.9,3.9,0,0,1,.6,2.1,5,5,0,0,1-.5,2.1,4,4,0,0,1-1.4,1.5A3.7,3.7,0,0,1,96.2,245.1Zm0-1.2a2.8,2.8,0,0,0,2-.8,3.5,3.5,0,0,0,0-4.3,2.4,2.4,0,0,0-2-.8,2.2,2.2,0,0,0-2,.8,3.5,3.5,0,0,0,0,4.3A2.3,2.3,0,0,0,96.2,243.9Z"/><path d="M106.5,245.1a5.4,5.4,0,0,1-2.2-.5,3.4,3.4,0,0,1-1.5-1.4,4.7,4.7,0,0,1,0-4.3,2.8,2.8,0,0,1,1.5-1.5,4.3,4.3,0,0,1,2.2-.6l1.2.2,1.1.5v1.1l-1.1-.4h-1.1a2.6,2.6,0,0,0-2.1.8,3,3,0,0,0-.1,4.1,2.5,2.5,0,0,0,2.3.9,5.4,5.4,0,0,0,2.2-.5l.2,1.1-1.1.4Z"/><path d="M111.3,232.1h1.3v8l3.6-3.1h1.7l-4,3.4,4.7,4.4h-1.8l-4.1-3.9v3.9h-1.4Z"/><path d="M123.9,245.1a4,4,0,0,1-4.4-4.1,5.4,5.4,0,0,1,.5-2.1,4,4,0,0,1,1.4-1.5,3.6,3.6,0,0,1,4.6.5,4.8,4.8,0,0,1,1,2.8v.7h-6.1a2.2,2.2,0,0,0,.9,1.9,3.3,3.3,0,0,0,2.1.7,6.8,6.8,0,0,0,2.8-.7v1.1l-1.3.5A4.4,4.4,0,0,1,123.9,245.1Zm1.8-4.8a4,4,0,0,0-.7-1.8,2.7,2.7,0,0,0-3.4,0,3.7,3.7,0,0,0-.8,1.8Z"/><path d="M129.4,237h1.3v1.7a2.1,2.1,0,0,1,.9-1.3,2.4,2.4,0,0,1,1.4-.5h1l-.2,1.3-.9-.2a1.7,1.7,0,0,0-1.6.8,3.9,3.9,0,0,0-.6,2.1v3.9h-1.3Z"/><path d="M292.8,155.1h1.5l4.9,11.9h-1.6l-1.4-3.6h-5.3l-1.5,3.6H288Zm2.9,7.1-2.2-5.8-2.3,5.8Z"/><path d="M301,159.1h1.2v1.5a3.7,3.7,0,0,1,1.2-1.3,3.9,3.9,0,0,1,1.8-.4,3.4,3.4,0,0,1,3.3,2,5.4,5.4,0,0,1,.5,2.2,4.6,4.6,0,0,1-.5,2,3.4,3.4,0,0,1-1.4,1.5,3.6,3.6,0,0,1-2,.6,3.3,3.3,0,0,1-1.7-.4,3.4,3.4,0,0,1-1.2-1.2v5.3h-1.3Zm3.9,6.9a2.8,2.8,0,0,0,2-.8,3.5,3.5,0,0,0,0-4.3,2.7,2.7,0,0,0-3.9,0h0a3.5,3.5,0,0,0,0,4.3,2.5,2.5,0,0,0,2,.9Z"/><path d="M311.3,159.1h1.3v1.5a3,3,0,0,1,1.2-1.3,3.9,3.9,0,0,1,1.8-.4,2.6,2.6,0,0,1,1.9.5,2.9,2.9,0,0,1,1.4,1.5,5,5,0,0,1,.5,2.1,5.4,5.4,0,0,1-.5,2.1,5,5,0,0,1-1.4,1.5,3.7,3.7,0,0,1-2.1.6,3.2,3.2,0,0,1-1.6-.4,3.7,3.7,0,0,1-1.2-1.3v5.4h-1.3Zm4,6.9a2.8,2.8,0,0,0,2-.8,3.3,3.3,0,0,0-.1-4.3,2.7,2.7,0,0,0-3.9,0h0a3.5,3.5,0,0,0,0,4.3,2.7,2.7,0,0,0,2,.9Z"/><path d="M320.2,169.8a6.2,6.2,0,0,0,1-2.2,7.3,7.3,0,0,0,.4-2.5h1.6a11,11,0,0,1-.2,1.8,12.7,12.7,0,0,1-.6,1.8,12.5,12.5,0,0,1-.9,1.2Z"/><path d="M331.4,167.2a3.9,3.9,0,0,1-1.5-.2l-1.2-.5.2-1.2a3.4,3.4,0,0,0,1.2.6,2.7,2.7,0,0,0,1.3.2,3.1,3.1,0,0,0,1.3-.3,1,1,0,0,0,.5-.8,1.4,1.4,0,0,0-.2-.6,1,1,0,0,0-.5-.4l-1.2-.4a5,5,0,0,1-1.9-1,1.5,1.5,0,0,1-.5-1.4,2.1,2.1,0,0,1,.7-1.8,4.3,4.3,0,0,1,2.2-.6l1.3.2,1.1.4-.2,1.2a3.8,3.8,0,0,0-2.2-.7,2.1,2.1,0,0,0-1.2.3,1,1,0,0,0-.5.8.8.8,0,0,0,.4.7,3.8,3.8,0,0,0,1.3.6,5.1,5.1,0,0,1,2.1,1,1.5,1.5,0,0,1,.6,1.5,1.8,1.8,0,0,1-.8,1.8A3.8,3.8,0,0,1,331.4,167.2Z"/><path d="M337.3,157a.5.5,0,0,1-.6-.2.9.9,0,0,1-.3-.7,1.1,1.1,0,0,1,.3-.7l.6-.2.7.2a1.3,1.3,0,0,1,0,1.4A.8.8,0,0,1,337.3,157Zm-.6,2.1H338v7.8h-1.3Z"/><path d="M344.1,171l-1.7-.2-1.2-.5v-1.2l1.3.5,1.5.2a2.7,2.7,0,0,0,2.2-.8,3.2,3.2,0,0,0,.7-2.3v-1.1a3.4,3.4,0,0,1-1.2,1.2,3.7,3.7,0,0,1-1.8.4,2.6,2.6,0,0,1-1.9-.5,2.9,2.9,0,0,1-1.3-1.4,3.6,3.6,0,0,1-.5-2.2,5.2,5.2,0,0,1,.4-2.1,6.7,6.7,0,0,1,1.4-1.5,4.2,4.2,0,0,1,2.1-.6,2.9,2.9,0,0,1,1.6.4,3.7,3.7,0,0,1,1.2,1.3v-1.5h1.3v7.4a4,4,0,0,1-4.2,4.5Zm.3-4.9a2.8,2.8,0,0,0,2-.9,3.5,3.5,0,0,0,0-4.3,2.8,2.8,0,0,0-4,0h0a3.5,3.5,0,0,0,0,4.3A3.4,3.4,0,0,0,344.4,166.1Z"/><path d="M351.2,159.1h1.2v1.4a3.2,3.2,0,0,1,1.1-1.2,2.9,2.9,0,0,1,1.6-.4,2.4,2.4,0,0,1,2.1.8,3.9,3.9,0,0,1,.8,2.5v4.7h-1.4v-4.4a2.8,2.8,0,0,0-.4-1.8,2,2,0,0,0-1.4-.6,2.1,2.1,0,0,0-1.7.7,3.1,3.1,0,0,0-.6,1.9V167h-1.3Z"/><path d="M363.5,167.2a2.3,2.3,0,0,1-2-.8,3,3,0,0,1-.7-2.3v-5h1.3v4.6a2.7,2.7,0,0,0,.5,1.8,1.8,1.8,0,0,0,1.4.6,2.4,2.4,0,0,0,1.6-.7,3.3,3.3,0,0,0,.6-1.9v-4.4h1.3v7.8h-1.2v-1.3a2.5,2.5,0,0,1-1.1,1.2A3.3,3.3,0,0,1,363.5,167.2Z"/><path d="M370.3,159.1h1.2v1.5a3.7,3.7,0,0,1,1.2-1.3,3.9,3.9,0,0,1,1.8-.4,3.4,3.4,0,0,1,3.3,2,5.4,5.4,0,0,1,.5,2.2,4.6,4.6,0,0,1-.5,2,3.4,3.4,0,0,1-1.4,1.5,3.6,3.6,0,0,1-2,.6,3.3,3.3,0,0,1-1.7-.4,3.4,3.4,0,0,1-1.2-1.2v5.2h-1.3Zm3.9,6.9a2.8,2.8,0,0,0,2-.8,3.5,3.5,0,0,0,0-4.3,2.7,2.7,0,0,0-3.9,0h0a3.5,3.5,0,0,0,0,4.3,2.5,2.5,0,0,0,2,.9Z"/><path d="M379.1,169.8a9.1,9.1,0,0,0,1.1-2.2,7.2,7.2,0,0,0,.3-2.5H382a11,11,0,0,1-.2,1.8,13.4,13.4,0,0,1-.7,1.8,3.4,3.4,0,0,1-.9,1.2Z"/><path d="M388.5,159.1h1.2v1.4a2.5,2.5,0,0,1,1.1-1.2,2.6,2.6,0,0,1,1.5-.4,2.5,2.5,0,0,1,2.2.8,3.8,3.8,0,0,1,.7,2.5v4.7h-1.4v-4.4a2.8,2.8,0,0,0-.4-1.8,2,2,0,0,0-1.5-.6,2.1,2.1,0,0,0-1.6.8,2.2,2.2,0,0,0-.6,1.9v4.3h-1.4Z"/><path d="M401.6,167.2a3.9,3.9,0,0,1-3.6-2,5,5,0,0,1-.5-2.1,3.6,3.6,0,0,1,.5-2.1,3.1,3.1,0,0,1,1.5-1.5,3.7,3.7,0,0,1,2.1-.6,4.6,4.6,0,0,1,2,.5,3.6,3.6,0,0,1,1.5,1.5,3.9,3.9,0,0,1,.6,2.1,4.6,4.6,0,0,1-.5,2.1,4.3,4.3,0,0,1-1.5,1.5A3.9,3.9,0,0,1,401.6,167.2Zm0-1.1a2.7,2.7,0,0,0,2-.9,3.5,3.5,0,0,0,0-4.3,2.9,2.9,0,0,0-3.9,0h0a3.2,3.2,0,0,0,0,4.3A2.5,2.5,0,0,0,401.6,166.1Z"/><path d="M411,167.2a2.6,2.6,0,0,1-2-.7,4,4,0,0,1-.6-2.2v-4h-1.8v-1.2h1.8v-2.2h1.4v2.2h2.8v1.1h-2.8v4a2.3,2.3,0,0,0,.4,1.4,1.2,1.2,0,0,0,1.1.4,2.9,2.9,0,0,0,1.6-.4v1.2A3.4,3.4,0,0,1,411,167.2Z"/><path d="M415.4,157c-.2,0-.5,0-.6-.2a.9.9,0,0,1-.3-.7.9.9,0,0,1,.9-.9h0l.6.2a1.1,1.1,0,0,1,.3.7.9.9,0,0,1-.3.7Zm-.6,2.1h1.3v7.8h-1.3Z"/><path d="M419.4,160.3h-1.6v-1.2h1.6v-1.2a4,4,0,0,1,.8-2.8,2.8,2.8,0,0,1,2.3-.9,4.1,4.1,0,0,1,1.6.3v1l-1.4-.2a1.8,1.8,0,0,0-1.4.6,3.6,3.6,0,0,0-.5,2.1v1.1h2.5v1.1h-2.5v6.7h-1.3Z"/><path d="M425.9,157a.8.8,0,0,1-.7-.2,1.3,1.3,0,0,1,0-1.4l.7-.2.6.2a1.1,1.1,0,0,1,.3.7.9.9,0,0,1-.3.7C426.4,157,426.1,157,425.9,157Zm-.7,2.1h1.3v7.8h-1.3Z"/><path d="M433,167.2a4.2,4.2,0,0,1-2.2-.5,2.9,2.9,0,0,1-1.5-1.4,4.3,4.3,0,0,1-.6-2.2,5,5,0,0,1,.5-2.1,3.6,3.6,0,0,1,1.5-1.5,4.6,4.6,0,0,1,2.3-.6l1.2.2,1.1.4-.2,1.2-1-.4-1.1-.2a3,3,0,0,0-2.1.8,3.2,3.2,0,0,0,0,4.3,3,3,0,0,0,2.2.8,5.9,5.9,0,0,0,2.2-.5l.2,1.1-1.2.4Z"/><path d="M441,167.2a2.6,2.6,0,0,1-1.9-.5,2.9,2.9,0,0,1-1.3-1.4,3.6,3.6,0,0,1-.5-2.2,5.2,5.2,0,0,1,.4-2.1,6.7,6.7,0,0,1,1.4-1.5,4.2,4.2,0,0,1,2.1-.6,3.1,3.1,0,0,1,2.8,1.7v-1.5h1.3v7.8H444v-1.4a3.7,3.7,0,0,1-1.2,1.3A3.9,3.9,0,0,1,441,167.2Zm.4-1.1a2.5,2.5,0,0,0,1.9-.9,3.5,3.5,0,0,0,0-4.3,2.9,2.9,0,0,0-3.9,0h0a3.5,3.5,0,0,0,0,4.3,2.7,2.7,0,0,0,2,.9Z"/><path d="M451.3,167.2a2.5,2.5,0,0,1-2-.7,3.3,3.3,0,0,1-.6-2.2v-4h-1.8v-1.2h1.8v-2.2H450v2.2h2.8v1.1H450v4a2.3,2.3,0,0,0,.4,1.4,1.2,1.2,0,0,0,1.1.4,2.9,2.9,0,0,0,1.6-.4v1.2A3.1,3.1,0,0,1,451.3,167.2Z"/><path d="M455.7,157a.8.8,0,0,1-.7-.2,1.3,1.3,0,0,1,0-1.4l.7-.2.6.2a1.1,1.1,0,0,1,.3.7.9.9,0,0,1-.3.7A.5.5,0,0,1,455.7,157Zm-.7,2.1h1.4v7.8H455Z"/><path d="M462.7,167.2a2.9,2.9,0,0,1-2-.5,3.1,3.1,0,0,1-1.5-1.5,3.9,3.9,0,0,1-.6-2.1,3.7,3.7,0,0,1,.6-2.1,3.4,3.4,0,0,1,1.4-1.5,4.2,4.2,0,0,1,2.1-.6,4.6,4.6,0,0,1,2.1.5,5.4,5.4,0,0,1,1.5,1.5,4.3,4.3,0,0,1,.6,2.2,4.2,4.2,0,0,1-2,3.5A4.3,4.3,0,0,1,462.7,167.2Zm0-1.1a2.5,2.5,0,0,0,2-.9,3.5,3.5,0,0,0,0-4.3,2.9,2.9,0,0,0-3.9,0h0a3.5,3.5,0,0,0,0,4.3A2.5,2.5,0,0,0,462.7,166.1Z"/><path d="M469.1,159.1h1.3v1.4a2.6,2.6,0,0,1,2.6-1.6,2.7,2.7,0,0,1,2.2.8,3.8,3.8,0,0,1,.7,2.5v4.7h-1.3v-4.4a2.8,2.8,0,0,0-.4-1.8,2,2,0,0,0-1.5-.6,2,2,0,0,0-1.6.7,2.6,2.6,0,0,0-.7,1.9V167h-1.3Z"/><path d="M477.5,169.8a9.1,9.1,0,0,0,1.1-2.2,10.9,10.9,0,0,0,.4-2.5h1.5a11,11,0,0,1-.2,1.8,13.4,13.4,0,0,1-.7,1.8,3.4,3.4,0,0,1-.9,1.2Z"/><path d="M487.4,157c-.2,0-.5,0-.6-.2a.9.9,0,0,1-.3-.7,1.1,1.1,0,0,1,.3-.7l.6-.2a.9.9,0,0,1,.9.9h0a.5.5,0,0,1-.2.6A.9.9,0,0,1,487.4,157Zm-.6,2.1h1.3v7.8h-1.3Z"/><path d="M490.9,159.1h1.3v1.4a2.3,2.3,0,0,1,1-1.2,2.3,2.3,0,0,1,1.6-.4,2.4,2.4,0,0,1,2.1.8,3.9,3.9,0,0,1,.8,2.5v4.7h-1.3v-4.4a3.7,3.7,0,0,0-.5-1.8,2,2,0,0,0-1.4-.6,2.1,2.1,0,0,0-1.7.7,3.1,3.1,0,0,0-.6,1.9V167h-1.3Z"/><path d="M504.2,167.2a4.4,4.4,0,0,1-2.2-.5,4,4,0,0,1-1.5-1.4,5.4,5.4,0,0,1-.5-2.2,5,5,0,0,1,.5-2.1,3.1,3.1,0,0,1,1.5-1.5,4.3,4.3,0,0,1,2.2-.6l1.3.2,1.1.4-.2,1.2-1.1-.4-1.1-.2a3.2,3.2,0,0,0-2.9,3.2,4.1,4.1,0,0,0,.8,1.9,2.7,2.7,0,0,0,2.2.8,5.9,5.9,0,0,0,2.3-.5v1.1l-1.1.4Z"/><path d="M512.7,167.2a4,4,0,0,1-3.1-1.1,4.5,4.5,0,0,1-.7-5.1,3.4,3.4,0,0,1,1.3-1.6,5,5,0,0,1,2.1-.5,3.4,3.4,0,0,1,2.5,1.1,3.5,3.5,0,0,1,1,2.8v.7h-6.1a2.8,2.8,0,0,0,.9,1.9,3.6,3.6,0,0,0,2.2.7,9,9,0,0,0,2.7-.7v1.1a5.2,5.2,0,0,1-1.3.6Zm1.8-4.8a2.2,2.2,0,0,0-.7-1.7,2,2,0,0,0-1.6-.7,2.1,2.1,0,0,0-1.7.7,2.3,2.3,0,0,0-.8,1.7Z"/><path d="M518.2,159.1h1.3v1.4a2.9,2.9,0,0,1,1-1.2,3.2,3.2,0,0,1,1.6-.4,2.7,2.7,0,0,1,2.2.8,3.8,3.8,0,0,1,.7,2.5v4.7h-1.3v-4.4a2.9,2.9,0,0,0-.5-1.8,1.8,1.8,0,0,0-1.4-.6,2,2,0,0,0-1.6.7,2.2,2.2,0,0,0-.6,1.9V167h-1.4Z"/><path d="M531,167.2a2.4,2.4,0,0,1-2-.7,2.9,2.9,0,0,1-.6-2.2v-4h-1.8v-1.2h1.8v-2.2h1.3v2.2h2.8v1.1h-2.8v4a2.3,2.3,0,0,0,.4,1.4,1.1,1.1,0,0,0,1.1.4,2.6,2.6,0,0,0,1.5-.4l.2,1.2A3.3,3.3,0,0,1,531,167.2Z"/><path d="M535.3,157a.7.7,0,0,1-.6-.2.9.9,0,0,1-.3-.7,1.1,1.1,0,0,1,.3-.7l.6-.2.7.2a.7.7,0,0,1,.2.7.8.8,0,0,1-.8.9h-.1Zm-.6,2.1H536v7.8h-1.3Z"/><path d="M537.7,159.1h1.5l2.4,6.4,2.5-6.4h1.3l-3.2,7.8h-1.3Z"/><path d="M550.8,167.2a4,4,0,0,1-4.4-4.1,4.3,4.3,0,0,1,.6-2.2,3.4,3.4,0,0,1,1.4-1.5,3.6,3.6,0,0,1,4.6.5,4.1,4.1,0,0,1,.9,2.8v.7h-6a2.6,2.6,0,0,0,.9,1.9,3.3,3.3,0,0,0,2.1.7,6.8,6.8,0,0,0,2.8-.7v1.2l-1.3.5Zm1.7-4.8a2.1,2.1,0,0,0-.6-1.7,2.4,2.4,0,0,0-3.4,0,3.4,3.4,0,0,0-.8,1.7Z"/><path d="M285.8,222.4a6.5,6.5,0,0,1-3.1-.8,5.2,5.2,0,0,1-2.3-2.1,6.8,6.8,0,0,1-.8-3.1,6.9,6.9,0,0,1,.8-3.2,6.1,6.1,0,0,1,2.2-2.3,8.1,8.1,0,0,1,3.4-.8,6.3,6.3,0,0,1,1.9.3,6.7,6.7,0,0,1,1.8.7l-.3,1.3-1.8-.8-1.7-.2a4.8,4.8,0,0,0-2.4.6,4.2,4.2,0,0,0-1.8,1.7,4.8,4.8,0,0,0-.6,2.6,4.5,4.5,0,0,0,.5,2.5,5.8,5.8,0,0,0,1.7,1.8,5.7,5.7,0,0,0,2.5.6l1.8-.3,1.8-.6.2,1.2A8.5,8.5,0,0,1,285.8,222.4Z"/><path d="M295.6,222.5a3.6,3.6,0,0,1-2-.6,3.4,3.4,0,0,1-1.5-1.4,4.3,4.3,0,0,1-.6-2.2,4.2,4.2,0,0,1,.6-2.1,4,4,0,0,1,1.4-1.5,4.2,4.2,0,0,1,5.7,1.4,4.3,4.3,0,0,1,.6,2.2,5,5,0,0,1-2,3.6A4.3,4.3,0,0,1,295.6,222.5Zm0-1.2a2.5,2.5,0,0,0,2-.9,3.2,3.2,0,0,0,0-4.3,2.6,2.6,0,0,0-3.8,0h-.1a3.2,3.2,0,0,0,0,4.3A2.5,2.5,0,0,0,295.6,221.3Z"/><path d="M302,209.5h1.4v12.7H302Z"/><path d="M306.2,209.5h1.3v12.7h-1.3Z"/><path d="M314.1,222.5a4.5,4.5,0,0,1-3.1-1.2,3.9,3.9,0,0,1-1.2-3,4.1,4.1,0,0,1,.5-2.1,3.7,3.7,0,0,1,3.4-2.1,3.4,3.4,0,0,1,2.5,1.1,3.7,3.7,0,0,1,1,2.8v.7h-6.1a2.8,2.8,0,0,0,.9,1.9,3.4,3.4,0,0,0,2.2.7,6.8,6.8,0,0,0,2.7-.7v1.2l-1.3.5Zm1.8-4.8a2.8,2.8,0,0,0-.6-1.8,1.9,1.9,0,0,0-1.7-.6,2.2,2.2,0,0,0-1.7.6,3,3,0,0,0-.8,1.8Z"/><path d="M323.6,222.4a4.2,4.2,0,0,1-2.2-.5,3.4,3.4,0,0,1-1.5-1.4,4.7,4.7,0,0,1,0-4.3,3.6,3.6,0,0,1,1.5-1.5,3.3,3.3,0,0,1,2.2-.5h1.2l1.1.5-.2,1.1-1-.4h-1.1a2.6,2.6,0,0,0-2.1.7,3,3,0,0,0-.2,4.2,3.3,3.3,0,0,0,2.3.9,5.1,5.1,0,0,0,2.2-.5l.2,1.1-1.1.4Z"/><path d="M331.5,222.5a2.9,2.9,0,0,1-2-.7,3.2,3.2,0,0,1-.6-2.3v-4h-1.8v-1.2h1.8v-2.2h1.3v2.2H333v1.2h-2.8v3.8a2.4,2.4,0,0,0,.4,1.5,1.6,1.6,0,0,0,1.1.5,4.3,4.3,0,0,0,1.6-.5v1.1A3.3,3.3,0,0,1,331.5,222.5Z"/><path d="M337.7,222.5l-1.5-.2a3.4,3.4,0,0,1-1.2-.6l.2-1.2,1.2.6a2.7,2.7,0,0,0,1.3.2,1.6,1.6,0,0,0,1.3-.3,1,1,0,0,0,.3-1.4,1,1,0,0,0-.5-.4l-1.2-.4a5.6,5.6,0,0,1-1.9-.9,2,2,0,0,1-.6-1.4,2.3,2.3,0,0,1,.8-1.8,2.9,2.9,0,0,1,2.2-.6h1.3l1,.5-.2,1.1a4,4,0,0,0-2.2-.6l-1.2.2a1.1,1.1,0,0,0-.2,1.4l.2.2a3.5,3.5,0,0,0,1.4.6,4.5,4.5,0,0,1,2.1,1,2,2,0,0,1,.6,1.5,2.1,2.1,0,0,1-.9,1.8A4.6,4.6,0,0,1,337.7,222.5Z"/><path d="M346.5,214.3h1.2v1.5a3.2,3.2,0,0,1,3-1.7,2.9,2.9,0,0,1,2,.5A3.5,3.5,0,0,1,354,216a4.4,4.4,0,0,1,.5,2.2,5.4,5.4,0,0,1-.5,2.1,4,4,0,0,1-1.4,1.5,3.6,3.6,0,0,1-2,.6,3,3,0,0,1-2.8-1.7V226h-1.4Zm4,6.9a3,3,0,0,0,2-.8,3.5,3.5,0,0,0,0-4.3,2.3,2.3,0,0,0-2-.8,2.2,2.2,0,0,0-2,.8,3.5,3.5,0,0,0,0,4.3,2.5,2.5,0,0,0,2,.9Z"/><path d="M360.2,222.5a3.6,3.6,0,0,1-3.2-2,4.2,4.2,0,0,1-.5-2.2,4.1,4.1,0,0,1,.5-2.1,4,4,0,0,1,1.4-1.5,3.6,3.6,0,0,1,2-.6,3.2,3.2,0,0,1,2.8,1.7v-1.5h1.3v7.9h-1.3v-1.5A3,3,0,0,1,362,222,3.7,3.7,0,0,1,360.2,222.5Zm.4-1.2a2.5,2.5,0,0,0,1.9-.9,3.2,3.2,0,0,0,0-4.3,2.8,2.8,0,0,0-3.8,0h-.1a3.5,3.5,0,0,0,0,4.3,2.7,2.7,0,0,0,2,.9Z"/><path d="M371.1,222.4a4.2,4.2,0,0,1-2.2-.5,2.9,2.9,0,0,1-1.5-1.4,4.7,4.7,0,0,1,0-4.3,4,4,0,0,1,1.4-1.5,3.7,3.7,0,0,1,2.3-.5h1.2l1.1.5-.2,1.1-1-.4h-1.1a2.7,2.7,0,0,0-2.1.7,3,3,0,0,0-.1,4.2,2.8,2.8,0,0,0,2.3.9,5.4,5.4,0,0,0,2.2-.5l.2,1.1-1.2.5Z"/><path d="M375.8,209.5h1.4v8l3.5-3.1h1.8l-4.1,3.5,4.7,4.4h-1.8l-4.1-3.9v3.9h-1.4Z"/><path d="M387.9,222.5a3.7,3.7,0,0,1-3.3-2,5.4,5.4,0,0,1-.5-2.2,5.4,5.4,0,0,1,.5-2.1,4,4,0,0,1,1.4-1.5,3.6,3.6,0,0,1,2-.6,3.4,3.4,0,0,1,2.9,1.7v-1.5h1.3v7.9h-1.3v-1.5a3,3,0,0,1-1.2,1.3A4.1,4.1,0,0,1,387.9,222.5Zm.3-1.2a2.5,2.5,0,0,0,2-.9,3.3,3.3,0,0,0,.1-4.3,2.7,2.7,0,0,0-3.9,0h0a3.2,3.2,0,0,0,0,4.3A2.8,2.8,0,0,0,388.2,221.3Z"/><path d="M398.3,226.2l-1.7-.2-1.2-.5v-1.2l1.3.5a3.9,3.9,0,0,0,1.5.2,2.7,2.7,0,0,0,2.2-.8,2.8,2.8,0,0,0,.7-2.3v-1.1A2.8,2.8,0,0,1,400,222a3.5,3.5,0,0,1-1.8.5,3.7,3.7,0,0,1-3.2-2,4.2,4.2,0,0,1-.5-2.2,4.1,4.1,0,0,1,.5-2.1,4,4,0,0,1,1.4-1.5,3.6,3.6,0,0,1,2-.6,3,3,0,0,1,1.6.5,3.4,3.4,0,0,1,1.2,1.2v-1.5h1.3v7.4a4.4,4.4,0,0,1-.9,3.3A4.5,4.5,0,0,1,398.3,226.2Zm.3-4.9a2.7,2.7,0,0,0,2-.9,3.5,3.5,0,0,0,0-4.3,2.9,2.9,0,0,0-3.9,0h0a3.2,3.2,0,0,0,0,4.3,2.5,2.5,0,0,0,1.9.9Z"/><path d="M409.2,222.5a4.7,4.7,0,0,1-3.2-1.2,4.2,4.2,0,0,1-1.2-3,5.4,5.4,0,0,1,.5-2.1,3.9,3.9,0,0,1,3.4-2.1,3.6,3.6,0,0,1,2.6,1.1,4.2,4.2,0,0,1,1,2.8v.7h-6a2.8,2.8,0,0,0,.9,1.9,3.4,3.4,0,0,0,2.2.7,6.8,6.8,0,0,0,2.7-.7v1.2l-1.3.5Zm1.8-4.8a2.4,2.4,0,0,0-.7-1.8,1.8,1.8,0,0,0-1.7-.6,1.9,1.9,0,0,0-1.6.6,2.5,2.5,0,0,0-.8,1.8Z"/><path d="M421.8,222.5a4.2,4.2,0,0,1-2.1-.6,4,4,0,0,1-1.5-1.4,5.9,5.9,0,0,1-.5-2.2,3.9,3.9,0,0,1,2-3.6,3.9,3.9,0,0,1,2.1-.6,4.1,4.1,0,0,1,3.6,2,5.4,5.4,0,0,1,.5,2.2,3.5,3.5,0,0,1-.5,2,3.9,3.9,0,0,1-1.5,1.6A3.7,3.7,0,0,1,421.8,222.5Zm0-1.2a2.7,2.7,0,0,0,2-.9,3.5,3.5,0,0,0,0-4.3,2.9,2.9,0,0,0-3.9,0h0a3.5,3.5,0,0,0,0,4.3A2.5,2.5,0,0,0,421.8,221.3Z"/><path d="M428.2,214.3h1.2v1.4a3.2,3.2,0,0,1,1.1-1.2,2.9,2.9,0,0,1,1.6-.4,2.4,2.4,0,0,1,2.1.8,4.4,4.4,0,0,1,.8,2.5v4.8h-1.4v-4.5a3,3,0,0,0-.4-1.8,2,2,0,0,0-1.4-.6,2.4,2.4,0,0,0-1.7.7,3.3,3.3,0,0,0-.6,1.9v4.4h-1.3Z"/><path d="M444.3,222.5a2.6,2.6,0,0,1-1.9-.7,3.9,3.9,0,0,1-.7-2.3v-4H440v-1.2h1.7v-2.2h1.4v2.2h2.7v1.2h-2.7v3.8a2.4,2.4,0,0,0,.3,1.5,1.7,1.7,0,0,0,1.2.5,4.4,4.4,0,0,0,1.5-.5l.2,1.1A3.6,3.6,0,0,1,444.3,222.5Z"/><path d="M448.1,209.5h1.4v6.1a2.1,2.1,0,0,1,1-1.1,2.8,2.8,0,0,1,1.5-.4,3.1,3.1,0,0,1,2.2.9,3.7,3.7,0,0,1,.7,2.5v4.7h-1.3v-4.5a3.1,3.1,0,0,0-.5-1.8,1.8,1.8,0,0,0-1.4-.6,2.4,2.4,0,0,0-1.6.7,2.3,2.3,0,0,0-.6,1.9v4.4h-1.4Z"/><path d="M461.5,222.5a4.7,4.7,0,0,1-3.2-1.2,3.8,3.8,0,0,1-1.1-3,3.9,3.9,0,0,1,.4-2.1,3.4,3.4,0,0,1,1.4-1.5,3.6,3.6,0,0,1,4.6.5,4,4,0,0,1,1,2.8v.7h-6.1a3,3,0,0,0,1,1.9,3.1,3.1,0,0,0,2.1.7,6.4,6.4,0,0,0,2.7-.7v1.2l-1.3.5Zm1.8-4.8a2.9,2.9,0,0,0-.7-1.8,1.8,1.8,0,0,0-1.7-.6,1.9,1.9,0,0,0-1.6.6,2.5,2.5,0,0,0-.8,1.8Z"/><path d="M472.4,222.5l-1.4-.2a2.7,2.7,0,0,1-1.2-.6l.2-1.2a2.7,2.7,0,0,0,1.2.6,2.5,2.5,0,0,0,1.2.2,1.7,1.7,0,0,0,1.4-.3,1,1,0,0,0,.3-1.4,1,1,0,0,0-.5-.4l-1.2-.4a6.6,6.6,0,0,1-1.9-.9,2,2,0,0,1-.6-1.4,2.3,2.3,0,0,1,.8-1.8,3,3,0,0,1,2.2-.6h1.3l1,.5-.2,1.1a3.9,3.9,0,0,0-2.1-.6l-1.2.2a1,1,0,0,0-.3,1.4l.3.2a3.1,3.1,0,0,0,1.3.6,4.1,4.1,0,0,1,2.1,1,2,2,0,0,1,.6,1.5,2.1,2.1,0,0,1-.9,1.8A4.8,4.8,0,0,1,472.4,222.5Z"/><path d="M481,222.5a3.7,3.7,0,0,1-3.3-2,5.4,5.4,0,0,1-.5-2.2,5.4,5.4,0,0,1,.5-2.1,4,4,0,0,1,1.4-1.5,3.6,3.6,0,0,1,2-.6,3.4,3.4,0,0,1,2.9,1.7v-1.5h1.3v7.9H484v-1.5a3,3,0,0,1-1.2,1.3A4.1,4.1,0,0,1,481,222.5Zm.3-1.2a2.5,2.5,0,0,0,2-.9,3.5,3.5,0,0,0,0-4.3,2.8,2.8,0,0,0-3.9-.1h-.1a3.5,3.5,0,0,0,0,4.3A2.5,2.5,0,0,0,481.3,221.3Z"/><path d="M488.1,214.3h1.3v1.4a2.3,2.3,0,0,1,1-1.2,2.6,2.6,0,0,1,1.5-.4,2.4,2.4,0,0,1,2.6,1.8,2.7,2.7,0,0,1,1-1.3,3.4,3.4,0,0,1,1.7-.5,2.7,2.7,0,0,1,2.1.9,3.3,3.3,0,0,1,.8,2.5v4.7h-1.3v-4.5a4.1,4.1,0,0,0-.5-1.8,2.1,2.1,0,0,0-2.9.2h-.1a2.6,2.6,0,0,0-.5,1.9v4.3h-1.3v-4.6a3.7,3.7,0,0,0-.5-1.8,2.1,2.1,0,0,0-3,.1,3.1,3.1,0,0,0-.6,1.9v4.3h-1.3Z"/><path d="M506.7,222.5a4.7,4.7,0,0,1-3.2-1.2,4.2,4.2,0,0,1-1.2-3,5.4,5.4,0,0,1,.5-2.1,3.8,3.8,0,0,1,3.4-2.1,3.6,3.6,0,0,1,2.6,1.1,4,4,0,0,1,1,2.8v.7h-6.1a2.8,2.8,0,0,0,.9,1.9,3.4,3.4,0,0,0,2.2.7,5.4,5.4,0,0,0,2.7-.7v1.2l-1.3.5Zm1.7-4.8a2.8,2.8,0,0,0-.6-1.8,1.9,1.9,0,0,0-1.7-.6,2.2,2.2,0,0,0-1.7.6,3.7,3.7,0,0,0-.8,1.8Z"/><path d="M518.9,222.5a2.7,2.7,0,0,1-2-.7,3.9,3.9,0,0,1-.7-2.3v-4h-1.7v-1.2h1.7v-2.2h1.4v2.2h2.7v1.2h-2.8v3.8a2.4,2.4,0,0,0,.4,1.5,1.6,1.6,0,0,0,1.1.5,4.3,4.3,0,0,0,1.6-.5v1.1A3,3,0,0,1,518.9,222.5Z"/><path d="M522.6,214.3h1.2v1.6a2.9,2.9,0,0,1,1-1.2,2.4,2.4,0,0,1,1.5-.4h.9l-.2,1.3-.9-.2a1.8,1.8,0,0,0-1.6.8,3.6,3.6,0,0,0-.6,2v3.9h-1.3Z"/><path d="M532,222.5a3.6,3.6,0,0,1-3.2-2,4.2,4.2,0,0,1-.5-2.2,4.1,4.1,0,0,1,.5-2.1,4,4,0,0,1,1.4-1.5,3.6,3.6,0,0,1,2-.6,3,3,0,0,1,1.6.5,3.4,3.4,0,0,1,1.2,1.2v-1.5h1.3v7.9H535v-1.5a3,3,0,0,1-1.2,1.3A4.1,4.1,0,0,1,532,222.5Zm.4-1.2a2.5,2.5,0,0,0,1.9-.9,3.2,3.2,0,0,0,0-4.3,2.9,2.9,0,0,0-3.9,0h0a3.5,3.5,0,0,0,0,4.3A2.5,2.5,0,0,0,532.4,221.3Z"/><path d="M539.2,214.3h1.3v1.4a2.9,2.9,0,0,1,1-1.2,3.2,3.2,0,0,1,1.6-.4,2.7,2.7,0,0,1,2.2.8,3.7,3.7,0,0,1,.7,2.5v4.8h-1.3v-4.5a3.1,3.1,0,0,0-.5-1.8,1.8,1.8,0,0,0-1.4-.6,2.8,2.8,0,0,0-1.7.7,2.8,2.8,0,0,0-.6,1.8v4.3h-1.3Z"/><path d="M550.6,222.5l-1.4-.2a2.3,2.3,0,0,1-1.2-.6l.2-1.2a2.7,2.7,0,0,0,1.2.6,2.5,2.5,0,0,0,1.2.2,1.7,1.7,0,0,0,1.4-.3.8.8,0,0,0,.5-.8.8.8,0,0,0-.2-.5.7.7,0,0,0-.5-.4l-1.2-.5a3.8,3.8,0,0,1-1.8-.9,2,2,0,0,1-.6-1.4,2.3,2.3,0,0,1,.8-1.8,2.9,2.9,0,0,1,2.2-.6l1.1.2,1.1.5-.2,1.1a4,4,0,0,0-2.2-.6,2.5,2.5,0,0,0-1.2.2,1.1,1.1,0,0,0-.2,1.4l.2.2a5.9,5.9,0,0,0,1.4.6,5,5,0,0,1,2.1,1,1.9,1.9,0,0,1,.6,1.5,1.9,1.9,0,0,1-.9,1.7A3.9,3.9,0,0,1,550.6,222.5Z"/><path d="M556.5,215.5h-1.6v-1.2h1.6v-1.2a5.4,5.4,0,0,1,.8-2.8,3,3,0,0,1,2.4-.9,4.5,4.5,0,0,1,1.6.3v1.1a3.1,3.1,0,0,0-1.3-.3,1.6,1.6,0,0,0-1.5.6,3.9,3.9,0,0,0-.4,2.1v1.1h2.4v1.2H558v6.7h-1.4Z"/><path d="M565.7,222.5a4.7,4.7,0,0,1-3.2-1.2,3.8,3.8,0,0,1-1.1-3,5.2,5.2,0,0,1,.4-2.1,3.9,3.9,0,0,1,3.5-2.1,3.4,3.4,0,0,1,2.5,1.1,3.6,3.6,0,0,1,1,2.8v.7h-6.1a3,3,0,0,0,1,1.9,3.1,3.1,0,0,0,2.1.7,5,5,0,0,0,2.7-.7l.2,1.2-1.3.5Zm1.8-4.8a2.9,2.9,0,0,0-.7-1.8,1.7,1.7,0,0,0-1.6-.6,2,2,0,0,0-1.7.6,2.5,2.5,0,0,0-.8,1.8Z"/><path d="M571.2,214.3h1.4v1.6a2.2,2.2,0,0,1,.9-1.2,2.4,2.4,0,0,1,1.4-.5h1v1.3a1.8,1.8,0,0,0-1-.2,1.7,1.7,0,0,0-1.6.7,3.3,3.3,0,0,0-.5,2.1v3.9h-1.4Z"/><path d="M838.4,203.9h4.3a7.1,7.1,0,0,1,3.2.7,4.8,4.8,0,0,1,2.2,2,6.1,6.1,0,0,1,.8,3.2,5.5,5.5,0,0,1-1.8,4.4,6.5,6.5,0,0,1-4.8,1.6h-4Zm1.4,10.7h2.7a5.5,5.5,0,0,0,3.7-1.2,5.6,5.6,0,0,0,0-7.1,5,5,0,0,0-3.7-1.2h-2.8Z"/><path d="M851.2,208h1.3v1.6a3,3,0,0,1,.9-1.3,3,3,0,0,1,1.5-.5h.9v1.3l-1-.2a2.1,2.1,0,0,0-1.6.8,3,3,0,0,0-.5,2.1v3.8h-1.4Z"/><path d="M861.1,216.1a3.9,3.9,0,0,1-3.6-2,5.4,5.4,0,0,1-.5-2.2,4.6,4.6,0,0,1,.5-2,4.6,4.6,0,0,1,1.5-1.6,3.8,3.8,0,0,1,2.1-.5,3.9,3.9,0,0,1,3.6,2,5,5,0,0,1,.5,2.1,3.6,3.6,0,0,1-.5,2.1,3.6,3.6,0,0,1-1.5,1.5A3.7,3.7,0,0,1,861.1,216.1Zm0-1.2a2.8,2.8,0,0,0,2-.8,3.5,3.5,0,0,0,0-4.3,2.7,2.7,0,0,0-3.9,0h0a3.5,3.5,0,0,0,0,4.3,2.8,2.8,0,0,0,2,.8Z"/><path d="M867.4,208h1.3v1.5a3,3,0,0,1,3-1.8,4.1,4.1,0,0,1,1.9.5,3.7,3.7,0,0,1,1.3,1.5,3.4,3.4,0,0,1,.5,2.2,4.5,4.5,0,0,1-.4,2,5.1,5.1,0,0,1-1.4,1.5,3.9,3.9,0,0,1-2.1.6,2.9,2.9,0,0,1-2.8-1.6v5.3h-1.3Zm4,6.9a2.7,2.7,0,0,0,2-.9,3.5,3.5,0,0,0,0-4.3,2.9,2.9,0,0,0-3.9,0h0a3.5,3.5,0,0,0,0,4.3,2.5,2.5,0,0,0,1.9.9Z"/><path d="M879.7,216.1l-1.5-.2-1.2-.5.2-1.2,1.2.6,1.3.2a3.1,3.1,0,0,0,1.3-.3,1,1,0,0,0,.4-1.4l-.6-.5-1.2-.4a3.7,3.7,0,0,1-1.9-.9,2.4,2.4,0,0,1-.5-1.4,1.8,1.8,0,0,1,.8-1.8,2.7,2.7,0,0,1,2.1-.6h1.3l1.1.5-.2,1.1a4.3,4.3,0,0,0-2.2-.6l-1.2.3a.7.7,0,0,0-.4.7,1.1,1.1,0,0,0,.3.8,3.5,3.5,0,0,0,1.4.6,5,5,0,0,1,2.1,1,2,2,0,0,1,.6,1.5,2.1,2.1,0,0,1-.9,1.8A4.6,4.6,0,0,1,879.7,216.1Z"/><path d="M892.1,216.1a5,5,0,0,1-2.1-.5,5.4,5.4,0,0,1-1.5-1.5,4.5,4.5,0,0,1,0-4.2,4.6,4.6,0,0,1,1.5-1.6,3.8,3.8,0,0,1,2.1-.5,3.9,3.9,0,0,1,3.6,2,5,5,0,0,1,.5,2.1,4.6,4.6,0,0,1-.5,2.1,3.6,3.6,0,0,1-1.5,1.5A3.9,3.9,0,0,1,892.1,216.1Zm0-1.2a3.2,3.2,0,0,0,2-.8,3.5,3.5,0,0,0,0-4.3,2.7,2.7,0,0,0-3.9,0h0a3.2,3.2,0,0,0,0,4.3,2.7,2.7,0,0,0,1.9.8Z"/><path d="M899,209.1h-1.6V208H899v-1.3a3.6,3.6,0,0,1,.8-2.7,2.9,2.9,0,0,1,2.3-1,2.9,2.9,0,0,1,1.6.4v1.1a3.5,3.5,0,0,0-1.4-.3,1.4,1.4,0,0,0-1.4.6,3.3,3.3,0,0,0-.5,2.1V208h2.4v1.1h-2.4v6.7H899Z"/><path d="M905.3,209.1h-1.7V208h1.7v-1.3a4.2,4.2,0,0,1,.7-2.7,3.1,3.1,0,0,1,2.4-1,3.2,3.2,0,0,1,1.6.4v1.1a3.5,3.5,0,0,0-1.4-.3,1.7,1.7,0,0,0-1.5.6,3.9,3.9,0,0,0-.4,2.1V208H909v1.1h-2.4v6.7h-1.3Z"/><path d="M914.5,208h1.3v1.3a2.6,2.6,0,0,1,2.6-1.6,3.1,3.1,0,0,1,2.2.9,3.7,3.7,0,0,1,.7,2.5v4.7H920v-4.5a2.9,2.9,0,0,0-.5-1.8,1.5,1.5,0,0,0-1.4-.5,2,2,0,0,0-1.7.7,2.5,2.5,0,0,0-.5,1.9v4.3h-1.4Z"/><path d="M927.9,216.1a4.3,4.3,0,0,1-3.2-1.1,3.8,3.8,0,0,1-1.1-3,4.2,4.2,0,0,1,.5-2.2,3.4,3.4,0,0,1,3.4-2,3,3,0,0,1,2.5,1,4.2,4.2,0,0,1,1,2.8v.7h-6.1a3.4,3.4,0,0,0,.9,2,4.3,4.3,0,0,0,2.2.6,6.3,6.3,0,0,0,2.7-.6l.2,1.1-1.4.5Zm1.8-4.8a2.4,2.4,0,0,0-.7-1.8,2.3,2.3,0,0,0-1.6-.6,2.4,2.4,0,0,0-1.7.6,2.5,2.5,0,0,0-.8,1.8Z"/><path d="M934.1,205.9a.7.7,0,0,1-.6-.3,1.2,1.2,0,0,1,0-1.4l.6-.2.7.2a1.2,1.2,0,0,1,0,1.4A.9.9,0,0,1,934.1,205.9Zm-.6,2.1h1.3v7.8h-1.3Z"/><path d="M940.9,219.8l-1.7-.2-1.3-.5.2-1.2,1.3.5,1.5.2a2.7,2.7,0,0,0,2.1-.7,3.5,3.5,0,0,0,.8-2.4v-1.2a3.3,3.3,0,0,1-1.3,1.3,3.3,3.3,0,0,1-1.7.4,3.8,3.8,0,0,1-1.9-.5,4,4,0,0,1-1.4-1.5,4.1,4.1,0,0,1-.4-2.2,2.9,2.9,0,0,1,.5-2,2.9,2.9,0,0,1,1.4-1.5,3.6,3.6,0,0,1,2-.6,3.2,3.2,0,0,1,1.6.4,3.4,3.4,0,0,1,1.2,1.2v-1.4h1.3v7.4a4.8,4.8,0,0,1-1,3.3A4.9,4.9,0,0,1,940.9,219.8Zm.2-4.9a2.5,2.5,0,0,0,2-.9,3.5,3.5,0,0,0,0-4.3,2.9,2.9,0,0,0-3.9,0h0a3.5,3.5,0,0,0,0,4.3A2.5,2.5,0,0,0,941.1,214.9Z"/><path d="M948,203.1h1.3v6.1a2.7,2.7,0,0,1,1-1.1,2.8,2.8,0,0,1,1.5-.4,3.1,3.1,0,0,1,2.2.9,3.7,3.7,0,0,1,.7,2.5v4.7h-1.3v-4.5a2.9,2.9,0,0,0-.5-1.8,1.7,1.7,0,0,0-1.4-.6,2,2,0,0,0-1.6.7,3.3,3.3,0,0,0-.6,1.9v4.3H948Z"/><path d="M961.7,216.1a3,3,0,0,1-2.8-1.7v1.5h-1.3V203.1h1.3v6.3a3.7,3.7,0,0,1,1.2-1.3,3.9,3.9,0,0,1,1.8-.4,4.1,4.1,0,0,1,1.9.5,4,4,0,0,1,1.4,1.5,5.4,5.4,0,0,1,.5,2.2,4.6,4.6,0,0,1-.5,2,4.4,4.4,0,0,1-1.4,1.6A3.9,3.9,0,0,1,961.7,216.1Zm-.2-1.2a3,3,0,0,0,2-.8,3.5,3.5,0,0,0,0-4.3,2.7,2.7,0,0,0-2-.9,2.5,2.5,0,0,0-2,.9,3.5,3.5,0,0,0,0,4.3,2.8,2.8,0,0,0,2,.8Z"/><path d="M971.5,216.1a4.6,4.6,0,0,1-2-.5,4.3,4.3,0,0,1-2.1-3.7,5,5,0,0,1,2-3.6,4.1,4.1,0,0,1,2.1-.5,3.8,3.8,0,0,1,3.6,2,3.1,3.1,0,0,1,.5,2.1,3,3,0,0,1-.5,2.1A4.1,4.1,0,0,1,971.5,216.1Zm0-1.2a2.8,2.8,0,0,0,2-.8,3.5,3.5,0,0,0,0-4.3,2.7,2.7,0,0,0-3.9,0h0a3.5,3.5,0,0,0,0,4.3,2.8,2.8,0,0,0,2,.8Z"/><path d="M980.7,216.1a2.5,2.5,0,0,1-2.1-.8,3.9,3.9,0,0,1-.7-2.3v-5h1.4v4.5a2.7,2.7,0,0,0,.4,1.8,2,2,0,0,0,1.4.6,2.1,2.1,0,0,0,1.7-.7,2.6,2.6,0,0,0,.5-1.9V208h1.4v7.8h-1.3v-1.3a2,2,0,0,1-1.1,1.1A3,3,0,0,1,980.7,216.1Z"/><path d="M987.6,208h1.2v1.6a2.6,2.6,0,0,1,1-1.3,2.4,2.4,0,0,1,1.4-.5h.9v1.3l-1-.2a1.8,1.8,0,0,0-1.5.8,2.6,2.6,0,0,0-.6,2.1v3.8h-1.3Z"/><path d="M993.2,207.5c.2-.6.3-1.2.5-1.8a10.9,10.9,0,0,0,.1-1.8h1.5a11.6,11.6,0,0,1-.4,1.8,13.4,13.4,0,0,1-.7,1.8Z"/><path d="M998.3,216.1l-1.5-.2-1.2-.5.2-1.2,1.2.6,1.3.2a3.1,3.1,0,0,0,1.3-.3,1.1,1.1,0,0,0,.5-.9c0-.2,0-.4-.2-.5a1.2,1.2,0,0,0-.5-.5l-1.2-.4a3.8,3.8,0,0,1-1.8-.9,2,2,0,0,1-.6-1.4,2.3,2.3,0,0,1,.8-1.8,3,3,0,0,1,2.2-.6h1.3l1.1.5-.3,1.1a3.9,3.9,0,0,0-2.1-.6,2.1,2.1,0,0,0-1.2.3.9.9,0,0,0-.3,1.3l.3.2a3.1,3.1,0,0,0,1.3.6,4.5,4.5,0,0,1,2.1,1,2,2,0,0,1,.6,1.5,2.1,2.1,0,0,1-.9,1.8A3.5,3.5,0,0,1,998.3,216.1Z"/><path d="M884.5,226.8h1.3v1.5A3,3,0,0,1,887,227a3.7,3.7,0,0,1,1.8-.5,3.3,3.3,0,0,1,1.9.6,3.2,3.2,0,0,1,1.4,1.4,5.7,5.7,0,0,1,.4,2.2,4.1,4.1,0,0,1-.5,2.1,4,4,0,0,1-1.4,1.5,3.6,3.6,0,0,1-2,.6,4.7,4.7,0,0,1-1.7-.4,3.3,3.3,0,0,1-1.1-1.3v5.4h-1.4Zm4,6.9a3,3,0,0,0,2-.8,3.5,3.5,0,0,0,0-4.3,2.8,2.8,0,0,0-4,0,3.5,3.5,0,0,0,0,4.3,3,3,0,0,0,2,.8Z"/><path d="M898.3,234.9a3.1,3.1,0,0,1-1.9-.6,3.2,3.2,0,0,1-1.4-1.4,4.4,4.4,0,0,1-.5-2.2,4,4,0,0,1,1.8-3.6,3.6,3.6,0,0,1,2-.6,3,3,0,0,1,1.6.5,3.4,3.4,0,0,1,1.2,1.2v-1.4h1.3v7.8h-1.3v-1.4a3.7,3.7,0,0,1-1.2,1.3A4.7,4.7,0,0,1,898.3,234.9Zm.3-1.2a2.7,2.7,0,0,0,2-.9,3.5,3.5,0,0,0,0-4.3,3,3,0,0,0-4,0,3.5,3.5,0,0,0,0,4.3A2.7,2.7,0,0,0,898.6,233.7Z"/><path d="M909.2,234.8a4.2,4.2,0,0,1-2.2-.5,2.9,2.9,0,0,1-1.5-1.4,4,4,0,0,1-.6-2.2,3.9,3.9,0,0,1,2-3.6,3.7,3.7,0,0,1,2.3-.5,5.9,5.9,0,0,1,2.3.5l-.2,1.2-1-.4h-1.1a2.4,2.4,0,0,0-2.1.8,2.6,2.6,0,0,0-.8,2.1,2.4,2.4,0,0,0,.8,2.1,2.7,2.7,0,0,0,2.2.8,5.9,5.9,0,0,0,2.2-.5l.2,1.1-1.2.5Z"/><path d="M913.9,221.9h1.3v8l3.6-3.1h1.8l-4,3.4,4.6,4.4h-1.8l-4.1-3.9v3.9h-1.4Z"/><path d="M925.9,234.9a3.3,3.3,0,0,1-1.9-.6,3.2,3.2,0,0,1-1.4-1.4,5.9,5.9,0,0,1-.5-2.2,5.4,5.4,0,0,1,.5-2.1,5,5,0,0,1,1.4-1.5,3.7,3.7,0,0,1,2.1-.6,3.4,3.4,0,0,1,2.8,1.7v-1.4h1.3v7.8h-1.3v-1.4a3.7,3.7,0,0,1-1.2,1.3A5.8,5.8,0,0,1,925.9,234.9Zm.4-1.2a2.5,2.5,0,0,0,1.9-.9,3.2,3.2,0,0,0,.8-2.1,3,3,0,0,0-.8-2.2,2.7,2.7,0,0,0-1.9-.8,2.8,2.8,0,0,0-2,.8,3.5,3.5,0,0,0,0,4.3A2.5,2.5,0,0,0,926.3,233.7Z"/><path d="M936.3,238.6l-1.7-.2-1.3-.5.2-1.2,1.3.5a3.4,3.4,0,0,0,1.5.2,2.7,2.7,0,0,0,2.2-.8,3.7,3.7,0,0,0,.7-2.3v-1.1a3,3,0,0,1-1.3,1.2,3.4,3.4,0,0,1-1.7.5,3.1,3.1,0,0,1-1.9-.6,3.2,3.2,0,0,1-1.4-1.4,5.9,5.9,0,0,1-.5-2.2,5.4,5.4,0,0,1,.5-2.1,4,4,0,0,1,1.4-1.5,3.6,3.6,0,0,1,2-.6,3.4,3.4,0,0,1,2.9,1.7v-1.4h1.3v7.4a4.8,4.8,0,0,1-1,3.3A4.2,4.2,0,0,1,936.3,238.6Zm.3-4.9a2.5,2.5,0,0,0,2-.9,3.5,3.5,0,0,0,0-4.3,2.8,2.8,0,0,0-3.9,0h-.1a3.5,3.5,0,0,0,0,4.3,2.8,2.8,0,0,0,2,.9Z"/><path d="M947.2,234.9a5.4,5.4,0,0,1-3.2-1.1,4,4,0,0,1-1.1-3.1,4.1,4.1,0,0,1,.5-2.1,3.2,3.2,0,0,1,1.3-1.5,3.7,3.7,0,0,1,2.1-.6,3.4,3.4,0,0,1,2.5,1.1,3.7,3.7,0,0,1,1,2.8v.7h-6.1a2.6,2.6,0,0,0,.9,1.9,3.4,3.4,0,0,0,2.2.7,6.8,6.8,0,0,0,2.7-.7v1.1a3.1,3.1,0,0,1-1.3.6Zm1.8-4.8a2.4,2.4,0,0,0-.7-1.8,1.9,1.9,0,0,0-1.6-.6,2,2,0,0,0-1.7.6,2.5,2.5,0,0,0-.8,1.8Z"/><path d="M953.6,234.7a1,1,0,0,1-1-.9h0a1.1,1.1,0,0,1,.3-.8.9.9,0,0,1,.7-.3,1,1,0,0,1,1,1h0a1,1,0,0,1-1,1Z"/><path d="M909.8,144.5h4.1a3.5,3.5,0,0,1,2.6.8,2.7,2.7,0,0,1,1,2.2,2.5,2.5,0,0,1-.5,1.5,2.3,2.3,0,0,1-1.4,1,3.1,3.1,0,0,1,1.8,1.1,2.6,2.6,0,0,1,.7,1.9,3.4,3.4,0,0,1-1.1,2.5,4.4,4.4,0,0,1-2.9.9h-4.3Zm1.3,5.1h2.6a2,2,0,0,0,2.4-2.1,2,2,0,0,0-.6-1.4,3.7,3.7,0,0,0-1.8-.5h-2.6Zm0,5.6h3.1a2.4,2.4,0,0,0,1.8-.5,2.8,2.8,0,0,0,.7-1.7,2.1,2.1,0,0,0-.7-1.7,3.9,3.9,0,0,0-2.1-.6H911Z"/><path d="M923.3,156.7a2.8,2.8,0,0,1-2-.8,3.5,3.5,0,0,1-.8-2.4v-4.9h1.4v4.6a2.5,2.5,0,0,0,.4,1.7,2,2,0,0,0,1.4.6,2.1,2.1,0,0,0,1.7-.7,2.5,2.5,0,0,0,.5-1.9v-4.3h1.4v7.8H926v-1.3a1.8,1.8,0,0,1-1,1.1A3.4,3.4,0,0,1,923.3,156.7Z"/><path d="M930.8,146.5a.9.9,0,0,1-.7-.3,1.2,1.2,0,0,1,0-1.4l.7-.2.6.2a1,1,0,0,1,0,1.4A.9.9,0,0,1,930.8,146.5Zm-.7,2.1h1.3v7.8h-1.3Z"/><path d="M934.3,143.7h1.3v12.7h-1.3Z"/><path d="M941.6,156.7a3.9,3.9,0,0,1-3.7-4.2,4.1,4.1,0,0,1,.5-2.1,4,4,0,0,1,1.4-1.5,3.6,3.6,0,0,1,2-.6,4.7,4.7,0,0,1,1.6.4,3.7,3.7,0,0,1,1.2,1.3v-6.3H946v12.7h-1.3V155a3.7,3.7,0,0,1-1.3,1.2A3.5,3.5,0,0,1,941.6,156.7Zm.4-1.2a2.5,2.5,0,0,0,1.9-.9,3.2,3.2,0,0,0,0-4.3,2.9,2.9,0,0,0-3.9,0h0a3.5,3.5,0,0,0,0,4.3,2.7,2.7,0,0,0,2,.9Z"/><path d="M949.5,146.5a.7.7,0,0,1-.6-.3,1,1,0,0,1,0-1.4,1,1,0,0,1,1.3,0,1.2,1.2,0,0,1,0,1.4A.9.9,0,0,1,949.5,146.5Zm-.6,2.1h1.4v7.8h-1.4Z"/><path d="M952.9,148.6h1.3v1.3a2.3,2.3,0,0,1,1-1.2,2.9,2.9,0,0,1,1.6-.4,2.7,2.7,0,0,1,2.1.9,3.8,3.8,0,0,1,.8,2.5v4.7h-1.3V152a2.8,2.8,0,0,0-.4-1.8,2,2,0,0,0-1.5-.6,2,2,0,0,0-1.6.7,3.1,3.1,0,0,0-.6,1.9v4.3H953Z"/><path d="M965.8,160.4l-1.7-.2-1.3-.5.2-1.2,1.3.5,1.5.2a2.7,2.7,0,0,0,2.2-.8,3.2,3.2,0,0,0,.7-2.3V155a3.4,3.4,0,0,1-1.2,1.2,4.1,4.1,0,0,1-1.8.5,3.7,3.7,0,0,1-3.3-2,5.9,5.9,0,0,1-.5-2.2,5.4,5.4,0,0,1,.5-2.1,4,4,0,0,1,1.4-1.5,3.6,3.6,0,0,1,2-.6,4.7,4.7,0,0,1,1.7.4,3.7,3.7,0,0,1,1.2,1.3v-1.4H970v7.3a4.8,4.8,0,0,1-1.1,3.4A4.9,4.9,0,0,1,965.8,160.4Zm.2-4.9a2.5,2.5,0,0,0,2-.9,3.5,3.5,0,0,0,0-4.3,2.9,2.9,0,0,0-3.9,0h0a3.5,3.5,0,0,0,0,4.3,2.5,2.5,0,0,0,2,.9Z"/><path d="M901.5,175.4a4.4,4.4,0,0,1-2.2-.5,3.4,3.4,0,0,1-1.5-1.4,4,4,0,0,1-.6-2.2,4.2,4.2,0,0,1,.6-2.1,4,4,0,0,1,1.4-1.5,3.7,3.7,0,0,1,2.3-.5,5.9,5.9,0,0,1,2.3.5l-.2,1.2-1-.4h-1.1a2.5,2.5,0,0,0-2.1.8,3.2,3.2,0,0,0,0,4.2,2.7,2.7,0,0,0,2.2.8,6.4,6.4,0,0,0,2.3-.5v1.1l-1.1.5Z"/><path d="M909.8,175.5a4.2,4.2,0,0,1-2.1-.6,2.9,2.9,0,0,1-1.4-1.5,4.3,4.3,0,0,1,1.4-5.7,4.2,4.2,0,0,1,2.1-.6,4.6,4.6,0,0,1,2.1.5,5.4,5.4,0,0,1,1.5,1.5,4.3,4.3,0,0,1,.6,2.2,4.7,4.7,0,0,1-2,3.6A4.3,4.3,0,0,1,909.8,175.5Zm0-1.2a2.7,2.7,0,0,0,2-.9,3.5,3.5,0,0,0,0-4.3,3,3,0,0,0-4,0,3.5,3.5,0,0,0,0,4.3A2.7,2.7,0,0,0,909.8,174.3Z"/><path d="M916.2,167.4h1.3v1.3a1.6,1.6,0,0,1,1-1.1,2.7,2.7,0,0,1,1.5-.5,2.6,2.6,0,0,1,2.6,1.8,3.2,3.2,0,0,1,1-1.3,2.5,2.5,0,0,1,1.7-.4,2.4,2.4,0,0,1,2.1.8,3.2,3.2,0,0,1,.7,2.5v4.6h-1.3v-4.4a3.1,3.1,0,0,0-.5-1.8,1.7,1.7,0,0,0-1.4-.6,2,2,0,0,0-1.5.7,3.3,3.3,0,0,0-.6,1.9v4.2h-1.3v-4.4a3.1,3.1,0,0,0-.5-1.8,1.7,1.7,0,0,0-1.4-.6,2,2,0,0,0-1.6.7,2.6,2.6,0,0,0-.5,1.9v4.2h-1.4Z"/><path d="M931,167.4h1.2v1.3a1.8,1.8,0,0,1,1-1.1,3,3,0,0,1,1.6-.5,2.5,2.5,0,0,1,2.5,1.8,2.8,2.8,0,0,1,1.1-1.3,2.9,2.9,0,0,1,1.6-.4,2.7,2.7,0,0,1,2.2.8,3.7,3.7,0,0,1,.7,2.5v4.6h-1.3v-4.4a3.1,3.1,0,0,0-.5-1.8,1.7,1.7,0,0,0-1.4-.6,2,2,0,0,0-1.5.7,3.3,3.3,0,0,0-.6,1.9v4.2h-1.3v-4.4a4.1,4.1,0,0,0-.5-1.8,1.8,1.8,0,0,0-1.4-.6,2,2,0,0,0-1.6.7,2.8,2.8,0,0,0-.4,1.8v4.3H931Z"/><path d="M948.4,175.5a3.2,3.2,0,0,1-2.1-.8,4,4,0,0,1-.7-2.4v-4.9H947V172a3,3,0,0,0,.4,1.8,2.4,2.4,0,0,0,1.4.5,1.9,1.9,0,0,0,1.6-.7,2.2,2.2,0,0,0,.6-1.9v-4.3h1.4v7.7h-1.3v-1.3a2.4,2.4,0,0,1-.9,1.3A3.9,3.9,0,0,1,948.4,175.5Z"/><path d="M955.2,167.4h1.3v1.3a2.2,2.2,0,0,1,1-1.1,3,3,0,0,1,1.6-.5,3.1,3.1,0,0,1,2.2.9,3.7,3.7,0,0,1,.7,2.5v4.6h-1.3v-4.4a4.1,4.1,0,0,0-.5-1.8,1.8,1.8,0,0,0-1.4-.6,2.8,2.8,0,0,0-1.7.7,2.6,2.6,0,0,0-.5,1.9v4.2h-1.4Z"/><path d="M965.6,165.3a.9.9,0,0,1-.7-.3,1,1,0,0,1,0-1.3.9.9,0,0,1,1.3,0,1,1,0,0,1,0,1.3Zm-.7,2.1h1.4v7.7h-1.4Z"/><path d="M972.1,175.5a2.4,2.4,0,0,1-2-.8,2.9,2.9,0,0,1-.6-2.2v-4h-1.8v-1.1h1.8v-2.3h1.4v2.3h2.7v1.1h-2.7v3.9a4,4,0,0,0,.3,1.5,1.4,1.4,0,0,0,1.2.4,3.7,3.7,0,0,0,1.5-.4l.2,1.1A3.5,3.5,0,0,1,972.1,175.5Z"/><path d="M978.2,174.6l-3.3-7.2h1.4l2.7,5.8,2.6-5.8H983l-5.4,11.7h-1.4Z"/><path d="M942.1,101.1h3.4a4.7,4.7,0,0,1,3,1,3.2,3.2,0,0,1,1,2.6,3.6,3.6,0,0,1-.6,2,5.1,5.1,0,0,1-1.6,1.3l3.4,5H949l-3-4.7h-2.5V113h-1.4Zm1.4,6h1.7a4.6,4.6,0,0,0,2.3-.6,2,2,0,0,0,.7-1.8,2.4,2.4,0,0,0-.7-1.8,3.9,3.9,0,0,0-2.1-.6h-1.8Z"/><path d="M955.8,113.3a4.1,4.1,0,0,1-1.9-.5,4,4,0,0,1-1.4-1.5,4.6,4.6,0,0,1-.5-2.1,4.6,4.6,0,0,1,.5-2,4.1,4.1,0,0,1,1.4-1.5,3.7,3.7,0,0,1,2.1-.6,3.2,3.2,0,0,1,1.6.4,3.4,3.4,0,0,1,1.2,1.2v-1.4h1.3v7.9h-1.3v-1.5a3,3,0,0,1-1.2,1.3A5.7,5.7,0,0,1,955.8,113.3Zm.3-1.2a2.8,2.8,0,0,0,2-.8,3.5,3.5,0,0,0,.8-2.2,3.2,3.2,0,0,0-.8-2.1,2.7,2.7,0,0,0-3.9,0,2.6,2.6,0,0,0-.8,2.1,3,3,0,0,0,.8,2.2,2.7,2.7,0,0,0,1.9.8Z"/><path d="M963,105.2h1.2v1.3a3.5,3.5,0,0,1,1-1.1,3.3,3.3,0,0,1,1.6-.5,3.1,3.1,0,0,1,2.2.9,4.4,4.4,0,0,1,.8,2.5V113h-1.4v-4.5a3,3,0,0,0-.4-1.8,1.7,1.7,0,0,0-1.5-.5,1.7,1.7,0,0,0-1.6.7,3,3,0,0,0-.6,1.8V113H963Z"/><path d="M975.7,113.3a3.4,3.4,0,0,1-3.2-2,3.6,3.6,0,0,1-.5-2.1,3.5,3.5,0,0,1,.5-2,3.4,3.4,0,0,1,1.4-1.5,3.6,3.6,0,0,1,2-.6,2.9,2.9,0,0,1,1.6.4,3.4,3.4,0,0,1,1.2,1.2v-6.4H980V113h-1.3v-1.4a3.3,3.3,0,0,1-3,1.7Zm.4-1.2a2.7,2.7,0,0,0,1.9-.8,3.5,3.5,0,0,0,.8-2.2,3.2,3.2,0,0,0-.8-2.1,2.7,2.7,0,0,0-3.9,0,2.4,2.4,0,0,0-.8,2.1,3.4,3.4,0,0,0,.7,2.2,3.2,3.2,0,0,0,2.1.8Z"/><path d="M986.4,113.3a4.6,4.6,0,0,1-2-.5,4.3,4.3,0,0,1-1.5-1.5,3.7,3.7,0,0,1-.6-2.1,4.6,4.6,0,0,1,.5-2,4.6,4.6,0,0,1,1.5-1.6,5.4,5.4,0,0,1,2.1-.5,3.6,3.6,0,0,1,2.1.5,3.6,3.6,0,0,1,1.5,1.5,5,5,0,0,1,.5,2.1,4.6,4.6,0,0,1-.5,2.1,4.1,4.1,0,0,1-3.6,2.1Zm0-1.2a2.8,2.8,0,0,0,2-.8,3.5,3.5,0,0,0,.8-2.2,3,3,0,0,0-.8-2.1,2.7,2.7,0,0,0-3.9,0h0a2.6,2.6,0,0,0-.8,2.1,3,3,0,0,0,.8,2.2A2.7,2.7,0,0,0,986.4,112.1Z"/><path d="M992.9,105.2h1.3v1.3a1.8,1.8,0,0,1,1-1.1,2.7,2.7,0,0,1,1.5-.5,2.6,2.6,0,0,1,2.6,1.8,2.3,2.3,0,0,1,1-1.2,2.6,2.6,0,0,1,1.7-.5,2.4,2.4,0,0,1,2.1.9,3.5,3.5,0,0,1,.8,2.4V113h-1.4v-4.5a3,3,0,0,0-.4-1.8,1.6,1.6,0,0,0-1.4-.5,1.7,1.7,0,0,0-1.6.7,2.4,2.4,0,0,0-.5,1.8V113h-1.4v-4.5a3,3,0,0,0-.4-1.8,2,2,0,0,0-1.4-.6,2.4,2.4,0,0,0-1.6.7,3.3,3.3,0,0,0-.6,1.9V113h-1.3Z"/><path d="M1013,113.3l-1.5-.2-1.1-.5.2-1.2,1.1.5a3.1,3.1,0,0,0,1.3.3,3.2,3.2,0,0,0,1.4-.3,1.1,1.1,0,0,0,.5-.9,1.4,1.4,0,0,0-.2-.6l-.6-.4-1.1-.4a5.6,5.6,0,0,1-1.9-.9,2,2,0,0,1-.6-1.5,2.1,2.1,0,0,1,.8-1.6,3.4,3.4,0,0,1,2.2-.7l1.2.2,1.1.5-.2,1.1a3.3,3.3,0,0,0-2.2-.6,1.7,1.7,0,0,0-1.2.2,1.2,1.2,0,0,0-.4.8.9.9,0,0,0,.4.8l1.3.5a6.8,6.8,0,0,1,2.1,1,2.2,2.2,0,0,1,.6,1.5,1.9,1.9,0,0,1-.8,1.9A4,4,0,0,1,1013,113.3Z"/><path d="M1021.7,113.3a2.7,2.7,0,0,1-2-.7,3.2,3.2,0,0,1-.6-2.3v-4h-1.8v-1.1h1.8v-2.3h1.3v2.3h2.8v1.1h-2.8v3.9a2.8,2.8,0,0,0,.4,1.5,1.2,1.2,0,0,0,1.1.4,2.9,2.9,0,0,0,1.6-.4l.2,1.1A3.7,3.7,0,0,1,1021.7,113.3Z"/><path d="M1025.4,105.2h1.3v1.6a3.8,3.8,0,0,1,.9-1.3,2.8,2.8,0,0,1,1.5-.4h.9l-.2,1.3a1.5,1.5,0,0,0-.9-.2,1.7,1.7,0,0,0-1.6.7,4.6,4.6,0,0,0-.6,2.2V113h-1.3Z"/><path d="M1034.9,113.3a3.8,3.8,0,0,1-1.9-.5,4,4,0,0,1-1.4-1.5,4.6,4.6,0,0,1-.5-2.1,4.6,4.6,0,0,1,.5-2,3.4,3.4,0,0,1,1.4-1.5,3.1,3.1,0,0,1,2-.7,3.3,3.3,0,0,1,1.7.4,3,3,0,0,1,1.2,1.3v-1.5h1.3v7.9h-1.3v-1.5a3,3,0,0,1-1.2,1.3A3.9,3.9,0,0,1,1034.9,113.3Zm.3-1.2a2.8,2.8,0,0,0,2-.8,3.5,3.5,0,0,0,.8-2.2,3,3,0,0,0-.8-2.1,2.8,2.8,0,0,0-4,0,2.6,2.6,0,0,0-.7,2.1,2.9,2.9,0,0,0,.7,2.2A3,3,0,0,0,1035.2,112.1Z"/><path d="M1042,105.2h1.3v1.3a2.1,2.1,0,0,1,1-1.1,3,3,0,0,1,1.6-.5,2.7,2.7,0,0,1,2.1.9,3.8,3.8,0,0,1,.8,2.5V113h-1.3v-4.5a3.1,3.1,0,0,0-.5-1.8,1.5,1.5,0,0,0-1.4-.5,1.7,1.7,0,0,0-1.6.7,2.1,2.1,0,0,0-.6,1.8V113H1042Z"/><path d="M1054.9,117a4.7,4.7,0,0,1-1.7-.2,2.9,2.9,0,0,1-1.3-.5l.2-1.2,1.3.6h1.5a2.7,2.7,0,0,0,2.1-.7,3.4,3.4,0,0,0,.8-2.3v-1.2a3.3,3.3,0,0,1-1.3,1.3,4.7,4.7,0,0,1-1.7.4,4.6,4.6,0,0,1-2-.5,3.7,3.7,0,0,1-1.3-1.5,4.6,4.6,0,0,1-.5-2.1,4.6,4.6,0,0,1,.5-2,5.1,5.1,0,0,1,1.4-1.5,3.7,3.7,0,0,1,2.1-.6,3.2,3.2,0,0,1,1.6.4,3.4,3.4,0,0,1,1.2,1.2v-1.4h1.3v7.3a4.4,4.4,0,0,1-1.1,3.3A4,4,0,0,1,1054.9,117Zm.2-4.9a2.8,2.8,0,0,0,2-.8,3.5,3.5,0,0,0,.8-2.2,3.2,3.2,0,0,0-.8-2.1,2.7,2.7,0,0,0-3.9,0,2.6,2.6,0,0,0-.8,2.1,3,3,0,0,0,.8,2.2A2.7,2.7,0,0,0,1055.1,112.1Z"/><path d="M1065.7,113.3a4.9,4.9,0,0,1-3.1-1.1,3.9,3.9,0,0,1-1.2-3.1,4.1,4.1,0,0,1,.5-2.1,3.7,3.7,0,0,1,1.3-1.5,4.2,4.2,0,0,1,2.1-.6,3.6,3.6,0,0,1,2.6,1.1,4.8,4.8,0,0,1,1,2.8v.8h-6.1a2.8,2.8,0,0,0,.9,1.9,3.4,3.4,0,0,0,2.2.7,6.8,6.8,0,0,0,2.7-.7v1.1a3.1,3.1,0,0,1-1.3.6Zm1.8-4.8a2.8,2.8,0,0,0-.6-1.8,2.7,2.7,0,0,0-3.4,0,2.5,2.5,0,0,0-.8,1.8Z"/><path d="M1071.3,105.2h1.2v1.6a3.1,3.1,0,0,1,1-1.3,2.3,2.3,0,0,1,1.4-.4h.9v1.3a1.6,1.6,0,0,0-1-.2,1.5,1.5,0,0,0-1.5.7,3.1,3.1,0,0,0-.6,2.2V113h-1.3Z"/><path d="M1079.7,113.3l-1.5-.2-1.2-.5.3-1.2a4.9,4.9,0,0,0,2.4.8,3.5,3.5,0,0,0,1.4-.3,1.2,1.2,0,0,0,.3-1.5l-.6-.4-1.2-.4a4.4,4.4,0,0,1-1.8-.9,2,2,0,0,1-.6-1.5,2.1,2.1,0,0,1,.8-1.6,3.4,3.4,0,0,1,2.2-.7l1.3.2,1.1.5-.3,1.1a3.9,3.9,0,0,0-2.1-.6,1.6,1.6,0,0,0-1.2.2,1,1,0,0,0-.5.8,1.2,1.2,0,0,0,.4.8l1.4.5a7.5,7.5,0,0,1,2,1,1.9,1.9,0,0,1,.7,1.5,2,2,0,0,1-.9,1.8A3.5,3.5,0,0,1,1079.7,113.3Z"/><path d="M966,132.1l-1.4-.2-1.2-.5.2-1.2,1.2.6,1.2.2a2.8,2.8,0,0,0,1.3-.4,1,1,0,0,0,.5-.8c0-.2,0-.5-.1-.6l-.6-.4-1.2-.4a5.4,5.4,0,0,1-1.8-1,2.4,2.4,0,0,1-.5-1.4,1.9,1.9,0,0,1,.8-1.7,3.1,3.1,0,0,1,2.1-.6,2.7,2.7,0,0,1,1.3.2l1.1.4-.2,1.1a4.3,4.3,0,0,0-2.2-.6l-1.2.3a.6.6,0,0,0-.4.8.9.9,0,0,0,.3.7,3.8,3.8,0,0,0,1.3.6,5.1,5.1,0,0,1,2.1,1,2.1,2.1,0,0,1,0,3l-.2.2A4,4,0,0,1,966,132.1Z"/><path d="M975.1,132.1a4.2,4.2,0,0,1-3.2-1.1,3.8,3.8,0,0,1-1.1-3,4.1,4.1,0,0,1,.4-2.2,4,4,0,0,1,1.4-1.5,4,4,0,0,1,4.6.5,4.2,4.2,0,0,1,1,2.8v.8h-6.1a2.8,2.8,0,0,0,.9,1.8,3.6,3.6,0,0,0,2.2.7,6.3,6.3,0,0,0,2.7-.6l.2,1.1-1.3.5Zm1.8-4.8a2.4,2.4,0,0,0-.7-1.8,2,2,0,0,0-1.7-.6,2.3,2.3,0,0,0-1.6.6,2.5,2.5,0,0,0-.8,1.8Z"/><path d="M984.6,132.1a5.9,5.9,0,0,1-2.2-.5,3.6,3.6,0,0,1-1.5-1.5,3.1,3.1,0,0,1-.5-2.1,4.2,4.2,0,0,1,.5-2.2,3.6,3.6,0,0,1,1.5-1.5,5.4,5.4,0,0,1,2.2-.5l1.2.2,1.1.4-.2,1.1-1-.4h-1.1a2.8,2.8,0,0,0-2.9,2.6v.3a2.9,2.9,0,0,0,2.5,3h.5a5.5,5.5,0,0,0,2.2-.6l.2,1.1a3.1,3.1,0,0,1-1.2.5Z"/><path d="M992.1,132.1a3.2,3.2,0,0,1-2.1-.8,3.9,3.9,0,0,1-.7-2.3v-5h1.3v4.6a3.7,3.7,0,0,0,.5,1.8,1.6,1.6,0,0,0,1.4.5,2,2,0,0,0,1.6-.7,2.6,2.6,0,0,0,.6-1.9V124h1.4v7.8h-1.3v-1.3a2.9,2.9,0,0,1-1,1.2A3.3,3.3,0,0,1,992.1,132.1Z"/><path d="M998.9,124h1.2v1.6a2.9,2.9,0,0,1,1-1.2,1.9,1.9,0,0,1,1.4-.5h.9l-.2,1.3a1.5,1.5,0,0,0-.9-.2,1.7,1.7,0,0,0-1.6.7,4.2,4.2,0,0,0-.6,2.1v3.9h-1.3Z"/><path d="M1006.1,121.9a.8.8,0,0,1-1-.7V121a1.1,1.1,0,0,1,.9-.9.9.9,0,0,1,.7.3,1.4,1.4,0,0,1,.2.6,1.4,1.4,0,0,1-.2.7Zm-.7,2.1h1.3v7.8h-1.3Z"/><path d="M1012.7,132.1a2.6,2.6,0,0,1-2-.7,3.7,3.7,0,0,1-.6-2.2v-4.1h-1.8V124h1.8v-2.3h1.3V124h2.8v1.1h-2.8V129a2.8,2.8,0,0,0,.4,1.5,1.5,1.5,0,0,0,1.1.4,2.9,2.9,0,0,0,1.6-.4v1.1A4.1,4.1,0,0,1,1012.7,132.1Z"/><path d="M1018.9,131.2l-3.4-7.1h1.4l2.7,5.7,2.6-5.8h1.4l-5.4,11.7h-1.4Z"/><path d="M1028.8,124h1.2v1.6a2.3,2.3,0,0,1,1-1.2,1.9,1.9,0,0,1,1.4-.5h.9v1.3a1.5,1.5,0,0,0-.9-.2,1.7,1.7,0,0,0-1.6.7,4.2,4.2,0,0,0-.6,2.1v3.9h-1.3Z"/><path d="M1036,121.9a.9.9,0,0,1-.7-.3.9.9,0,0,1-.3-.6,1,1,0,0,1,1-1,.9.9,0,0,1,.6.3.9.9,0,0,1,.3.7.7.7,0,0,1-.3.6A.9.9,0,0,1,1036,121.9Zm-.7,2.1h1.3v7.8h-1.3Z"/><path d="M1041.4,132.1l-1.5-.2-1.2-.5.2-1.2,1.2.6,1.3.2a2.3,2.3,0,0,0,1.4-.4,1,1,0,0,0,.5-.8,1.1,1.1,0,0,0-.2-.6.7.7,0,0,0-.6-.4l-1.1-.4a4.4,4.4,0,0,1-1.9-1,2,2,0,0,1-.6-1.4,2.1,2.1,0,0,1,.8-1.7,3.3,3.3,0,0,1,2.2-.6,3.2,3.2,0,0,1,1.3.2,2.1,2.1,0,0,1,1,.4l-.2,1.1a4,4,0,0,0-2.2-.6l-1.2.3a.9.9,0,0,0-.4.8.8.8,0,0,0,.4.7,3.1,3.1,0,0,0,1.3.6,5.1,5.1,0,0,1,2.1,1,2.2,2.2,0,0,1,0,3l-.3.2A3.9,3.9,0,0,1,1041.4,132.1Z"/><path d="M1046.7,119.1h1.3v8.1l3.6-3.2h1.7l-4,3.5,4.6,4.3h-1.8l-4.1-3.9v3.9h-1.3Z"/><path d="M1057.4,132.1l-1.5-.2-1.1-.5.2-1.2,1.1.6,1.3.2a2.3,2.3,0,0,0,1.4-.4,1,1,0,0,0,.5-.8c0-.2,0-.5-.2-.6a1,1,0,0,0-.5-.4l-1.2-.4a4,4,0,0,1-1.8-1,2,2,0,0,1-.6-1.4,2.1,2.1,0,0,1,.8-1.7,3.5,3.5,0,0,1,2.2-.6,3,3,0,0,1,1.3.2l1,.4-.2,1.1a3.9,3.9,0,0,0-2.1-.6,2.8,2.8,0,0,0-1.3.3.9.9,0,0,0-.4.8.8.8,0,0,0,.4.7,3.1,3.1,0,0,0,1.3.6,5.1,5.1,0,0,1,2.1,1,2.1,2.1,0,0,1,0,2.9l-.3.3A4,4,0,0,1,1057.4,132.1Z"/><path d="M613,614h3.5a4.5,4.5,0,0,1,2.9,1,3.9,3.9,0,0,1,1.1,2.7,4.1,4.1,0,0,1-.5,1.9,2.9,2.9,0,0,1-1.4,1.3,4.1,4.1,0,0,1-2.1.5h-2.1v4.5H613Zm1.4,6.2h1.8a3.2,3.2,0,0,0,2.1-.6,2.7,2.7,0,0,0,0-3.6,3.2,3.2,0,0,0-2.1-.6h-1.8Z"/><path d="M625.4,626.2a3.8,3.8,0,0,1-1.9-.5,4,4,0,0,1-1.4-1.5,5.4,5.4,0,0,1-.5-2.2,4.6,4.6,0,0,1,.5-2,3.6,3.6,0,0,1,1.4-1.6,2.9,2.9,0,0,1,2-.5,2.5,2.5,0,0,1,1.7.4,3.4,3.4,0,0,1,1.2,1.2v-1.4h1.3v7.8h-1.3v-1.4a3.3,3.3,0,0,1-1.3,1.3A3.3,3.3,0,0,1,625.4,626.2Zm.3-1.2a2.8,2.8,0,0,0,2-.8,3.5,3.5,0,0,0,0-4.3,2.7,2.7,0,0,0-3.9,0h0a3.5,3.5,0,0,0,0,4.3,2.8,2.8,0,0,0,2,.8Z"/><path d="M636.2,626.2a5.9,5.9,0,0,1-2.2-.5,4.3,4.3,0,0,1-1.5-1.5,3.1,3.1,0,0,1-.5-2.1,4.2,4.2,0,0,1,.5-2.2,3.6,3.6,0,0,1,1.5-1.5,5.4,5.4,0,0,1,2.2-.5,4.6,4.6,0,0,1,2.3.6l-.2,1.1-1-.4h-1.1a3.1,3.1,0,0,0-2.9,3.2,4.1,4.1,0,0,0,.8,1.9,3.5,3.5,0,0,0,2.2.8,5.5,5.5,0,0,0,2.2-.6l.2,1.1-1.2.5Z"/><path d="M641,613.3h1.3v8l3.6-3.1h1.7l-4,3.4,4.7,4.4h-1.8l-4.1-3.9V626H641Z"/><path d="M653,626.2a3.9,3.9,0,0,1-3.7-4.2,3.5,3.5,0,0,1,.5-2,3.6,3.6,0,0,1,1.4-1.6,3.5,3.5,0,0,1,2-.5,2.3,2.3,0,0,1,1.6.4,3.4,3.4,0,0,1,1.2,1.2v-1.4h1.3v7.8H656v-1.4a3.7,3.7,0,0,1-1.2,1.3A3.9,3.9,0,0,1,653,626.2Zm.4-1.2a2.7,2.7,0,0,0,1.9-.8,3.2,3.2,0,0,0,0-4.3,2.7,2.7,0,0,0-3.8-.1h-.1a3.5,3.5,0,0,0,0,4.3A2.8,2.8,0,0,0,653.4,625Z"/><path d="M663.4,629.9a5,5,0,0,1-1.7-.2,2.6,2.6,0,0,1-1.2-.5V628a7.5,7.5,0,0,0,1.3.6l1.5.2a3.5,3.5,0,0,0,2.2-.8,3.4,3.4,0,0,0,.7-2.4v-1.1a3.7,3.7,0,0,1-1.2,1.3,3.7,3.7,0,0,1-1.8.4,3.9,3.9,0,0,1-3.7-4.2,3.5,3.5,0,0,1,.5-2,4.2,4.2,0,0,1,1.3-1.6,4.1,4.1,0,0,1,2.1-.5,2.3,2.3,0,0,1,1.6.4,3.4,3.4,0,0,1,1.2,1.2v-1.4h1.3v7.4a4.4,4.4,0,0,1-1.1,3.3A3.9,3.9,0,0,1,663.4,629.9Zm.3-4.9a2.7,2.7,0,0,0,1.9-.8,3.2,3.2,0,0,0,0-4.3,2.7,2.7,0,0,0-3.8-.1h0a3.2,3.2,0,0,0,0,4.3,3,3,0,0,0,2,.8Z"/><path d="M674.3,626.2a4,4,0,0,1-3.1-1.1,3.9,3.9,0,0,1-1.2-3,4.2,4.2,0,0,1,.5-2.2,4.7,4.7,0,0,1,1.3-1.5,3.3,3.3,0,0,1,2.1-.5,3,3,0,0,1,2.5,1,3.7,3.7,0,0,1,1,2.8v.7h-6.1a3,3,0,0,0,1,2,3.9,3.9,0,0,0,2.1.6,6,6,0,0,0,2.7-.6l.2,1.1-1.3.5Zm1.8-4.8a2.4,2.4,0,0,0-.7-1.8,1.9,1.9,0,0,0-1.6-.6,2.7,2.7,0,0,0-1.7.6,3,3,0,0,0-.8,1.8Z"/><path d="M687.1,626.2a5.4,5.4,0,0,1-2.2-.5,2.8,2.8,0,0,1-1.5-1.5,3.9,3.9,0,0,1-.6-2.1,4.3,4.3,0,0,1,.6-2.2,4,4,0,0,1,1.4-1.5,5.9,5.9,0,0,1,2.3-.5l1.2.2,1.1.4-.2,1.1-1-.4h-1.1a2.6,2.6,0,0,0-2.1.8,3.2,3.2,0,0,0,0,4.3,3.5,3.5,0,0,0,2.2.8,6,6,0,0,0,2.2-.6l.2,1.1-1.2.5Z"/><path d="M695,626.2a3.5,3.5,0,0,1-3.2-2,4.2,4.2,0,0,1-.5-2.2,3.5,3.5,0,0,1,.5-2,3.6,3.6,0,0,1,1.4-1.6,3.5,3.5,0,0,1,2-.5,2.3,2.3,0,0,1,1.6.4,3.4,3.4,0,0,1,1.2,1.2v-1.4h1.3v7.8H698v-1.4a3.7,3.7,0,0,1-1.2,1.3A3.4,3.4,0,0,1,695,626.2Zm.4-1.2a3,3,0,0,0,2-.8,3.5,3.5,0,0,0,0-4.3,2.7,2.7,0,0,0-2-.9,2.5,2.5,0,0,0-2,.9,3.5,3.5,0,0,0,0,4.3,2.6,2.6,0,0,0,2.1.8Z"/><path d="M702.2,618.1h1.2v1.6a2.9,2.9,0,0,1,1-1.2,2.4,2.4,0,0,1,1.4-.5h1l-.2,1.3a1.5,1.5,0,0,0-.9-.2,1.6,1.6,0,0,0-1.6.7,4.2,4.2,0,0,0-.6,2.1v3.9h-1.3Z"/><path d="M832.1,346.8h3.4a4.8,4.8,0,0,1,3,1.1,3.5,3.5,0,0,1,1.1,2.6,4.1,4.1,0,0,1-.5,1.9,2.9,2.9,0,0,1-1.4,1.3,4.2,4.2,0,0,1-2.2.5h-2.1v4.6h-1.3Zm1.3,6.2h1.8a2.6,2.6,0,0,0,2.1-.6,2.4,2.4,0,0,0,0-3.6,3.1,3.1,0,0,0-2.1-.6h-1.8Z"/><path d="M842.3,348.8a.9.9,0,0,1-.6-.3.9.9,0,0,1,0-1.3.9.9,0,0,1,.6-.3.9.9,0,0,1,.7.3,1,1,0,0,1,0,1.3A.9.9,0,0,1,842.3,348.8Zm-.6,2.1H843v7.9h-1.3Z"/><path d="M849.5,359a5.9,5.9,0,0,1-2.2-.5,4,4,0,0,1-1.5-1.4,4.9,4.9,0,0,1,0-4.4,4,4,0,0,1,1.5-1.4,4.6,4.6,0,0,1,2.2-.6l1.3.2,1.1.4-.2,1.1a4.5,4.5,0,0,0-1.1-.3l-1.1-.2a2.6,2.6,0,0,0-2,.8,2.5,2.5,0,0,0-.8,2.1,2.7,2.7,0,0,0,2.5,3h.4a5.9,5.9,0,0,0,2.3-.5v1.1l-1.1.4Z"/><path d="M854.3,346.1h1.3v8l3.6-3.1H861l-4.1,3.4,4.6,4.4h-1.7l-4.2-3.9v3.9h-1.3Z"/><path d="M865,359l-1.4-.2a3.3,3.3,0,0,1-1.2-.5l.2-1.2,1.1.6,1.3.2a3.2,3.2,0,0,0,1.4-.3,1.1,1.1,0,0,0,.5-.9.8.8,0,0,0-.2-.5,1,1,0,0,0-.6-.5l-1.1-.4a3.8,3.8,0,0,1-1.8-.9,2,2,0,0,1-.6-1.4,2.1,2.1,0,0,1,.8-1.7,2.9,2.9,0,0,1,2.2-.6h1.2l1.1.5-.2,1.1a4,4,0,0,0-2.2-.6,1.4,1.4,0,0,0-1.2.3.8.8,0,0,0-.4.7.9.9,0,0,0,.4.8,5.2,5.2,0,0,0,1.3.6,4.1,4.1,0,0,1,2.1,1,1.9,1.9,0,0,1,.6,1.5,1.9,1.9,0,0,1-.9,1.8A3.9,3.9,0,0,1,865,359Z"/><path d="M876.6,359a2.5,2.5,0,0,1-2.1-.8,3.9,3.9,0,0,1-.7-2.3v-5h1.3v4.6a2.9,2.9,0,0,0,.5,1.8,1.6,1.6,0,0,0,1.4.5,1.7,1.7,0,0,0,1.6-.7,2.2,2.2,0,0,0,.6-1.9v-4.3h1.4v7.9h-1.3v-1.4a2.9,2.9,0,0,1-1,1.2A3.3,3.3,0,0,1,876.6,359Z"/><path d="M883.4,350.9h1.2v1.5a3.3,3.3,0,0,1,1.3-1.3,3.3,3.3,0,0,1,1.7-.4,3.4,3.4,0,0,1,3.3,2,4.7,4.7,0,0,1,0,4.2,4,4,0,0,1-1.4,1.5,3.6,3.6,0,0,1-2,.6,3.3,3.3,0,0,1-1.7-.4,3.7,3.7,0,0,1-1.2-1.3v5.3h-1.3Zm4,6.9a2.7,2.7,0,0,0,1.9-.8,3.5,3.5,0,0,0,0-4.3,2.7,2.7,0,0,0-3.9,0,3.2,3.2,0,0,0-.8,2.1,3.5,3.5,0,0,0,.8,2.2A2.8,2.8,0,0,0,887.4,357.8Z"/><path d="M897.3,350.9h1.2v1.5a3.7,3.7,0,0,1,1.2-1.3,3.9,3.9,0,0,1,1.8-.4,2.5,2.5,0,0,1,1.9.5,3.4,3.4,0,0,1,1.4,1.5,5,5,0,0,1,.5,2.1,5.4,5.4,0,0,1-.5,2.1,4,4,0,0,1-1.4,1.5,3.6,3.6,0,0,1-2,.6,3.9,3.9,0,0,1-1.8-.4,4.3,4.3,0,0,1-1.1-1.2v5.2h-1.4Zm4,6.9a2.7,2.7,0,0,0,1.9-.8,3.5,3.5,0,0,0,0-4.3,2.7,2.7,0,0,0-3.9,0,3.5,3.5,0,0,0,0,4.3A2.8,2.8,0,0,0,901.3,357.8Z"/><path d="M911,359a3.8,3.8,0,0,1-1.9-.5,4,4,0,0,1-1.4-1.5,5.4,5.4,0,0,1-.5-2.2,4.6,4.6,0,0,1,.5-2,3.4,3.4,0,0,1,1.4-1.5,3.6,3.6,0,0,1,2-.6,3.3,3.3,0,0,1,1.7.4,3.4,3.4,0,0,1,1.2,1.2v-1.4h1.3v7.9h-1.4v-1.5a3,3,0,0,1-1.2,1.3A3.5,3.5,0,0,1,911,359Zm.3-1.2a2.8,2.8,0,0,0,2-.8,3.5,3.5,0,0,0,0-4.3,2.8,2.8,0,0,0-4,0,3.5,3.5,0,0,0,0,4.3,3.2,3.2,0,0,0,2.1.8Z"/><path d="M921.9,359a5.1,5.1,0,0,1-2.2-.5,2.9,2.9,0,0,1-1.5-1.4,4.6,4.6,0,0,1-.6-2.2,5.4,5.4,0,0,1,.5-2.2,4,4,0,0,1,1.5-1.4,4.7,4.7,0,0,1,3.5-.4l1.1.4-.2,1.1a4.5,4.5,0,0,0-1.1-.3l-1-.2a2.6,2.6,0,0,0-2.1.8,2.5,2.5,0,0,0-.8,2.1,2.7,2.7,0,0,0,.8,2.2,3.2,3.2,0,0,0,2.1.8,5.9,5.9,0,0,0,2.3-.5v1.1l-1.1.4Z"/><path d="M926.6,346.1h1.3v8l3.6-3.1h1.8l-4,3.4,4.6,4.4h-1.8l-4.1-3.9v3.9h-1.3Z"/><path d="M938.7,359a3.8,3.8,0,0,1-1.9-.5,4,4,0,0,1-1.4-1.5,5.4,5.4,0,0,1-.5-2.2,4.6,4.6,0,0,1,.5-2,3.4,3.4,0,0,1,1.4-1.5,3.6,3.6,0,0,1,2-.6,3.3,3.3,0,0,1,1.7.4,3.4,3.4,0,0,1,1.2,1.2v-1.4H943v7.9h-1.3v-1.5a2.5,2.5,0,0,1-1.2,1.3A3.9,3.9,0,0,1,938.7,359Zm.3-1.2a2.8,2.8,0,0,0,2-.8,3.5,3.5,0,0,0,.8-2.2,3.2,3.2,0,0,0-.8-2.1,2.8,2.8,0,0,0-4,0,3.5,3.5,0,0,0,0,4.3,3,3,0,0,0,2,.8Z"/><path d="M949.1,362.7a5.5,5.5,0,0,1-1.8-.2,1.8,1.8,0,0,1-1.2-.5v-1.2a3.8,3.8,0,0,0,1.3.6l1.5.2a3.5,3.5,0,0,0,2.2-.8,3.3,3.3,0,0,0,.7-2.3v-1.2a3,3,0,0,1-1.2,1.3,3.7,3.7,0,0,1-1.8.4,4.1,4.1,0,0,1-1.9-.5,3.7,3.7,0,0,1-1.3-1.5,3.4,3.4,0,0,1-.5-2.2,3.5,3.5,0,0,1,.5-2,3.8,3.8,0,0,1,1.3-1.5,4.2,4.2,0,0,1,2.1-.6,2.9,2.9,0,0,1,1.6.4,3.4,3.4,0,0,1,1.2,1.2v-1.4h1.3v7.4a4.4,4.4,0,0,1-1.1,3.3A3.8,3.8,0,0,1,949.1,362.7Zm.3-4.9a3.2,3.2,0,0,0,2-.8,2.9,2.9,0,0,0,.7-2.2,3.1,3.1,0,0,0-.7-2.1,2.4,2.4,0,0,0-2-.8,2.2,2.2,0,0,0-2,.8,3.5,3.5,0,0,0,0,4.3A2.8,2.8,0,0,0,949.4,357.8Z"/><path d="M960,359a4,4,0,0,1-4.4-4.1,5.4,5.4,0,0,1,.5-2.2,4,4,0,0,1,1.4-1.5,3.5,3.5,0,0,1,2-.5,3.2,3.2,0,0,1,2.6,1,4.2,4.2,0,0,1,1,2.8v.8H957a2.8,2.8,0,0,0,.9,1.9,3.3,3.3,0,0,0,2.2.6,6.6,6.6,0,0,0,2.7-.6v1.1l-1.3.5Zm1.8-4.8a3.1,3.1,0,0,0-.7-1.8,2.7,2.7,0,0,0-3.4,0,4.2,4.2,0,0,0-.8,1.8Z"/><path d="M972.6,359a5,5,0,0,1-2.1-.5A5.4,5.4,0,0,1,969,357a4.2,4.2,0,0,1-.5-2.2,4.6,4.6,0,0,1,.5-2,2.8,2.8,0,0,1,1.5-1.5,3.7,3.7,0,0,1,2.1-.6,3.5,3.5,0,0,1,2,.5,3.1,3.1,0,0,1,1.5,1.5,4.2,4.2,0,0,1-3.5,6.3Zm0-1.2a2.7,2.7,0,0,0,1.9-.8,3.2,3.2,0,0,0,0-4.3,2.1,2.1,0,0,0-1.9-.8,2.2,2.2,0,0,0-2,.8,3.2,3.2,0,0,0-.8,2.1,3.5,3.5,0,0,0,.8,2.2A2.8,2.8,0,0,0,972.6,357.8Z"/><path d="M979,350.9h1.2v1.4a2.9,2.9,0,0,1,1-1.2,3.2,3.2,0,0,1,1.6-.4,2.7,2.7,0,0,1,2.2.8,3.8,3.8,0,0,1,.7,2.5v4.8h-1.3v-4.6a2.6,2.6,0,0,0-.5-1.7,1.5,1.5,0,0,0-1.4-.6,1.7,1.7,0,0,0-1.6.7,2.2,2.2,0,0,0-.6,1.9v4.3h-1.4Z"/><path d="M858,377.8a3.9,3.9,0,0,1-1.5-.2l-1.1-.5.2-1.2a4.1,4.1,0,0,0,2.4.8,2.8,2.8,0,0,0,1.3-.3,1,1,0,0,0,.5-.8c0-.2,0-.5-.2-.6a.7.7,0,0,0-.5-.4l-1.2-.4a5,5,0,0,1-1.9-1,2.4,2.4,0,0,1-.5-1.4,1.7,1.7,0,0,1,.8-1.7,3.1,3.1,0,0,1,2.1-.6,2.7,2.7,0,0,1,1.3.2,2.1,2.1,0,0,1,1.1.4l-.2,1.1a4.3,4.3,0,0,0-2.2-.6,2.4,2.4,0,0,0-1.2.3.6.6,0,0,0-.4.7.8.8,0,0,0,.3.8,3.5,3.5,0,0,0,1.4.6,6.7,6.7,0,0,1,2.1,1,2.2,2.2,0,0,1,0,3h0l-.3.2A3.8,3.8,0,0,1,858,377.8Z"/><path d="M866.5,377.8a3.5,3.5,0,0,1-2-.5,4.7,4.7,0,0,1-1.3-1.5,4,4,0,0,1-.5-2.2,4.6,4.6,0,0,1,.5-2,3.4,3.4,0,0,1,1.4-1.5,3.6,3.6,0,0,1,2-.6,2.7,2.7,0,0,1,1.6.4,2.2,2.2,0,0,1,1.2,1.3v-1.5h1.3v7.9h-1.3v-1.5a2.7,2.7,0,0,1-1.3,1.3A3.2,3.2,0,0,1,866.5,377.8Zm.3-1.2a2.4,2.4,0,0,0,2-.8,3.5,3.5,0,0,0,0-4.3,2.7,2.7,0,0,0-3.9,0h0a3.5,3.5,0,0,0,0,4.3,2.3,2.3,0,0,0,2,.8Z"/><path d="M873.7,369.7h1.2v1.4a2.9,2.9,0,0,1,1-1.2,2.3,2.3,0,0,1,1.6-.4,2.5,2.5,0,0,1,2.6,1.7,2.3,2.3,0,0,1,1-1.2,2.5,2.5,0,0,1,1.6-.5,2.9,2.9,0,0,1,2.2.8,4.6,4.6,0,0,1,.8,2.5v4.8h-1.4v-4.5a3.5,3.5,0,0,0-.5-1.8,1.5,1.5,0,0,0-1.4-.6,1.7,1.7,0,0,0-1.6.7,2.5,2.5,0,0,0-.5,1.9v4.3h-1.4v-4.5a2.8,2.8,0,0,0-.4-1.8,2,2,0,0,0-1.4-.6,2.4,2.4,0,0,0-1.6.7,3.3,3.3,0,0,0-.6,1.9v4.3h-1.3Z"/><path d="M892.2,377.8a4,4,0,0,1-3.1-1.1,3.9,3.9,0,0,1-1.2-3,4.2,4.2,0,0,1,.5-2.2,3.4,3.4,0,0,1,3.4-2,3,3,0,0,1,2.5,1,3.7,3.7,0,0,1,1,2.8v.8h-6.1a3,3,0,0,0,1,1.9,3.1,3.1,0,0,0,2.1.6,6,6,0,0,0,2.7-.6l.2,1.1a3.5,3.5,0,0,1-1.3.5A5,5,0,0,1,892.2,377.8ZM894,373a3,3,0,0,0-.6-1.8,2.7,2.7,0,0,0-3.4,0,3.3,3.3,0,0,0-.8,1.8Z"/><path d="M901.3,369.7h1.2v1.7a2.7,2.7,0,0,1,1-1.3,2.4,2.4,0,0,1,1.4-.5h.9V371l-.9-.2a1.6,1.6,0,0,0-1.6.8,3.7,3.7,0,0,0-.6,2.1v3.8h-1.3Z"/><path d="M911.1,377.8a3.8,3.8,0,0,1-3.6-2,3.3,3.3,0,0,1-.5-2.2,2.9,2.9,0,0,1,.5-2,3.4,3.4,0,0,1,1.4-1.5,4.2,4.2,0,0,1,2.1-.6,4.6,4.6,0,0,1,2.1.5,4.3,4.3,0,0,1,1.5,1.5,3.9,3.9,0,0,1,.6,2.1,3.7,3.7,0,0,1-.6,2.1,3.4,3.4,0,0,1-1.4,1.5A4.2,4.2,0,0,1,911.1,377.8Zm0-1.2a2.4,2.4,0,0,0,1.9-.8,3.2,3.2,0,0,0,0-4.3,2.7,2.7,0,0,0-3.9,0h0a3.5,3.5,0,0,0,0,4.3,2.7,2.7,0,0,0,2,.8Z"/><path d="M920.2,377.8a2.5,2.5,0,0,1-2.1-.8,3.7,3.7,0,0,1-.7-2.3v-5h1.3v4.6a2.9,2.9,0,0,0,.5,1.8,1.5,1.5,0,0,0,1.4.5,1.9,1.9,0,0,0,1.6-.6,3.5,3.5,0,0,0,.6-1.9v-4.4h1.3v7.9h-1.2v-1.4a2.9,2.9,0,0,1-1,1.2A3.5,3.5,0,0,1,920.2,377.8Z"/><path d="M930.1,377.8a2.5,2.5,0,0,1-2-.7,3.3,3.3,0,0,1-.6-2.2v-4h-1.8v-1.2h1.8v-2.2h1.3v2.2h2.7v1.2h-2.7v3.9a3.2,3.2,0,0,0,.3,1.4,1.5,1.5,0,0,0,1.2.5,3.7,3.7,0,0,0,1.5-.4l.2,1.1A4.1,4.1,0,0,1,930.1,377.8Z"/><path d="M937.7,377.8a4,4,0,0,1-4.4-4.1,5.4,5.4,0,0,1,.5-2.2,4,4,0,0,1,1.4-1.5,4.6,4.6,0,0,1,2-.5,3.1,3.1,0,0,1,2.6,1,4.2,4.2,0,0,1,1,2.8v.8h-6.1a3.4,3.4,0,0,0,.9,1.9,3.5,3.5,0,0,0,2.2.6,6.3,6.3,0,0,0,2.7-.6l.2,1.1a4.3,4.3,0,0,1-1.3.5A5,5,0,0,1,937.7,377.8Zm1.8-4.8a2.6,2.6,0,0,0-.7-1.8,2.4,2.4,0,0,0-1.7-.6,2.3,2.3,0,0,0-1.6.6,2.7,2.7,0,0,0-.8,1.8Z"/><path d="M949.9,377.8a3.2,3.2,0,0,1-1.9-.5,4,4,0,0,1-1.4-1.5,5.1,5.1,0,0,1-.5-2.2,4.6,4.6,0,0,1,.5-2,3.4,3.4,0,0,1,1.4-1.5,3.6,3.6,0,0,1,2-.6,3.3,3.3,0,0,1,1.7.4,3,3,0,0,1,1.2,1.3v-1.5h1.3v7.9h-1.3v-1.5a3,3,0,0,1-1.2,1.3A3.9,3.9,0,0,1,949.9,377.8Zm.3-1.2a2.4,2.4,0,0,0,2-.8,3.5,3.5,0,0,0,0-4.3,2.7,2.7,0,0,0-3.9,0h0a3.5,3.5,0,0,0,0,4.3,2.7,2.7,0,0,0,1.9.8Z"/><path d="M958.9,377.8a3.2,3.2,0,0,1-1.4-.2,4.3,4.3,0,0,1-1.2-.5l.2-1.2a4.3,4.3,0,0,0,2.4.8,3.2,3.2,0,0,0,1.4-.3,1,1,0,0,0,.5-.8,1.1,1.1,0,0,0-.2-.6.7.7,0,0,0-.6-.4l-1.1-.4a5,5,0,0,1-1.9-1,2,2,0,0,1-.6-1.4,2.1,2.1,0,0,1,.8-1.7,3.5,3.5,0,0,1,2.2-.6,3,3,0,0,1,1.3.2,2.5,2.5,0,0,1,1.1.4l-.3,1.1a3.9,3.9,0,0,0-2.1-.6,2.8,2.8,0,0,0-1.3.3.8.8,0,0,0-.4.7,1.2,1.2,0,0,0,.4.8,3.8,3.8,0,0,0,1.3.6,5.1,5.1,0,0,1,2.1,1,2,2,0,0,1,0,3h0l-.2.2A3.9,3.9,0,0,1,958.9,377.8Z"/><path d="M893,396.6a2.3,2.3,0,0,1-1.9-.7,2.9,2.9,0,0,1-.6-2.2v-4h-1.8v-1.1h1.8v-2.3h1.3v2.3h2.7v1.1h-2.7v3.9a2.2,2.2,0,0,0,.3,1.4,1.3,1.3,0,0,0,1.2.5,4.2,4.2,0,0,0,1.5-.4l.2,1.1A3.4,3.4,0,0,1,893,396.6Z"/><path d="M896.7,383.7h1.4v6.1a1.8,1.8,0,0,1,1-1.1,2.6,2.6,0,0,1,1.5-.4,3.1,3.1,0,0,1,2.2.9,3.7,3.7,0,0,1,.7,2.5v4.7h-1.3v-4.5a2.9,2.9,0,0,0-.5-1.8,1.8,1.8,0,0,0-1.4-.6,2,2,0,0,0-1.6.7,2.2,2.2,0,0,0-.6,1.9v4.3h-1.4Z"/><path d="M910.1,396.6a4,4,0,0,1-3.1-1.1,4.5,4.5,0,0,1-.7-5.1,3.2,3.2,0,0,1,1.3-1.5,4.2,4.2,0,0,1,2.1-.6,3.3,3.3,0,0,1,2.5,1.1,3.4,3.4,0,0,1,1,2.7v.8h-6.1a3,3,0,0,0,1,1.9,2.7,2.7,0,0,0,2.1.6,6,6,0,0,0,2.7-.6l.2,1.1a3.5,3.5,0,0,1-1.3.5A5,5,0,0,1,910.1,396.6Zm1.8-4.8a2.7,2.7,0,0,0-.6-1.7,2.3,2.3,0,0,0-1.7-.7,2.8,2.8,0,0,0-1.7.7,2.7,2.7,0,0,0-.8,1.7Z"/><path d="M915.7,388.6h1.2v1.3a2.9,2.9,0,0,1,1-1.2,3.2,3.2,0,0,1,1.6-.4,1.8,1.8,0,0,0,3.6.5,3.3,3.3,0,0,1,1.6-.5,2.9,2.9,0,0,1,2.2.9,3.7,3.7,0,0,1,.7,2.5v4.7h-1.2v-4.5a4.1,4.1,0,0,0-.5-1.8,2.1,2.1,0,0,0-2.9,0h-.1a2.7,2.7,0,0,0-.5,1.9v4.4H921v-4.6a2.5,2.5,0,0,0-.4-1.7,2,2,0,0,0-1.4-.6,1.7,1.7,0,0,0-1.6.7,3,3,0,0,0-.6,1.8v4.4h-1.3Z"/><path d="M455.2,466.6h4.3a8.8,8.8,0,0,1,3.3.7,5.6,5.6,0,0,1,2.2,2.1,6,6,0,0,1,.7,3.2,5.7,5.7,0,0,1-1.8,4.4,7.5,7.5,0,0,1-4.8,1.6h-3.9Zm1.4,10.7h2.7a5,5,0,0,0,3.7-1.2,5.6,5.6,0,0,0,0-7.1,5,5,0,0,0-3.7-1.2h-2.7Z"/><path d="M468.1,470.8h1.2v1.6a2.3,2.3,0,0,1,1-1.2,2.4,2.4,0,0,1,1.4-.5h.9v1.3a1.8,1.8,0,0,0-1-.2,1.7,1.7,0,0,0-1.6.7,3.3,3.3,0,0,0-.5,2.1v3.9H468Z"/><path d="M477.8,478.8a4.6,4.6,0,0,1-2-.5,3.6,3.6,0,0,1-1.5-1.5,4.3,4.3,0,0,1-.6-2.2,3.6,3.6,0,0,1,.6-2,3.4,3.4,0,0,1,1.4-1.5,4.2,4.2,0,0,1,2.1-.6,3.6,3.6,0,0,1,2.1.5,4.3,4.3,0,0,1,1.5,1.5,3.1,3.1,0,0,1,.5,2.1,3,3,0,0,1-.5,2.1,3.4,3.4,0,0,1-1.4,1.5A4.3,4.3,0,0,1,477.8,478.8Zm0-1.2a2.8,2.8,0,0,0,2-.8,3.5,3.5,0,0,0,0-4.3,2.7,2.7,0,0,0-3.9,0h0a3.5,3.5,0,0,0,0,4.3A2.7,2.7,0,0,0,477.8,477.6Z"/><path d="M484.2,470.8h1.3v1.5a3,3,0,0,1,1.2-1.3,2.8,2.8,0,0,1,1.8-.4,3.4,3.4,0,0,1,3.3,2,5.4,5.4,0,0,1,.5,2.2,4.6,4.6,0,0,1-.5,2,4.3,4.3,0,0,1-1.4,1.6,3.5,3.5,0,0,1-2,.5,2.5,2.5,0,0,1-1.7-.4,3.4,3.4,0,0,1-1.2-1.2v5.2h-1.3Zm4,6.9a3,3,0,0,0,2-.8,3.5,3.5,0,0,0,0-4.3,2.7,2.7,0,0,0-3.9,0h0a3.5,3.5,0,0,0,0,4.3,2.4,2.4,0,0,0,2,.7Z"/><path d="M496.5,478.8l-1.5-.2-1.2-.5.2-1.2a3.4,3.4,0,0,0,1.2.6l1.3.2a3.1,3.1,0,0,0,1.3-.3,1,1,0,0,0,.4-1.4h0a1.3,1.3,0,0,0-.6-.4l-1.1-.4a5.6,5.6,0,0,1-1.9-.9,2,2,0,0,1-.6-1.5,2.1,2.1,0,0,1,.8-1.7,3.4,3.4,0,0,1,2.2-.7l1.2.2a2.2,2.2,0,0,1,1.1.5l-.2,1.1a3.3,3.3,0,0,0-2.2-.6,1.7,1.7,0,0,0-1.2.2,1.2,1.2,0,0,0-.4.8.9.9,0,0,0,.4.8l1.3.5a5.1,5.1,0,0,1,2.1,1,2.2,2.2,0,0,1,0,3h0l-.2.2A3.6,3.6,0,0,1,496.5,478.8Z"/><path d="M508.9,478.8a5,5,0,0,1-2.1-.5,5.4,5.4,0,0,1-1.5-1.5,3.4,3.4,0,0,1-.5-2.2,3.9,3.9,0,0,1,2-3.5,3.7,3.7,0,0,1,2.1-.6,4.6,4.6,0,0,1,2,.5,3.6,3.6,0,0,1,1.5,1.5,4.2,4.2,0,0,1-1.4,5.7A3.9,3.9,0,0,1,508.9,478.8Zm0-1.2a3.2,3.2,0,0,0,2-.8,3.5,3.5,0,0,0,0-4.3,2.7,2.7,0,0,0-3.9,0h0a3.2,3.2,0,0,0,0,4.3A2.4,2.4,0,0,0,508.9,477.6Z"/><path d="M515.8,471.9h-1.6v-1.1h1.6v-1.2a4,4,0,0,1,.8-2.8,2.8,2.8,0,0,1,2.3-.9,4.1,4.1,0,0,1,1.6.3v1.1a3.5,3.5,0,0,0-1.4-.3,1.9,1.9,0,0,0-1.5.7,3.4,3.4,0,0,0-.4,2v1.1h2.4V472h-2.4v6.6h-1.3Z"/><path d="M522.1,471.9h-1.6v-1.1h1.6v-1.2a4,4,0,0,1,.8-2.8,2.7,2.7,0,0,1,2.3-.9,4.5,4.5,0,0,1,1.6.3v1.1a3.5,3.5,0,0,0-1.4-.3,1.8,1.8,0,0,0-1.5.7,3.4,3.4,0,0,0-.4,2v1.1h2.4V472h-2.4v6.6h-1.3Z"/><path d="M531.4,470.8h1.2v1.5a3.3,3.3,0,0,1,1.3-1.3,2.5,2.5,0,0,1,1.7-.4,3.5,3.5,0,0,1,3.3,1.9,5.9,5.9,0,0,1,.5,2.2,5.4,5.4,0,0,1-.5,2.1,4,4,0,0,1-1.4,1.5,3.6,3.6,0,0,1-2,.6,3,3,0,0,1-2.8-1.7v5.3h-1.4Zm3.9,6.9a2.8,2.8,0,0,0,2-.8,3.5,3.5,0,0,0,0-4.3,2.7,2.7,0,0,0-3.9,0h0a3.5,3.5,0,0,0,0,4.3,2.5,2.5,0,0,0,2,.7Z"/><path d="M545.1,478.8a3.5,3.5,0,0,1-3.3-2,5.4,5.4,0,0,1-.5-2.2,4.6,4.6,0,0,1,.5-2,4.1,4.1,0,0,1,1.4-1.5,3.6,3.6,0,0,1,2-.6,3.3,3.3,0,0,1,1.7.4,3.4,3.4,0,0,1,1.2,1.2v-1.3h1.3v7.8h-1.3v-1.4a3.7,3.7,0,0,1-1.2,1.3A3.8,3.8,0,0,1,545.1,478.8Zm.3-1.2a2.8,2.8,0,0,0,2-.8,3.5,3.5,0,0,0,0-4.3,2.7,2.7,0,0,0-3.9,0h0a3.5,3.5,0,0,0,0,4.3,2.8,2.8,0,0,0,2,.8Z"/><path d="M555.9,478.8a5.4,5.4,0,0,1-2.2-.5,3.4,3.4,0,0,1-1.5-1.4,4.6,4.6,0,0,1-.6-2.2,4.3,4.3,0,0,1,.6-2.2,3.2,3.2,0,0,1,1.4-1.4,4.6,4.6,0,0,1,2.3-.6l1.2.2,1.1.4-.2,1.1-1-.3-1.1-.2a3,3,0,0,0-2.9,3.2,3.3,3.3,0,0,0,.8,1.9,3.5,3.5,0,0,0,2.2.8,5.4,5.4,0,0,0,2.2-.5l.2,1.1-1.2.4Z"/><path d="M560.7,465.9H562v8l3.6-3.2h1.8l-4,3.5,4.6,4.4h-1.8l-4.1-4v4h-1.3Z"/><path d="M572.7,478.8a3.5,3.5,0,0,1-3.2-2,4.2,4.2,0,0,1-.5-2.2,4.6,4.6,0,0,1,.5-2,3.4,3.4,0,0,1,1.4-1.5,3.6,3.6,0,0,1,2-.6,2.9,2.9,0,0,1,1.6.4,2.8,2.8,0,0,1,1.2,1.2v-1.3H577v7.8h-1.3v-1.4a3,3,0,0,1-1.2,1.3A3.4,3.4,0,0,1,572.7,478.8Zm.4-1.2a3,3,0,0,0,2-.8,3.5,3.5,0,0,0,0-4.3,2.7,2.7,0,0,0-3.9,0h-.1a3.5,3.5,0,0,0,0,4.3A2.8,2.8,0,0,0,573.1,477.6Z"/><path d="M583.3,482.5a4.7,4.7,0,0,1-1.7-.2,2.1,2.1,0,0,1-1.3-.5l.2-1.1,1.3.5,1.5.2a3,3,0,0,0,2.2-.8,3.4,3.4,0,0,0,.7-2.4v-1.1a3,3,0,0,1-1.2,1.3,3.9,3.9,0,0,1-1.8.4,3.5,3.5,0,0,1-3.3-2,5.4,5.4,0,0,1-.5-2.2,4.6,4.6,0,0,1,.5-2,3.4,3.4,0,0,1,1.4-1.5,3.6,3.6,0,0,1,2-.6,3.3,3.3,0,0,1,1.7.4,3.4,3.4,0,0,1,1.2,1.2v-1.3h1.3v7.4a4.4,4.4,0,0,1-1.1,3.3A4,4,0,0,1,583.3,482.5Zm.2-4.9a2.8,2.8,0,0,0,2-.8,3.5,3.5,0,0,0,0-4.3,2.7,2.7,0,0,0-3.9,0h0a3.5,3.5,0,0,0,0,4.3,2.7,2.7,0,0,0,1.9.8Z"/><path d="M594,478.8a4,4,0,0,1-3.1-1.1,4.2,4.2,0,0,1-1.2-3,5.4,5.4,0,0,1,.5-2.2,4,4,0,0,1,1.4-1.5,4.6,4.6,0,0,1,2-.5,3.2,3.2,0,0,1,2.6,1,4.1,4.1,0,0,1,.9,2.8v.8h-6a2.5,2.5,0,0,0,.9,1.9,3.3,3.3,0,0,0,2.2.6,5.8,5.8,0,0,0,2.6-.6l.2,1.1-1.3.5Zm1.8-4.8a3,3,0,0,0-.6-1.8,2.7,2.7,0,0,0-3.4,0,3,3,0,0,0-.8,1.8Z"/><path d="M451,497.6a3.5,3.5,0,0,1-3.3-2,5,5,0,0,1-.5-2.1,4.6,4.6,0,0,1,.5-2.1,4,4,0,0,1,1.4-1.5,3.6,3.6,0,0,1,2-.6,3,3,0,0,1,2.8,1.7v-1.5h1.3v7.9h-1.3V496a2.8,2.8,0,0,1-1.2,1.2A3.3,3.3,0,0,1,451,497.6Zm.3-1.2a2.8,2.8,0,0,0,2-.8,3.5,3.5,0,0,0,0-4.3,2.7,2.7,0,0,0-3.9,0h0a3.5,3.5,0,0,0,0,4.3A2.7,2.7,0,0,0,451.3,496.4Z"/><path d="M458.1,489.5h1.3v1.4a2.3,2.3,0,0,1,1-1.2,2.9,2.9,0,0,1,1.6-.4,2.6,2.6,0,0,1,2.1.8,3.9,3.9,0,0,1,.8,2.5v4.8h-1.4v-4.5a2.7,2.7,0,0,0-.4-1.8,2,2,0,0,0-1.4-.6,2.1,2.1,0,0,0-1.7.7,3.1,3.1,0,0,0-.6,1.9v4.3h-1.3Z"/><path d="M470.9,497.6a3.5,3.5,0,0,1-3.3-2,5,5,0,0,1-.5-2.1,4.6,4.6,0,0,1,.5-2.1,4,4,0,0,1,1.4-1.5,3.6,3.6,0,0,1,2-.6,3.2,3.2,0,0,1,2.9,1.7v-6.3h1.3v12.7H474V496a3,3,0,0,1-1.3,1.2A2.8,2.8,0,0,1,470.9,497.6Zm.3-1.2a2.4,2.4,0,0,0,2-.8,3.2,3.2,0,0,0,0-4.3,2.6,2.6,0,0,0-3.8,0h-.1a3.2,3.2,0,0,0,0,4.3A2.4,2.4,0,0,0,471.2,496.4Z"/><path d="M481.6,489.5h1.2v1.7a2.2,2.2,0,0,1,1-1.3,2.4,2.4,0,0,1,1.4-.5h.9v1.3l-1-.2a1.8,1.8,0,0,0-1.5.8,2.6,2.6,0,0,0-.6,2.1v3.8h-1.3Z"/><path d="M491.6,497.6a4,4,0,0,1-4.4-4.1,5,5,0,0,1,.5-2.1,3.7,3.7,0,0,1,3.4-2.1,3.5,3.5,0,0,1,2.6,1,4.2,4.2,0,0,1,1,2.8v.9h-6.1a2.4,2.4,0,0,0,.9,1.8,3.6,3.6,0,0,0,2.2.7,6.6,6.6,0,0,0,2.7-.6V497l-1.3.5Zm1.8-4.8a2.6,2.6,0,0,0-.7-1.7,2.2,2.2,0,0,0-1.7-.7,2,2,0,0,0-1.6.7,2.3,2.3,0,0,0-.8,1.8Z"/><path d="M499.2,497.6a3.2,3.2,0,0,1-1.4-.2,4.3,4.3,0,0,1-1.2-.5l.2-1.2a2.7,2.7,0,0,0,1.2.6l1.2.2a3.2,3.2,0,0,0,1.4-.3,1,1,0,0,0,.5-.8,1.1,1.1,0,0,0-.2-.6,1,1,0,0,0-.5-.4l-1.2-.4a5,5,0,0,1-1.9-1,2,2,0,0,1-.6-1.4,2.1,2.1,0,0,1,.8-1.7,3.5,3.5,0,0,1,2.2-.6,3.2,3.2,0,0,1,1.3.2,2.5,2.5,0,0,1,1.1.4l-.3,1.1a4,4,0,0,0-2.2-.6,2,2,0,0,0-1.1.3.8.8,0,0,0-.5.7.9.9,0,0,0,.4.8,3.1,3.1,0,0,0,1.3.6,5.1,5.1,0,0,1,2.1,1,1.7,1.7,0,0,1,.6,1.5,2.1,2.1,0,0,1-.8,1.7A3.9,3.9,0,0,1,499.2,497.6Z"/><path d="M507.3,497.6a2.4,2.4,0,0,1-2.1-.8,3.7,3.7,0,0,1-.7-2.3v-5h1.3v4.6a2.7,2.7,0,0,0,.5,1.8,1.8,1.8,0,0,0,1.4.6,2.4,2.4,0,0,0,1.6-.7,3.3,3.3,0,0,0,.6-1.9v-4.3h1.3v7.8H510v-1.3a2,2,0,0,1-1.1,1.1A3.2,3.2,0,0,1,507.3,497.6Z"/><path d="M514.1,489.5h1.2v1.4a2.6,2.6,0,0,1,2.6-1.6,2.5,2.5,0,0,1,2.6,1.8,1.9,1.9,0,0,1,1-1.3,3.3,3.3,0,0,1,1.6-.5,3.1,3.1,0,0,1,2.2.9,3.7,3.7,0,0,1,.7,2.5v4.7h-1.3v-4.5a3.1,3.1,0,0,0-.5-1.8,1.7,1.7,0,0,0-1.4-.6,2.1,2.1,0,0,0-1.5.7,3.3,3.3,0,0,0-.6,1.9v4.4h-1.3V493a2.9,2.9,0,0,0-.5-1.8,1.7,1.7,0,0,0-1.4-.6,2,2,0,0,0-1.6.7,2.5,2.5,0,0,0-.5,1.9v4.3H514Z"/><path d="M532.6,497.6a4.3,4.3,0,0,1-3.2-1.1,4.1,4.1,0,0,1-1.1-3,3.8,3.8,0,0,1,.5-2.1,3.4,3.4,0,0,1,1.3-1.6,5.4,5.4,0,0,1,2.1-.5,3.3,3.3,0,0,1,2.5,1,3.7,3.7,0,0,1,1,2.8v.9h-6.1a2.5,2.5,0,0,0,1,1.8,3.3,3.3,0,0,0,2.1.7,6,6,0,0,0,2.7-.6l.2,1.1-1.3.5Zm1.8-4.8a2.2,2.2,0,0,0-.7-1.7,2,2,0,0,0-1.6-.7,2.2,2.2,0,0,0-1.7.7,2.5,2.5,0,0,0-.8,1.8Z"/><path d="M540.3,497.6a3.9,3.9,0,0,1-1.5-.2l-1.2-.5.3-1.2a2.4,2.4,0,0,0,1.1.6l1.3.2a2.8,2.8,0,0,0,1.3-.3,1,1,0,0,0,.4-1.4l-.6-.4-1.2-.4a4,4,0,0,1-1.8-1,1.6,1.6,0,0,1-.6-1.4,2.1,2.1,0,0,1,.8-1.7,3.2,3.2,0,0,1,2.1-.6,2.7,2.7,0,0,1,1.3.2,2.1,2.1,0,0,1,1.1.4l-.2,1.1a4.3,4.3,0,0,0-2.2-.6,2.7,2.7,0,0,0-1.2.3.7.7,0,0,0-.4.7.8.8,0,0,0,.3.8,3.5,3.5,0,0,0,1.4.6,6.7,6.7,0,0,1,2.1,1,2,2,0,0,1,.6,1.5,2,2,0,0,1-.9,1.7A3.8,3.8,0,0,1,540.3,497.6Z"/><path d="M547.6,501.3h-.9l-.7-.3.2-1.1a3.2,3.2,0,0,0,1.4.3,1.2,1.2,0,0,0,1.1-.5,2.3,2.3,0,0,0,.4-1.4v-8.8h1.3v8.8a3.3,3.3,0,0,1-.7,2.3A2.6,2.6,0,0,1,547.6,501.3Zm2.2-13.9-.7-.2a1,1,0,0,1,0-1.4.6.6,0,0,1,.7-.2c.2-.1.4,0,.6.2a1.2,1.2,0,0,1,0,1.4l-.6.2Z"/><path d="M556.8,497.6a3.5,3.5,0,0,1-2-.5,3.6,3.6,0,0,1-1.5-1.5,4.2,4.2,0,0,1,3.5-6.3,4,4,0,0,1,3.6,2,4.5,4.5,0,0,1,0,4.2,3.1,3.1,0,0,1-1.5,1.5A3.7,3.7,0,0,1,556.8,497.6Zm0-1.2a2.8,2.8,0,0,0,2-.8,3.5,3.5,0,0,0,0-4.3,2.4,2.4,0,0,0-2-.8,2.4,2.4,0,0,0-1.9.8,3.2,3.2,0,0,0,0,4.3A2.4,2.4,0,0,0,556.8,496.4Z"/><path d="M565.9,497.6a2.3,2.3,0,0,1-2-.8,3.2,3.2,0,0,1-.7-2.3v-5h1.3v4.6a2.7,2.7,0,0,0,.4,1.8,2,2,0,0,0,1.5.6,2.4,2.4,0,0,0,1.6-.7,3.3,3.3,0,0,0,.6-1.9v-4.3h1.3v7.8h-1.3v-1.3a1.8,1.8,0,0,1-1,1.1A3.3,3.3,0,0,1,565.9,497.6Z"/><path d="M572.7,489.5H574v1.7a2.5,2.5,0,0,1,.9-1.3,2.7,2.7,0,0,1,1.5-.5h.9l-.2,1.3-.9-.2a2.1,2.1,0,0,0-1.6.8,3.7,3.7,0,0,0-.6,2.1v3.8h-1.3Z"/><path d="M579.3,489.5h1.2v1.4a2.9,2.9,0,0,1,1-1.2,3.2,3.2,0,0,1,1.6-.4,2.9,2.9,0,0,1,2.2.8,3.8,3.8,0,0,1,.7,2.5v4.8h-1.3v-4.5a2.7,2.7,0,0,0-.4-1.8,2,2,0,0,0-1.5-.6,2,2,0,0,0-1.6.7,2.6,2.6,0,0,0-.6,1.9v4.3h-1.4Z"/><path d="M592.6,497.6a4,4,0,0,1-3.1-1.1,4.5,4.5,0,0,1-.7-5.1,3.5,3.5,0,0,1,3.4-2.1,3.3,3.3,0,0,1,2.5,1,3.7,3.7,0,0,1,1,2.8v.9h-6.1a2.5,2.5,0,0,0,1,1.8,3.3,3.3,0,0,0,2.1.7,6,6,0,0,0,2.7-.6l.2,1.1-1.3.5Zm1.8-4.8a2.2,2.2,0,0,0-.7-1.7,1.8,1.8,0,0,0-1.5-.7,2.4,2.4,0,0,0-1.7.6,2.5,2.5,0,0,0-.8,1.8Z"/><path d="M600.4,496.7l-3.3-7.1h1.4l2.6,5.8,2.6-5.8h1.4l-5.4,11.7h-1.4Z"/><path d="M161.5,425.8a7.5,7.5,0,0,1-2.1-.2,6.7,6.7,0,0,1-1.8-.7l.2-1.3a4.8,4.8,0,0,0,1.8.7,4.7,4.7,0,0,0,1.7.3,3.1,3.1,0,0,0,2.1-.6,1.9,1.9,0,0,0,.5-2.5,2.7,2.7,0,0,0-.8-.7l-1.7-.7a7.2,7.2,0,0,1-2-.9,2.9,2.9,0,0,1-1.1-1.1,3,3,0,0,1,.7-3.8,3.8,3.8,0,0,1,2.9-.9,4.7,4.7,0,0,1,1.7.2,7.6,7.6,0,0,1,1.6.6l-.2,1.3-1.5-.7-1.6-.2a3.7,3.7,0,0,0-1.8.5,1.9,1.9,0,0,0-.7,1.4,1.9,1.9,0,0,0,.3,1,1.7,1.7,0,0,0,.8.6,3.4,3.4,0,0,0,1.5.6,9.7,9.7,0,0,1,2.3,1.1,2.5,2.5,0,0,1,1.2,1.1,2.2,2.2,0,0,1,.3,1.4,3,3,0,0,1-1.1,2.6A4.6,4.6,0,0,1,161.5,425.8Z"/><path d="M169.1,415.6a.7.7,0,0,1-.6-.3.9.9,0,0,1-.3-.7.9.9,0,0,1,.3-.6.7.7,0,0,1,.6-.3,1.1,1.1,0,0,1,.7.3,1.4,1.4,0,0,1,.2.6.9.9,0,0,1-.8,1h-.1Zm-.7,2.1h1.4v7.8h-1.4Z"/><path d="M175.9,429.6l-1.8-.2-1.2-.5v-1.2l1.3.5,1.5.2a2.7,2.7,0,0,0,2.2-.8,3.2,3.2,0,0,0,.7-2.3v-1.1a3.4,3.4,0,0,1-1.2,1.2,3,3,0,0,1-1.8.4,2.6,2.6,0,0,1-1.9-.5,3.8,3.8,0,0,1-1.4-1.4,5.9,5.9,0,0,1-.5-2.2,5.4,5.4,0,0,1,.5-2.1,5,5,0,0,1,1.4-1.5,3.7,3.7,0,0,1,2.1-.6,3.4,3.4,0,0,1,2.8,1.7v-1.4h1.4v7.4a4.6,4.6,0,0,1-1.1,3.3A4,4,0,0,1,175.9,429.6Zm.2-4.9a2.5,2.5,0,0,0,2-.9,3.2,3.2,0,0,0,0-4.3,2.7,2.7,0,0,0-3.8,0h0a3.2,3.2,0,0,0,0,4.3A2.3,2.3,0,0,0,176.1,424.7Z"/><path d="M183,417.8h1.3v1.4a2,2,0,0,1,1-1.2,3,3,0,0,1,1.6-.5,2.7,2.7,0,0,1,2.1.9,3.3,3.3,0,0,1,.8,2.5v4.7h-1.3v-4.5a4.1,4.1,0,0,0-.5-1.8,1.8,1.8,0,0,0-1.4-.6,2.3,2.3,0,0,0-1.7.7,3.3,3.3,0,0,0-.6,1.9v4.3H183Z"/><path d="M193.2,415.6a.7.7,0,0,1-.6-.3.9.9,0,0,1-.3-.7.9.9,0,0,1,.3-.6c.1-.2.4-.2.6-.2a.9.9,0,0,1,.9.9,1,1,0,0,1-.8,1h-.1Zm-.7,2.1h1.4v7.8h-1.3Z"/><path d="M197.2,418.9h-1.6v-1.1h1.6v-1.3a3.8,3.8,0,0,1,.8-2.7,2.9,2.9,0,0,1,2.3-1,5.1,5.1,0,0,1,1.7.3l-.2,1.2a3.2,3.2,0,0,0-1.4-.3,1.5,1.5,0,0,0-1.4.6,4.1,4.1,0,0,0-.5,2.1v1.1H201v1.1h-2.5v6.7h-1.3Z"/><path d="M203.6,415.6a.9.9,0,0,1-.9-.9h0a1.1,1.1,0,0,1,.9-.9.9.9,0,0,1,.7.3,1.1,1.1,0,0,1,.2.6.6.6,0,0,1-.2.7Zm-.6,2.1h1.3v7.8H203Z"/><path d="M210.8,425.8a4.4,4.4,0,0,1-2.2-.5,4,4,0,0,1-1.5-1.4,3.4,3.4,0,0,1-.5-2.2,3.8,3.8,0,0,1,.5-2.1,3.1,3.1,0,0,1,1.5-1.5,3.4,3.4,0,0,1,2.2-.5H212l1.1.4-.2,1.2-1-.4h-1.1a2.7,2.7,0,0,0-2.1.7,3.5,3.5,0,0,0,0,4.3,2.7,2.7,0,0,0,2.2.8,5.4,5.4,0,0,0,2.2-.5l.2,1.1-1.2.5Z"/><path d="M218.8,425.8a2.6,2.6,0,0,1-1.9-.5,3.2,3.2,0,0,1-1.4-1.4,5.9,5.9,0,0,1-.5-2.2,5.4,5.4,0,0,1,.5-2.1,4,4,0,0,1,1.4-1.5,3.6,3.6,0,0,1,2-.6,3.4,3.4,0,0,1,1.7.5,3.4,3.4,0,0,1,1.2,1.2v-1.4h1.3v7.8h-1.3v-1.4a3.4,3.4,0,0,1-1.2,1.2A3,3,0,0,1,218.8,425.8Zm.3-1.1a2.5,2.5,0,0,0,2-.9,3.5,3.5,0,0,0,0-4.3,2.9,2.9,0,0,0-3.9,0h0a3.5,3.5,0,0,0,0,4.3,2.5,2.5,0,0,0,2,.9Z"/><path d="M225.9,417.8h1.3v1.4a2.4,2.4,0,0,1,1-1.2,3,3,0,0,1,1.6-.5,2.7,2.7,0,0,1,2.1.9,3.3,3.3,0,0,1,.8,2.5v4.7h-1.3v-4.5a3.1,3.1,0,0,0-.5-1.8,1.8,1.8,0,0,0-1.4-.6,2,2,0,0,0-1.6.7,2.8,2.8,0,0,0-.7,1.9v4.3h-1.3Z"/><path d="M238.6,425.8a2,2,0,0,1-1.9-.7,3.4,3.4,0,0,1-.7-2.2v-4h-1.8v-1.1H236v-2.2h1.4v2.2h2.7V419h-2.7v3.9a1.7,1.7,0,0,0,.3,1.4,1.7,1.7,0,0,0,1.2.5,4.2,4.2,0,0,0,1.5-.4l.2,1.1A3.4,3.4,0,0,1,238.6,425.8Z"/><path d="M242.4,412.9h1.4v12.7h-1.4Z"/><path d="M248.8,425l-3.4-7.2h1.5l2.6,5.8,2.5-5.8h1.4l-5.3,11.7h-1.5Z"/><path d="M258.7,412.9H260v12.7h-1.3Z"/><path d="M266.4,425.8a4,4,0,0,1-3.6-1.9,5.9,5.9,0,0,1-.5-2.2,4.1,4.1,0,0,1,4.1-4.2,4.6,4.6,0,0,1,2,.5,3.6,3.6,0,0,1,1.5,1.5,4.3,4.3,0,0,1,.6,2.2,5,5,0,0,1-2,3.6A3.1,3.1,0,0,1,266.4,425.8Zm0-1.1a2.7,2.7,0,0,0,2-.9,3.5,3.5,0,0,0,0-4.3,2.9,2.9,0,0,0-3.9,0h0a3.5,3.5,0,0,0,0,4.3,2.5,2.5,0,0,0,1.9.9Z"/><path d="M272.7,417.8H274v1.4a2,2,0,0,1,1-1.2,3,3,0,0,1,1.6-.5,2.7,2.7,0,0,1,2.1.9,3.8,3.8,0,0,1,.8,2.5v4.7h-1.3v-4.5a4.1,4.1,0,0,0-.5-1.8,2,2,0,0,0-1.4-.6,2.1,2.1,0,0,0-1.7.7,3.3,3.3,0,0,0-.6,1.9v4.3h-1.3Z"/><path d="M285.6,429.6l-1.7-.2-1.2-.5.2-1.2,1.2.5,1.5.2a2.7,2.7,0,0,0,2.2-.8,3.2,3.2,0,0,0,.8-2.3v-1.1a3.7,3.7,0,0,1-1.3,1.2,2.7,2.7,0,0,1-1.8.4,2.7,2.7,0,0,1-1.9-.5,3.5,3.5,0,0,1-1.3-1.4,4.4,4.4,0,0,1-.5-2.2,4.1,4.1,0,0,1,.5-2.1,4,4,0,0,1,1.4-1.5,3.6,3.6,0,0,1,2-.6,3,3,0,0,1,1.6.5,2.8,2.8,0,0,1,1.2,1.2v-1.4h1.3v7.4a4.6,4.6,0,0,1-1.1,3.3A3.9,3.9,0,0,1,285.6,429.6Zm.3-4.9a2.7,2.7,0,0,0,2-.9,3.5,3.5,0,0,0,0-4.3,2.9,2.9,0,0,0-3.9,0h0a3.5,3.5,0,0,0,0,4.3A2.5,2.5,0,0,0,285.9,424.7Z"/><path d="M296.5,425.8a4.2,4.2,0,0,1-3.2-1.1,5,5,0,0,1-.7-5.1,3.4,3.4,0,0,1,1.4-1.5,3.7,3.7,0,0,1,2.1-.6,3.4,3.4,0,0,1,2.5,1.1,4.2,4.2,0,0,1,1,2.8v.7h-6.1a2.8,2.8,0,0,0,.9,1.9,3.4,3.4,0,0,0,2.2.7,6.8,6.8,0,0,0,2.7-.7v1.2l-1.3.5A4.3,4.3,0,0,1,296.5,425.8Zm1.8-4.7a2.4,2.4,0,0,0-.7-1.8,2.1,2.1,0,0,0-1.7-.7,2,2,0,0,0-1.6.7,2.5,2.5,0,0,0-.8,1.8Z"/><path d="M302,417.8h1.3v1.6a3.8,3.8,0,0,1,.9-1.3,2.8,2.8,0,0,1,1.5-.4h.9V419l-1-.2a2.1,2.1,0,0,0-1.6.8,3.1,3.1,0,0,0-.5,2.1v3.8H302Z"/><path d="M178.9,444.7l-1.4-.2a3.4,3.4,0,0,1-1.2-.6l.2-1.1a4.3,4.3,0,0,0,1.2.5,2.7,2.7,0,0,0,1.2.3,2.3,2.3,0,0,0,1.4-.4,1,1,0,0,0,.3-1.4,1,1,0,0,0-.5-.4l-1.2-.4a6.6,6.6,0,0,1-1.9-.9,1.7,1.7,0,0,1-.5-1.5,1.8,1.8,0,0,1,.8-1.7,3.7,3.7,0,0,1,2.1-.6l1.3.2a2.7,2.7,0,0,1,1.1.5l-.3,1.1a4,4,0,0,0-2.1-.7,2.4,2.4,0,0,0-1.2.3.9.9,0,0,0-.3,1.3l.3.3,1.3.5a5.1,5.1,0,0,1,2.1,1,2.2,2.2,0,0,1,.6,1.5,1.9,1.9,0,0,1-.9,1.7A4,4,0,0,1,178.9,444.7Z"/><path d="M187.7,444.7a2.7,2.7,0,0,1-2-.7,3.2,3.2,0,0,1-.6-2.3v-4h-1.8v-1.1h1.8v-2.3h1.3v2.3h2.8v1.1h-2.8v3.9a2.8,2.8,0,0,0,.4,1.5,1.2,1.2,0,0,0,1.1.4,3.2,3.2,0,0,0,1.6-.4v1.1A4.5,4.5,0,0,1,187.7,444.7Z"/><path d="M195,444.7a3.9,3.9,0,0,1-2.1-.6,4,4,0,0,1-1.5-1.4,5.4,5.4,0,0,1-.5-2.2,4.1,4.1,0,0,1,.5-2.1,3.6,3.6,0,0,1,1.5-1.5,3.7,3.7,0,0,1,2.1-.6,4.2,4.2,0,0,1,3.5,2,4.3,4.3,0,0,1,.6,2.2,5.4,5.4,0,0,1-.5,2.1,4.2,4.2,0,0,1-3.6,2.1Zm0-1.2a2.8,2.8,0,0,0,2-.9,3.3,3.3,0,0,0,0-4.2,2.7,2.7,0,0,0-3.9,0h0a3.1,3.1,0,0,0,0,4.2A2.2,2.2,0,0,0,195,443.5Z"/><path d="M201.4,436.6h1.2v1.5a3.7,3.7,0,0,1,1.2-1.3,4.1,4.1,0,0,1,1.8-.5,3.1,3.1,0,0,1,1.9.6,3.2,3.2,0,0,1,1.4,1.4,5.4,5.4,0,0,1,.5,2.2,5.4,5.4,0,0,1-.5,2.1,4,4,0,0,1-1.4,1.5,3.6,3.6,0,0,1-2,.6,3.4,3.4,0,0,1-1.7-.5,3.4,3.4,0,0,1-1.2-1.2v5.3h-1.3Zm3.9,6.9a2.5,2.5,0,0,0,2-.9,3.3,3.3,0,0,0,0-4.2,2.7,2.7,0,0,0-3.9,0h0a3.3,3.3,0,0,0,0,4.2,2.5,2.5,0,0,0,2,.9Z"/><path d="M218.5,444.7a3.7,3.7,0,0,1-3.3-2,5.4,5.4,0,0,1-.5-2.2,4.6,4.6,0,0,1,.5-2,3.8,3.8,0,0,1,3.4-2.2,3.4,3.4,0,0,1,1.7.5,3.4,3.4,0,0,1,1.2,1.2v-6.3h1.3v12.7h-1.3V443a3.4,3.4,0,0,1-1.2,1.2A3.1,3.1,0,0,1,218.5,444.7Zm.3-1.2a2.5,2.5,0,0,0,2-.9,3.3,3.3,0,0,0,0-4.2,2.7,2.7,0,0,0-3.9,0h0a3.3,3.3,0,0,0,0,4.2A2.5,2.5,0,0,0,218.8,443.5Z"/><path d="M228.3,444.7a3,3,0,0,1-2-.8,3.3,3.3,0,0,1-.7-2.3v-5h1.3v4.6a3,3,0,0,0,.4,1.8,1.7,1.7,0,0,0,1.5.5,2,2,0,0,0,1.6-.7,3.1,3.1,0,0,0,.6-1.9v-4.3h1.4v7.8h-1.3v-1.3a2.3,2.3,0,0,1-1,1.2A3.7,3.7,0,0,1,228.3,444.7Z"/><path d="M235.1,436.6h1.3v1.6a3.8,3.8,0,0,1,.9-1.3,2.6,2.6,0,0,1,1.5-.4h.9v1.2l-1-.2a2.1,2.1,0,0,0-1.6.8,3.9,3.9,0,0,0-.6,2.1v3.9h-1.3Z"/><path d="M244.6,444.7a3.7,3.7,0,0,1-3.3-2,5.4,5.4,0,0,1-.5-2.2,4.6,4.6,0,0,1,.5-2,3.8,3.8,0,0,1,3.4-2.2,3.4,3.4,0,0,1,2.9,1.7v-1.4h1.3v7.8h-1.3V443a3.7,3.7,0,0,1-1.3,1.2A3.4,3.4,0,0,1,244.6,444.7Zm.3-1.2a2.5,2.5,0,0,0,2-.9,3.3,3.3,0,0,0,0-4.2,2.7,2.7,0,0,0-3.9,0h0a3.3,3.3,0,0,0,0,4.2,2.5,2.5,0,0,0,1.9.9Z"/><path d="M254.9,444.7a2.9,2.9,0,0,1-2-.7,3.8,3.8,0,0,1-.6-2.3v-4h-1.8v-1.1h1.8v-2.3h1.3v2.3h2.8v1.1h-2.8v3.9a2.8,2.8,0,0,0,.4,1.5,1.2,1.2,0,0,0,1.1.4,2.9,2.9,0,0,0,1.6-.4v1.1A4.1,4.1,0,0,1,254.9,444.7Z"/><path d="M259.2,434.5a.9.9,0,0,1-.6-.3.9.9,0,0,1,0-1.3.9.9,0,0,1,.6-.3.9.9,0,0,1,.7.3,1.1,1.1,0,0,1,0,1.3A.9.9,0,0,1,259.2,434.5Zm-.6,2.1h1.3v7.8h-1.3Z"/><path d="M266.2,444.7a3.6,3.6,0,0,1-2-.6,2.9,2.9,0,0,1-1.5-1.4,4.3,4.3,0,0,1-.6-2.2,3.9,3.9,0,0,1,2-3.6,3.9,3.9,0,0,1,2.1-.6,4.3,4.3,0,0,1,3.6,2,4.7,4.7,0,0,1,0,4.3,5.4,5.4,0,0,1-1.5,1.5A3.7,3.7,0,0,1,266.2,444.7Zm0-1.2a2.5,2.5,0,0,0,2-.9,3.3,3.3,0,0,0,0-4.2,2.7,2.7,0,0,0-3.9-.1h0a3.1,3.1,0,0,0,0,4.2A2.5,2.5,0,0,0,266.2,443.5Z"/><path d="M272.7,436.6h1.2v1.3a2.5,2.5,0,0,1,1.1-1.2,3.8,3.8,0,0,1,1.6-.4,2.7,2.7,0,0,1,2.1.9,3.8,3.8,0,0,1,.8,2.5v4.7H278v-4.5a3,3,0,0,0-.4-1.8,2,2,0,0,0-1.4-.6,2.4,2.4,0,0,0-1.7.7,3.3,3.3,0,0,0-.6,1.9v4.4h-1.2Z"/><path d="M284.1,444.7l-1.4-.2a3.4,3.4,0,0,1-1.2-.6l.2-1.1a4.3,4.3,0,0,0,1.2.5,2.7,2.7,0,0,0,1.2.3,2.3,2.3,0,0,0,1.4-.4,1,1,0,0,0,.3-1.4,1,1,0,0,0-.5-.4l-1.2-.4a6.6,6.6,0,0,1-1.9-.9,2,2,0,0,1-.6-1.5,2.3,2.3,0,0,1,.8-1.7,4.3,4.3,0,0,1,2.2-.6l1.3.2a2.7,2.7,0,0,1,1.1.5l-.3,1.1a4,4,0,0,0-2.1-.7,2.1,2.1,0,0,0-1.2.3.9.9,0,0,0-.3,1.3l.3.3,1.3.5a5.8,5.8,0,0,1,2.1,1,2.2,2.2,0,0,1,.6,1.5,1.9,1.9,0,0,1-.9,1.7A4,4,0,0,1,284.1,444.7Z"/><path class="c" d="M924.6,201.9c2.1-3.4,4.1-7.1,6.1-10.9s3.5-7.3,4.9-10.7"/><path class="c" d="M982.8,157.8a105.7,105.7,0,0,0,9.9-9,114.5,114.5,0,0,0,9.7-11.2"/><path class="c" d="M403.9,268.7l-.6-21c0-2.3-.1-5.2-.2-7.5"/><path class="c" d="M407.1,204.7c.4-5.6.8-11.4,1-17.4.1-2.9.2-5.7.2-8.5"/><path class="c" d="M215.1,520.7a430.4,430.4,0,0,0,1.7-44c0-7.1-.2-14.1-.6-20.8"/><path class="c" d="M202.8,347.9a150.2,150.2,0,0,0,4.3,53.8"/><path class="g" d="M326.2,309.4q14.7-.4,30-.6c10.5-.1,20.9-.1,31.1,0"/><path class="g" d="M455.7,310.2a717.6,717.6,0,0,0,89.2-.8c15.5-1.2,34.3-3.1,58.6,2.4a137.3,137.3,0,0,1,34.8,12.9c19.3,10.4,30.3,22.8,36.7,29.3,26.7,27.4,39,21.2,103.8,63.5,38,24.8,57,37.4,55,49.5-3.4,20.6-60.6,28.7-69,29.9-46.3,6.6-77.2-5.3-92.9,13.4a35.5,35.5,0,0,0-7.4,18.4,182.6,182.6,0,0,0-164.8-3.2"/><polygon class="h" points="498.9 520.1 493 529 503.6 529.6 498.9 520.1"/><circle class="i" cx="905.7" cy="290.4" r="8.8"/><line class="i" x1="898.5" y1="295.5" x2="896.9" y2="320.5"/><line class="i" x1="910.4" y1="297.9" x2="912.3" y2="321.5"/><line class="i" x1="896.9" y1="320.5" x2="912.3" y2="321.5"/><path class="i" d="M925,307.8l-13.7-5"/><line class="i" x1="898.9" y1="320.6" x2="898" y2="336"/><line class="i" x1="909.7" y1="321.4" x2="910.7" y2="335.5"/><path class="i" d="M919.5,313.7A34.4,34.4,0,0,1,898.1,303"/><path class="j" d="M805.3,530c-8.5-10.7-21.3-15.7-45.2-15.1-15.8.4-31.7,11.7-35.6,15.1,9.3-23.5,30.6-16.1,55.1-22.1,41.5-10.2,78.4-9.1,82.4-27.5,4.9-22.8-36.9-50.7-58-64.7-6.9-4.6-10.3-6.4-56.2-29.3-57-28.5-76.8-38.3-79.4-56.2-.2-1-1.8-13.1,4.9-18.4,9.2-7.4,28.7,3.1,33.5,5.5,19.4,9.6,62.6,16.2,168.4,1.1"/><polygon class="k" points="874.2 323.8 882.7 317.3 872.8 313.3 874.2 323.8"/><rect class="b" x="1002.4" y="263" width="146.6" height="73.6"/><line class="b" x1="1002.4" y1="263" x2="1075.7" y2="223.9"/><line class="b" x1="1149" y1="263" x2="1075.7" y2="223.9"/><line class="b" x1="1128.9" y1="252.3" x2="1128.9" y2="231.8"/><line class="b" x1="1115" y1="244.9" x2="1115" y2="231.8"/><line class="b" x1="1128.9" y1="231.8" x2="1115" y2="231.8"/><circle cx="664.3" cy="528.2" r="2.5"/><circle cx="724.6" cy="530" r="2.5"/></svg>