<svg xmlns="http://www.w3.org/2000/svg" viewBox="0 0 1298.3 730.3"><defs><style>.a{fill:#fff;}.b,.c{fill:none;stroke:#000;stroke-miterlimit:10;}.b{stroke-width:1.62px;}.c{stroke-width:1.62px;}</style></defs><title>Asset 6</title><rect class="a" width="1298.3" height="730.27"/><path d="M124.5,267.9h1.7l3.6,12.5,3.7-12.3h1.8l3.6,12.2,3.6-12.4h1.7l-4.4,14.3H138L134.3,270l-3.6,12.2h-1.9Z"/><path d="M146.4,267H148v7.3a3.5,3.5,0,0,1,1.3-1.4,3.4,3.4,0,0,1,1.8-.4,3.3,3.3,0,0,1,2.6,1,4.5,4.5,0,0,1,.9,3v5.7H153v-5.4a3.4,3.4,0,0,0-.6-2.2,1.8,1.8,0,0,0-1.7-.7,2.4,2.4,0,0,0-1.9.8,3.4,3.4,0,0,0-.8,2.3v5.2h-1.6Z"/><path d="M161.8,282.5a3.7,3.7,0,0,1-2.3-.7,4.6,4.6,0,0,1-1.7-1.7,5.8,5.8,0,0,1-.6-2.6,5.4,5.4,0,0,1,.6-2.5,4.9,4.9,0,0,1,1.7-1.8,4.2,4.2,0,0,1,2.4-.7,3.3,3.3,0,0,1,2,.5,3.4,3.4,0,0,1,1.4,1.5v-1.7h1.5v9.4h-1.5v-1.7a4,4,0,0,1-1.4,1.5A5.4,5.4,0,0,1,161.8,282.5Zm.4-1.5a2.9,2.9,0,0,0,2.3-1,3.6,3.6,0,0,0,1-2.5,3.8,3.8,0,0,0-1-2.6,2.9,2.9,0,0,0-2.3-1,3,3,0,0,0-2.4,1,3.7,3.7,0,0,0-.9,2.6,3.5,3.5,0,0,0,.9,2.5A3,3,0,0,0,162.2,281Z"/><path d="M174.1,282.5a3,3,0,0,1-2.4-.9,4,4,0,0,1-.7-2.7v-4.8h-2.2v-1.3H171v-2.7h1.6v2.7h3.2v1.3h-3.2v4.7a2.5,2.5,0,0,0,.4,1.7,1.4,1.4,0,0,0,1.3.6,4.5,4.5,0,0,0,1.9-.5l.2,1.3A4.1,4.1,0,0,1,174.1,282.5Z"/><path d="M185,282.5l-1.7-.3a3.7,3.7,0,0,1-1.4-.6l.2-1.4a6.1,6.1,0,0,0,1.4.7l1.5.2a4,4,0,0,0,1.7-.3,1.2,1.2,0,0,0,.6-1,1.9,1.9,0,0,0-.2-.8l-.7-.4a3.8,3.8,0,0,0-1.4-.5,4.9,4.9,0,0,1-2.3-1.2,2.4,2.4,0,0,1-.6-1.7,2.5,2.5,0,0,1,.9-2,4,4,0,0,1,2.6-.7,3.9,3.9,0,0,1,1.5.2,3.2,3.2,0,0,1,1.3.5l-.2,1.4a5,5,0,0,0-2.6-.8,2.8,2.8,0,0,0-1.5.3,1.4,1.4,0,0,0-.5,1,1,1,0,0,0,.4.9l1.6.7a4.8,4.8,0,0,1,2.5,1.2,2.2,2.2,0,0,1,.8,1.8,2.4,2.4,0,0,1-1.1,2A4.7,4.7,0,0,1,185,282.5Z"/><path d="M195.7,282.5a4.5,4.5,0,0,1-2.5-.7,4.4,4.4,0,0,1-2.4-4.3,5.4,5.4,0,0,1,.6-2.5,4.2,4.2,0,0,1,1.7-1.8,4.6,4.6,0,0,1,2.6-.7,4.8,4.8,0,0,1,2.4.6,3.9,3.9,0,0,1,1.8,1.8,4.4,4.4,0,0,1,.7,2.6,4.8,4.8,0,0,1-.6,2.4,5.5,5.5,0,0,1-1.8,1.9A5.2,5.2,0,0,1,195.7,282.5Zm0-1.5a2.9,2.9,0,0,0,2.3-1,3.2,3.2,0,0,0,1-2.5,3.4,3.4,0,0,0-1-2.6,2.9,2.9,0,0,0-2.3-1,3,3,0,0,0-2.4,1,3.7,3.7,0,0,0-.9,2.6,3.5,3.5,0,0,0,.9,2.5A3,3,0,0,0,195.7,281Z"/><path d="M203.3,267h1.6v15.2h-1.6Z"/><path d="M211.5,282.5a3.3,3.3,0,0,1-2.4-1,3.9,3.9,0,0,1-.9-2.8v-5.9h1.6v5.5a2.9,2.9,0,0,0,.6,2.1,2.1,2.1,0,0,0,1.7.7,2.3,2.3,0,0,0,1.9-.9,3.1,3.1,0,0,0,.7-2.2v-5.2h1.6v9.4h-1.5v-1.6a3.5,3.5,0,0,1-1.3,1.4A3.9,3.9,0,0,1,211.5,282.5Z"/><path d="M223.4,282.5a2.9,2.9,0,0,1-2.3-.9,4,4,0,0,1-.8-2.7v-4.8h-2.1v-1.3h2.1v-2.7h1.6v2.7h3.3v1.3h-3.3v4.7a2.5,2.5,0,0,0,.5,1.7,1.4,1.4,0,0,0,1.3.6,4.9,4.9,0,0,0,1.9-.5l.2,1.3A4.3,4.3,0,0,1,223.4,282.5Z"/><path d="M228.7,270.3a.9.9,0,0,1-.8-.4,1,1,0,0,1-.3-.8,1.1,1.1,0,1,1,2.2,0,1,1,0,0,1-.3.8A.9.9,0,0,1,228.7,270.3Zm-.8,2.5h1.6v9.4h-1.6Z"/><path d="M237.2,282.5a4.3,4.3,0,0,1-2.5-.7,4.4,4.4,0,0,1-2.4-4.3,5.4,5.4,0,0,1,.6-2.5,4.2,4.2,0,0,1,1.7-1.8,4.6,4.6,0,0,1,2.6-.7,4.8,4.8,0,0,1,2.4.6,3.9,3.9,0,0,1,1.8,1.8,4.4,4.4,0,0,1,.7,2.6,4.8,4.8,0,0,1-.6,2.4,5.5,5.5,0,0,1-1.8,1.9A5.2,5.2,0,0,1,237.2,282.5Zm0-1.5a2.9,2.9,0,0,0,2.3-1,3.2,3.2,0,0,0,1-2.5,3.4,3.4,0,0,0-1-2.6,2.9,2.9,0,0,0-2.3-1,3,3,0,0,0-2.4,1,3.7,3.7,0,0,0-.9,2.6,3.5,3.5,0,0,0,.9,2.5A3,3,0,0,0,237.2,281Z"/><path d="M244.8,272.8h1.5v1.6a2.9,2.9,0,0,1,1.3-1.4,2.9,2.9,0,0,1,1.9-.5,3,3,0,0,1,2.5,1,4.5,4.5,0,0,1,1,3v5.7h-1.6v-5.4a3.4,3.4,0,0,0-.6-2.2,1.9,1.9,0,0,0-1.7-.7,2.8,2.8,0,0,0-2,.8,3.9,3.9,0,0,0-.7,2.3v5.2h-1.6Z"/><path d="M258.5,282.5l-1.7-.3a3.7,3.7,0,0,1-1.4-.6l.2-1.4a6.1,6.1,0,0,0,1.4.7l1.5.2a4,4,0,0,0,1.7-.3,1.2,1.2,0,0,0,.6-1,1.9,1.9,0,0,0-.2-.8l-.7-.4a3.8,3.8,0,0,0-1.4-.5,4.9,4.9,0,0,1-2.3-1.2,2.4,2.4,0,0,1-.6-1.7,2.5,2.5,0,0,1,.9-2,4,4,0,0,1,2.6-.7,3.9,3.9,0,0,1,1.5.2,3.2,3.2,0,0,1,1.3.5l-.2,1.4a5,5,0,0,0-2.6-.8,2.8,2.8,0,0,0-1.5.3,1.4,1.4,0,0,0-.5,1,1,1,0,0,0,.4.9l1.6.7a4.8,4.8,0,0,1,2.5,1.2,2.2,2.2,0,0,1,.8,1.8,2.4,2.4,0,0,1-1.1,2A4.7,4.7,0,0,1,258.5,282.5Z"/><path d="M273,282.5a3.9,3.9,0,0,1-2.3-.7,4.4,4.4,0,0,1-1.6-1.7,5.8,5.8,0,0,1-.6-2.6,5.4,5.4,0,0,1,.6-2.5,4.2,4.2,0,0,1,1.7-1.8,4,4,0,0,1,2.4-.7,3.2,3.2,0,0,1,1.9.5,4.3,4.3,0,0,1,1.5,1.5V267h1.6v15.2h-1.6v-1.7a5.4,5.4,0,0,1-1.5,1.5A4.6,4.6,0,0,1,273,282.5Zm.4-1.5a3,3,0,0,0,2.4-1,3.5,3.5,0,0,0,.9-2.5,3.7,3.7,0,0,0-.9-2.6,3,3,0,0,0-2.4-1,3.1,3.1,0,0,0-2.4,1,3.7,3.7,0,0,0-.9,2.6,3.5,3.5,0,0,0,.9,2.5A3.1,3.1,0,0,0,273.4,281Z"/><path d="M285.8,282.5a4,4,0,0,1-2.4-.7,4.2,4.2,0,0,1-1.8-1.7,4.8,4.8,0,0,1-.7-2.6,5.4,5.4,0,0,1,.6-2.5,3.9,3.9,0,0,1,1.8-1.8,4.3,4.3,0,0,1,2.5-.7,5.4,5.4,0,0,1,2.5.6,5.2,5.2,0,0,1,1.8,1.8,5.3,5.3,0,0,1,.6,2.6,4.8,4.8,0,0,1-.6,2.4,5.2,5.2,0,0,1-1.7,1.9A5.6,5.6,0,0,1,285.8,282.5Zm0-1.5a3,3,0,0,0,2.4-1,3.5,3.5,0,0,0,.9-2.5,3.7,3.7,0,0,0-.9-2.6,3,3,0,0,0-2.4-1,2.9,2.9,0,0,0-2.3,1,3.4,3.4,0,0,0-1,2.6,3.2,3.2,0,0,0,1,2.5A2.9,2.9,0,0,0,285.8,281Z"/><path d="M296.5,272.8h1.6l2.4,7.7,2.4-7.7h1.4l2.5,7.7,2.4-7.7h1.6l-3.3,9.4h-1.4l-2.5-7.6-2.4,7.6h-1.5Z"/><path d="M317.3,282.5a5.4,5.4,0,0,1-3.8-1.4,4.9,4.9,0,0,1-1.4-3.6,5.1,5.1,0,0,1,.6-2.5,4.4,4.4,0,0,1,1.7-1.9,4.8,4.8,0,0,1,2.4-.6,3.9,3.9,0,0,1,3.1,1.3,4.4,4.4,0,0,1,1.1,3.3v.9h-7.3a3.6,3.6,0,0,0,1.1,2.3,4.2,4.2,0,0,0,2.6.7,7.1,7.1,0,0,0,3.2-.7l.2,1.3a3.4,3.4,0,0,1-1.5.6A6.9,6.9,0,0,1,317.3,282.5Zm2.2-5.8a2.9,2.9,0,0,0-.8-2.1,2.6,2.6,0,0,0-2-.8,2.8,2.8,0,0,0-2,.8,3.5,3.5,0,0,0-1,2.1Z"/><path d="M330.5,282.5a5.7,5.7,0,0,1-1.8-.3,3.7,3.7,0,0,1-1.4-.6l.2-1.4a6.1,6.1,0,0,0,1.4.7l1.6.2a3.5,3.5,0,0,0,1.6-.3,1.2,1.2,0,0,0,.6-1,1.9,1.9,0,0,0-.2-.8l-.7-.4a3.8,3.8,0,0,0-1.4-.5,4.9,4.9,0,0,1-2.3-1.2,2.4,2.4,0,0,1-.6-1.7,2.5,2.5,0,0,1,.9-2,4,4,0,0,1,2.6-.7,3.9,3.9,0,0,1,1.5.2,3.2,3.2,0,0,1,1.3.5l-.2,1.4a5,5,0,0,0-2.6-.8,3.1,3.1,0,0,0-1.5.3,1.4,1.4,0,0,0-.5,1,1.3,1.3,0,0,0,.4.9l1.6.7a5.7,5.7,0,0,1,2.6,1.2,2.5,2.5,0,0,1,.7,1.8,2.4,2.4,0,0,1-1.1,2A4.6,4.6,0,0,1,330.5,282.5Z"/><path d="M341.4,282.5a5.2,5.2,0,0,1-3.8-1.4,4.5,4.5,0,0,1-1.4-3.6,6.6,6.6,0,0,1,.5-2.5,5.2,5.2,0,0,1,1.7-1.9,4.8,4.8,0,0,1,2.4-.6,3.9,3.9,0,0,1,3.1,1.3,4.5,4.5,0,0,1,1.2,3.3v.4c0,.2-.1.3-.1.5h-7.3a3.7,3.7,0,0,0,1.2,2.3,3.9,3.9,0,0,0,2.5.7,7.8,7.8,0,0,0,3.3-.7l.2,1.3a4.4,4.4,0,0,1-1.6.6A6.3,6.3,0,0,1,341.4,282.5Zm2.1-5.8a2.9,2.9,0,0,0-.8-2.1,2.6,2.6,0,0,0-2-.8,2.8,2.8,0,0,0-2,.8,3.4,3.4,0,0,0-.9,2.1Z"/><path d="M352.8,282.5a5.2,5.2,0,0,1-3.8-1.4,4.9,4.9,0,0,1-1.4-3.6,5.1,5.1,0,0,1,.6-2.5,4.9,4.9,0,0,1,1.6-1.9,4.9,4.9,0,0,1,2.5-.6,3.7,3.7,0,0,1,3,1.3,4.5,4.5,0,0,1,1.2,3.3v.9h-7.3a3.6,3.6,0,0,0,1.1,2.3,4,4,0,0,0,2.6.7,7.1,7.1,0,0,0,3.2-.7l.2,1.3a3.4,3.4,0,0,1-1.6.6A5.8,5.8,0,0,1,352.8,282.5Zm2.2-5.8a3.3,3.3,0,0,0-.8-2.1,2.9,2.9,0,0,0-4,0,3,3,0,0,0-1,2.1Z"/><path d="M130.1,314a6,6,0,0,1-2.7-.6,3.7,3.7,0,0,1-1.8-1.7,5.3,5.3,0,0,1-.6-2.6,5.5,5.5,0,0,1,.6-2.6,4.6,4.6,0,0,1,1.7-1.7,5,5,0,0,1,2.7-.7l1.5.2,1.3.5-.2,1.4-1.2-.5-1.4-.2a3.3,3.3,0,0,0-2.5,1,3.5,3.5,0,0,0-.9,2.5,3.6,3.6,0,0,0,.9,2.6,3.9,3.9,0,0,0,2.7,1,5.4,5.4,0,0,0,2.6-.7l.2,1.4a4.6,4.6,0,0,1-1.4.5Z"/><path d="M140,314a5.4,5.4,0,0,1-2.5-.6,5.2,5.2,0,0,1-1.8-1.8,5.3,5.3,0,0,1-.6-2.6,5,5,0,0,1,.6-2.4,4.7,4.7,0,0,1,1.8-1.9,5.2,5.2,0,0,1,2.5-.7,5.5,5.5,0,0,1,2.5.7,5.2,5.2,0,0,1,1.8,6.8,3.9,3.9,0,0,1-1.8,1.8A4.3,4.3,0,0,1,140,314Zm0-1.4a3,3,0,0,0,2.4-1,3.6,3.6,0,0,0,.9-2.6,3.5,3.5,0,0,0-.9-2.5,3.4,3.4,0,0,0-4.8,0,3.5,3.5,0,0,0-.9,2.5,3.6,3.6,0,0,0,.9,2.6A3,3,0,0,0,140,312.6Z"/><path d="M147.6,304.3h1.5V306a2.4,2.4,0,0,1,1.2-1.4,2.8,2.8,0,0,1,1.8-.6,2.9,2.9,0,0,1,3.1,2.2,3.4,3.4,0,0,1,1.3-1.6,3.1,3.1,0,0,1,1.9-.6,3.2,3.2,0,0,1,2.6,1.1,4.5,4.5,0,0,1,.9,3v5.6h-1.6v-5.4a3.8,3.8,0,0,0-.5-2.1,2.1,2.1,0,0,0-1.7-.7,2.2,2.2,0,0,0-1.9.8,3.7,3.7,0,0,0-.7,2.3v5.1H154v-5.4a3.1,3.1,0,0,0-.5-2.1,1.9,1.9,0,0,0-1.7-.7,2.2,2.2,0,0,0-1.9.8,3.6,3.6,0,0,0-.7,2.2v5.2h-1.6Z"/><path d="M166.1,301.8a1.1,1.1,0,0,1,0-2.2,1.1,1.1,0,1,1,0,2.2Zm-.8,2.5h1.6v9.4h-1.6Z"/><path d="M170.3,304.3h1.5V306a2.9,2.9,0,0,1,1.3-1.4,3.1,3.1,0,0,1,1.9-.6,3.5,3.5,0,0,1,2.6,1.1,4.5,4.5,0,0,1,.9,3v5.6h-1.6v-5.4a3.1,3.1,0,0,0-.6-2.1,1.9,1.9,0,0,0-1.7-.7,2.4,2.4,0,0,0-2,.8,3.7,3.7,0,0,0-.7,2.3v5.1h-1.6Z"/><path d="M185.7,318.5l-2-.2-1.5-.6.2-1.5a5.2,5.2,0,0,0,1.5.7l1.8.2a3.7,3.7,0,0,0,2.7-.9,4.4,4.4,0,0,0,.8-2.8V312a2.8,2.8,0,0,1-1.5,1.5,3.6,3.6,0,0,1-2.1.5,4.6,4.6,0,0,1-2.3-.6,5.2,5.2,0,0,1-1.6-1.7,6,6,0,0,1-.6-2.7,5.3,5.3,0,0,1,.6-2.4,4.2,4.2,0,0,1,1.7-1.8,4.1,4.1,0,0,1,2.4-.8,3.6,3.6,0,0,1,2,.6,2.9,2.9,0,0,1,1.4,1.5v-1.8h1.5v8.9a5.5,5.5,0,0,1-1.3,4A4.9,4.9,0,0,1,185.7,318.5Zm.3-5.9a3,3,0,0,0,2.4-1,3.6,3.6,0,0,0,.9-2.6,3.5,3.5,0,0,0-.9-2.5,3,3,0,0,0-2.4-1,2.9,2.9,0,0,0-2.3,1,3.5,3.5,0,0,0-.9,2.5,3.6,3.6,0,0,0,.9,2.6A2.9,2.9,0,0,0,186,312.6Z"/><path d="M201.7,314a3.3,3.3,0,0,1-2.5-.9,4.1,4.1,0,0,1-.8-2.8v-6H200v5.6a3.1,3.1,0,0,0,.5,2.1,2.1,2.1,0,0,0,1.7.6,2.1,2.1,0,0,0,1.9-.8,3.2,3.2,0,0,0,.7-2.3v-5.2h1.6v9.4h-1.5v-1.6a3.3,3.3,0,0,1-1.2,1.4A3.5,3.5,0,0,1,201.7,314Z"/><path d="M209.8,304.3h1.5v1.9a3.6,3.6,0,0,1,1.4-1.6,4.3,4.3,0,0,1,2.2-.6,4.8,4.8,0,0,1,2.3.7,4.4,4.4,0,0,1,1.6,1.7,5.8,5.8,0,0,1,.6,2.6,5.4,5.4,0,0,1-.6,2.5,3.7,3.7,0,0,1-1.7,1.8,4,4,0,0,1-2.4.7,3.5,3.5,0,0,1-2-.5,3.8,3.8,0,0,1-1.4-1.4v6.2h-1.6Zm4.8,8.3a3.1,3.1,0,0,0,2.4-1,3.6,3.6,0,0,0,.9-2.6,3.5,3.5,0,0,0-.9-2.5,3.1,3.1,0,0,0-2.4-1,3,3,0,0,0-2.4,1,3.5,3.5,0,0,0-.9,2.5,3.6,3.6,0,0,0,.9,2.6A3,3,0,0,0,214.6,312.6Z"/><path d="M223.5,309.2v-.7a7.7,7.7,0,0,1,.2-1.5,4.1,4.1,0,0,1,.7-1.1l.8-.9.9-.9a2,2,0,0,0,.6-.9,1.7,1.7,0,0,0,.3-1,1.8,1.8,0,0,0-.7-1.5,2.9,2.9,0,0,0-1.7-.5,4.3,4.3,0,0,0-3.4,1.7l-.4-1.4a4.5,4.5,0,0,1,1.7-1.3,5.9,5.9,0,0,1,2.3-.5,4.5,4.5,0,0,1,2.8,1,3.2,3.2,0,0,1,1,2.5,5.9,5.9,0,0,1-.2,1.4,6.1,6.1,0,0,1-.7,1l-.9.9-.9,1a3.6,3.6,0,0,0-.7,1,2.7,2.7,0,0,0-.2,1.3v.4Zm.7,4.7a1.8,1.8,0,0,1-.9-.4,1.2,1.2,0,0,1-.3-.9,1.1,1.1,0,0,1,.3-.8,1.2,1.2,0,0,1,.9-.4,1,1,0,0,1,.9.4,1.1,1.1,0,0,1,.3.8,1.2,1.2,0,0,1-.3.9A1.3,1.3,0,0,1,224.2,313.9Z"/><path d="M238.3,299.5H240l3.7,12.5,3.6-12.3h1.8l3.6,12.2,3.6-12.4H258l-4.4,14.2h-1.8l-3.7-12.1-3.6,12.1h-1.8Z"/><path d="M260.3,298.5h1.6v7.3a2.5,2.5,0,0,1,1.2-1.3,3.5,3.5,0,0,1,1.8-.5,3.3,3.3,0,0,1,2.6,1.1,4.5,4.5,0,0,1,.9,3v5.6h-1.6v-5.4a3.1,3.1,0,0,0-.6-2.1,1.8,1.8,0,0,0-1.7-.7,2.1,2.1,0,0,0-1.9.8,3.2,3.2,0,0,0-.7,2.3v5.1h-1.6Z"/><path d="M275.6,314a4.3,4.3,0,0,1-3.9-2.3,6,6,0,0,1-.6-2.7,6.9,6.9,0,0,1,.5-2.4,4.2,4.2,0,0,1,1.7-1.8,4.6,4.6,0,0,1,2.5-.8,3.3,3.3,0,0,1,1.9.6,3.6,3.6,0,0,1,1.5,1.5v-1.8h1.6v9.4h-1.6V312a3.6,3.6,0,0,1-1.5,1.5A3.6,3.6,0,0,1,275.6,314Zm.4-1.4a2.9,2.9,0,0,0,2.3-1,3.3,3.3,0,0,0,1-2.6,3.2,3.2,0,0,0-1-2.5,2.9,2.9,0,0,0-2.3-1,3,3,0,0,0-2.4,1,3.5,3.5,0,0,0-.9,2.5,3.6,3.6,0,0,0,.9,2.6A3,3,0,0,0,276,312.6Z"/><path d="M287.9,314a2.9,2.9,0,0,1-2.4-.8,4.1,4.1,0,0,1-.7-2.7v-4.8h-2.2v-1.4h2.2v-2.7h1.6v2.7h3.3v1.4h-3.3v4.7a2.5,2.5,0,0,0,.4,1.7,1.6,1.6,0,0,0,1.4.6,4.1,4.1,0,0,0,1.8-.5l.2,1.3A4.1,4.1,0,0,1,287.9,314Z"/><path d="M300.4,314a4,4,0,0,1-2.2-.6,4.6,4.6,0,0,1-1.7-1.7,6,6,0,0,1-.6-2.7,5.3,5.3,0,0,1,.6-2.4,4.2,4.2,0,0,1,1.7-1.8,4.1,4.1,0,0,1,2.4-.8,3.6,3.6,0,0,1,2,.6,2.9,2.9,0,0,1,1.4,1.5v-1.8h1.5v9.4h-1.5V312a2.8,2.8,0,0,1-1.5,1.5A3.6,3.6,0,0,1,300.4,314Zm.4-1.4a3,3,0,0,0,2.4-1,3.6,3.6,0,0,0,.9-2.6,3.5,3.5,0,0,0-.9-2.5,3,3,0,0,0-2.4-1,2.9,2.9,0,0,0-2.3,1,3.5,3.5,0,0,0-.9,2.5,3.6,3.6,0,0,0,.9,2.6A2.9,2.9,0,0,0,300.8,312.6Z"/><path d="M309,304.3h1.5v2a3.1,3.1,0,0,1,1.2-1.5,2.5,2.5,0,0,1,1.7-.6h1.1l-.2,1.5-1.1-.2a2.2,2.2,0,0,0-1.9.9,3.9,3.9,0,0,0-.7,2.5v4.6H309Z"/><path d="M321,314a5.2,5.2,0,0,1-3.8-1.3,4.9,4.9,0,0,1-1.4-3.6,5.5,5.5,0,0,1,.6-2.6,5.5,5.5,0,0,1,1.6-1.8,4.9,4.9,0,0,1,2.5-.7,4.2,4.2,0,0,1,3,1.3,4.9,4.9,0,0,1,1.2,3.4v.9h-7.3a3.3,3.3,0,0,0,1.1,2.2,3.5,3.5,0,0,0,2.6.8,6.1,6.1,0,0,0,3.2-.8l.2,1.4a3.8,3.8,0,0,1-1.6.6A5.8,5.8,0,0,1,321,314Zm2.2-5.7a4,4,0,0,0-.8-2.1,2.9,2.9,0,0,0-4,0,3,3,0,0,0-1,2.1Z"/><path d="M335.6,314a2.9,2.9,0,0,1-2.4-.8,4.1,4.1,0,0,1-.7-2.7v-4.8h-2.2v-1.4h2.2v-2.7h1.6v2.7h3.3v1.4h-3.3v4.7a2.5,2.5,0,0,0,.4,1.7,1.6,1.6,0,0,0,1.4.6,4.1,4.1,0,0,0,1.8-.5l.2,1.3A4.1,4.1,0,0,1,335.6,314Z"/><path d="M340.1,298.5h1.6v7.3a3,3,0,0,1,1.2-1.3,3.5,3.5,0,0,1,1.8-.5,3.3,3.3,0,0,1,2.6,1.1,4.5,4.5,0,0,1,.9,3v5.6h-1.6v-5.4a3.8,3.8,0,0,0-.5-2.1,2.1,2.1,0,0,0-1.7-.7,2.3,2.3,0,0,0-2,.8,3.2,3.2,0,0,0-.7,2.3v5.1h-1.6Z"/><path d="M356.1,314a5.2,5.2,0,0,1-3.8-1.3,4.5,4.5,0,0,1-1.4-3.6,7.1,7.1,0,0,1,.5-2.6,5.8,5.8,0,0,1,1.7-1.8,4.8,4.8,0,0,1,2.4-.7,4.2,4.2,0,0,1,3.1,1.3,4.9,4.9,0,0,1,1.2,3.4v.4a.9.9,0,0,1-.1.5h-7.2a3,3,0,0,0,1.1,2.2,3.5,3.5,0,0,0,2.6.8,6.3,6.3,0,0,0,3.2-.8l.2,1.4a4.4,4.4,0,0,1-1.6.6A6.2,6.2,0,0,1,356.1,314Zm2.1-5.7a2.9,2.9,0,0,0-.8-2.1,2.5,2.5,0,0,0-2-.8,3,3,0,0,0-2,.8,3.4,3.4,0,0,0-.9,2.1Z"/><path d="M125.6,335.9h1.5v1.6a4.1,4.1,0,0,1,1.2-1.4,4.1,4.1,0,0,1,1.9-.5,3,3,0,0,1,3.1,2.1,2.9,2.9,0,0,1,1.2-1.5,3.6,3.6,0,0,1,2-.6,3.3,3.3,0,0,1,2.6,1.1,4.4,4.4,0,0,1,.9,2.9v5.7h-1.6v-5.4a3.4,3.4,0,0,0-.6-2.2,2.1,2.1,0,0,0-1.7-.7,2,2,0,0,0-1.8.9,3.1,3.1,0,0,0-.7,2.2v5.2H132v-5.4a4.2,4.2,0,0,0-.5-2.2,2.5,2.5,0,0,0-3.6.1,3.3,3.3,0,0,0-.7,2.3v5.2h-1.6Z"/><path d="M147.2,345.6a4.4,4.4,0,0,1-2.3-.6,4,4,0,0,1-1.6-1.8,4.4,4.4,0,0,1-.7-2.6,4.8,4.8,0,0,1,.6-2.4,5.2,5.2,0,0,1,1.7-1.9,5.1,5.1,0,0,1,2.4-.7,4.2,4.2,0,0,1,2,.5,4,4,0,0,1,1.4,1.5v-1.7h1.5v9.4h-1.5v-1.7a2.9,2.9,0,0,1-1.4,1.5A5,5,0,0,1,147.2,345.6Zm.4-1.4a2.9,2.9,0,0,0,2.3-1,3.4,3.4,0,0,0,1-2.6,3.5,3.5,0,0,0-1-2.6,3.2,3.2,0,0,0-2.3-.9,3.2,3.2,0,0,0-2.4.9,3.9,3.9,0,0,0-.9,2.6,3.7,3.7,0,0,0,.9,2.6A3,3,0,0,0,147.6,344.2Z"/><path d="M154,350.1h-1.1l-.8-.3v-1.4a3.9,3.9,0,0,0,1.8.4,1.7,1.7,0,0,0,1.3-.5,2.9,2.9,0,0,0,.4-1.7V335.9h1.6v10.5a4.4,4.4,0,0,1-.8,2.8A3.3,3.3,0,0,1,154,350.1Zm2.5-16.7a1,1,0,1,1,.8-.3A1.1,1.1,0,0,1,156.5,333.4Z"/><path d="M165,345.6a5.1,5.1,0,0,1-2.5-.6,4.5,4.5,0,0,1-1.8-1.8,5.6,5.6,0,0,1-.7-2.6,5.5,5.5,0,0,1,.7-2.5,5.8,5.8,0,0,1,1.7-1.8,5.6,5.6,0,0,1,2.6-.7,4,4,0,0,1,2.4.7,4.2,4.2,0,0,1,1.8,1.7,4.8,4.8,0,0,1,.7,2.6,5.4,5.4,0,0,1-.6,2.5,5.2,5.2,0,0,1-1.8,1.8A4.5,4.5,0,0,1,165,345.6Zm0-1.4a2.9,2.9,0,0,0,2.3-1,3.8,3.8,0,0,0,1-2.6,4,4,0,0,0-1-2.6,3.2,3.2,0,0,0-2.3-.9,3.2,3.2,0,0,0-2.4.9,3.9,3.9,0,0,0-.9,2.6,3.7,3.7,0,0,0,.9,2.6A3,3,0,0,0,165,344.2Z"/><path d="M172.6,335.9h1.5v2a4,4,0,0,1,1.2-1.6,3.1,3.1,0,0,1,1.7-.5h1.1l-.2,1.5-1.1-.2a2.2,2.2,0,0,0-1.9.9,3.7,3.7,0,0,0-.7,2.5v4.6h-1.6Z"/><path d="M189.1,345.6a5.3,5.3,0,0,1-2.6-.6,4.2,4.2,0,0,1-1.8-1.7,4.6,4.6,0,0,1-.7-2.6,5.5,5.5,0,0,1,.6-2.6,5.2,5.2,0,0,1,1.8-1.8,6,6,0,0,1,2.7-.6,3.9,3.9,0,0,1,1.5.2l1.3.5-.2,1.3-1.3-.4-1.3-.2a3.2,3.2,0,0,0-2.5,1,3.4,3.4,0,0,0-1,2.5,3.6,3.6,0,0,0,1,2.6,3.6,3.6,0,0,0,2.6.9,7.4,7.4,0,0,0,2.7-.6l.2,1.3a5.9,5.9,0,0,1-1.4.6Z"/><path d="M198,345.6a3,3,0,0,1-2.4-1,3.7,3.7,0,0,1-.9-2.7v-6h1.6v5.5a3.4,3.4,0,0,0,.6,2.2,2.1,2.1,0,0,0,1.7.6,2.6,2.6,0,0,0,1.9-.8,3.3,3.3,0,0,0,.7-2.3v-5.2h1.6v9.4h-1.5v-1.6a2.9,2.9,0,0,1-1.3,1.4A3.1,3.1,0,0,1,198,345.6Z"/><path d="M206.2,335.9h1.5v2a4,4,0,0,1,1.2-1.6,3.1,3.1,0,0,1,1.7-.5h1.1l-.2,1.5-1.1-.2a2.2,2.2,0,0,0-1.9.9,3.7,3.7,0,0,0-.7,2.5v4.6h-1.6Z"/><path d="M214,335.9h1.5v2a3.1,3.1,0,0,1,1.1-1.6,3.4,3.4,0,0,1,1.7-.5h1.1l-.2,1.5-1.1-.2a2.3,2.3,0,0,0-1.9.9,4.4,4.4,0,0,0-.7,2.5v4.6H214Z"/><path d="M226,345.6a5.3,5.3,0,0,1-3.8-1.3,4.9,4.9,0,0,1-1.4-3.6,5.5,5.5,0,0,1,.6-2.6,4,4,0,0,1,1.6-1.8,4.5,4.5,0,0,1,2.5-.7,3.9,3.9,0,0,1,3.1,1.3,5.2,5.2,0,0,1,1.1,3.3v.9h-7.3a3.4,3.4,0,0,0,1.1,2.3,4.2,4.2,0,0,0,2.6.8,7.2,7.2,0,0,0,3.2-.8l.2,1.4-1.5.6Zm2.2-5.7a3.6,3.6,0,0,0-.8-2.2,2.7,2.7,0,0,0-2-.7,2.4,2.4,0,0,0-2,.8,3.5,3.5,0,0,0-1,2.1Z"/><path d="M232.6,335.9h1.5v1.7a2.6,2.6,0,0,1,1.2-1.5,3.8,3.8,0,0,1,1.9-.5,3.3,3.3,0,0,1,2.6,1.1,4.4,4.4,0,0,1,.9,2.9v5.7h-1.6v-5.4a3.4,3.4,0,0,0-.6-2.2,2.1,2.1,0,0,0-1.7-.7,2.2,2.2,0,0,0-1.9.9,3.1,3.1,0,0,0-.8,2.2v5.2h-1.6Z"/><path d="M247.8,345.6a3.2,3.2,0,0,1-2.3-.8,4.1,4.1,0,0,1-.8-2.7v-4.8h-2.1v-1.4h2.1v-2.7h1.6v2.7h3.3v1.4h-3.3V342a2.6,2.6,0,0,0,.5,1.7,1.6,1.6,0,0,0,1.3.5,3.6,3.6,0,0,0,1.9-.5l.2,1.4A5.4,5.4,0,0,1,247.8,345.6Z"/><path d="M256.6,335.9h1.5v2a3.1,3.1,0,0,1,1.1-1.6,3.4,3.4,0,0,1,1.7-.5H262v1.5l-1.2-.2a2.3,2.3,0,0,0-1.9.9,4.4,4.4,0,0,0-.6,2.5v4.6h-1.6Z"/><path d="M268.3,345.6a5.4,5.4,0,0,1-2.5-.6,5.2,5.2,0,0,1-1.8-1.8,5.5,5.5,0,0,1-.6-2.6,5.4,5.4,0,0,1,.6-2.5,5.8,5.8,0,0,1,1.7-1.8,5.6,5.6,0,0,1,2.6-.7,4,4,0,0,1,2.4.7,4.2,4.2,0,0,1,1.8,1.7,4.8,4.8,0,0,1,.7,2.6,5.4,5.4,0,0,1-.6,2.5,4.5,4.5,0,0,1-1.8,1.8A4.3,4.3,0,0,1,268.3,345.6Zm0-1.4a2.9,2.9,0,0,0,2.3-1,3.4,3.4,0,0,0,1-2.6,3.5,3.5,0,0,0-1-2.6,3.2,3.2,0,0,0-2.3-.9,3.2,3.2,0,0,0-2.4.9,3.9,3.9,0,0,0-.9,2.6,3.7,3.7,0,0,0,.9,2.6A3,3,0,0,0,268.3,344.2Z"/><path d="M280,345.6a4.4,4.4,0,0,1-2.3-.6,4,4,0,0,1-1.6-1.8,5.3,5.3,0,0,1-.6-2.6,6,6,0,0,1,.5-2.4,5.2,5.2,0,0,1,1.7-1.9,5.5,5.5,0,0,1,2.5-.7,4.1,4.1,0,0,1,1.9.5,4,4,0,0,1,1.4,1.5v-1.7h1.5v9.4h-1.5v-1.7a2.9,2.9,0,0,1-1.4,1.5A4.6,4.6,0,0,1,280,345.6Zm.4-1.4a2.9,2.9,0,0,0,2.3-1,3.4,3.4,0,0,0,1-2.6,3.5,3.5,0,0,0-1-2.6,3.2,3.2,0,0,0-2.3-.9,3.2,3.2,0,0,0-2.4.9,3.9,3.9,0,0,0-.9,2.6,3.7,3.7,0,0,0,.9,2.6A3,3,0,0,0,280.4,344.2Z"/><path d="M292.4,345.6a4.4,4.4,0,0,1-2.3-.6,4,4,0,0,1-1.6-1.8,5.3,5.3,0,0,1-.6-2.6,4.8,4.8,0,0,1,.6-2.4,4.9,4.9,0,0,1,1.6-1.9,5.5,5.5,0,0,1,2.5-.7,4.1,4.1,0,0,1,1.9.5,5.4,5.4,0,0,1,1.5,1.5v-7.5h1.6v15.2H296v-1.7a3.6,3.6,0,0,1-1.5,1.5A4.6,4.6,0,0,1,292.4,345.6Zm.4-1.4a3.1,3.1,0,0,0,2.4-1,3.7,3.7,0,0,0,.9-2.6,3.9,3.9,0,0,0-.9-2.6,3.4,3.4,0,0,0-2.4-.9,3.2,3.2,0,0,0-2.4.9,3.9,3.9,0,0,0-.9,2.6,3.7,3.7,0,0,0,.9,2.6A3,3,0,0,0,292.8,344.2Z"/><path d="M305.9,345.6a4.6,4.6,0,0,1-2-.5,6.7,6.7,0,0,1-1.4-1.5v1.7h-1.6V330.1h1.6v7.5a5.4,5.4,0,0,1,1.5-1.5,4.6,4.6,0,0,1,2.1-.5,4.4,4.4,0,0,1,2.3.6A4.6,4.6,0,0,1,310,338a5.5,5.5,0,0,1,.6,2.6,5.4,5.4,0,0,1-.6,2.5,4.4,4.4,0,0,1-4.1,2.5Zm-.2-1.4a3,3,0,0,0,2.4-1,3.7,3.7,0,0,0,.9-2.6,3.9,3.9,0,0,0-.9-2.6,3.2,3.2,0,0,0-2.4-.9,3.6,3.6,0,0,0-2.4.9,3.9,3.9,0,0,0-.9,2.6,3.7,3.7,0,0,0,.9,2.6A3.3,3.3,0,0,0,305.7,344.2Z"/><path d="M313.4,330.1H315v15.2h-1.6Z"/><path d="M322.6,345.6a5.4,5.4,0,0,1-2.5-.6,5.2,5.2,0,0,1-1.8-1.8,5.5,5.5,0,0,1-.6-2.6,5.4,5.4,0,0,1,.6-2.5,5.1,5.1,0,0,1,4.3-2.5,4.5,4.5,0,0,1,2.5.7,4.4,4.4,0,0,1,2.4,4.3,5.4,5.4,0,0,1-.6,2.5,4.5,4.5,0,0,1-1.8,1.8A4.3,4.3,0,0,1,322.6,345.6Zm0-1.4a3,3,0,0,0,2.4-1,3.7,3.7,0,0,0,.9-2.6,3.9,3.9,0,0,0-.9-2.6,3.6,3.6,0,0,0-4.8,0,3.9,3.9,0,0,0-.9,2.6,3.7,3.7,0,0,0,.9,2.6A3,3,0,0,0,322.6,344.2Z"/><path d="M334.9,345.6a6,6,0,0,1-2.7-.6,5.8,5.8,0,0,1-1.8-1.7,5.9,5.9,0,0,1,0-5.2,5.2,5.2,0,0,1,1.8-1.8,5.4,5.4,0,0,1,2.7-.6,3.4,3.4,0,0,1,1.4.2l1.3.5-.2,1.3-1.2-.4-1.3-.2a3.4,3.4,0,0,0-3.5,3.5,3.3,3.3,0,0,0,1,2.6,3.6,3.6,0,0,0,2.6.9,6.5,6.5,0,0,0,2.6-.6l.2,1.3a5.2,5.2,0,0,1-1.3.6Z"/><path d="M340.6,330.1h1.6v9.6l4.3-3.8h2l-4.8,4.2,5.6,5.2h-2.2l-4.9-4.7v4.7h-1.6Z"/><path d="M353.4,345.6l-1.7-.2a3.7,3.7,0,0,1-1.4-.7l.2-1.4a6.1,6.1,0,0,0,1.4.7,4,4,0,0,0,1.5.3,2.9,2.9,0,0,0,1.7-.4,1.2,1.2,0,0,0,.5-1,.8.8,0,0,0-.2-.7c-.1-.2-.3-.3-.6-.5l-1.4-.5a6.1,6.1,0,0,1-2.3-1.1,2.4,2.4,0,0,1-.7-1.7,2.5,2.5,0,0,1,1-2,4,4,0,0,1,2.6-.8l1.5.2a3.9,3.9,0,0,1,1.3.6l-.3,1.3a4.6,4.6,0,0,0-2.6-.7,2.6,2.6,0,0,0-1.4.3.9.9,0,0,0-.5.9,1,1,0,0,0,.4.9,3.4,3.4,0,0,0,1.6.7,8.3,8.3,0,0,1,2.5,1.2,2.3,2.3,0,0,1,.8,1.8,2.3,2.3,0,0,1-1.1,2A4.1,4.1,0,0,1,353.4,345.6Z"/><path d="M124.4,367.5H126l2.4,7.7,2.4-7.7h1.4l2.5,7.7,2.5-7.7h1.5l-3.2,9.4H134l-2.5-7.6-2.4,7.6h-1.4Z"/><path d="M140.9,361.7h1.6V369a3,3,0,0,1,1.2-1.3,4.1,4.1,0,0,1,1.9-.5,3,3,0,0,1,2.5,1,4.5,4.5,0,0,1,.9,3v5.7h-1.6v-5.4a3.4,3.4,0,0,0-.5-2.2,2.1,2.1,0,0,0-1.7-.7,2.6,2.6,0,0,0-2,.8,3.3,3.3,0,0,0-.7,2.3v5.2h-1.6Z"/><path d="M153.1,365a.9.9,0,0,1-.7-.3,1.3,1.3,0,0,1-.3-.8,1.4,1.4,0,0,1,.3-.9.9.9,0,0,1,.7-.3,1,1,0,0,1,.8.3,1.4,1.4,0,0,1,.3.9,1.3,1.3,0,0,1-.3.8A1,1,0,0,1,153.1,365Zm-.7,2.5H154v9.4h-1.6Z"/><path d="M161.8,377.1a7.6,7.6,0,0,1-2.7-.5,5.8,5.8,0,0,1-1.8-1.7,5.5,5.5,0,0,1-.6-2.6,5.3,5.3,0,0,1,.6-2.6,3.9,3.9,0,0,1,1.8-1.8,5.4,5.4,0,0,1,2.7-.6h1.4l1.4.5-.3,1.4-1.2-.4a3.2,3.2,0,0,0-1.3-.2,3.3,3.3,0,0,0-2.5.9,3.9,3.9,0,0,0,0,5.2,3.6,3.6,0,0,0,2.6.9,7.4,7.4,0,0,0,2.7-.6v1.3l-1.3.5A4.7,4.7,0,0,1,161.8,377.1Z"/><path d="M167.5,361.7h1.6V369a2.2,2.2,0,0,1,1.2-1.3,3.5,3.5,0,0,1,1.8-.5,3.3,3.3,0,0,1,2.6,1,4.5,4.5,0,0,1,.9,3v5.7H174v-5.4a3.4,3.4,0,0,0-.6-2.2,1.8,1.8,0,0,0-1.7-.7,2.4,2.4,0,0,0-1.9.8,3.3,3.3,0,0,0-.7,2.3v5.2h-1.6Z"/><path d="M186.9,377.2a3,3,0,0,1-2.4-.9,3.7,3.7,0,0,1-.7-2.6v-4.8h-2.2v-1.4h2.2v-2.7h1.6v2.7h3.3v1.4h-3.3v4.6a3,3,0,0,0,.4,1.8,1.8,1.8,0,0,0,1.4.5,4.1,4.1,0,0,0,1.8-.5l.2,1.3A4.1,4.1,0,0,1,186.9,377.2Z"/><path d="M191.4,361.7H193V369a2.5,2.5,0,0,1,1.2-1.3,3.5,3.5,0,0,1,1.8-.5,3.3,3.3,0,0,1,2.6,1,4.5,4.5,0,0,1,.9,3v5.7h-1.6v-5.4a4.2,4.2,0,0,0-.5-2.2,2.1,2.1,0,0,0-1.7-.7,2.6,2.6,0,0,0-2,.8,3.3,3.3,0,0,0-.7,2.3v5.2h-1.6Z"/><path d="M207.4,377.2a5.6,5.6,0,0,1-3.8-1.3,4.6,4.6,0,0,1-1.4-3.7,6.6,6.6,0,0,1,.5-2.5,4.2,4.2,0,0,1,1.7-1.8,4,4,0,0,1,2.4-.7,3.9,3.9,0,0,1,3.1,1.3,4.5,4.5,0,0,1,1.2,3.3v.5a.6.6,0,0,1-.1.4h-7.2a3.2,3.2,0,0,0,1.1,2.3,4,4,0,0,0,2.6.8,7.6,7.6,0,0,0,3.2-.8l.2,1.3-1.6.7Zm2.1-5.8a2.9,2.9,0,0,0-.8-2.1,2.4,2.4,0,0,0-2-.7,2.9,2.9,0,0,0-2,.7,3.4,3.4,0,0,0-.9,2.1Z"/><path d="M216.7,376.1l-4-8.6h1.7l3.2,6.9,3-6.9h1.7l-6.5,14h-1.7Z"/><path d="M232.4,377.2a4.6,4.6,0,0,1-2.3-.6,4.7,4.7,0,0,1-1.6-1.8,5.5,5.5,0,0,1-.6-2.6,5.4,5.4,0,0,1,.6-2.5,5.8,5.8,0,0,1,1.7-1.8,4,4,0,0,1,2.4-.7,4.6,4.6,0,0,1,2,.5,5,5,0,0,1,1.4,1.5v-1.7h1.6v9.4H236v-1.7a4.3,4.3,0,0,1-1.5,1.5A4.6,4.6,0,0,1,232.4,377.2Zm.4-1.4a3.3,3.3,0,0,0,2.4-1,3.9,3.9,0,0,0,.9-2.6,3.7,3.7,0,0,0-.9-2.6,3.3,3.3,0,0,0-2.4-1,3.3,3.3,0,0,0-2.3,1,3.8,3.8,0,0,0-1,2.6,4,4,0,0,0,1,2.6A3.3,3.3,0,0,0,232.8,375.8Z"/><path d="M241,367.5h1.5v2a4,4,0,0,1,1.2-1.6,2.5,2.5,0,0,1,1.7-.5h.6l.5.2-.2,1.5a2.2,2.2,0,0,0-1.1-.2,2.2,2.2,0,0,0-1.9.9,3.7,3.7,0,0,0-.7,2.5v4.6H241Z"/><path d="M253,377.2a5.6,5.6,0,0,1-3.8-1.3,5,5,0,0,1-1.4-3.7,5.1,5.1,0,0,1,.6-2.5,3.5,3.5,0,0,1,1.6-1.8,4,4,0,0,1,2.4-.7,3.9,3.9,0,0,1,3.1,1.3,4.5,4.5,0,0,1,1.2,3.3v.9h-7.3a3.6,3.6,0,0,0,1.1,2.3,4,4,0,0,0,2.6.8,7.6,7.6,0,0,0,3.2-.8l.2,1.3a5.9,5.9,0,0,1-1.6.7Zm2.1-5.8a2.9,2.9,0,0,0-.8-2.1,2.4,2.4,0,0,0-2-.7,2.9,2.9,0,0,0-2,.7,3.4,3.4,0,0,0-.9,2.1Z"/><path d="M264.4,368.9h-1.9v-1.4h1.9V366a5.4,5.4,0,0,1,1-3.3,3.6,3.6,0,0,1,2.8-1.1,3.8,3.8,0,0,1,1.9.4v1.3a5.1,5.1,0,0,0-1.7-.3,1.8,1.8,0,0,0-1.7.7,4.2,4.2,0,0,0-.6,2.5v1.3h3v1.4h-3v8h-1.6Z"/><path d="M274.8,377.2a4,4,0,0,1-2.2-.6,4.2,4.2,0,0,1-1.7-1.8,5.5,5.5,0,0,1-.6-2.6,5.4,5.4,0,0,1,.6-2.5,5.8,5.8,0,0,1,1.7-1.8,4,4,0,0,1,2.4-.7,4.6,4.6,0,0,1,2,.5,4,4,0,0,1,1.4,1.5v-1.7H280v9.4h-1.5v-1.7a3.6,3.6,0,0,1-1.5,1.5A4.6,4.6,0,0,1,274.8,377.2Zm.4-1.4a3.3,3.3,0,0,0,2.4-1,3.9,3.9,0,0,0,.9-2.6,3.7,3.7,0,0,0-.9-2.6,3.3,3.3,0,0,0-2.4-1,3.3,3.3,0,0,0-2.3,1,3.7,3.7,0,0,0-.9,2.6,3.9,3.9,0,0,0,.9,2.6A3.3,3.3,0,0,0,275.2,375.8Z"/><path d="M287.9,377.1a7.2,7.2,0,0,1-2.7-.5,4.2,4.2,0,0,1-1.8-1.7,5.6,5.6,0,0,1-.7-2.6,4.4,4.4,0,0,1,.7-2.6,4.2,4.2,0,0,1,1.7-1.8,6,6,0,0,1,2.7-.6h1.5l1.3.5-.2,1.4-1.3-.4a3,3,0,0,0-1.3-.2,3.7,3.7,0,0,0-2.5.9,3.5,3.5,0,0,0,2.6,6.1,6.6,6.6,0,0,0,2.7-.6l.2,1.3-1.4.5A3.9,3.9,0,0,1,287.9,377.1Z"/><path d="M294.3,365a1.1,1.1,0,0,1-.8-.3,1.3,1.3,0,0,1-.3-.8,1.4,1.4,0,0,1,.3-.9,1.2,1.2,0,0,1,1.6,0,1.4,1.4,0,0,1,.3.9,1.3,1.3,0,0,1-.3.8A1.1,1.1,0,0,1,294.3,365Zm-.8,2.5h1.6v9.4h-1.6Z"/><path d="M298.5,367.5H300v1.6a3.3,3.3,0,0,1,1.2-1.4,4.2,4.2,0,0,1,2-.5,3,3,0,0,1,2.5,1,4.5,4.5,0,0,1,.9,3v5.7H305v-5.4a3.4,3.4,0,0,0-.5-2.2,2.1,2.1,0,0,0-1.7-.7,2.6,2.6,0,0,0-2,.8,3.3,3.3,0,0,0-.7,2.3v5.2h-1.6Z"/><path d="M313.9,381.7a6.4,6.4,0,0,1-2-.3,2.6,2.6,0,0,1-1.5-.6l.2-1.4a3.4,3.4,0,0,0,1.5.6,5.7,5.7,0,0,0,1.8.3,3.3,3.3,0,0,0,2.6-1,3.8,3.8,0,0,0,.9-2.8v-1.3a5.4,5.4,0,0,1-1.5,1.5,4.7,4.7,0,0,1-4.4-.1,4,4,0,0,1-1.6-1.8,5.5,5.5,0,0,1-.6-2.6,5.4,5.4,0,0,1,.6-2.5,4.8,4.8,0,0,1,1.7-1.8,4,4,0,0,1,2.4-.7,4.6,4.6,0,0,1,2,.5,5,5,0,0,1,1.4,1.5v-1.7H319v8.8a5.4,5.4,0,0,1-1.3,4A5.1,5.1,0,0,1,313.9,381.7Zm.3-5.9a3.3,3.3,0,0,0,2.4-1,3.9,3.9,0,0,0,.9-2.6,3.7,3.7,0,0,0-.9-2.6,3.3,3.3,0,0,0-2.4-1,3.3,3.3,0,0,0-2.3,1,3.4,3.4,0,0,0-1,2.6,3.5,3.5,0,0,0,1,2.6A3.3,3.3,0,0,0,314.2,375.8Z"/><path d="M323.7,372.3c0-.1-.1-.2-.1-.3v-.3a3.3,3.3,0,0,1,.3-1.5,6.7,6.7,0,0,1,.6-1.2l.9-.9.8-.8.7-.9a3.6,3.6,0,0,0,.2-1.1,1.7,1.7,0,0,0-.6-1.4,2.6,2.6,0,0,0-1.8-.6,4.5,4.5,0,0,0-3.3,1.7l-.4-1.4a3.7,3.7,0,0,1,1.7-1.2,4.2,4.2,0,0,1,2.2-.5,4.3,4.3,0,0,1,2.8.9,3.4,3.4,0,0,1,1.1,2.5,3.2,3.2,0,0,1-.3,1.4,4.1,4.1,0,0,1-.7,1.1l-.9.9-.9.9a5.3,5.3,0,0,0-.6,1,3.2,3.2,0,0,0-.3,1.4v.3Zm.6,4.7a1.1,1.1,0,0,1-.8-.3,1.2,1.2,0,0,1-.4-.9,1,1,0,0,1,.4-.9,1.1,1.1,0,0,1,.8-.3,1.2,1.2,0,0,1,.9.3,1,1,0,0,1,.4.9,1.2,1.2,0,0,1-1.3,1.2Z"/><path d="M554.3,265.6H556l3.6,12.5,3.7-12.3H565l3.7,12.2,3.6-12.4H574l-4.4,14.3h-1.8l-3.7-12.2-3.6,12.2h-1.9Z"/><path d="M576.2,264.7h1.6V272a3,3,0,0,1,1.2-1.3,3.2,3.2,0,0,1,1.9-.5,3.3,3.3,0,0,1,2.6,1,4.5,4.5,0,0,1,.9,3v5.7h-1.6v-5.4a3.4,3.4,0,0,0-.6-2.2,1.9,1.9,0,0,0-1.7-.7,2.8,2.8,0,0,0-2,.8,3.9,3.9,0,0,0-.7,2.3v5.2h-1.6Z"/><path d="M591.5,280.2a4,4,0,0,1-2.2-.6,4.2,4.2,0,0,1-1.7-1.8,5.5,5.5,0,0,1-.6-2.6,5.4,5.4,0,0,1,.6-2.5,5.8,5.8,0,0,1,1.7-1.8,4,4,0,0,1,2.4-.7,4.6,4.6,0,0,1,2,.5,4,4,0,0,1,1.4,1.5v-1.7h1.5v9.4h-1.5v-1.7a3.6,3.6,0,0,1-1.5,1.5A4.6,4.6,0,0,1,591.5,280.2Zm.4-1.4a3.3,3.3,0,0,0,2.4-1,3.9,3.9,0,0,0,.9-2.6,3.7,3.7,0,0,0-.9-2.6,3,3,0,0,0-2.4-1,2.9,2.9,0,0,0-2.3,1,3.7,3.7,0,0,0-.9,2.6,3.9,3.9,0,0,0,.9,2.6A3.3,3.3,0,0,0,591.9,278.8Z"/><path d="M603.8,280.2a2.9,2.9,0,0,1-2.3-.9,3.7,3.7,0,0,1-.8-2.6v-4.8h-2.1v-1.4h2.1v-2.7h1.6v2.7h3.3v1.4h-3.3v4.6a4,4,0,0,0,.4,1.8,2,2,0,0,0,1.4.5,4.9,4.9,0,0,0,1.9-.5l.2,1.3A4.3,4.3,0,0,1,603.8,280.2Z"/><path d="M616.4,280.2a4.6,4.6,0,0,1-2.3-.6,4,4,0,0,1-1.6-1.8,5.5,5.5,0,0,1-.6-2.6,5.4,5.4,0,0,1,.6-2.5,4.8,4.8,0,0,1,1.7-1.8,4,4,0,0,1,2.4-.7,4.6,4.6,0,0,1,2,.5,6.7,6.7,0,0,1,1.4,1.5v-7.5h1.6v15.2H620v-1.7a5.4,5.4,0,0,1-1.5,1.5A4.6,4.6,0,0,1,616.4,280.2Zm.4-1.4a3.3,3.3,0,0,0,2.4-1,3.9,3.9,0,0,0,.9-2.6,3.7,3.7,0,0,0-.9-2.6,3,3,0,0,0-2.4-1,3.3,3.3,0,0,0-2.4,1,3.7,3.7,0,0,0-.9,2.6,3.9,3.9,0,0,0,.9,2.6A3.7,3.7,0,0,0,616.8,278.8Z"/><path d="M629.2,280.2a4.8,4.8,0,0,1-2.4-.6,5.2,5.2,0,0,1-1.8-1.8,4.6,4.6,0,0,1-.7-2.6,5.4,5.4,0,0,1,.6-2.5,5.2,5.2,0,0,1,1.8-1.8,4.3,4.3,0,0,1,2.5-.7,4.7,4.7,0,0,1,4.3,2.4,5.6,5.6,0,0,1,.7,2.6,5.5,5.5,0,0,1-.7,2.5,5.8,5.8,0,0,1-1.7,1.8A4.6,4.6,0,0,1,629.2,280.2Zm0-1.4a3.3,3.3,0,0,0,2.4-1,3.9,3.9,0,0,0,.9-2.6,3.7,3.7,0,0,0-.9-2.6,3,3,0,0,0-2.4-1,2.9,2.9,0,0,0-2.3,1,3.8,3.8,0,0,0-1,2.6,4,4,0,0,0,1,2.6A3.3,3.3,0,0,0,629.2,278.8Z"/><path d="M641.6,280.2a5.6,5.6,0,0,1-3.8-1.3,5,5,0,0,1-1.4-3.7,5.1,5.1,0,0,1,.6-2.5,4,4,0,0,1,1.6-1.8,4.3,4.3,0,0,1,2.5-.7,3.7,3.7,0,0,1,3,1.3,4.5,4.5,0,0,1,1.2,3.3v.9H638a3.6,3.6,0,0,0,1.1,2.3,4.2,4.2,0,0,0,2.6.8,7.2,7.2,0,0,0,3.2-.8l.2,1.3a4.8,4.8,0,0,1-1.6.7Zm2.2-5.8a3.3,3.3,0,0,0-.8-2.1,3.2,3.2,0,0,0-4,0,3,3,0,0,0-1,2.1Z"/><path d="M650.8,280.2a5.7,5.7,0,0,1-1.8-.3,3,3,0,0,1-1.4-.6l.3-1.4,1.3.7,1.6.3a3.4,3.4,0,0,0,1.6-.4,1.2,1.2,0,0,0,.6-1,1.2,1.2,0,0,0-.2-.7,1.3,1.3,0,0,0-.7-.5l-1.4-.5a5.6,5.6,0,0,1-2.2-1.1,2.2,2.2,0,0,1-.7-1.7,2.6,2.6,0,0,1,.9-2.1,4.2,4.2,0,0,1,2.6-.7l1.6.2,1.3.5-.3,1.4a5,5,0,0,0-2.6-.8,2.4,2.4,0,0,0-1.5.4,1.1,1.1,0,0,0,0,1.8,4.9,4.9,0,0,0,1.6.7,5.8,5.8,0,0,1,2.5,1.2,2.1,2.1,0,0,1,.7,1.8,2.3,2.3,0,0,1-1,2A4.9,4.9,0,0,1,650.8,280.2Z"/><path d="M665.1,280.2a2.7,2.7,0,0,1-2.3-.9,3.7,3.7,0,0,1-.8-2.6v-4.8h-2.1v-1.4H662v-2.7h1.6v2.7h3.3v1.4h-3.3v4.6a3,3,0,0,0,.4,1.8,2,2,0,0,0,1.4.5,4.9,4.9,0,0,0,1.9-.5v1.3A3.7,3.7,0,0,1,665.1,280.2Z"/><path d="M669.6,264.7h1.6V272a3,3,0,0,1,1.2-1.3,3.2,3.2,0,0,1,1.9-.5,3,3,0,0,1,2.5,1,4.5,4.5,0,0,1,.9,3v5.7h-1.6v-5.4a3.4,3.4,0,0,0-.5-2.2,2.1,2.1,0,0,0-1.7-.7,2.6,2.6,0,0,0-2,.8,3.3,3.3,0,0,0-.7,2.3v5.2h-1.6Z"/><path d="M685.6,280.2a5.6,5.6,0,0,1-3.8-1.3,5,5,0,0,1-1.4-3.7,5.1,5.1,0,0,1,.6-2.5,4,4,0,0,1,1.6-1.8,4.1,4.1,0,0,1,2.5-.7,3.8,3.8,0,0,1,3,1.3,4.5,4.5,0,0,1,1.2,3.3v.9H682a3.6,3.6,0,0,0,1.1,2.3,4,4,0,0,0,2.6.8,7.2,7.2,0,0,0,3.2-.8l.2,1.3a5.9,5.9,0,0,1-1.6.7Zm2.2-5.8a4,4,0,0,0-.8-2.1,3.2,3.2,0,0,0-4,0,3,3,0,0,0-1,2.1Z"/><path d="M694.7,284.7l-1.1-.2a1.1,1.1,0,0,1-.8-.3l.2-1.3a4.7,4.7,0,0,0,1.7.4,1.5,1.5,0,0,0,1.3-.6,2.5,2.5,0,0,0,.4-1.7V270.5H698V281a3.6,3.6,0,0,1-.8,2.7A2.9,2.9,0,0,1,694.7,284.7Zm2.5-16.7a.9.9,0,0,1-.7-.3,1.1,1.1,0,0,1-.4-.9,1,1,0,0,1,.4-.8.9.9,0,0,1,.7-.3,1.1,1.1,0,0,1,.8.3,1.3,1.3,0,0,1,.3.8,1.4,1.4,0,0,1-.3.9A1.1,1.1,0,0,1,697.2,268Z"/><path d="M705.7,280.2a5.4,5.4,0,0,1-2.5-.6,7.7,7.7,0,0,1-1.8-1.8,5.5,5.5,0,0,1-.6-2.6,5.4,5.4,0,0,1,.6-2.5,4.9,4.9,0,0,1,1.7-1.8,4.6,4.6,0,0,1,2.6-.7,5.4,5.4,0,0,1,2.5.6,4.2,4.2,0,0,1,1.7,1.8,4.6,4.6,0,0,1,.7,2.6,5.4,5.4,0,0,1-.6,2.5,5.2,5.2,0,0,1-1.8,1.8A4.3,4.3,0,0,1,705.7,280.2Zm0-1.4a3.7,3.7,0,0,0,2.4-1,3.9,3.9,0,0,0,.9-2.6,3.7,3.7,0,0,0-.9-2.6,3.3,3.3,0,0,0-2.4-1,3,3,0,0,0-2.4,1,3.7,3.7,0,0,0-.9,2.6,3.9,3.9,0,0,0,.9,2.6A3.3,3.3,0,0,0,705.7,278.8Z"/><path d="M716.6,280.2a3,3,0,0,1-2.5-1,4.4,4.4,0,0,1-.8-2.8v-5.9h1.6V276a3,3,0,0,0,.5,2.1,1.8,1.8,0,0,0,1.7.7,2.2,2.2,0,0,0,1.9-.9,3.1,3.1,0,0,0,.8-2.2v-5.2h1.6v9.4h-1.6v-1.6a2.8,2.8,0,0,1-1.2,1.4A4.6,4.6,0,0,1,716.6,280.2Z"/><path d="M724.7,270.5h1.5v1.9a3.3,3.3,0,0,1,1.1-1.5,2.6,2.6,0,0,1,1.7-.5h.6l.5.2-.2,1.5a2,2,0,0,0-1.1-.3,2.2,2.2,0,0,0-1.9,1,4.4,4.4,0,0,0-.7,2.5v4.6h-1.6Z"/><path d="M732.6,270.5h1.5v1.6a2.8,2.8,0,0,1,1.2-1.4,4.1,4.1,0,0,1,1.9-.5,3.3,3.3,0,0,1,2.6,1,4.5,4.5,0,0,1,.9,3v5.7h-1.6v-5.4a3.4,3.4,0,0,0-.6-2.2,1.8,1.8,0,0,0-1.7-.7,2.6,2.6,0,0,0-1.9.8,3.3,3.3,0,0,0-.7,2.3v5.2h-1.6Z"/><path d="M748.6,280.2a5.6,5.6,0,0,1-3.8-1.3,4.6,4.6,0,0,1-1.4-3.7,6.6,6.6,0,0,1,.5-2.5,4.2,4.2,0,0,1,1.7-1.8,4,4,0,0,1,2.4-.7,3.9,3.9,0,0,1,3.1,1.3,4.5,4.5,0,0,1,1.2,3.3v.5c0,.1-.1.2-.1.4h-7.3a3.7,3.7,0,0,0,1.2,2.3,3.9,3.9,0,0,0,2.5.8,8,8,0,0,0,3.3-.8l.2,1.3-1.6.7Zm2.1-5.8a2.9,2.9,0,0,0-.8-2.1,2.6,2.6,0,0,0-2-.7,2.7,2.7,0,0,0-2,.7,3.4,3.4,0,0,0-.9,2.1Z"/><path d="M757.9,279.1l-4-8.6h1.7l3.2,6.9,3-6.9h1.7l-6.5,14h-1.7Z"/><path d="M769.8,264.7h1.6v15.2h-1.6Z"/><path d="M779,280.2a5.4,5.4,0,0,1-2.5-.6,7.7,7.7,0,0,1-1.8-1.8,5.5,5.5,0,0,1-.6-2.6,5.4,5.4,0,0,1,.6-2.5,4.5,4.5,0,0,1,1.8-1.8,4.3,4.3,0,0,1,2.5-.7,5.4,5.4,0,0,1,2.5.6,5.2,5.2,0,0,1,1.8,1.8,5.5,5.5,0,0,1,.6,2.6,5.4,5.4,0,0,1-.6,2.5,5.2,5.2,0,0,1-1.8,1.8A4.3,4.3,0,0,1,779,280.2Zm0-1.4a3.3,3.3,0,0,0,2.4-1,3.9,3.9,0,0,0,.9-2.6,3.7,3.7,0,0,0-.9-2.6,3.4,3.4,0,0,0-4.8,0,3.7,3.7,0,0,0-.9,2.6,3.9,3.9,0,0,0,.9,2.6A3.3,3.3,0,0,0,779,278.8Z"/><path d="M791.1,280.2a5.4,5.4,0,0,1-2.5-.6,7.7,7.7,0,0,1-1.8-1.8,5.5,5.5,0,0,1-.6-2.6,5.4,5.4,0,0,1,.6-2.5,4.5,4.5,0,0,1,1.8-1.8,4.3,4.3,0,0,1,2.5-.7,5.4,5.4,0,0,1,2.5.6,5.2,5.2,0,0,1,1.8,1.8,5.5,5.5,0,0,1,.6,2.6,5.4,5.4,0,0,1-.6,2.5,5.2,5.2,0,0,1-1.8,1.8A4.3,4.3,0,0,1,791.1,280.2Zm0-1.4a3.5,3.5,0,0,0,2.4-1,3.9,3.9,0,0,0,.9-2.6,3.7,3.7,0,0,0-.9-2.6,3.1,3.1,0,0,0-2.4-1,3,3,0,0,0-2.4,1,3.7,3.7,0,0,0-.9,2.6,3.9,3.9,0,0,0,.9,2.6A3.3,3.3,0,0,0,791.1,278.8Z"/><path d="M798.7,264.7h1.6v9.6l4.3-3.8h2.1l-4.8,4.1,5.6,5.3h-2.2l-5-4.8v4.8h-1.6Z"/><path d="M555.4,296.2H557v15.3h-1.6Z"/><path d="M561.2,299.5a1,1,0,0,1-.8-.3,1.2,1.2,0,0,1,0-1.6,1,1,0,0,1,.8-.3.9.9,0,0,1,.7.3,1.2,1.2,0,0,1,0,1.6A.9.9,0,0,1,561.2,299.5Zm-.8,2.6H562v9.4h-1.6Z"/><path d="M565.3,296.2h1.6v9.6l4.3-3.7h2.1l-4.8,4.1,5.6,5.3h-2.2l-5-4.8v4.8h-1.6Z"/><path d="M580.5,311.8a5.2,5.2,0,0,1-3.8-1.4,4.9,4.9,0,0,1-1.4-3.6,5.8,5.8,0,0,1,.6-2.6,4.6,4.6,0,0,1,1.6-1.8,4.8,4.8,0,0,1,2.4-.6A4.1,4.1,0,0,1,583,303a4.9,4.9,0,0,1,1.2,3.4v.9h-7.3a3.1,3.1,0,0,0,1.1,2.2,3.5,3.5,0,0,0,2.6.8,7.4,7.4,0,0,0,3.2-.7l.2,1.3a3.8,3.8,0,0,1-1.6.6A5.8,5.8,0,0,1,580.5,311.8Zm2.1-5.8a2.9,2.9,0,0,0-.8-2.1,2.5,2.5,0,0,0-2-.8,3,3,0,0,0-2,.8,3.4,3.4,0,0,0-.9,2.1Z"/><path d="M588.4,306.9v-.3a.4.4,0,0,1-.1-.3,3.3,3.3,0,0,1,.3-1.5,3.5,3.5,0,0,1,.7-1.2l.8-.9.8-.9a2.7,2.7,0,0,0,.7-.8,2.3,2.3,0,0,0,.3-1.1,2.1,2.1,0,0,0-.7-1.5,2.9,2.9,0,0,0-1.7-.5,4.5,4.5,0,0,0-3.4,1.7l-.4-1.4a4.5,4.5,0,0,1,1.7-1.3,5.4,5.4,0,0,1,2.2-.5,4.1,4.1,0,0,1,2.8,1,3.3,3.3,0,0,1,1.1,2.5,3.2,3.2,0,0,1-.3,1.4,3.6,3.6,0,0,1-.7,1,3.9,3.9,0,0,1-.8,1,7.6,7.6,0,0,0-.9.9,3.6,3.6,0,0,0-.7,1,2.9,2.9,0,0,0-.3,1.4v.3Zm.7,4.7a1,1,0,0,1-.9-.4,1.2,1.2,0,0,1-.3-.9,1.1,1.1,0,0,1,.3-.8,1,1,0,0,1,.9-.4,1.4,1.4,0,0,1,1.2,1.2,1,1,0,0,1-.4.9A.9.9,0,0,1,589.1,311.6Z"/><path d="M598.9,297.2h1.8l3.6,12.5,3.7-12.3h1.7l3.7,12.2,3.6-12.4h1.6l-4.3,14.3h-1.9l-3.6-12.2-3.6,12.2h-1.9Z"/><path d="M620.9,296.2h1.6v7.3a3.7,3.7,0,0,1,1.2-1.3,3.8,3.8,0,0,1,1.9-.4,3,3,0,0,1,2.5,1,4.5,4.5,0,0,1,.9,3v5.7h-1.6v-5.4a4.2,4.2,0,0,0-.5-2.2,2.1,2.1,0,0,0-1.7-.7,2.3,2.3,0,0,0-2,.8,3.3,3.3,0,0,0-.7,2.3v5.2h-1.6Z"/><path d="M636.9,311.8a5.2,5.2,0,0,1-3.8-1.4,4.9,4.9,0,0,1-1.4-3.6,5.8,5.8,0,0,1,.6-2.6,4.6,4.6,0,0,1,1.6-1.8,4.9,4.9,0,0,1,2.5-.6,4.1,4.1,0,0,1,3,1.2,4.9,4.9,0,0,1,1.2,3.4v.9h-7.3a3.1,3.1,0,0,0,1.1,2.2,3.5,3.5,0,0,0,2.6.8,7.1,7.1,0,0,0,3.2-.7l.2,1.3a3.8,3.8,0,0,1-1.6.6A5.8,5.8,0,0,1,636.9,311.8Zm2.2-5.8a4,4,0,0,0-.8-2.1,2.8,2.8,0,0,0-2-.8,3,3,0,0,0-2.1.8,3.4,3.4,0,0,0-.9,2.1Z"/><path d="M643.5,302.1H645V304a3.6,3.6,0,0,1,1.2-1.5,2.5,2.5,0,0,1,1.7-.6H649l-.2,1.5-1.1-.2a2.2,2.2,0,0,0-1.9.9,3.9,3.9,0,0,0-.7,2.5v4.7h-1.6Z"/><path d="M655.5,311.8a5.2,5.2,0,0,1-3.8-1.4,4.9,4.9,0,0,1-1.4-3.6,5.8,5.8,0,0,1,.6-2.6,5.5,5.5,0,0,1,1.6-1.8,5.1,5.1,0,0,1,2.5-.6,3.9,3.9,0,0,1,3,1.2,4.9,4.9,0,0,1,1.2,3.4v.9h-7.3a3.1,3.1,0,0,0,1.1,2.2,3.7,3.7,0,0,0,2.6.8,7.1,7.1,0,0,0,3.2-.7l.2,1.3a3.4,3.4,0,0,1-1.6.6A5.8,5.8,0,0,1,655.5,311.8Zm2.2-5.8a3.3,3.3,0,0,0-.8-2.1,2.9,2.9,0,0,0-4,0,3,3,0,0,0-1,2.1Z"/><path d="M666.4,302.1h1.5v1.6a2.4,2.4,0,0,1,1.2-1.4,2.9,2.9,0,0,1,1.9-.5,2.9,2.9,0,0,1,3,2.1,3.4,3.4,0,0,1,1.3-1.6,3.8,3.8,0,0,1,1.9-.5,3.1,3.1,0,0,1,2.6,1,4.5,4.5,0,0,1,.9,3v5.7h-1.6v-5.4a4.2,4.2,0,0,0-.5-2.2,2.1,2.1,0,0,0-1.7-.7,2.2,2.2,0,0,0-1.9.8,3.9,3.9,0,0,0-.7,2.3v5.2h-1.6V306a3.1,3.1,0,0,0-.5-2.1,1.9,1.9,0,0,0-1.7-.7,2.2,2.2,0,0,0-1.9.8,3.7,3.7,0,0,0-.7,2.3v5.2h-1.5Z"/><path d="M684.8,299.5a1.1,1.1,0,0,1,0-2.2,1.1,1.1,0,1,1,0,2.2Zm-.8,2.6h1.6v9.4H684Z"/><path d="M692.9,316.2l-2-.2-1.5-.6.2-1.4,1.6.6,1.7.2a3.7,3.7,0,0,0,2.7-.9,3.9,3.9,0,0,0,.9-2.8v-1.4a3.6,3.6,0,0,1-1.5,1.5,4.1,4.1,0,0,1-4.4-.1,4.4,4.4,0,0,1-1.6-1.7,5.8,5.8,0,0,1-.6-2.6,5.4,5.4,0,0,1,.6-2.5,4.6,4.6,0,0,1,1.6-1.8,4.5,4.5,0,0,1,2.5-.7,3.2,3.2,0,0,1,1.9.5,3.6,3.6,0,0,1,1.5,1.5v-1.7h1.6v8.8a5.8,5.8,0,0,1-1.3,4A5.3,5.3,0,0,1,692.9,316.2Zm.4-5.9a3.1,3.1,0,0,0,2.4-1,3.5,3.5,0,0,0,.9-2.5,3.7,3.7,0,0,0-.9-2.6,3.1,3.1,0,0,0-2.4-1,3,3,0,0,0-2.4,1,3.7,3.7,0,0,0-.9,2.6,3.5,3.5,0,0,0,.9,2.5A3,3,0,0,0,693.3,310.3Z"/><path d="M701.4,296.2H703v7.3a3.3,3.3,0,0,1,1.3-1.3,3.4,3.4,0,0,1,1.8-.4,3.3,3.3,0,0,1,2.6,1,4.5,4.5,0,0,1,.9,3v5.7H708v-5.4a3.4,3.4,0,0,0-.6-2.2,1.8,1.8,0,0,0-1.7-.7,2.1,2.1,0,0,0-1.9.8,3.4,3.4,0,0,0-.8,2.3v5.2h-1.6Z"/><path d="M716.6,311.8a2.9,2.9,0,0,1-2.3-.9,4.1,4.1,0,0,1-.8-2.7v-4.8h-2.1v-1.3h2.1v-2.7h1.6v2.7h3.3v1.3h-3.3v4.7a3.2,3.2,0,0,0,.4,1.7,1.7,1.7,0,0,0,1.4.6,4.9,4.9,0,0,0,1.9-.5l.2,1.3A4.3,4.3,0,0,1,716.6,311.8Z"/><path d="M729.1,311.8a3,3,0,0,1-2.4-.9,4.1,4.1,0,0,1-.7-2.7v-4.8h-2.2v-1.3H726v-2.7h1.6v2.7h3.3v1.3h-3.3v4.7a2.5,2.5,0,0,0,.4,1.7,1.6,1.6,0,0,0,1.4.6,4.1,4.1,0,0,0,1.8-.5l.2,1.3A3.9,3.9,0,0,1,729.1,311.8Z"/><path d="M733.6,296.2h1.6v7.3a3.7,3.7,0,0,1,1.2-1.3,3.4,3.4,0,0,1,1.8-.4,3.1,3.1,0,0,1,2.6,1,4.5,4.5,0,0,1,.9,3v5.7h-1.6v-5.4a4.2,4.2,0,0,0-.5-2.2,2.1,2.1,0,0,0-1.7-.7,2.3,2.3,0,0,0-2,.8,3.3,3.3,0,0,0-.7,2.3v5.2h-1.6Z"/><path d="M749.6,311.8a5.2,5.2,0,0,1-3.8-1.4,4.5,4.5,0,0,1-1.4-3.6,5.8,5.8,0,0,1,.6-2.6,4.6,4.6,0,0,1,1.6-1.8,4.8,4.8,0,0,1,2.4-.6,4.1,4.1,0,0,1,3.1,1.2,4.9,4.9,0,0,1,1.2,3.4v.4a.9.9,0,0,1-.1.5H746a2.8,2.8,0,0,0,1.1,2.2,3.5,3.5,0,0,0,2.6.8,7.4,7.4,0,0,0,3.2-.7l.2,1.3a3.8,3.8,0,0,1-1.6.6A6.3,6.3,0,0,1,749.6,311.8Zm2.1-5.8a2.9,2.9,0,0,0-.8-2.1,2.5,2.5,0,0,0-2-.8,3,3,0,0,0-2,.8,3.4,3.4,0,0,0-.9,2.1Z"/><path d="M758.9,310.7l-4-8.6h1.7l3.2,6.9,3-6.9h1.7l-6.5,14h-1.7Z"/><path d="M557.7,343.3a5.5,5.5,0,0,1-1.8-.2l-1.4-.6.3-1.5a2.7,2.7,0,0,0,1.3.7l1.6.3a2.5,2.5,0,0,0,1.6-.4,1,1,0,0,0,.6-1,1.4,1.4,0,0,0-.2-.7c-.1-.2-.4-.3-.7-.5l-1.4-.5a5.6,5.6,0,0,1-2.2-1.1,2.1,2.1,0,0,1-.7-1.7,2.4,2.4,0,0,1,.9-2,4.2,4.2,0,0,1,2.6-.8l1.6.2,1.2.6-.2,1.3a4.8,4.8,0,0,0-2.6-.7,3.1,3.1,0,0,0-1.5.3,1.1,1.1,0,0,0-.5.9,1.4,1.4,0,0,0,.5,1,4.5,4.5,0,0,0,1.5.6,9.1,9.1,0,0,1,2.6,1.2,2.4,2.4,0,0,1,.7,1.8,2.6,2.6,0,0,1-1.1,2.1A4.5,4.5,0,0,1,557.7,343.3Z"/><path d="M567.3,343.3a3.3,3.3,0,0,1-2.5-.9,4.7,4.7,0,0,1-.8-2.8v-6h1.6v5.5a3.4,3.4,0,0,0,.5,2.2,2.1,2.1,0,0,0,1.7.6,2.8,2.8,0,0,0,2-.8,3.9,3.9,0,0,0,.7-2.3v-5.2h1.6V343h-1.5v-1.6a2.4,2.4,0,0,1-1.2,1.4A3.5,3.5,0,0,1,567.3,343.3Z"/><path d="M579.9,343.3a6,6,0,0,1-2.7-.6,5.8,5.8,0,0,1-1.8-1.7,5.3,5.3,0,0,1-.6-2.6,5.5,5.5,0,0,1,.6-2.6,5.2,5.2,0,0,1,1.8-1.8,5.4,5.4,0,0,1,2.7-.6l1.4.2,1.3.5-.2,1.4-1.2-.5-1.3-.2a3,3,0,0,0-2.5,1,3.2,3.2,0,0,0-1,2.5,3.3,3.3,0,0,0,1,2.6,3.6,3.6,0,0,0,2.6.9,6.5,6.5,0,0,0,2.6-.6l.2,1.4-1.3.5Z"/><path d="M590,343.3a5.3,5.3,0,0,1-2.6-.6,4.2,4.2,0,0,1-1.8-1.7,4.4,4.4,0,0,1-.7-2.6,5.5,5.5,0,0,1,.6-2.6,5.2,5.2,0,0,1,1.8-1.8,6,6,0,0,1,2.7-.6l1.5.2,1.3.5-.3,1.4a3.3,3.3,0,0,0-1.2-.5l-1.3-.2a3.2,3.2,0,0,0-2.5,1,3.6,3.6,0,0,0-1,2.5,3.6,3.6,0,0,0,1,2.6,3.6,3.6,0,0,0,2.6.9,7.4,7.4,0,0,0,2.7-.6l.2,1.4-1.4.5Z"/><path d="M600.2,343.3a5.3,5.3,0,0,1-3.8-1.3,4.9,4.9,0,0,1-1.4-3.6,5.5,5.5,0,0,1,.6-2.6,4.4,4.4,0,0,1,4.1-2.5,4.2,4.2,0,0,1,3.1,1.3,5.3,5.3,0,0,1,1.1,3.4v.8h-7.3a3.4,3.4,0,0,0,1.1,2.3,4.2,4.2,0,0,0,2.6.8,7.2,7.2,0,0,0,3.2-.8l.2,1.4a3.4,3.4,0,0,1-1.5.6A6.8,6.8,0,0,1,600.2,343.3Zm2.2-5.7a3.3,3.3,0,0,0-.8-2.1,2.9,2.9,0,0,0-4,0,3.5,3.5,0,0,0-1,2.1Z"/><path d="M611.7,343.3a5.2,5.2,0,0,1-3.8-1.3,4.5,4.5,0,0,1-1.4-3.6,7.1,7.1,0,0,1,.5-2.6,5.8,5.8,0,0,1,1.7-1.8,4.8,4.8,0,0,1,2.4-.7,4.2,4.2,0,0,1,3.1,1.3,4.9,4.9,0,0,1,1.2,3.4v.4c0,.1-.1.3-.1.4H608a3.4,3.4,0,0,0,1.2,2.3,3.9,3.9,0,0,0,2.5.8,8,8,0,0,0,3.3-.8l.2,1.4a4.4,4.4,0,0,1-1.6.6A6.2,6.2,0,0,1,611.7,343.3Zm2.1-5.7a2.9,2.9,0,0,0-.8-2.1,2.5,2.5,0,0,0-2-.8,2.8,2.8,0,0,0-2,.8,3.4,3.4,0,0,0-.9,2.1Z"/><path d="M622.4,343.3a4.6,4.6,0,0,1-2.3-.6,4.7,4.7,0,0,1-1.6-1.8,5.3,5.3,0,0,1-.6-2.6,5,5,0,0,1,.6-2.4,5.2,5.2,0,0,1,1.7-1.9,4.8,4.8,0,0,1,2.4-.7,3.6,3.6,0,0,1,2,.6,3.4,3.4,0,0,1,1.4,1.5v-7.6h1.6V343H626v-1.7a3.6,3.6,0,0,1-1.5,1.5A3.6,3.6,0,0,1,622.4,343.3Zm.4-1.4a3,3,0,0,0,2.4-1,3.7,3.7,0,0,0,.9-2.6,3.5,3.5,0,0,0-.9-2.5,3,3,0,0,0-2.4-1,2.9,2.9,0,0,0-2.3,1,3.2,3.2,0,0,0-1,2.5,3.4,3.4,0,0,0,1,2.6A2.9,2.9,0,0,0,622.8,341.9Z"/><path d="M632.3,338.5a.8.8,0,0,0-.1-.4v-.3a4,4,0,0,1,.3-1.5,3.9,3.9,0,0,1,.6-1.1l.9-.9.8-.9.7-.9a3,3,0,0,0,.2-1,1.9,1.9,0,0,0-.6-1.5,2.4,2.4,0,0,0-1.8-.5,4.2,4.2,0,0,0-3.3,1.7l-.4-1.4a3.9,3.9,0,0,1,1.7-1.3,5.4,5.4,0,0,1,2.2-.5,3.9,3.9,0,0,1,2.8,1,3.1,3.1,0,0,1,1.1,2.5,2.8,2.8,0,0,1-.3,1.3,4.1,4.1,0,0,1-.7,1.1l-.9.9-.8.9a3.4,3.4,0,0,0-.7,1.1,2.8,2.8,0,0,0-.3,1.3v.4Zm.7,4.6a1.2,1.2,0,0,1-.9-.3,1,1,0,0,1-.4-.9.9.9,0,0,1,.4-.8,1,1,0,0,1,.9-.4,1.4,1.4,0,0,1,1.2,1.2,1,1,0,0,1-.4.9A1.1,1.1,0,0,1,633,343.1Z"/><path d="M642.8,328.8h1.8l3.6,12.4,3.6-12.3h1.8l3.6,12.3,3.6-12.4h1.7L658.2,343h-1.9l-3.6-12.1L649.1,343h-1.9Z"/><path d="M664.8,327.8h1.6v7.3a3,3,0,0,1,1.2-1.3,3.5,3.5,0,0,1,1.8-.5,3.3,3.3,0,0,1,2.6,1.1,4.5,4.5,0,0,1,.9,3V343h-1.6v-5.4a3.8,3.8,0,0,0-.5-2.1,2.1,2.1,0,0,0-1.7-.8,2.4,2.4,0,0,0-2,.9,3.1,3.1,0,0,0-.7,2.2V343h-1.6Z"/><path d="M680.8,343.3A5.2,5.2,0,0,1,677,342a4.5,4.5,0,0,1-1.4-3.6,7.1,7.1,0,0,1,.5-2.6,5.8,5.8,0,0,1,1.7-1.8,4.8,4.8,0,0,1,2.4-.7,4.2,4.2,0,0,1,3.1,1.3,4.9,4.9,0,0,1,1.2,3.4v.4a.6.6,0,0,1-.1.4h-7.2a3,3,0,0,0,1.1,2.3,4,4,0,0,0,2.6.8,7.6,7.6,0,0,0,3.2-.8l.2,1.4a4.4,4.4,0,0,1-1.6.6A6.2,6.2,0,0,1,680.8,343.3Zm2.1-5.7a2.9,2.9,0,0,0-.8-2.1,2.5,2.5,0,0,0-2-.8,3,3,0,0,0-2,.8,3.4,3.4,0,0,0-.9,2.1Z"/><path d="M687.4,333.6h1.5v2a3.1,3.1,0,0,1,1.2-1.5,2.5,2.5,0,0,1,1.7-.6h1.1l-.2,1.5-1.1-.2a2.2,2.2,0,0,0-1.9.9,3.7,3.7,0,0,0-.7,2.5V343h-1.6Z"/><path d="M699.4,343.3a5.2,5.2,0,0,1-3.8-1.3,4.9,4.9,0,0,1-1.4-3.6,5.5,5.5,0,0,1,.6-2.6,4.6,4.6,0,0,1,1.6-1.8,4.8,4.8,0,0,1,2.4-.7,4.2,4.2,0,0,1,3.1,1.3,4.9,4.9,0,0,1,1.2,3.4v.8h-7.3a3.4,3.4,0,0,0,1.1,2.3,4,4,0,0,0,2.6.8,7.6,7.6,0,0,0,3.2-.8l.2,1.4a3.8,3.8,0,0,1-1.6.6A5.8,5.8,0,0,1,699.4,343.3Zm2.2-5.7a4,4,0,0,0-.8-2.1,2.8,2.8,0,0,0-2-.8,3,3,0,0,0-2.1.8,3.4,3.4,0,0,0-.9,2.1Z"/><path d="M710.2,333.6h1.5v1.7a3.3,3.3,0,0,1,1.1-1.5,4.1,4.1,0,0,1,1.9-.5,3,3,0,0,1,3.1,2.1,3.5,3.5,0,0,1,1.2-1.5,3.6,3.6,0,0,1,2-.6,3.3,3.3,0,0,1,2.6,1.1,4.5,4.5,0,0,1,.9,3V343H723v-5.4a3.8,3.8,0,0,0-.5-2.1,2.1,2.1,0,0,0-1.7-.8,2.2,2.2,0,0,0-1.9.9,3.1,3.1,0,0,0-.7,2.2V343h-1.6v-5.4a3.6,3.6,0,0,0-.5-2.1,2,2,0,0,0-1.7-.8,2.3,2.3,0,0,0-1.9.9,3.6,3.6,0,0,0-.7,2.2V343h-1.6Z"/><path d="M728.7,331.1a1,1,0,1,1,.8-.3A1.1,1.1,0,0,1,728.7,331.1Zm-.8,2.5h1.6V343h-1.6Z"/><path d="M736.8,347.8l-2-.2-1.5-.6.2-1.5,1.5.7,1.8.2a3.7,3.7,0,0,0,2.7-.9,3.9,3.9,0,0,0,.8-2.8v-1.4a2.9,2.9,0,0,1-1.4,1.5,4.1,4.1,0,0,1-2.1.5,4.4,4.4,0,0,1-2.3-.6,4.2,4.2,0,0,1-1.7-1.8,5.3,5.3,0,0,1-.6-2.6,5,5,0,0,1,.6-2.4,5.2,5.2,0,0,1,1.7-1.9,5.1,5.1,0,0,1,2.4-.7,3.4,3.4,0,0,1,2,.6,2.9,2.9,0,0,1,1.4,1.5v-1.8h1.5v8.9a6,6,0,0,1-1.2,4A5.3,5.3,0,0,1,736.8,347.8Zm.4-5.9a2.9,2.9,0,0,0,2.3-1,3.8,3.8,0,0,0,1-2.6,3.6,3.6,0,0,0-1-2.5,2.9,2.9,0,0,0-2.3-1,3,3,0,0,0-2.4,1,3.5,3.5,0,0,0-.9,2.5,3.7,3.7,0,0,0,.9,2.6A3,3,0,0,0,737.2,341.9Z"/><path d="M745.3,327.8h1.6v7.3a3.7,3.7,0,0,1,1.2-1.3,4.1,4.1,0,0,1,1.9-.5,3.3,3.3,0,0,1,2.6,1.1,4.5,4.5,0,0,1,.9,3V343h-1.6v-5.4a3.1,3.1,0,0,0-.6-2.1,2,2,0,0,0-1.7-.8,2.5,2.5,0,0,0-2,.9,3.6,3.6,0,0,0-.7,2.2V343h-1.6Z"/><path d="M760.5,343.3a3.2,3.2,0,0,1-2.3-.8,4.1,4.1,0,0,1-.8-2.7V335h-2.1v-1.4h2.1v-2.7H759v2.7h3.3V335H759v4.7a3.2,3.2,0,0,0,.4,1.7,1.6,1.6,0,0,0,1.4.5,4.6,4.6,0,0,0,1.9-.4v1.3A3.7,3.7,0,0,1,760.5,343.3Z"/><path d="M559.1,374.9a3.2,3.2,0,0,1-2.3-.8,4.1,4.1,0,0,1-.8-2.7v-4.8h-2.1v-1.4H556v-2.7h1.6v2.7h3.3v1.4h-3.3v4.6a4,4,0,0,0,.4,1.8,2,2,0,0,0,1.4.5,3.6,3.6,0,0,0,1.9-.5l.2,1.4A5.4,5.4,0,0,1,559.1,374.9Z"/><path d="M563.6,359.4h1.6v7.3a3,3,0,0,1,1.2-1.3,4.1,4.1,0,0,1,1.9-.5,3.3,3.3,0,0,1,2.6,1.1,4.2,4.2,0,0,1,.9,2.9v5.7h-1.6v-5.4a3.4,3.4,0,0,0-.6-2.2,2.2,2.2,0,0,0-1.7-.7,2.8,2.8,0,0,0-2,.8,4.2,4.2,0,0,0-.7,2.3v5.2h-1.6Z"/><path d="M579.6,374.9a5.3,5.3,0,0,1-3.8-1.3,5,5,0,0,1-1.4-3.7,5.4,5.4,0,0,1,.6-2.5,4,4,0,0,1,1.6-1.8,4.5,4.5,0,0,1,2.5-.7,3.7,3.7,0,0,1,3,1.3,4.6,4.6,0,0,1,1.2,3.3v.9H576a3.4,3.4,0,0,0,1.1,2.3,4.2,4.2,0,0,0,2.6.8,7.2,7.2,0,0,0,3.2-.8l.2,1.4-1.6.6Zm2.2-5.7a3.4,3.4,0,0,0-.8-2.2,3.2,3.2,0,0,0-4,0,3.5,3.5,0,0,0-1,2.2Z"/><path d="M589,373.8l-4.1-8.6h1.7l3.2,6.9,3-6.9h1.7l-6.5,14h-1.6Z"/><path d="M601.4,366.6h-1.9v-1.4h1.9v-1.5a4.8,4.8,0,0,1,1-3.3,3.5,3.5,0,0,1,2.8-1.1,3.8,3.8,0,0,1,1.9.4V361l-1.7-.3a1.9,1.9,0,0,0-1.7.8,3.8,3.8,0,0,0-.6,2.4v1.3h3v1.4h-3v8h-1.6Z"/><path d="M611.8,374.9a4.6,4.6,0,0,1-2.3-.6,4.7,4.7,0,0,1-1.6-1.8,5.3,5.3,0,0,1-.6-2.6,4.8,4.8,0,0,1,.6-2.4,5.2,5.2,0,0,1,1.7-1.9,4,4,0,0,1,2.4-.7,4.6,4.6,0,0,1,2,.5,5,5,0,0,1,1.4,1.5v-1.7H617v9.4h-1.6v-1.7a4.3,4.3,0,0,1-1.5,1.5A4.6,4.6,0,0,1,611.8,374.9Zm.4-1.4a3.3,3.3,0,0,0,2.4-1,3.7,3.7,0,0,0,.9-2.6,3.9,3.9,0,0,0-.9-2.6,3.3,3.3,0,0,0-2.4-1,3.3,3.3,0,0,0-2.3,1,4,4,0,0,0-1,2.6,3.8,3.8,0,0,0,1,2.6A3.3,3.3,0,0,0,612.2,373.5Z"/><path d="M621.2,362.7a1,1,0,0,1-1.1-1.1,1,1,0,0,1,.3-.8,1.2,1.2,0,0,1,.8-.4c.3,0,.5.2.8.4a1,1,0,0,1,.3.8,1.1,1.1,0,0,1-.3.8A1.3,1.3,0,0,1,621.2,362.7Zm-.8,2.5H622v9.4h-1.6Z"/><path d="M625.4,359.4H627v15.2h-1.6Z"/><path d="M631.6,370v-.6a6.1,6.1,0,0,1,.2-1.5,4.1,4.1,0,0,1,.7-1.1l.8-1,.9-.8a2.4,2.4,0,0,0,.6-.9,2,2,0,0,0,.3-1.1,1.5,1.5,0,0,0-.7-1.4,2.4,2.4,0,0,0-1.7-.6,4.5,4.5,0,0,0-3.4,1.8l-.4-1.4a3.7,3.7,0,0,1,1.7-1.3,5.9,5.9,0,0,1,2.3-.5,4,4,0,0,1,2.8,1,3,3,0,0,1,1,2.4,5.2,5.2,0,0,1-.2,1.4,4.1,4.1,0,0,1-.7,1.1l-.9.9-.9.9a4.1,4.1,0,0,0-.7,1.1,4.4,4.4,0,0,0-.2,1.3v.3Zm.7,4.7a1.1,1.1,0,0,1-1.2-1.2,1.4,1.4,0,0,1,.3-.9,1.6,1.6,0,0,1,.9-.3,1.2,1.2,0,0,1,.9.3,1.4,1.4,0,0,1,.3.9,1.6,1.6,0,0,1-.3.9A1.2,1.2,0,0,1,632.3,374.7Z"/><path d="M938.4,143h1.7v6.1h8.6V143h1.7v14.3h-1.7v-6.8h-8.6v6.8h-1.7Z"/><path d="M958.3,157.6a4.5,4.5,0,0,1-2.5-.7,4.4,4.4,0,0,1-2.4-4.3,5.4,5.4,0,0,1,.6-2.5,4.2,4.2,0,0,1,1.7-1.8,4.6,4.6,0,0,1,2.6-.7,4.8,4.8,0,0,1,2.4.6,3.9,3.9,0,0,1,1.8,1.8,4.4,4.4,0,0,1,.7,2.6,4.8,4.8,0,0,1-.6,2.4,4.7,4.7,0,0,1-1.8,1.9A5.2,5.2,0,0,1,958.3,157.6Zm0-1.5a2.9,2.9,0,0,0,2.3-1,3.2,3.2,0,0,0,1-2.5,3.4,3.4,0,0,0-1-2.6,2.9,2.9,0,0,0-2.3-1,3,3,0,0,0-2.4,1,3.7,3.7,0,0,0-.9,2.6,3.5,3.5,0,0,0,.9,2.5A3,3,0,0,0,958.3,156.1Z"/><path d="M964.5,147.9h1.6l2.5,7.7,2.3-7.7h1.4l2.5,7.7,2.5-7.7h1.6l-3.3,9.4h-1.5l-2.5-7.6-2.3,7.6h-1.5Z"/><path d="M985.3,147.9h1.5v1.6a2.4,2.4,0,0,1,1.2-1.4,2.9,2.9,0,0,1,1.9-.5,2.9,2.9,0,0,1,3,2.1,3.4,3.4,0,0,1,1.3-1.6,3.8,3.8,0,0,1,1.9-.5,3.1,3.1,0,0,1,2.6,1,4.5,4.5,0,0,1,.9,3v5.7H998v-5.4a4.2,4.2,0,0,0-.5-2.2,2.1,2.1,0,0,0-1.7-.7,2.6,2.6,0,0,0-1.9.8,3.9,3.9,0,0,0-.7,2.3v5.2h-1.6v-5.4a3.4,3.4,0,0,0-.5-2.2,1.9,1.9,0,0,0-1.7-.7,2.6,2.6,0,0,0-1.9.8,3.7,3.7,0,0,0-.7,2.3v5.2h-1.5Z"/><path d="M1003.7,145.4a.8.8,0,0,1-.7-.4,1,1,0,0,1-.4-.8,1.2,1.2,0,0,1,.4-.8.9.9,0,0,1,.7-.3,1,1,0,0,1,1.1,1.1,1,1,0,0,1-.3.8A.9.9,0,0,1,1003.7,145.4Zm-.8,2.5h1.6v9.4h-1.6Z"/><path d="M1011.9,162a7.5,7.5,0,0,1-2.1-.2l-1.5-.6.2-1.4,1.6.6a5,5,0,0,0,1.8.2,3.6,3.6,0,0,0,2.6-.9,3.8,3.8,0,0,0,.9-2.8v-1.3a5.4,5.4,0,0,1-1.5,1.5,4.6,4.6,0,0,1-2.1.5,3.7,3.7,0,0,1-2.3-.7,4.4,4.4,0,0,1-1.6-1.7,5.8,5.8,0,0,1-.6-2.6,5.4,5.4,0,0,1,.6-2.5,5.5,5.5,0,0,1,1.6-1.8,4.5,4.5,0,0,1,2.5-.7,4.1,4.1,0,0,1,1.9.5,4.3,4.3,0,0,1,1.5,1.5v-1.7h1.6v8.8a5.8,5.8,0,0,1-1.3,4A5.2,5.2,0,0,1,1011.9,162Zm.3-5.9a3.1,3.1,0,0,0,2.4-1,3.5,3.5,0,0,0,.9-2.5,3.7,3.7,0,0,0-.9-2.6,3.1,3.1,0,0,0-2.4-1,3,3,0,0,0-2.4,1,3.7,3.7,0,0,0-.9,2.6,3.5,3.5,0,0,0,.9,2.5A3,3,0,0,0,1012.2,156.1Z"/><path d="M1020.3,142.1h1.6v7.3a3.5,3.5,0,0,1,1.3-1.4,3.4,3.4,0,0,1,1.8-.4,3.3,3.3,0,0,1,2.6,1,4.5,4.5,0,0,1,.9,3v5.7h-1.6v-5.4a3.4,3.4,0,0,0-.6-2.2,1.8,1.8,0,0,0-1.7-.7,2.4,2.4,0,0,0-1.9.8,3.4,3.4,0,0,0-.8,2.3v5.2h-1.6Z"/><path d="M1035.5,157.6a2.9,2.9,0,0,1-2.3-.9,4,4,0,0,1-.8-2.7v-4.8h-2.1v-1.3h2.1v-2.7h1.6v2.7h3.3v1.3H1034v4.7a3.2,3.2,0,0,0,.4,1.7,1.7,1.7,0,0,0,1.4.6,4.9,4.9,0,0,0,1.9-.5l.2,1.3A4.3,4.3,0,0,1,1035.5,157.6Z"/><path d="M1043,147.9h1.7l2.4,7.7,2.3-7.7h1.5l2.5,7.7,2.4-7.7h1.6l-3.3,9.4h-1.5l-2.5-7.6-2.3,7.6h-1.5Z"/><path d="M1063.9,157.6a5.2,5.2,0,0,1-3.8-1.4,4.9,4.9,0,0,1-1.4-3.6,5.1,5.1,0,0,1,.6-2.5,4.9,4.9,0,0,1,1.6-1.9,4.9,4.9,0,0,1,2.5-.6,3.8,3.8,0,0,1,3,1.3,4.5,4.5,0,0,1,1.2,3.3v.9h-7.3a3.6,3.6,0,0,0,1.1,2.3,4,4,0,0,0,2.6.7,7.1,7.1,0,0,0,3.2-.7l.2,1.3a3.8,3.8,0,0,1-1.6.6A5.8,5.8,0,0,1,1063.9,157.6Zm2.2-5.8a4,4,0,0,0-.8-2.1,2.8,2.8,0,0,0-2-.8,2.6,2.6,0,0,0-2,.8,3,3,0,0,0-1,2.1Z"/><path d="M1079.2,157.5a6,6,0,0,1-2.7-.6,4.8,4.8,0,0,1-1.8-1.7,5.3,5.3,0,0,1-.6-2.6,5.1,5.1,0,0,1,.6-2.5,3.9,3.9,0,0,1,1.8-1.8,4.5,4.5,0,0,1,2.7-.7l1.4.2,1.4.5-.3,1.4-1.2-.5h-1.3a3.3,3.3,0,0,0-2.5.9,3.3,3.3,0,0,0-1,2.6,3,3,0,0,0,1,2.5,3.3,3.3,0,0,0,2.6,1,7.4,7.4,0,0,0,2.7-.6v1.3l-1.3.5A4.7,4.7,0,0,1,1079.2,157.5Z"/><path d="M1084.9,142.1h1.6v7.3a2.7,2.7,0,0,1,1.2-1.4,3.4,3.4,0,0,1,1.8-.4,3.3,3.3,0,0,1,2.6,1,4.5,4.5,0,0,1,.9,3v5.7h-1.6v-5.4a3.4,3.4,0,0,0-.6-2.2,1.8,1.8,0,0,0-1.7-.7,2.6,2.6,0,0,0-1.9.8,3.3,3.3,0,0,0-.7,2.3v5.2h-1.6Z"/><path d="M1100.2,157.6a3.7,3.7,0,0,1-2.3-.7,4.4,4.4,0,0,1-1.6-1.7,5.8,5.8,0,0,1-.6-2.6,5.4,5.4,0,0,1,.6-2.5,5.5,5.5,0,0,1,1.6-1.8,4.5,4.5,0,0,1,2.5-.7,4.1,4.1,0,0,1,1.9.5,4.3,4.3,0,0,1,1.5,1.5v-1.7h1.6v9.4h-1.6v-1.7a5.4,5.4,0,0,1-1.5,1.5A4.6,4.6,0,0,1,1100.2,157.6Zm.4-1.5a3.1,3.1,0,0,0,2.4-1,3.5,3.5,0,0,0,.9-2.5,3.7,3.7,0,0,0-.9-2.6,3.1,3.1,0,0,0-2.4-1,3,3,0,0,0-2.4,1,3.7,3.7,0,0,0-.9,2.6,3.5,3.5,0,0,0,.9,2.5A3,3,0,0,0,1100.6,156.1Z"/><path d="M1108.7,147.9h1.5v1.6a2.4,2.4,0,0,1,1.2-1.4,3,3,0,0,1,1.9-.5,3.3,3.3,0,0,1,2.6,1,4.5,4.5,0,0,1,.9,3v5.7h-1.6v-5.4a3.4,3.4,0,0,0-.6-2.2,1.8,1.8,0,0,0-1.7-.7,2.8,2.8,0,0,0-2,.8,3.9,3.9,0,0,0-.7,2.3v5.2h-1.6Z"/><path d="M1124.1,162a6.8,6.8,0,0,1-2-.2l-1.5-.6.2-1.4,1.5.6a5.5,5.5,0,0,0,1.8.2,3.7,3.7,0,0,0,2.7-.9,4.3,4.3,0,0,0,.8-2.8v-1.3a4,4,0,0,1-1.4,1.5,5.4,5.4,0,0,1-2.2.5,3.4,3.4,0,0,1-2.2-.7,4.6,4.6,0,0,1-1.7-1.7,5.8,5.8,0,0,1-.6-2.6,5.4,5.4,0,0,1,.6-2.5,5.8,5.8,0,0,1,1.7-1.8,4,4,0,0,1,2.4-.7,4.2,4.2,0,0,1,2,.5,3.4,3.4,0,0,1,1.4,1.5v-1.7h1.5v8.8a5.4,5.4,0,0,1-1.3,4A4.9,4.9,0,0,1,1124.1,162Zm.4-5.9a2.9,2.9,0,0,0,2.3-1,3.5,3.5,0,0,0,.9-2.5,3.7,3.7,0,0,0-.9-2.6,2.9,2.9,0,0,0-2.3-1,3,3,0,0,0-2.4,1,3.7,3.7,0,0,0-.9,2.6,3.5,3.5,0,0,0,.9,2.5A3,3,0,0,0,1124.5,156.1Z"/><path d="M1137.2,157.6a5.2,5.2,0,0,1-3.8-1.4,4.5,4.5,0,0,1-1.4-3.6,5.1,5.1,0,0,1,.5-2.5,5.2,5.2,0,0,1,1.7-1.9,4.8,4.8,0,0,1,2.4-.6,3.9,3.9,0,0,1,3.1,1.3,4.5,4.5,0,0,1,1.2,3.3v.4a.9.9,0,0,0-.1.5h-7.3a3.3,3.3,0,0,0,1.2,2.3,3.9,3.9,0,0,0,2.5.7,7.8,7.8,0,0,0,3.3-.7l.2,1.3a4.4,4.4,0,0,1-1.6.6A6.3,6.3,0,0,1,1137.2,157.6Zm2.1-5.8a2.9,2.9,0,0,0-.8-2.1,2.6,2.6,0,0,0-2-.8,2.8,2.8,0,0,0-2,.8,3.4,3.4,0,0,0-.9,2.1Z"/><path d="M941.9,189.1a2.7,2.7,0,0,1-2.3-.8,4.1,4.1,0,0,1-.8-2.7v-4.8h-2.1v-1.3h2.1v-2.8h1.6v2.8h3.3v1.3h-3.3v4.7a2.5,2.5,0,0,0,.4,1.7,1.6,1.6,0,0,0,1.4.6,4.1,4.1,0,0,0,1.8-.5l.2,1.3A3.9,3.9,0,0,1,941.9,189.1Z"/><path d="M946.4,173.6H948v7.3a3.7,3.7,0,0,1,1.2-1.3,3.7,3.7,0,0,1,1.8-.4,3.1,3.1,0,0,1,2.6,1,4.5,4.5,0,0,1,.9,3v5.6h-1.6v-5.3a4,4,0,0,0-.5-2.2,2.1,2.1,0,0,0-1.7-.7,2.3,2.3,0,0,0-2,.8,3.2,3.2,0,0,0-.7,2.3v5.1h-1.6Z"/><path d="M962.4,189.1a5.2,5.2,0,0,1-3.8-1.3,4.9,4.9,0,0,1-1.4-3.6,5.5,5.5,0,0,1,.6-2.6,4.6,4.6,0,0,1,1.6-1.8,4.8,4.8,0,0,1,2.4-.6,4.1,4.1,0,0,1,3.1,1.2,4.9,4.9,0,0,1,1.2,3.4v.9h-7.3a3.3,3.3,0,0,0,1.1,2.2,3.5,3.5,0,0,0,2.6.8,6.3,6.3,0,0,0,3.2-.8l.2,1.4a3.8,3.8,0,0,1-1.6.6A5.8,5.8,0,0,1,962.4,189.1Zm2.2-5.7a4,4,0,0,0-.8-2.1,2.8,2.8,0,0,0-2-.8,3,3,0,0,0-2.1.8,3.4,3.4,0,0,0-.9,2.1Z"/><path d="M977.7,189.1a6,6,0,0,1-2.7-.6,4.8,4.8,0,0,1-1.8-1.7,5.3,5.3,0,0,1-.6-2.6,5.5,5.5,0,0,1,.6-2.6,4.2,4.2,0,0,1,1.8-1.7,4.5,4.5,0,0,1,2.7-.7l1.4.2,1.3.5-.2,1.4-1.2-.5-1.3-.2a3.4,3.4,0,0,0-2.5,1,3.2,3.2,0,0,0-1,2.5,3.3,3.3,0,0,0,1,2.6,3.6,3.6,0,0,0,2.6,1,5.4,5.4,0,0,0,2.6-.7l.2,1.4-1.3.5Z"/><path d="M987.6,189.1a4.8,4.8,0,0,1-2.4-.6,3.9,3.9,0,0,1-1.8-1.8,4.4,4.4,0,0,1-.7-2.6,5,5,0,0,1,.6-2.4,4.7,4.7,0,0,1,1.8-1.9,5.1,5.1,0,0,1,2.5-.6,5.4,5.4,0,0,1,2.5.6,5.2,5.2,0,0,1,1.8,6.8,4.2,4.2,0,0,1-1.7,1.8A4.6,4.6,0,0,1,987.6,189.1Zm0-1.4a3,3,0,0,0,2.4-1,3.6,3.6,0,0,0,.9-2.6,3.5,3.5,0,0,0-.9-2.5,3,3,0,0,0-2.4-1,2.9,2.9,0,0,0-2.3,1,3.2,3.2,0,0,0-1,2.5,3.3,3.3,0,0,0,1,2.6A2.9,2.9,0,0,0,987.6,187.7Z"/><path d="M995.3,179.5h1.5v1.6a3.3,3.3,0,0,1,1.2-1.4,3.2,3.2,0,0,1,1.9-.5,3.3,3.3,0,0,1,2.6,1,4.5,4.5,0,0,1,.9,3v5.6h-1.6v-5.3a3.2,3.2,0,0,0-.6-2.2,1.8,1.8,0,0,0-1.7-.7,2.2,2.2,0,0,0-1.9.8,3.2,3.2,0,0,0-.7,2.3v5.1h-1.6Z"/><path d="M1011.2,189.1a6,6,0,0,1-2.7-.6,3.7,3.7,0,0,1-1.8-1.7,5.3,5.3,0,0,1-.6-2.6,5.5,5.5,0,0,1,.6-2.6,4.2,4.2,0,0,1,1.8-1.7,4.5,4.5,0,0,1,2.7-.7l1.4.2,1.3.5-.2,1.4-1.2-.5-1.3-.2a3.8,3.8,0,0,0-2.6,1,3.5,3.5,0,0,0-.9,2.5,3.6,3.6,0,0,0,.9,2.6,4.1,4.1,0,0,0,2.7,1,5.4,5.4,0,0,0,2.6-.7l.2,1.4a4.6,4.6,0,0,1-1.4.5Z"/><path d="M1021.4,189.1a5.2,5.2,0,0,1-3.8-1.3,4.9,4.9,0,0,1-1.4-3.6,5.5,5.5,0,0,1,.6-2.6,4.6,4.6,0,0,1,1.6-1.8,4.8,4.8,0,0,1,2.4-.6,4.1,4.1,0,0,1,3.1,1.2,4.9,4.9,0,0,1,1.2,3.4v.9h-7.3a3.3,3.3,0,0,0,1.1,2.2,3.5,3.5,0,0,0,2.6.8,6.3,6.3,0,0,0,3.2-.8l.2,1.4a3.8,3.8,0,0,1-1.6.6A5.8,5.8,0,0,1,1021.4,189.1Zm2.2-5.7a4,4,0,0,0-.8-2.1,2.8,2.8,0,0,0-2-.8,3,3,0,0,0-2.1.8,3.4,3.4,0,0,0-.9,2.1Z"/><path d="M1028,179.5h1.5v1.8a4.6,4.6,0,0,1,1.5-1.6,4.2,4.2,0,0,1,2.2-.5,4.6,4.6,0,0,1,2.3.6,4.4,4.4,0,0,1,1.6,1.7,5.8,5.8,0,0,1,.6,2.6,5.4,5.4,0,0,1-.6,2.5,3.7,3.7,0,0,1-1.7,1.8,4,4,0,0,1-2.4.7,3.5,3.5,0,0,1-2-.5,3.8,3.8,0,0,1-1.4-1.4v6.2H1028Zm4.8,8.2a2.9,2.9,0,0,0,2.3-1,3.3,3.3,0,0,0,1-2.6,3.2,3.2,0,0,0-1-2.5,2.9,2.9,0,0,0-2.3-1,3,3,0,0,0-2.4,1,3.5,3.5,0,0,0-.9,2.5,3.6,3.6,0,0,0,.9,2.6A3,3,0,0,0,1032.8,187.7Z"/><path d="M1044.2,189.1a2.9,2.9,0,0,1-2.4-.8,4.1,4.1,0,0,1-.7-2.7v-4.8h-2.2v-1.3h2.2v-2.8h1.6v2.8h3.2v1.3h-3.2v4.7a2.5,2.5,0,0,0,.4,1.7,1.4,1.4,0,0,0,1.3.6,4.5,4.5,0,0,0,1.9-.5l.2,1.3A4.1,4.1,0,0,1,1044.2,189.1Z"/><path d="M1056.6,189.1a2.8,2.8,0,0,1-2.3-.8,4.1,4.1,0,0,1-.8-2.7v-4.8h-2.1v-1.3h2.1v-2.8h1.6v2.8h3.3v1.3h-3.3v4.7a3.2,3.2,0,0,0,.4,1.7,1.7,1.7,0,0,0,1.4.6,4.9,4.9,0,0,0,1.9-.5v1.3A3.7,3.7,0,0,1,1056.6,189.1Z"/><path d="M1065.4,189.1a4.7,4.7,0,0,1-4.3-2.4,5.3,5.3,0,0,1-.7-2.6,5.1,5.1,0,0,1,.7-2.4,5.2,5.2,0,0,1,1.7-1.9,5.5,5.5,0,0,1,2.6-.6,4.8,4.8,0,0,1,2.4.6,3.9,3.9,0,0,1,1.8,1.8,4.3,4.3,0,0,1,.7,2.5,5.1,5.1,0,0,1-.6,2.5,4.5,4.5,0,0,1-1.8,1.8A4.3,4.3,0,0,1,1065.4,189.1Zm0-1.4a2.9,2.9,0,0,0,2.3-1,3.6,3.6,0,0,0,1-2.6,3.6,3.6,0,0,0-1-2.5,2.9,2.9,0,0,0-2.3-1,3,3,0,0,0-2.4,1,3.5,3.5,0,0,0-.9,2.5,3.6,3.6,0,0,0,.9,2.6A3,3,0,0,0,1065.4,187.7Z"/><path d="M1077.2,173.6h1.6v9.6l4.3-3.7h2.1l-4.8,4.1,5.6,5.2h-2.2l-5-4.7v4.7h-1.6Z"/><path d="M1092.4,189.1a5.2,5.2,0,0,1-3.8-1.3,4.5,4.5,0,0,1-1.4-3.6,5.5,5.5,0,0,1,.6-2.6,4.6,4.6,0,0,1,1.6-1.8,4.8,4.8,0,0,1,2.4-.6,4.1,4.1,0,0,1,3.1,1.2,4.9,4.9,0,0,1,1.2,3.4v.4a.9.9,0,0,1-.1.5h-7.2a3,3,0,0,0,1.1,2.2,3.5,3.5,0,0,0,2.6.8,6.3,6.3,0,0,0,3.2-.8l.2,1.4a4.4,4.4,0,0,1-1.6.6A6.2,6.2,0,0,1,1092.4,189.1Zm2.1-5.7a2.9,2.9,0,0,0-.8-2.1,2.5,2.5,0,0,0-2-.8,3,3,0,0,0-2,.8,3.4,3.4,0,0,0-.9,2.1Z"/><path d="M1103.8,189.1a5.3,5.3,0,0,1-3.8-1.3,4.9,4.9,0,0,1-1.4-3.6,5.5,5.5,0,0,1,.6-2.6,5.5,5.5,0,0,1,1.6-1.8,5.1,5.1,0,0,1,2.5-.6,3.9,3.9,0,0,1,3,1.2,4.9,4.9,0,0,1,1.2,3.4v.9h-7.3a3.3,3.3,0,0,0,1.1,2.2,3.7,3.7,0,0,0,2.6.8,6.1,6.1,0,0,0,3.2-.8l.2,1.4a3.4,3.4,0,0,1-1.6.6A5.8,5.8,0,0,1,1103.8,189.1Zm2.2-5.7a3.3,3.3,0,0,0-.8-2.1,2.9,2.9,0,0,0-4,0,3,3,0,0,0-1,2.1Z"/><path d="M1110.4,179.5h1.5v1.8a3.6,3.6,0,0,1,1.4-1.6,4.2,4.2,0,0,1,2.2-.5,4.3,4.3,0,0,1,3.9,2.3,5.8,5.8,0,0,1,.6,2.6,5.4,5.4,0,0,1-.6,2.5,4,4,0,0,1-1.6,1.8,4.5,4.5,0,0,1-2.5.7,3.5,3.5,0,0,1-2-.5,4.7,4.7,0,0,1-1.4-1.4v6.2h-1.6Zm4.8,8.2a3,3,0,0,0,2.4-1,3.6,3.6,0,0,0,.9-2.6,3.5,3.5,0,0,0-.9-2.5,3,3,0,0,0-2.4-1,3.1,3.1,0,0,0-2.4,1,3.5,3.5,0,0,0-.9,2.5,3.6,3.6,0,0,0,.9,2.6A3.1,3.1,0,0,0,1115.2,187.7Z"/><path d="M1127.9,176.9a1.1,1.1,0,1,1,0-2.2,1.1,1.1,0,0,1,0,2.2Zm-.8,2.6h1.6v9.3h-1.6Z"/><path d="M1135.8,189.1a2.9,2.9,0,0,1-2.4-.8,4.1,4.1,0,0,1-.7-2.7v-4.8h-2.1v-1.3h2.1v-2.8h1.6v2.8h3.3v1.3h-3.3v4.7a2.5,2.5,0,0,0,.4,1.7,1.6,1.6,0,0,0,1.4.6,4.1,4.1,0,0,0,1.8-.5l.2,1.3A3.9,3.9,0,0,1,1135.8,189.1Z"/><path d="M1139.3,178.9a7.9,7.9,0,0,0,.6-2.2,7.5,7.5,0,0,0,.2-2.1h1.7a5.6,5.6,0,0,1-.4,2.1,14.3,14.3,0,0,1-.8,2.2Z"/><path d="M1145.5,189.1a4.7,4.7,0,0,1-1.7-.2l-1.4-.6.2-1.4a5.9,5.9,0,0,0,1.4.6l1.5.3a2.9,2.9,0,0,0,1.7-.4,1.1,1.1,0,0,0,.5-1,.8.8,0,0,0-.2-.7l-.6-.5-1.4-.5a4.9,4.9,0,0,1-2.3-1.1,2.4,2.4,0,0,1-.7-1.7,2.6,2.6,0,0,1,1-2,4,4,0,0,1,2.6-.7,3.9,3.9,0,0,1,1.5.2l1.3.5-.3,1.4a4,4,0,0,0-2.6-.8,2.6,2.6,0,0,0-1.4.3.9.9,0,0,0-.5.9,1.3,1.3,0,0,0,.4,1l1.6.6a8.3,8.3,0,0,1,2.5,1.2,2.5,2.5,0,0,1,.8,1.8,2.5,2.5,0,0,1-1.1,2.1A4.7,4.7,0,0,1,1145.5,189.1Z"/><path d="M942,220.7a4.6,4.6,0,0,1-2.3-.6,4,4,0,0,1-1.6-1.8,5.3,5.3,0,0,1-.6-2.6,4.8,4.8,0,0,1,.6-2.4,5.2,5.2,0,0,1,1.7-1.9,4.8,4.8,0,0,1,2.4-.7,3.6,3.6,0,0,1,2,.6,3.8,3.8,0,0,1,1.4,1.4V211h1.6v9.4h-1.6v-1.7a3.6,3.6,0,0,1-1.5,1.5A4.6,4.6,0,0,1,942,220.7Zm.4-1.4a3,3,0,0,0,2.4-1,3.7,3.7,0,0,0,.9-2.6,3.9,3.9,0,0,0-.9-2.6,3.2,3.2,0,0,0-2.4-.9,3.2,3.2,0,0,0-2.3.9,3.5,3.5,0,0,0-1,2.6,3.4,3.4,0,0,0,1,2.6A2.9,2.9,0,0,0,942.4,219.3Z"/><path d="M954.4,220.7a4.6,4.6,0,0,1-2.3-.6,4.7,4.7,0,0,1-1.6-1.8,5.3,5.3,0,0,1-.6-2.6,4.8,4.8,0,0,1,.6-2.4,5.2,5.2,0,0,1,1.7-1.9,4.8,4.8,0,0,1,2.4-.7,3.6,3.6,0,0,1,2,.6,3.2,3.2,0,0,1,1.4,1.4v-7.5h1.6v15.2h-1.5v-1.7a2.8,2.8,0,0,1-1.5,1.5A4.6,4.6,0,0,1,954.4,220.7Zm.4-1.4a3,3,0,0,0,2.4-1,3.7,3.7,0,0,0,.9-2.6,3.9,3.9,0,0,0-.9-2.6,3.2,3.2,0,0,0-2.4-.9,3.2,3.2,0,0,0-2.3.9,3.9,3.9,0,0,0-.9,2.6,3.7,3.7,0,0,0,.9,2.6A2.9,2.9,0,0,0,954.8,219.3Z"/><path d="M961.7,211h1.7l3,7.6,2.9-7.6H971l-3.9,9.4h-1.6Z"/><path d="M976.6,220.7a4.6,4.6,0,0,1-2.3-.6,4,4,0,0,1-1.6-1.8,5.3,5.3,0,0,1-.6-2.6,4.8,4.8,0,0,1,.6-2.4,4.4,4.4,0,0,1,1.7-1.9,4.8,4.8,0,0,1,2.4-.7,3.3,3.3,0,0,1,1.9.6,4,4,0,0,1,1.5,1.4V211h1.6v9.4h-1.6v-1.7a3.6,3.6,0,0,1-1.5,1.5A4.6,4.6,0,0,1,976.6,220.7Zm.4-1.4a3,3,0,0,0,2.4-1,3.7,3.7,0,0,0,.9-2.6,3.9,3.9,0,0,0-.9-2.6,3.2,3.2,0,0,0-2.4-.9,3.4,3.4,0,0,0-2.4.9,3.9,3.9,0,0,0-.9,2.6,3.7,3.7,0,0,0,.9,2.6A3.1,3.1,0,0,0,977,219.3Z"/><path d="M985.2,211h1.5v1.7a2.6,2.6,0,0,1,1.2-1.5,4.1,4.1,0,0,1,1.9-.5,3.3,3.3,0,0,1,2.6,1.1,4.4,4.4,0,0,1,.9,2.9v5.7h-1.6V215a3.6,3.6,0,0,0-.6-2.2,2.1,2.1,0,0,0-1.7-.7,2.2,2.2,0,0,0-1.9.9,3.1,3.1,0,0,0-.7,2.2v5.2h-1.6Z"/><path d="M1000.4,220.7a3.3,3.3,0,0,1-2.4-.8,4.1,4.1,0,0,1-.7-2.7v-4.8h-2.2V211h2.2v-2.7h1.6V211h3.2v1.4h-3.2v4.7a2.7,2.7,0,0,0,.4,1.7c.2.4.7.5,1.3.5a3.4,3.4,0,0,0,1.9-.5l.2,1.4A5.2,5.2,0,0,1,1000.4,220.7Z"/><path d="M1008.7,220.7a4.6,4.6,0,0,1-2.3-.6,4,4,0,0,1-1.6-1.8,5.3,5.3,0,0,1-.6-2.6,4.8,4.8,0,0,1,.6-2.4,4.4,4.4,0,0,1,1.7-1.9,4.8,4.8,0,0,1,2.4-.7,3.1,3.1,0,0,1,1.9.6,4,4,0,0,1,1.5,1.4V211h1.6v9.4h-1.6v-1.7a3.6,3.6,0,0,1-1.5,1.5A4.6,4.6,0,0,1,1008.7,220.7Zm.4-1.4a3,3,0,0,0,2.4-1,3.7,3.7,0,0,0,.9-2.6,3.9,3.9,0,0,0-.9-2.6,3.2,3.2,0,0,0-2.4-.9,3.4,3.4,0,0,0-2.4.9,3.9,3.9,0,0,0-.9,2.6,3.7,3.7,0,0,0,.9,2.6A3.1,3.1,0,0,0,1009.1,219.3Z"/><path d="M1021.2,225.2l-2-.2a3.5,3.5,0,0,1-1.5-.7l.2-1.4a3.4,3.4,0,0,0,1.5.6l1.8.3a3.3,3.3,0,0,0,2.6-.9,4.2,4.2,0,0,0,.9-2.9v-1.3a3.6,3.6,0,0,1-1.5,1.5,4.7,4.7,0,0,1-4.4-.1,4,4,0,0,1-1.6-1.8,5.3,5.3,0,0,1-.6-2.6,4.8,4.8,0,0,1,.6-2.4,4.4,4.4,0,0,1,1.7-1.9,4.8,4.8,0,0,1,2.4-.7,3.6,3.6,0,0,1,2,.6,3.8,3.8,0,0,1,1.4,1.4V211h1.6v8.9a5.1,5.1,0,0,1-1.3,3.9A4.9,4.9,0,0,1,1021.2,225.2Zm.3-5.9a3,3,0,0,0,2.4-1,3.7,3.7,0,0,0,.9-2.6,3.9,3.9,0,0,0-.9-2.6,3.2,3.2,0,0,0-2.4-.9,3.2,3.2,0,0,0-2.3.9,3.5,3.5,0,0,0-1,2.6,3.4,3.4,0,0,0,1,2.6A2.9,2.9,0,0,0,1021.5,219.3Z"/><path d="M1034.2,220.7a5.3,5.3,0,0,1-3.8-1.3,4.9,4.9,0,0,1-1.4-3.6,5.5,5.5,0,0,1,.6-2.6,4,4,0,0,1,1.6-1.8,4.3,4.3,0,0,1,2.5-.7,4,4,0,0,1,3,1.3,4.8,4.8,0,0,1,1.2,3.3v.9h-7.3a3.4,3.4,0,0,0,1.1,2.3,4.2,4.2,0,0,0,2.6.8,7.2,7.2,0,0,0,3.2-.8l.2,1.4-1.6.6Zm2.2-5.7a3.6,3.6,0,0,0-.8-2.2,2.7,2.7,0,0,0-2-.7,2.8,2.8,0,0,0-2,.8,3,3,0,0,0-1,2.1Z"/><path d="M1043.4,220.7l-1.8-.2a6.1,6.1,0,0,1-1.4-.7l.3-1.4a4.6,4.6,0,0,0,1.4.7,4,4,0,0,0,1.5.3,2.5,2.5,0,0,0,1.6-.4,1.1,1.1,0,0,0,.6-1,1.4,1.4,0,0,0-.2-.7c-.1-.2-.3-.3-.7-.5l-1.4-.5a5.6,5.6,0,0,1-2.2-1.1,2.1,2.1,0,0,1-.7-1.7,2.2,2.2,0,0,1,1-2,3.7,3.7,0,0,1,2.5-.8l1.6.2,1.3.6-.3,1.3a4.8,4.8,0,0,0-2.6-.7,2.6,2.6,0,0,0-1.4.3,1,1,0,0,0-.6.9,1.1,1.1,0,0,0,.5.9,3.4,3.4,0,0,0,1.6.7,8.3,8.3,0,0,1,2.5,1.2,2.4,2.4,0,0,1,.7,1.8,2.2,2.2,0,0,1-1,2A4.2,4.2,0,0,1,1043.4,220.7Z"/><path d="M1057.8,220.7a4,4,0,0,1-2.2-.6,4.2,4.2,0,0,1-1.7-1.8,5.3,5.3,0,0,1-.6-2.6,4.8,4.8,0,0,1,.6-2.4,5.2,5.2,0,0,1,1.7-1.9,4.8,4.8,0,0,1,2.4-.7,3.6,3.6,0,0,1,2,.6,3.2,3.2,0,0,1,1.4,1.4V211h1.5v9.4h-1.5v-1.7a2.8,2.8,0,0,1-1.5,1.5A4.6,4.6,0,0,1,1057.8,220.7Zm.4-1.4a3,3,0,0,0,2.4-1,3.7,3.7,0,0,0,.9-2.6,3.9,3.9,0,0,0-.9-2.6,3.2,3.2,0,0,0-2.4-.9,3.2,3.2,0,0,0-2.3.9,3.9,3.9,0,0,0-.9,2.6,3.7,3.7,0,0,0,.9,2.6A2.9,2.9,0,0,0,1058.2,219.3Z"/><path d="M1066.4,211h1.5v1.7a3.6,3.6,0,0,1,1.2-1.5,4.2,4.2,0,0,1,2-.5,3.1,3.1,0,0,1,2.5,1.1,4.4,4.4,0,0,1,.9,2.9v5.7h-1.6V215a3.6,3.6,0,0,0-.5-2.2,2.4,2.4,0,0,0-1.7-.7,2.4,2.4,0,0,0-2,.9,3.1,3.1,0,0,0-.7,2.2v5.2h-1.6Z"/><path d="M1081.7,220.7a4.6,4.6,0,0,1-2.3-.6,4,4,0,0,1-1.6-1.8,5.3,5.3,0,0,1-.6-2.6,4.8,4.8,0,0,1,.6-2.4,4.4,4.4,0,0,1,1.7-1.9,4.8,4.8,0,0,1,2.4-.7,3.6,3.6,0,0,1,2,.6,3.8,3.8,0,0,1,1.4,1.4v-7.5h1.6v15.2h-1.6v-1.7a3.6,3.6,0,0,1-1.5,1.5A4.6,4.6,0,0,1,1081.7,220.7Zm.4-1.4a3,3,0,0,0,2.4-1,3.7,3.7,0,0,0,.9-2.6,3.9,3.9,0,0,0-.9-2.6,3.2,3.2,0,0,0-2.4-.9,3.2,3.2,0,0,0-2.3.9,3.5,3.5,0,0,0-1,2.6,3.4,3.4,0,0,0,1,2.6A2.9,2.9,0,0,0,1082.1,219.3Z"/><path d="M1096.8,220.7l-1.8-.2-1.4-.7.3-1.4a4,4,0,0,0,1.3.7l1.6.3a2.5,2.5,0,0,0,1.6-.4,1.1,1.1,0,0,0,.6-1,1.4,1.4,0,0,0-.2-.7c-.1-.2-.4-.3-.7-.5l-1.4-.5a5.6,5.6,0,0,1-2.2-1.1,2.1,2.1,0,0,1-.7-1.7,2.4,2.4,0,0,1,.9-2,4.2,4.2,0,0,1,2.6-.8l1.6.2,1.3.6-.3,1.3a4.8,4.8,0,0,0-2.6-.7,3.3,3.3,0,0,0-1.5.3,1.1,1.1,0,0,0,0,1.8,3,3,0,0,0,1.6.7,9.7,9.7,0,0,1,2.5,1.2,2.4,2.4,0,0,1,.7,1.8,2.2,2.2,0,0,1-1,2A4.2,4.2,0,0,1,1096.8,220.7Z"/><path d="M1107.4,220.7a5.4,5.4,0,0,1-2.5-.6,4.2,4.2,0,0,1-1.7-1.8,4.4,4.4,0,0,1-.7-2.6,4.8,4.8,0,0,1,.6-2.4,4.7,4.7,0,0,1,1.8-1.9,5.2,5.2,0,0,1,2.5-.7,4.5,4.5,0,0,1,2.5.7,4.4,4.4,0,0,1,2.4,4.3,5.4,5.4,0,0,1-.6,2.5,3.9,3.9,0,0,1-1.8,1.8A4.3,4.3,0,0,1,1107.4,220.7Zm0-1.4a3,3,0,0,0,2.4-1,3.7,3.7,0,0,0,.9-2.6,3.9,3.9,0,0,0-.9-2.6,3.2,3.2,0,0,0-2.4-.9,3.4,3.4,0,0,0-2.4.9,3.9,3.9,0,0,0-.9,2.6,3.7,3.7,0,0,0,.9,2.6A3.1,3.1,0,0,0,1107.4,219.3Z"/><path d="M1115,205.2h1.6v15.2H1115Z"/><path d="M1118.7,211h1.7l3,7.6,3-7.6h1.6l-3.9,9.4h-1.5Z"/><path d="M1134.3,220.7a5.3,5.3,0,0,1-3.8-1.3,4.9,4.9,0,0,1-1.4-3.6,5.5,5.5,0,0,1,.6-2.6,4,4,0,0,1,1.6-1.8,4.3,4.3,0,0,1,2.5-.7,4,4,0,0,1,3,1.3,4.8,4.8,0,0,1,1.2,3.3v.9h-7.3a3.4,3.4,0,0,0,1.1,2.3,4.2,4.2,0,0,0,2.6.8,7.2,7.2,0,0,0,3.2-.8l.2,1.4-1.6.6Zm2.2-5.7a3.6,3.6,0,0,0-.8-2.2,2.7,2.7,0,0,0-2-.7,2.8,2.8,0,0,0-2,.8,3,3,0,0,0-1,2.1Z"/><path d="M941.9,252.3a2.7,2.7,0,0,1-2.3-.9,3.7,3.7,0,0,1-.8-2.6V244h-2.1v-1.4h2.1v-2.7h1.6v2.7h3.3V244h-3.3v4.6a3,3,0,0,0,.4,1.8,1.8,1.8,0,0,0,1.4.5,4.1,4.1,0,0,0,1.8-.5l.2,1.3A3.9,3.9,0,0,1,941.9,252.3Z"/><path d="M946.4,236.8H948v7.3a3,3,0,0,1,1.2-1.3,3.7,3.7,0,0,1,1.8-.5,3.1,3.1,0,0,1,2.6,1,4.5,4.5,0,0,1,.9,3V252h-1.6v-5.4a4.2,4.2,0,0,0-.5-2.2,2.1,2.1,0,0,0-1.7-.7,2.6,2.6,0,0,0-2,.8,3.3,3.3,0,0,0-.7,2.3V252h-1.6Z"/><path d="M962.4,252.3a5.6,5.6,0,0,1-3.8-1.3,5,5,0,0,1-1.4-3.7,5.1,5.1,0,0,1,.6-2.5,3.5,3.5,0,0,1,1.6-1.8,4,4,0,0,1,2.4-.7,3.9,3.9,0,0,1,3.1,1.3,4.5,4.5,0,0,1,1.2,3.3v.9h-7.3a3.4,3.4,0,0,0,1.1,2.3,4,4,0,0,0,2.6.8,7.6,7.6,0,0,0,3.2-.8l.2,1.3a5.9,5.9,0,0,1-1.6.7Zm2.2-5.8a4,4,0,0,0-.8-2.1,2.7,2.7,0,0,0-2-.7,3,3,0,0,0-2.1.7,3.4,3.4,0,0,0-.9,2.1Z"/><path d="M977.7,252.2a7.6,7.6,0,0,1-2.7-.5,5.8,5.8,0,0,1-1.8-1.7,5.5,5.5,0,0,1-.6-2.6,5.3,5.3,0,0,1,.6-2.6A3.9,3.9,0,0,1,975,243a5.4,5.4,0,0,1,2.7-.6h1.4a3.9,3.9,0,0,1,1.3.6l-.2,1.3L979,244a3.2,3.2,0,0,0-1.3-.2,3.3,3.3,0,0,0-2.5.9,3.9,3.9,0,0,0,0,5.2,3.6,3.6,0,0,0,2.6.9,6.5,6.5,0,0,0,2.6-.6l.2,1.3-1.3.5A4.7,4.7,0,0,1,977.7,252.2Z"/><path d="M983.4,236.8H985v7.3a2.2,2.2,0,0,1,1.2-1.3,3.5,3.5,0,0,1,1.8-.5,3.3,3.3,0,0,1,2.6,1,4.5,4.5,0,0,1,.9,3V252h-1.6v-5.4a3.4,3.4,0,0,0-.6-2.2,1.8,1.8,0,0,0-1.7-.7,2.4,2.4,0,0,0-1.9.8,3.3,3.3,0,0,0-.7,2.3V252h-1.6Z"/><path d="M998.7,252.3a4.4,4.4,0,0,1-2.3-.6,4,4,0,0,1-1.6-1.8,5.5,5.5,0,0,1-.6-2.6,7,7,0,0,1,.5-2.5,5.8,5.8,0,0,1,1.7-1.8,4.5,4.5,0,0,1,2.5-.7,4.1,4.1,0,0,1,1.9.5,5.4,5.4,0,0,1,1.5,1.5v-1.7h1.5V252h-1.5v-1.7a5.4,5.4,0,0,1-1.5,1.5A4.6,4.6,0,0,1,998.7,252.3Zm.4-1.4a3.3,3.3,0,0,0,2.3-1,3.5,3.5,0,0,0,1-2.6,3.4,3.4,0,0,0-1-2.6,3.3,3.3,0,0,0-2.3-1,3.3,3.3,0,0,0-2.4,1,3.7,3.7,0,0,0-.9,2.6,3.9,3.9,0,0,0,.9,2.6A3.3,3.3,0,0,0,999.1,250.9Z"/><path d="M1007.2,236.8h1.6V252h-1.6Z"/><path d="M1012.2,236.8h1.6V252h-1.6Z"/><path d="M1021.7,252.3a5.8,5.8,0,0,1-3.8-1.3,5,5,0,0,1-1.4-3.7,5.1,5.1,0,0,1,.6-2.5,4,4,0,0,1,1.6-1.8,4.5,4.5,0,0,1,2.5-.7,3.9,3.9,0,0,1,3.1,1.3,4.9,4.9,0,0,1,1.1,3.3v.9h-7.3a3.4,3.4,0,0,0,1.1,2.3,4.2,4.2,0,0,0,2.6.8,7.2,7.2,0,0,0,3.2-.8l.2,1.3a5.2,5.2,0,0,1-1.5.7Zm2.2-5.8a3.3,3.3,0,0,0-.8-2.1,3.2,3.2,0,0,0-4,0,3.5,3.5,0,0,0-1,2.1Z"/><path d="M1028.3,242.6h1.5v1.6a2.4,2.4,0,0,1,1.2-1.4,3.8,3.8,0,0,1,1.9-.5,3.3,3.3,0,0,1,2.6,1,4.5,4.5,0,0,1,.9,3V252h-1.6v-5.4a3.4,3.4,0,0,0-.6-2.2,1.8,1.8,0,0,0-1.7-.7,2.4,2.4,0,0,0-1.9.8,3.4,3.4,0,0,0-.8,2.3V252h-1.6Z"/><path d="M1043.7,256.8a6.9,6.9,0,0,1-2-.3,3.4,3.4,0,0,1-1.5-.6l.2-1.4a3.9,3.9,0,0,0,1.5.6,5.7,5.7,0,0,0,1.8.3,3.7,3.7,0,0,0,2.7-1,3.8,3.8,0,0,0,.8-2.8v-1.3a4,4,0,0,1-1.4,1.5,5.4,5.4,0,0,1-2.1.5,4.4,4.4,0,0,1-2.3-.6,4.2,4.2,0,0,1-1.7-1.8,5.5,5.5,0,0,1-.6-2.6,5.4,5.4,0,0,1,.6-2.5,5.8,5.8,0,0,1,1.7-1.8,4.4,4.4,0,0,1,4.4-.2,4,4,0,0,1,1.4,1.5v-1.7h1.5v8.8a5.8,5.8,0,0,1-1.2,4A5.3,5.3,0,0,1,1043.7,256.8Zm.4-5.9a3.3,3.3,0,0,0,2.3-1,4,4,0,0,0,1-2.6,3.8,3.8,0,0,0-1-2.6,3.3,3.3,0,0,0-2.3-1,3.3,3.3,0,0,0-2.4,1,3.7,3.7,0,0,0-.9,2.6,3.9,3.9,0,0,0,.9,2.6A3.3,3.3,0,0,0,1044.1,250.9Z"/><path d="M1056.8,252.3a5.6,5.6,0,0,1-3.8-1.3,4.6,4.6,0,0,1-1.4-3.7,6.6,6.6,0,0,1,.5-2.5,4.2,4.2,0,0,1,1.7-1.8,4,4,0,0,1,2.4-.7,3.9,3.9,0,0,1,3.1,1.3,4.5,4.5,0,0,1,1.2,3.3v.5a.6.6,0,0,0-.1.4h-7.3a3.4,3.4,0,0,0,1.2,2.3,3.9,3.9,0,0,0,2.5.8,8,8,0,0,0,3.3-.8l.2,1.3-1.6.7Zm2.1-5.8a2.9,2.9,0,0,0-.8-2.1,2.6,2.6,0,0,0-2-.7,2.7,2.7,0,0,0-2,.7,3.4,3.4,0,0,0-.9,2.1Z"/><path d="M1065.9,252.3a5.1,5.1,0,0,1-1.7-.3,2.6,2.6,0,0,1-1.4-.6l.2-1.4,1.4.7a4,4,0,0,0,1.5.3,3.9,3.9,0,0,0,1.7-.4,1.1,1.1,0,0,0,.5-1,1.5,1.5,0,0,0-.1-.7,1.8,1.8,0,0,0-.7-.5l-1.4-.5a6.1,6.1,0,0,1-2.3-1.1,2.6,2.6,0,0,1-.7-1.7,2.7,2.7,0,0,1,1-2.1,4,4,0,0,1,2.6-.7l1.5.2a2.6,2.6,0,0,1,1.3.6l-.3,1.3a4.7,4.7,0,0,0-2.6-.8,2,2,0,0,0-1.4.4,1.1,1.1,0,0,0-.5.9,1,1,0,0,0,.4.9,4.9,4.9,0,0,0,1.6.7,5.3,5.3,0,0,1,2.5,1.2,2.2,2.2,0,0,1,.8,1.8,2.4,2.4,0,0,1-1.1,2A4.7,4.7,0,0,1,1065.9,252.3Z"/><path d="M1073.6,247.4v-.3a.4.4,0,0,1-.1-.3,3.3,3.3,0,0,1,.3-1.5,7.5,7.5,0,0,1,.7-1.2l.8-.9a6,6,0,0,0,.8-.8l.7-.9a2,2,0,0,0,.3-1.1,1.7,1.7,0,0,0-.7-1.4,2.4,2.4,0,0,0-1.7-.6,4.5,4.5,0,0,0-3.4,1.7l-.4-1.4a4.3,4.3,0,0,1,1.7-1.2,4.2,4.2,0,0,1,2.2-.5,4.1,4.1,0,0,1,2.8.9,3.4,3.4,0,0,1,1.1,2.5,3.2,3.2,0,0,1-.3,1.4,4.1,4.1,0,0,1-.7,1.1l-.8.9a7.6,7.6,0,0,0-.9.9,6.1,6.1,0,0,0-.7,1,3.2,3.2,0,0,0-.3,1.4v.3Zm.7,4.7a1.2,1.2,0,0,1-.9-.3,1.6,1.6,0,0,1-.3-.9,1.1,1.1,0,0,1,1.2-1.2,1.1,1.1,0,0,1,.8.3,1,1,0,0,1,.4.9,1.2,1.2,0,0,1-.4.9A1.1,1.1,0,0,1,1074.3,252.1Z"/><path d="M848.8,509.5h1.7l3.6,12.5,3.7-12.3h1.8l3.6,12.2,3.6-12.4h1.7l-4.4,14.3h-1.8l-3.7-12.2L855,523.8h-1.9Z"/><path d="M870.7,508.6h1.6v7.3a3,3,0,0,1,1.2-1.3,4.1,4.1,0,0,1,1.9-.5,3.3,3.3,0,0,1,2.6,1,4.5,4.5,0,0,1,.9,3v5.7h-1.6v-5.4a3.4,3.4,0,0,0-.6-2.2,1.9,1.9,0,0,0-1.7-.7,2.8,2.8,0,0,0-2,.8,3.9,3.9,0,0,0-.7,2.3v5.2h-1.6Z"/><path d="M886,524.1a4,4,0,0,1-2.2-.6,4.2,4.2,0,0,1-1.7-1.8,5.5,5.5,0,0,1-.6-2.6,5.4,5.4,0,0,1,.6-2.5,5.8,5.8,0,0,1,1.7-1.8,4,4,0,0,1,2.4-.7,4.6,4.6,0,0,1,2,.5,4,4,0,0,1,1.4,1.5v-1.7h1.5v9.4h-1.5v-1.7a4,4,0,0,1-1.4,1.5A5.4,5.4,0,0,1,886,524.1Zm.5-1.4a3.3,3.3,0,0,0,2.3-1,3.9,3.9,0,0,0,.9-2.6,3.7,3.7,0,0,0-.9-2.6,3.3,3.3,0,0,0-2.3-1,3.3,3.3,0,0,0-2.4,1,3.7,3.7,0,0,0-.9,2.6,3.9,3.9,0,0,0,.9,2.6A3.3,3.3,0,0,0,886.5,522.7Z"/><path d="M898.3,524.1a2.9,2.9,0,0,1-2.3-.9,3.7,3.7,0,0,1-.8-2.6v-4.8h-2.1v-1.4h2.1v-2.7h1.6v2.7h3.3v1.4h-3.3v4.6a3,3,0,0,0,.5,1.8,1.6,1.6,0,0,0,1.3.5,4.9,4.9,0,0,0,1.9-.5l.2,1.3A4.3,4.3,0,0,1,898.3,524.1Z"/><path d="M907.1,514.4h1.5v1.8a3.9,3.9,0,0,1,1.5-1.6,4.6,4.6,0,0,1,2.1-.5,4.4,4.4,0,0,1,2.3.6,4.2,4.2,0,0,1,1.7,1.8,5.3,5.3,0,0,1,.6,2.6,4.8,4.8,0,0,1-.6,2.4,5.2,5.2,0,0,1-1.7,1.9,4.4,4.4,0,0,1-4.4.2,4,4,0,0,1-1.4-1.5v6.3h-1.6Zm4.7,8.3a3.3,3.3,0,0,0,2.4-1,3.9,3.9,0,0,0,.9-2.6,3.7,3.7,0,0,0-.9-2.6,3.3,3.3,0,0,0-2.4-1,3.3,3.3,0,0,0-2.3,1,3.8,3.8,0,0,0-1,2.6,4,4,0,0,0,1,2.6A3.3,3.3,0,0,0,911.8,522.7Z"/><path d="M919.5,514.4H921v2a3.8,3.8,0,0,1,1.1-1.6,2.7,2.7,0,0,1,1.8-.5h.6l.5.2-.2,1.5a2.3,2.3,0,0,0-3,.7,3.7,3.7,0,0,0-.7,2.5v4.6h-1.6Z"/><path d="M931.2,524.1a5.4,5.4,0,0,1-2.5-.6,7.7,7.7,0,0,1-1.8-1.8,5.5,5.5,0,0,1-.6-2.6,5.4,5.4,0,0,1,.6-2.5,5.2,5.2,0,0,1,1.8-1.8,4.3,4.3,0,0,1,2.5-.7,5.4,5.4,0,0,1,2.5.6,5.2,5.2,0,0,1,1.8,1.8,5.5,5.5,0,0,1,.6,2.6,5.4,5.4,0,0,1-.6,2.5,5.2,5.2,0,0,1-1.8,1.8A4.3,4.3,0,0,1,931.2,524.1Zm0-1.4a3.3,3.3,0,0,0,2.4-1,3.9,3.9,0,0,0,.9-2.6,3.7,3.7,0,0,0-.9-2.6,3.4,3.4,0,0,0-4.8,0,3.7,3.7,0,0,0-.9,2.6,3.9,3.9,0,0,0,.9,2.6A3.3,3.3,0,0,0,931.2,522.7Z"/><path d="M943.8,524.1a4.6,4.6,0,0,1-2-.5,6.7,6.7,0,0,1-1.4-1.5v1.7h-1.6V508.6h1.6v7.5a5.4,5.4,0,0,1,1.5-1.5,4.6,4.6,0,0,1,2.1-.5,4.4,4.4,0,0,1,2.3.6,4,4,0,0,1,1.6,1.8,5.3,5.3,0,0,1,.6,2.6,4.8,4.8,0,0,1-.6,2.4,4.2,4.2,0,0,1-1.6,1.9A4.5,4.5,0,0,1,943.8,524.1Zm-.2-1.4a3.3,3.3,0,0,0,2.4-1,3.9,3.9,0,0,0,.9-2.6,3.7,3.7,0,0,0-.9-2.6,3.3,3.3,0,0,0-2.4-1,3.7,3.7,0,0,0-2.4,1,3.7,3.7,0,0,0-.9,2.6,3.9,3.9,0,0,0,.9,2.6A3.7,3.7,0,0,0,943.6,522.7Z"/><path d="M951.3,508.6h1.6v15.2h-1.6Z"/><path d="M960.8,524.1a5.6,5.6,0,0,1-3.8-1.3,4.6,4.6,0,0,1-1.4-3.7,5.1,5.1,0,0,1,.6-2.5,3.5,3.5,0,0,1,1.6-1.8,4,4,0,0,1,2.4-.7,3.9,3.9,0,0,1,3.1,1.3,4.5,4.5,0,0,1,1.2,3.3v.5a.8.8,0,0,1-.1.4h-7.2a3.2,3.2,0,0,0,1.1,2.3,4,4,0,0,0,2.6.8,7.6,7.6,0,0,0,3.2-.8l.2,1.3a5.9,5.9,0,0,1-1.6.7Zm2.1-5.8a2.9,2.9,0,0,0-.8-2.1,2.4,2.4,0,0,0-2-.7,2.9,2.9,0,0,0-2,.7,3.4,3.4,0,0,0-.9,2.1Z"/><path d="M967.4,514.4h1.5V516a3.3,3.3,0,0,1,1.2-1.4,4.1,4.1,0,0,1,1.9-.5,3.1,3.1,0,0,1,3.1,2.1,2.9,2.9,0,0,1,1.2-1.5,3.6,3.6,0,0,1,2-.6,3.3,3.3,0,0,1,2.6,1,4.5,4.5,0,0,1,.9,3v5.7h-1.6v-5.4a3.4,3.4,0,0,0-.6-2.2,1.9,1.9,0,0,0-1.7-.7,2.2,2.2,0,0,0-1.8.8,3.3,3.3,0,0,0-.7,2.3v5.2h-1.6v-5.4a3.4,3.4,0,0,0-.6-2.2,1.8,1.8,0,0,0-1.6-.7,2.4,2.4,0,0,0-1.9.8,3.3,3.3,0,0,0-.7,2.3v5.2h-1.6Z"/><path d="M987.4,524.1a5.7,5.7,0,0,1-1.8-.3,3,3,0,0,1-1.4-.6l.3-1.4a4,4,0,0,0,1.3.7l1.6.3a3.4,3.4,0,0,0,1.6-.4,1.2,1.2,0,0,0,.6-1,1.2,1.2,0,0,0-.2-.7,1.3,1.3,0,0,0-.7-.5l-1.4-.5a5.6,5.6,0,0,1-2.2-1.1,2.2,2.2,0,0,1-.7-1.7,2.6,2.6,0,0,1,.9-2.1,4.2,4.2,0,0,1,2.6-.7l1.5.2a3.2,3.2,0,0,1,1.3.5l-.2,1.4a5,5,0,0,0-2.6-.8,2.2,2.2,0,0,0-1.5.4,1.1,1.1,0,0,0-.5.9,1.3,1.3,0,0,0,.4.9,6.2,6.2,0,0,0,1.6.7,5.7,5.7,0,0,1,2.6,1.2,2.1,2.1,0,0,1,.7,1.8,2.4,2.4,0,0,1-1.1,2A4.6,4.6,0,0,1,987.4,524.1Z"/><path d="M998,514.4h1.5V516a2.4,2.4,0,0,1,1.2-1.4,3.6,3.6,0,0,1,1.9-.5,2.9,2.9,0,0,1,3,2.1,3.7,3.7,0,0,1,1.3-1.5,3.4,3.4,0,0,1,2-.6,3,3,0,0,1,2.5,1,4.5,4.5,0,0,1,.9,3v5.7h-1.6v-5.4a4.2,4.2,0,0,0-.5-2.2,2.1,2.1,0,0,0-1.7-.7,2.6,2.6,0,0,0-1.9.8,3.9,3.9,0,0,0-.7,2.3v5.2h-1.6v-5.4a3.4,3.4,0,0,0-.5-2.2,1.9,1.9,0,0,0-1.7-.7,2.6,2.6,0,0,0-1.9.8,3.9,3.9,0,0,0-.6,2.3v5.2H998Z"/><path d="M1016.4,511.9a.9.9,0,0,1-.7-.3,1.3,1.3,0,0,1-.3-.8,1.4,1.4,0,0,1,.3-.9.9.9,0,0,1,.7-.3,1,1,0,0,1,.8.3,1.4,1.4,0,0,1,.3.9,1.3,1.3,0,0,1-.3.8A1,1,0,0,1,1016.4,511.9Zm-.7,2.5h1.5v9.4h-1.5Z"/><path d="M1024.6,528.6a7.6,7.6,0,0,1-2.1-.3,3.4,3.4,0,0,1-1.5-.6l.2-1.4a4.4,4.4,0,0,0,1.6.6,4.8,4.8,0,0,0,1.8.3,3.6,3.6,0,0,0,2.6-1,3.8,3.8,0,0,0,.9-2.8v-1.3a5.4,5.4,0,0,1-1.5,1.5,4.6,4.6,0,0,1-2.1.5,4.4,4.4,0,0,1-2.3-.6,4,4,0,0,1-1.6-1.8,5.5,5.5,0,0,1-.6-2.6,5.4,5.4,0,0,1,.6-2.5,5.5,5.5,0,0,1,1.6-1.8,4.5,4.5,0,0,1,2.5-.7,4.1,4.1,0,0,1,1.9.5,5.4,5.4,0,0,1,1.5,1.5v-1.7h1.6v8.8a5.8,5.8,0,0,1-1.3,4A5.2,5.2,0,0,1,1024.6,528.6Zm.3-5.9a3.5,3.5,0,0,0,2.4-1,3.9,3.9,0,0,0,.9-2.6,3.7,3.7,0,0,0-.9-2.6,3.5,3.5,0,0,0-2.4-1,3.3,3.3,0,0,0-2.4,1,3.7,3.7,0,0,0-.9,2.6,3.9,3.9,0,0,0,.9,2.6A3.3,3.3,0,0,0,1024.9,522.7Z"/><path d="M1033,508.6h1.6v7.3a2.7,2.7,0,0,1,1.3-1.3,3.5,3.5,0,0,1,1.8-.5,3.3,3.3,0,0,1,2.6,1,4.5,4.5,0,0,1,.9,3v5.7h-1.6v-5.4a3.4,3.4,0,0,0-.6-2.2,1.8,1.8,0,0,0-1.7-.7,2.4,2.4,0,0,0-1.9.8,3.4,3.4,0,0,0-.8,2.3v5.2H1033Z"/><path d="M1048.2,524.1a2.9,2.9,0,0,1-2.3-.9,3.7,3.7,0,0,1-.8-2.6v-4.8H1043v-1.4h2.1v-2.7h1.6v2.7h3.3v1.4h-3.3v4.6a3,3,0,0,0,.5,1.8,1.6,1.6,0,0,0,1.3.5,4.9,4.9,0,0,0,1.9-.5l.2,1.3A4.3,4.3,0,0,1,1048.2,524.1Z"/><path d="M853.6,555.7a2.9,2.9,0,0,1-2.3-.9,4.1,4.1,0,0,1-.8-2.7v-4.8h-2.1V546h2.1v-2.7h1.6V546h3.3v1.3h-3.3V552a3.2,3.2,0,0,0,.4,1.7,1.7,1.7,0,0,0,1.4.6,4.9,4.9,0,0,0,1.9-.5l.2,1.3A4.3,4.3,0,0,1,853.6,555.7Z"/><path d="M858.1,540.1h1.6v7.4a2.9,2.9,0,0,1,3.1-1.8,3.3,3.3,0,0,1,2.6,1,4.5,4.5,0,0,1,.9,3v5.7h-1.6V550a3.4,3.4,0,0,0-.6-2.2,1.9,1.9,0,0,0-1.7-.7,2.8,2.8,0,0,0-2,.8,3.9,3.9,0,0,0-.7,2.3v5.2h-1.6Z"/><path d="M874.1,555.7a5.4,5.4,0,0,1-3.8-1.4,4.9,4.9,0,0,1-1.4-3.6,5.8,5.8,0,0,1,.6-2.6,5.5,5.5,0,0,1,1.6-1.8,5.4,5.4,0,0,1,2.5-.6,4.1,4.1,0,0,1,3.1,1.2,5.3,5.3,0,0,1,1.1,3.4v.9h-7.3a3.1,3.1,0,0,0,1.1,2.2,3.7,3.7,0,0,0,2.6.8,7.1,7.1,0,0,0,3.2-.7l.2,1.3a3.4,3.4,0,0,1-1.5.6A6.9,6.9,0,0,1,874.1,555.7Zm2.2-5.8a3.3,3.3,0,0,0-.8-2.1,2.9,2.9,0,0,0-4,0,3.5,3.5,0,0,0-1,2.1Z"/><path d="M883.3,555.7a5.7,5.7,0,0,1-1.8-.3,5.9,5.9,0,0,1-1.4-.6l.3-1.4a4.6,4.6,0,0,0,1.4.7l1.5.2a3.5,3.5,0,0,0,1.6-.3,1.2,1.2,0,0,0,.6-1,1.1,1.1,0,0,0-.2-.8,1.4,1.4,0,0,0-.7-.4,3.2,3.2,0,0,0-1.4-.5,4.5,4.5,0,0,1-2.2-1.2,2.1,2.1,0,0,1-.7-1.7,2.3,2.3,0,0,1,1-2,3.9,3.9,0,0,1,2.5-.7,4.4,4.4,0,0,1,1.6.2l1.3.5-.3,1.4a5,5,0,0,0-2.6-.8,2.6,2.6,0,0,0-1.4.3,1.1,1.1,0,0,0-.5,1,1,1,0,0,0,.4.9l1.6.7a5.3,5.3,0,0,1,2.5,1.2,2.1,2.1,0,0,1,.7,1.8,2.3,2.3,0,0,1-1,2A4.7,4.7,0,0,1,883.3,555.7Z"/><path d="M894.2,555.7a5.2,5.2,0,0,1-3.8-1.4,4.9,4.9,0,0,1-1.4-3.6,5.8,5.8,0,0,1,.6-2.6,5.5,5.5,0,0,1,1.6-1.8,5.1,5.1,0,0,1,2.5-.6,3.9,3.9,0,0,1,3,1.2,4.9,4.9,0,0,1,1.2,3.4v.9h-7.3a3.1,3.1,0,0,0,1.1,2.2,3.7,3.7,0,0,0,2.6.8,7.1,7.1,0,0,0,3.2-.7l.2,1.3a3.4,3.4,0,0,1-1.6.6A5.8,5.8,0,0,1,894.2,555.7Zm2.2-5.8a3.3,3.3,0,0,0-.8-2.1,2.9,2.9,0,0,0-4,0,3,3,0,0,0-1,2.1Z"/><path d="M905.1,546h1.5v1.6a2.4,2.4,0,0,1,1.2-1.4,3,3,0,0,1,1.9-.5,3.3,3.3,0,0,1,2.6,1,4.5,4.5,0,0,1,.9,3v5.7h-1.6V550a3.4,3.4,0,0,0-.6-2.2,1.8,1.8,0,0,0-1.7-.7,2.4,2.4,0,0,0-1.9.8,3.4,3.4,0,0,0-.8,2.3v5.2h-1.5Z"/><path d="M921.1,555.7a5.2,5.2,0,0,1-3.8-1.4,4.5,4.5,0,0,1-1.4-3.6,5.8,5.8,0,0,1,.5-2.6,5.8,5.8,0,0,1,1.7-1.8,4.8,4.8,0,0,1,2.4-.6,4.1,4.1,0,0,1,3.1,1.2,4.9,4.9,0,0,1,1.2,3.4c0,.2,0,.3-.1.4v.5h-7.3a2.9,2.9,0,0,0,1.2,2.2,3.4,3.4,0,0,0,2.5.8,7.8,7.8,0,0,0,3.3-.7v1.3a3.4,3.4,0,0,1-1.5.6A6.3,6.3,0,0,1,921.1,555.7Zm2.1-5.8a2.9,2.9,0,0,0-.8-2.1,2.6,2.6,0,0,0-2-.8,2.8,2.8,0,0,0-2,.8,4.1,4.1,0,0,0-1,2.1Z"/><path d="M926.4,546h1.7l2.4,7.7,2.4-7.7h1.4l2.5,7.7,2.4-7.7h1.6l-3.3,9.4H936l-2.5-7.6-2.3,7.6h-1.5Z"/><path d="M949.5,555.7a5.7,5.7,0,0,1-1.8-.3,4.5,4.5,0,0,1-1.4-.6l.2-1.4a6.1,6.1,0,0,0,1.4.7l1.6.2a3.5,3.5,0,0,0,1.6-.3,1.2,1.2,0,0,0,.6-1,1.9,1.9,0,0,0-.2-.8l-.7-.4a3.8,3.8,0,0,0-1.4-.5,4.9,4.9,0,0,1-2.3-1.2,2.4,2.4,0,0,1-.6-1.7,2.5,2.5,0,0,1,.9-2,4.2,4.2,0,0,1,2.6-.7,3.9,3.9,0,0,1,1.5.2,3.2,3.2,0,0,1,1.3.5l-.2,1.4a5,5,0,0,0-2.6-.8,3.1,3.1,0,0,0-1.5.3,1.4,1.4,0,0,0-.5,1,1.3,1.3,0,0,0,.4.9l1.6.7a5.7,5.7,0,0,1,2.6,1.2,2.5,2.5,0,0,1,.7,1.8,2.4,2.4,0,0,1-1.1,2A4.6,4.6,0,0,1,949.5,555.7Z"/><path d="M960.1,555.7a4.5,4.5,0,0,1-2.5-.7,4.4,4.4,0,0,1-2.4-4.3,5.4,5.4,0,0,1,.6-2.5,3.9,3.9,0,0,1,1.8-1.8,4.3,4.3,0,0,1,2.5-.7,5.4,5.4,0,0,1,2.5.6,4.2,4.2,0,0,1,1.7,1.8,4.4,4.4,0,0,1,.7,2.6,4.8,4.8,0,0,1-.6,2.4,4.7,4.7,0,0,1-1.8,1.9A5.2,5.2,0,0,1,960.1,555.7Zm0-1.5a3.1,3.1,0,0,0,2.4-1,3.5,3.5,0,0,0,.9-2.5,3.7,3.7,0,0,0-.9-2.6,3.1,3.1,0,0,0-2.4-1,3,3,0,0,0-2.4,1,3.7,3.7,0,0,0-.9,2.6,3.5,3.5,0,0,0,.9,2.5A3,3,0,0,0,960.1,554.2Z"/><path d="M967.7,540.1h1.6v15.3h-1.6Z"/><path d="M976,555.7a3.4,3.4,0,0,1-2.5-1,3.9,3.9,0,0,1-.8-2.8V546h1.6v5.5a3,3,0,0,0,.5,2.1,2.1,2.1,0,0,0,1.7.7,2.2,2.2,0,0,0,1.9-.9,3.1,3.1,0,0,0,.7-2.2V546h1.6v9.4h-1.5v-1.6a4.1,4.1,0,0,1-1.2,1.4A4.6,4.6,0,0,1,976,555.7Z"/><path d="M987.9,555.7a3,3,0,0,1-2.4-.9,4.1,4.1,0,0,1-.7-2.7v-4.8h-2.2V546h2.2v-2.7h1.5V546h3.3v1.3h-3.3V552a2.5,2.5,0,0,0,.5,1.7,1.4,1.4,0,0,0,1.3.6,4.5,4.5,0,0,0,1.9-.5l.2,1.3A4.1,4.1,0,0,1,987.9,555.7Z"/><path d="M993.1,543.5a1,1,0,0,1-.7-.4.8.8,0,0,1-.4-.8,1.2,1.2,0,0,1,1.1-1.1,1,1,0,0,1,1.1,1.1,1,1,0,0,1-.3.8A1.2,1.2,0,0,1,993.1,543.5Zm-.8,2.5h1.6v9.4h-1.6Z"/><path d="M1001.6,555.7a4.5,4.5,0,0,1-2.5-.7,4.4,4.4,0,0,1-2.4-4.3,5.4,5.4,0,0,1,.6-2.5,4.2,4.2,0,0,1,1.7-1.8,4.6,4.6,0,0,1,2.6-.7,5.4,5.4,0,0,1,2.5.6,4.2,4.2,0,0,1,1.7,1.8,4.4,4.4,0,0,1,.7,2.6,4.8,4.8,0,0,1-.6,2.4,4.7,4.7,0,0,1-1.8,1.9A5.2,5.2,0,0,1,1001.6,555.7Zm0-1.5a3.3,3.3,0,0,0,2.4-1,3.5,3.5,0,0,0,.9-2.5,3.7,3.7,0,0,0-.9-2.6,3.3,3.3,0,0,0-2.4-1,3,3,0,0,0-2.4,1,3.7,3.7,0,0,0-.9,2.6,3.5,3.5,0,0,0,.9,2.5A3,3,0,0,0,1001.6,554.2Z"/><path d="M1009.2,546h1.5v1.6a2.4,2.4,0,0,1,1.2-1.4,3,3,0,0,1,1.9-.5,3.3,3.3,0,0,1,2.6,1,4.5,4.5,0,0,1,.9,3v5.7h-1.6V550a3.4,3.4,0,0,0-.6-2.2,1.9,1.9,0,0,0-1.7-.7,2.8,2.8,0,0,0-2,.8,3.9,3.9,0,0,0-.7,2.3v5.2h-1.6Z"/><path d="M1023,555.7a5.7,5.7,0,0,1-1.8-.3,4.5,4.5,0,0,1-1.4-.6l.2-1.4a6.1,6.1,0,0,0,1.4.7l1.6.2a3.5,3.5,0,0,0,1.6-.3,1.2,1.2,0,0,0,.6-1,1.9,1.9,0,0,0-.2-.8l-.7-.4a3.8,3.8,0,0,0-1.4-.5,5.5,5.5,0,0,1-2.3-1.2,2.4,2.4,0,0,1-.6-1.7,2.5,2.5,0,0,1,.9-2,4.2,4.2,0,0,1,2.6-.7,3.9,3.9,0,0,1,1.5.2,3.2,3.2,0,0,1,1.3.5l-.2,1.4a5,5,0,0,0-2.6-.8,3.1,3.1,0,0,0-1.5.3,1.4,1.4,0,0,0-.5,1,1.3,1.3,0,0,0,.4.9l1.6.7a5.7,5.7,0,0,1,2.6,1.2,2.5,2.5,0,0,1,.7,1.8,2.4,2.4,0,0,1-1.1,2A4.6,4.6,0,0,1,1023,555.7Z"/><path d="M853.8,591.7l-2-.2-1.5-.6.2-1.5a6.9,6.9,0,0,0,1.5.7l1.8.2a3.7,3.7,0,0,0,2.7-.9,3.9,3.9,0,0,0,.8-2.8v-1.4a2.9,2.9,0,0,1-1.4,1.5,4.1,4.1,0,0,1-2.1.5,4.4,4.4,0,0,1-2.3-.6,4.6,4.6,0,0,1-1.7-1.7,6,6,0,0,1-.6-2.7,5,5,0,0,1,.6-2.4,5.2,5.2,0,0,1,1.7-1.9,4.8,4.8,0,0,1,2.4-.7,3.4,3.4,0,0,1,2,.6,2.9,2.9,0,0,1,1.4,1.5v-1.8h1.5v8.9a5.5,5.5,0,0,1-1.3,4A4.9,4.9,0,0,1,853.8,591.7Zm.4-5.9a2.9,2.9,0,0,0,2.3-1,3.6,3.6,0,0,0,1-2.6,3.6,3.6,0,0,0-1-2.5,2.9,2.9,0,0,0-2.3-1,3,3,0,0,0-2.4,1,3.5,3.5,0,0,0-.9,2.5,3.6,3.6,0,0,0,.9,2.6A3,3,0,0,0,854.2,585.8Z"/><path d="M863.1,575a1,1,0,1,1,.8-.3A1.1,1.1,0,0,1,863.1,575Zm-.8,2.5h1.6v9.4h-1.6Z"/><path d="M866,577.5h1.7l3,7.7,2.9-7.7h1.7l-3.9,9.4h-1.6Z"/><path d="M881.6,587.2a5.2,5.2,0,0,1-3.8-1.3,4.9,4.9,0,0,1-1.4-3.6,5.5,5.5,0,0,1,.6-2.6,4.6,4.6,0,0,1,1.6-1.8,4.8,4.8,0,0,1,2.4-.7,4.2,4.2,0,0,1,3.1,1.3,4.9,4.9,0,0,1,1.2,3.4v.8H878a3.4,3.4,0,0,0,1.1,2.3,4,4,0,0,0,2.6.8,6.3,6.3,0,0,0,3.2-.8l.2,1.4a3.8,3.8,0,0,1-1.6.6A5.8,5.8,0,0,1,881.6,587.2Zm2.1-5.7a3.3,3.3,0,0,0-.7-2.1,2.8,2.8,0,0,0-2-.8,3,3,0,0,0-2.1.8,3.4,3.4,0,0,0-.9,2.1Z"/><path d="M892.4,577.5h1.5v2a3.1,3.1,0,0,1,1.2-1.5,2.7,2.7,0,0,1,1.7-.6h1.1l-.2,1.5-1.1-.2a2.3,2.3,0,0,0-1.9.9,4.6,4.6,0,0,0-.7,2.5v4.6h-1.6Z"/><path d="M901,575a.9.9,0,0,1-.7-.3,1.2,1.2,0,0,1,0-1.6.9.9,0,0,1,.7-.3,1,1,0,0,1,.8.3,1.2,1.2,0,0,1,0,1.6A1,1,0,0,1,901,575Zm-.7,2.5h1.6v9.4h-1.6Z"/><path d="M907.5,587.2a4.7,4.7,0,0,1-1.7-.2l-1.4-.6.2-1.5a3.1,3.1,0,0,0,1.4.7,4,4,0,0,0,1.5.3,2.4,2.4,0,0,0,1.6-.4,1,1,0,0,0,.6-1,.8.8,0,0,0-.2-.7c-.1-.2-.3-.3-.6-.5l-1.4-.5a4.9,4.9,0,0,1-2.3-1.1,2.4,2.4,0,0,1-.7-1.7,2.3,2.3,0,0,1,1-2,4.3,4.3,0,0,1,4.1-.5l1.3.5-.3,1.3a4.6,4.6,0,0,0-2.6-.7,2.6,2.6,0,0,0-1.4.3.9.9,0,0,0-.5.9,1.3,1.3,0,0,0,.4,1,5.3,5.3,0,0,0,1.6.6,8.3,8.3,0,0,1,2.5,1.2,2.7,2.7,0,0,1-.3,3.9A4.7,4.7,0,0,1,907.5,587.2Z"/><path d="M918.4,587.2a5.3,5.3,0,0,1-3.8-1.3,4.9,4.9,0,0,1-1.4-3.6,5.5,5.5,0,0,1,.6-2.6,4.4,4.4,0,0,1,4.1-2.5,4.4,4.4,0,0,1,3.1,1.3,5.3,5.3,0,0,1,1.1,3.4v.8h-7.3a3.4,3.4,0,0,0,1.1,2.3,4.2,4.2,0,0,0,2.6.8,6.1,6.1,0,0,0,3.2-.8l.2,1.4a3.4,3.4,0,0,1-1.5.6A6.8,6.8,0,0,1,918.4,587.2Zm2.2-5.7a3.3,3.3,0,0,0-.8-2.1,2.9,2.9,0,0,0-4,0,3.5,3.5,0,0,0-1,2.1Z"/><path d="M933,587.2a2.7,2.7,0,0,1-2.3-.8,4.1,4.1,0,0,1-.8-2.7v-4.8h-2.1v-1.4h2.1v-2.7h1.6v2.7h3.3v1.4h-3.3v4.7a2.5,2.5,0,0,0,.4,1.7c.3.4.7.5,1.4.5a3.9,3.9,0,0,0,1.8-.4l.2,1.3A3.9,3.9,0,0,1,933,587.2Z"/><path d="M941.8,587.2a5.1,5.1,0,0,1-2.5-.6,3.9,3.9,0,0,1-1.8-1.8,5.3,5.3,0,0,1-.7-2.6,4.2,4.2,0,0,1,.7-2.4,5.2,5.2,0,0,1,1.7-1.9,5.6,5.6,0,0,1,2.6-.7,4.8,4.8,0,0,1,2.4.7,4.2,4.2,0,0,1,1.8,1.7,4.8,4.8,0,0,1,.7,2.6,4.3,4.3,0,0,1-.7,2.5,4.2,4.2,0,0,1-1.7,1.8A4.5,4.5,0,0,1,941.8,587.2Zm0-1.4a2.9,2.9,0,0,0,2.3-1,3.6,3.6,0,0,0,.9-2.6,3.5,3.5,0,0,0-.9-2.5,2.9,2.9,0,0,0-2.3-1,3,3,0,0,0-2.4,1,3.5,3.5,0,0,0-.9,2.5,3.6,3.6,0,0,0,.9,2.6A3,3,0,0,0,941.8,585.8Z"/><path d="M950.7,582.4v-.3a.8.8,0,0,1-.1-.4,4,4,0,0,1,.3-1.5,4.1,4.1,0,0,1,.7-1.1l.8-.9.8-.9a3.1,3.1,0,0,0,.7-.9,1.7,1.7,0,0,0,.3-1,2.1,2.1,0,0,0-.7-1.5,2.9,2.9,0,0,0-1.7-.5,4.2,4.2,0,0,0-3.4,1.7l-.4-1.4a4.5,4.5,0,0,1,1.7-1.3,5.4,5.4,0,0,1,2.2-.5,3.7,3.7,0,0,1,2.8,1,3.3,3.3,0,0,1,1.1,2.5,2.5,2.5,0,0,1-.3,1.3,4.1,4.1,0,0,1-.7,1.1l-.8.9a7.6,7.6,0,0,0-.9.9l-.7,1.1a2.8,2.8,0,0,0-.3,1.3v.4Zm.7,4.7a1.3,1.3,0,0,1-.9-.4,1.2,1.2,0,0,1-.3-.9,1.1,1.1,0,0,1,.3-.8,1,1,0,0,1,.9-.4,1.4,1.4,0,0,1,1.2,1.2,1,1,0,0,1-.4.9A1.2,1.2,0,0,1,951.4,587.1Z"/><path d="M461.2,226.3h3a4.5,4.5,0,0,1,3,.9,3.3,3.3,0,0,1,1.1,2.5,3.6,3.6,0,0,1-.9,2.4,4.4,4.4,0,0,1-2.2,1.5l2.6,5.4h-1.7l-2.3-5.1h-2.7l-1,5.1h-1.4Zm.2,6.4h2.1a4.2,4.2,0,0,0,1.6-.4,2.9,2.9,0,0,0,1.2-1,2.5,2.5,0,0,0,.5-1.5,2.1,2.1,0,0,0-.8-1.7,2.8,2.8,0,0,0-2-.6h-1.6Z"/><path d="M474,239.2a4.5,4.5,0,0,1-3.1-1,3.8,3.8,0,0,1-1.1-2.8,5.4,5.4,0,0,1,.6-2.5,4.2,4.2,0,0,1,1.7-1.8,4,4,0,0,1,2.4-.7,3.3,3.3,0,0,1,1.7.4,2.5,2.5,0,0,1,1.2,1.1,3.4,3.4,0,0,1,.4,1.8,4.7,4.7,0,0,1-.2,1.6h-6.4q0,2.7,3,2.7a6.2,6.2,0,0,0,2.6-.6v1.2a3.3,3.3,0,0,1-1.2.5Zm2.4-5.1v-.4a2.1,2.1,0,0,0-.5-1.6,2.5,2.5,0,0,0-1.5-.5,2.6,2.6,0,0,0-1.9.7,3.6,3.6,0,0,0-1.2,1.8Z"/><path d="M482.1,239.2a4.4,4.4,0,0,1-1.6-.2,3.2,3.2,0,0,1-1.3-.7l.3-1.2a4.5,4.5,0,0,0,2.7,1,2.1,2.1,0,0,0,1.2-.4,1,1,0,0,0,.4-.9.9.9,0,0,0-.3-.7,4.9,4.9,0,0,0-1.3-.8,4.4,4.4,0,0,1-1.6-1,2.4,2.4,0,0,1-.5-1.4,2.1,2.1,0,0,1,.9-1.8,2.8,2.8,0,0,1,2.1-.7,3.2,3.2,0,0,1,1.4.2,3.1,3.1,0,0,1,1.3.6l-.3,1.1a4.6,4.6,0,0,0-2.4-.8,2.1,2.1,0,0,0-1.2.4.9.9,0,0,0-.4.8,1.1,1.1,0,0,0,.3.8l1,.6a5.2,5.2,0,0,1,1.9,1.2,1.8,1.8,0,0,1,.6,1.4,2.3,2.3,0,0,1-.9,1.9A3.7,3.7,0,0,1,482.1,239.2Z"/><path d="M491.5,239.2a4.5,4.5,0,0,1-3.1-1,3.8,3.8,0,0,1-1.1-2.8,5.4,5.4,0,0,1,.6-2.5,4.2,4.2,0,0,1,1.7-1.8,4,4,0,0,1,2.4-.7,3.3,3.3,0,0,1,1.7.4,2.5,2.5,0,0,1,1.2,1.1,3.4,3.4,0,0,1,.4,1.8,4.7,4.7,0,0,1-.2,1.6h-6.4q0,2.7,3,2.7a6.2,6.2,0,0,0,2.6-.6v1.2a3.3,3.3,0,0,1-1.2.5Zm2.4-5.1v-.4a2.1,2.1,0,0,0-.5-1.6,2.5,2.5,0,0,0-1.5-.5,2.6,2.6,0,0,0-1.9.7,3.6,3.6,0,0,0-1.2,1.8Z"/><path d="M500.7,239.2a3.2,3.2,0,0,1-2.5-1,4.3,4.3,0,0,1-.9-2.8,4.8,4.8,0,0,1,.6-2.4,4.4,4.4,0,0,1,1.7-1.9,3.7,3.7,0,0,1,2.3-.7,2.5,2.5,0,0,1,1.7.5,2.6,2.6,0,0,1,1.1,1.4l.4-1.7h1.4l-1.6,8.4h-1.4l.2-1.3a3.6,3.6,0,0,1-1.3,1.1A3.3,3.3,0,0,1,500.7,239.2Zm.4-1.2a3,3,0,0,0,1.6-.5,3.7,3.7,0,0,0,1.2-1.3,4.1,4.1,0,0,0,.5-1.9,2.6,2.6,0,0,0-.7-2,2.4,2.4,0,0,0-1.7-.7,3,3,0,0,0-1.6.5,3.7,3.7,0,0,0-1.2,1.3,4.6,4.6,0,0,0-.5,2,2.5,2.5,0,0,0,.7,1.9A2.4,2.4,0,0,0,501.1,238Z"/><path d="M507.9,239l1.6-8.4h1.3l-.3,1.7a4.7,4.7,0,0,1,1.1-1.3,3,3,0,0,1,1.5-.5,2,2,0,0,1,1.1.3l-.3,1.3a2,2,0,0,0-1.1-.3,2.1,2.1,0,0,0-1.7.9,5.8,5.8,0,0,0-1.1,2.5l-.7,3.8Z"/><path d="M518.8,239.2a4,4,0,0,1-3-1,3.8,3.8,0,0,1-1.1-2.8,5.4,5.4,0,0,1,.6-2.5,5.2,5.2,0,0,1,1.8-1.8,4.3,4.3,0,0,1,2.5-.7l1.4.2a3.3,3.3,0,0,1,1.2.5l-.3,1.3-1.1-.5a2.5,2.5,0,0,0-1.2-.2,3.1,3.1,0,0,0-1.7.4,3.3,3.3,0,0,0-1.3,1.3,4.1,4.1,0,0,0-.5,1.9,2.4,2.4,0,0,0,.8,1.9,2.8,2.8,0,0,0,2.1.7h1.1l1-.4v1.2a2.3,2.3,0,0,1-1,.4Z"/><path d="M526,225.5h1.4l-1.2,6.3a4.3,4.3,0,0,1,1.2-1.1l1.5-.3a2.5,2.5,0,0,1,1.9.7,2.8,2.8,0,0,1,.8,2c0,.3-.1.5-.1.8l-1,5.1h-1.4l.9-4.8a3.4,3.4,0,0,0,.1-.9,1.5,1.5,0,0,0-1.7-1.7,2.5,2.5,0,0,0-1.7.8,3.8,3.8,0,0,0-1,2l-.9,4.6h-1.4Z"/><path d="M531.7,242a9.7,9.7,0,0,0,1.5-2.4,8.4,8.4,0,0,0,.7-2.6h1.6a5.6,5.6,0,0,1-.8,2.7A6.6,6.6,0,0,1,533,242Z"/><path d="M544.5,239.2a4.4,4.4,0,0,1-1.6-.2,3.2,3.2,0,0,1-1.3-.7l.3-1.2a4.5,4.5,0,0,0,2.7,1,2.1,2.1,0,0,0,1.2-.4,1,1,0,0,0,.4-.9.9.9,0,0,0-.3-.7,4.9,4.9,0,0,0-1.3-.8,4.4,4.4,0,0,1-1.6-1,2.4,2.4,0,0,1-.5-1.4,2.3,2.3,0,0,1,.8-1.8,3.2,3.2,0,0,1,2.2-.7,3.4,3.4,0,0,1,1.4.2,2.3,2.3,0,0,1,1.2.6l-.2,1.1a4.6,4.6,0,0,0-2.4-.8,2.1,2.1,0,0,0-1.2.4.9.9,0,0,0-.4.8,1.1,1.1,0,0,0,.3.8l1,.6a5.2,5.2,0,0,1,1.9,1.2,1.8,1.8,0,0,1,.6,1.4,2.3,2.3,0,0,1-.9,1.9A3.9,3.9,0,0,1,544.5,239.2Z"/><path d="M551.1,230.6h1.4l-.3,1.4a4.9,4.9,0,0,1,1.3-1.2,3.8,3.8,0,0,1,1.7-.4,3,3,0,0,1,2.5,1,4.3,4.3,0,0,1,1,2.8,4,4,0,0,1-.7,2.4,4.9,4.9,0,0,1-1.6,1.9,3.9,3.9,0,0,1-2.3.7,3.4,3.4,0,0,1-1.8-.4,3.3,3.3,0,0,1-1.1-1.5l-1.1,5.8h-1.4ZM554,238a3.3,3.3,0,0,0,1.6-.5,5,5,0,0,0,1.2-1.3,4.1,4.1,0,0,0,.4-1.9,3,3,0,0,0-.6-2,2.7,2.7,0,0,0-1.8-.7,3,3,0,0,0-1.6.5,3.7,3.7,0,0,0-1.2,1.3,4.5,4.5,0,0,0-.4,2,2.9,2.9,0,0,0,.6,1.9A2.5,2.5,0,0,0,554,238Z"/><path d="M564.7,239.2a4.3,4.3,0,0,1-3.1-1,3.4,3.4,0,0,1-1.1-2.8,5.4,5.4,0,0,1,.6-2.5,4.6,4.6,0,0,1,1.6-1.8,4.5,4.5,0,0,1,2.5-.7,3.3,3.3,0,0,1,1.7.4,2.5,2.5,0,0,1,1.2,1.1,3.4,3.4,0,0,1,.4,1.8,10,10,0,0,1-.2,1.6h-6.4q0,2.7,3,2.7a5.4,5.4,0,0,0,2.5-.6v1.2a3.2,3.2,0,0,1-1.3.5Zm2.4-5.1v-.4a1.8,1.8,0,0,0-2.1-2.1,2.4,2.4,0,0,0-1.8.7,3.6,3.6,0,0,0-1.2,1.8Z"/><path d="M574.5,239.2a3.9,3.9,0,0,1-2.9-1,3.4,3.4,0,0,1-1.1-2.8,5.4,5.4,0,0,1,.6-2.5,5.2,5.2,0,0,1,1.8-1.8,4.1,4.1,0,0,1,2.5-.7l1.4.2,1.2.5-.3,1.3-1.1-.5a3.2,3.2,0,0,0-1.3-.2,3.3,3.3,0,0,0-1.7.4,3.7,3.7,0,0,0-1.2,1.3,4.1,4.1,0,0,0-.5,1.9,2.4,2.4,0,0,0,.8,1.9,2.8,2.8,0,0,0,2.1.7h1.1l.9-.4v1.2l-1.1.4Z"/><path d="M582,239.2a2.1,2.1,0,0,1-1.8-.7,2.4,2.4,0,0,1-.7-1.9,3.1,3.1,0,0,1,.1-.9l1-5.1H582l-1,5c0,.3-.1.6-.1.8a1.4,1.4,0,0,0,1.6,1.6,2.5,2.5,0,0,0,1.8-.8,3.4,3.4,0,0,0,1-2l.9-4.6h1.4L586,239h-1.3l.2-1.3a2.5,2.5,0,0,1-1.2,1.1A3.3,3.3,0,0,1,582,239.2Z"/><path d="M591.6,225.5H593L590.4,239H589Z"/><path d="M597.1,239.2a3,3,0,0,1-2.5-1,3.9,3.9,0,0,1-1-2.8,4.8,4.8,0,0,1,.6-2.4,5.2,5.2,0,0,1,1.7-1.9,3.9,3.9,0,0,1,2.3-.7,2.7,2.7,0,0,1,1.8.5,3.1,3.1,0,0,1,1.1,1.4l.3-1.7h1.4l-1.6,8.4h-1.4l.2-1.3a3.6,3.6,0,0,1-1.3,1.1A3.2,3.2,0,0,1,597.1,239.2Zm.4-1.2a3.3,3.3,0,0,0,1.6-.5,7.7,7.7,0,0,0,1.2-1.3,4.1,4.1,0,0,0,.4-1.9,3,3,0,0,0-.6-2,2.7,2.7,0,0,0-1.8-.7,3,3,0,0,0-1.6.5,3.7,3.7,0,0,0-1.2,1.3,4.5,4.5,0,0,0-.4,2,2.9,2.9,0,0,0,.6,1.9A2.5,2.5,0,0,0,597.5,238Z"/><path d="M607.6,239.2a3,3,0,0,1-1.8-.5,2.4,2.4,0,0,1-.6-1.7,3.4,3.4,0,0,1,.1-1l.8-4.2h-1.9l.3-1.2h1.8l.5-2.4h1.4l-.4,2.4h2.6l-.2,1.2h-2.7l-.8,4.2c0,.3-.1.6-.1.8a1.2,1.2,0,0,0,.3.9,1.3,1.3,0,0,0,1,.3h.8l.8-.3v1.2A4.2,4.2,0,0,1,607.6,239.2Z"/><path d="M615.7,239.2a4.5,4.5,0,0,1-3.1-1,3.8,3.8,0,0,1-1.1-2.8,5.4,5.4,0,0,1,.6-2.5,4.2,4.2,0,0,1,1.7-1.8,4,4,0,0,1,2.4-.7,3.3,3.3,0,0,1,1.7.4,2.5,2.5,0,0,1,1.2,1.1,3.4,3.4,0,0,1,.4,1.8,4.7,4.7,0,0,1-.2,1.6h-6.4c0,1.8,1,2.7,3.1,2.7a6.1,6.1,0,0,0,2.5-.6v1.2a3.3,3.3,0,0,1-1.2.5Zm2.4-5.1v-.4a2.1,2.1,0,0,0-.5-1.6,2.5,2.5,0,0,0-1.5-.5,2.6,2.6,0,0,0-1.9.7,3.6,3.6,0,0,0-1.2,1.8Z"/><path d="M619.3,242a14.3,14.3,0,0,0,1.6-2.4,8.4,8.4,0,0,0,.7-2.6h1.6a9.2,9.2,0,0,1-.8,2.7,8.1,8.1,0,0,1-1.7,2.3Z"/><path d="M634.1,239.2a4.3,4.3,0,0,1-3.1-1,3.4,3.4,0,0,1-1.1-2.8,5.4,5.4,0,0,1,.6-2.5,4.6,4.6,0,0,1,1.6-1.8,4.5,4.5,0,0,1,2.5-.7,3.3,3.3,0,0,1,1.7.4,2.5,2.5,0,0,1,1.2,1.1,3.4,3.4,0,0,1,.4,1.8,10,10,0,0,1-.2,1.6h-6.5c0,1.8,1.1,2.7,3.1,2.7a5.4,5.4,0,0,0,2.5-.6v1.2l-1.3.5Zm2.4-5.1v-.4a1.8,1.8,0,0,0-2.1-2.1,2.4,2.4,0,0,0-1.8.7,3.6,3.6,0,0,0-1.2,1.8Z"/><path d="M639.8,230.6h1.5l1.2,6.8,3.8-6.8h1.5l-4.9,8.4h-1.4Z"/><path d="M651.7,239.2a3.2,3.2,0,0,1-2.5-1,4.3,4.3,0,0,1-.9-2.8,4.8,4.8,0,0,1,.6-2.4,4.4,4.4,0,0,1,1.7-1.9,3.7,3.7,0,0,1,2.3-.7,2.6,2.6,0,0,1,1.7.5,2.6,2.6,0,0,1,1.1,1.4l.4-1.7h1.4l-1.7,8.4h-1.3l.2-1.3a4.7,4.7,0,0,1-1.3,1.1A3.5,3.5,0,0,1,651.7,239.2Zm.4-1.2a3,3,0,0,0,1.6-.5,3.7,3.7,0,0,0,1.2-1.3,4.1,4.1,0,0,0,.5-1.9,3,3,0,0,0-.7-2,2.4,2.4,0,0,0-1.7-.7,3,3,0,0,0-1.6.5,3.7,3.7,0,0,0-1.2,1.3,4.6,4.6,0,0,0-.5,2,2.5,2.5,0,0,0,.7,1.9A2.4,2.4,0,0,0,652.1,238Z"/><path d="M661.5,225.5h1.4L660.3,239h-1.5Z"/><path d="M666.3,239.2a2.1,2.1,0,0,1-1.8-.7,2.4,2.4,0,0,1-.7-1.9,3.1,3.1,0,0,1,.1-.9l.9-5.1h1.5l-1,5a2.5,2.5,0,0,0-.1.8c0,1.1.5,1.6,1.5,1.6a2.6,2.6,0,0,0,1.9-.8,3.4,3.4,0,0,0,1-2l.9-4.6h1.4l-1.6,8.4H669l.2-1.3a2.5,2.5,0,0,1-1.2,1.1A3.3,3.3,0,0,1,666.3,239.2Z"/><path d="M676.9,239.2a3.3,3.3,0,0,1-2.5-1,4.3,4.3,0,0,1-.9-2.8,4.8,4.8,0,0,1,.6-2.4,5.2,5.2,0,0,1,1.7-1.9,3.7,3.7,0,0,1,2.3-.7,2.3,2.3,0,0,1,1.7.5,2.6,2.6,0,0,1,1.1,1.4l.4-1.7h1.4l-1.6,8.4h-1.4l.2-1.3a3.6,3.6,0,0,1-1.3,1.1A3.3,3.3,0,0,1,676.9,239.2Zm.4-1.2a3,3,0,0,0,1.6-.5,3.7,3.7,0,0,0,1.2-1.3,4.1,4.1,0,0,0,.5-1.9,2.6,2.6,0,0,0-.7-2,2.4,2.4,0,0,0-1.7-.7,3,3,0,0,0-1.6.5,3.7,3.7,0,0,0-1.2,1.3,4.6,4.6,0,0,0-.5,2,2.5,2.5,0,0,0,.7,1.9A2.4,2.4,0,0,0,677.3,238Z"/><path d="M687.5,239.2a3,3,0,0,1-1.8-.5,2.4,2.4,0,0,1-.6-1.7,3.4,3.4,0,0,1,.1-1l.8-4.2h-1.9l.2-1.2h1.9l.5-2.4h1.4l-.5,2.4h2.7l-.3,1.2h-2.6l-.8,4.2a2.5,2.5,0,0,0-.1.8,1.1,1.1,0,0,0,1.2,1.2h.8l.9-.3v1.2A3.8,3.8,0,0,1,687.5,239.2Z"/><path d="M695.6,239.2a4.3,4.3,0,0,1-3.1-1,3.4,3.4,0,0,1-1.1-2.8,5.4,5.4,0,0,1,.6-2.5,4,4,0,0,1,1.6-1.8,4.4,4.4,0,0,1,2.4-.7,3.4,3.4,0,0,1,1.8.4,2.5,2.5,0,0,1,1.2,1.1,3.4,3.4,0,0,1,.4,1.8,10,10,0,0,1-.2,1.6h-6.5c0,1.8,1.1,2.7,3.1,2.7a5.4,5.4,0,0,0,2.5-.6v1.2l-1.3.5Zm2.4-5.1v-.4a1.8,1.8,0,0,0-2.1-2.1,2.8,2.8,0,0,0-1.9.7,4.2,4.2,0,0,0-1.1,1.8Z"/><path d="M934,616.1h3.1a4.5,4.5,0,0,1,3,.9,3.1,3.1,0,0,1,1.1,2.5,3.6,3.6,0,0,1-.9,2.4,4.4,4.4,0,0,1-2.2,1.5l2.6,5.4H939l-2.3-5.1H934l-1,5.1h-1.4Zm.2,6.3h2.2a4.1,4.1,0,0,0,1.6-.3,4,4,0,0,0,1.2-1,3,3,0,0,0,.5-1.5,2.1,2.1,0,0,0-.8-1.7,2.8,2.8,0,0,0-2-.6h-1.6Z"/><path d="M946.9,629a4.5,4.5,0,0,1-3.1-1,3.8,3.8,0,0,1-1.1-2.8,5.4,5.4,0,0,1,.6-2.5,4.4,4.4,0,0,1,1.7-1.9,4.8,4.8,0,0,1,2.4-.7,4.7,4.7,0,0,1,1.7.4,3.2,3.2,0,0,1,1.6,3,3.9,3.9,0,0,1-.2,1.5h-6.4c0,1.8,1,2.8,3,2.8a6.3,6.3,0,0,0,2.6-.7v1.3a3.4,3.4,0,0,1-1.2.4A4.7,4.7,0,0,1,946.9,629Zm2.4-5.1v-.4a2.5,2.5,0,0,0-.5-1.6,2,2,0,0,0-1.5-.5,2.6,2.6,0,0,0-1.9.7,3.2,3.2,0,0,0-1.2,1.8Z"/><path d="M955,629l-1.6-.2a5,5,0,0,1-1.3-.7l.3-1.2a4.4,4.4,0,0,0,2.7.9,2.1,2.1,0,0,0,1.2-.3,1,1,0,0,0,.4-.9,1.3,1.3,0,0,0-.3-.8l-1.3-.7a3.4,3.4,0,0,1-1.6-1.1,1.9,1.9,0,0,1-.5-1.3,2.6,2.6,0,0,1,.8-1.9,3.8,3.8,0,0,1,2.2-.7,3.5,3.5,0,0,1,1.4.3,3.3,3.3,0,0,1,1.2.5l-.2,1.2a4.6,4.6,0,0,0-2.4-.8,1.6,1.6,0,0,0-1.2.4,1,1,0,0,0-.1,1.5l1,.7a5.2,5.2,0,0,1,1.9,1.2,1.8,1.8,0,0,1,.6,1.4,2,2,0,0,1-.9,1.8A3.3,3.3,0,0,1,955,629Z"/><path d="M964.4,629a4.5,4.5,0,0,1-3.1-1,3.8,3.8,0,0,1-1.1-2.8,5.4,5.4,0,0,1,.6-2.5,4.4,4.4,0,0,1,1.7-1.9,4.8,4.8,0,0,1,2.4-.7,4.7,4.7,0,0,1,1.7.4,3.2,3.2,0,0,1,1.6,3,3.9,3.9,0,0,1-.2,1.5h-6.4c0,1.8,1,2.8,3,2.8a6.3,6.3,0,0,0,2.6-.7v1.3a3.3,3.3,0,0,1-1.3.4A3.9,3.9,0,0,1,964.4,629Zm2.4-5.1v-.4a2.5,2.5,0,0,0-.5-1.6,2,2,0,0,0-1.5-.5,2.6,2.6,0,0,0-1.9.7,3.2,3.2,0,0,0-1.2,1.8Z"/><path d="M973.6,629a3.2,3.2,0,0,1-2.5-1,4.3,4.3,0,0,1-.9-2.8,4.8,4.8,0,0,1,.6-2.4,4.4,4.4,0,0,1,1.7-1.9,3.8,3.8,0,0,1,2.3-.8,3.1,3.1,0,0,1,1.7.5,3.3,3.3,0,0,1,1.1,1.5l.4-1.7h1.4l-1.7,8.4h-1.3l.2-1.4a3.7,3.7,0,0,1-1.3,1.2A3.5,3.5,0,0,1,973.6,629Zm.4-1.2a3,3,0,0,0,1.6-.5,3.3,3.3,0,0,0,1.2-1.4,3.8,3.8,0,0,0,.5-1.9,2.9,2.9,0,0,0-.7-1.9,2.1,2.1,0,0,0-1.7-.7,3.3,3.3,0,0,0-2.8,1.8,4.1,4.1,0,0,0-.5,1.9,2.7,2.7,0,0,0,.7,2A2.4,2.4,0,0,0,974,627.8Z"/><path d="M980.8,628.8l1.6-8.4h1.3l-.3,1.7a3.6,3.6,0,0,1,1.1-1.3,3,3,0,0,1,1.4-.5,2.1,2.1,0,0,1,1.2.3l-.3,1.2-1.1-.2a2.1,2.1,0,0,0-1.7.9,5.3,5.3,0,0,0-1.1,2.5l-.7,3.8Z"/><path d="M991.7,629a4.1,4.1,0,0,1-3-1.1,3.6,3.6,0,0,1-1.1-2.8,5.3,5.3,0,0,1,.6-2.4,4.5,4.5,0,0,1,1.8-1.8,4.3,4.3,0,0,1,2.5-.7l1.4.2a3.3,3.3,0,0,1,1.2.5l-.3,1.3-1.1-.5a2.7,2.7,0,0,0-1.2-.2,3.7,3.7,0,0,0-1.8.4,3,3,0,0,0-1.2,1.3,3.7,3.7,0,0,0-.5,1.8,2.6,2.6,0,0,0,.8,2,2.8,2.8,0,0,0,2.1.7H993l1-.4v1.2a2.3,2.3,0,0,1-1,.4Z"/><path d="M998.9,615.2h1.4l-1.2,6.4a3.2,3.2,0,0,1,1.2-1.1,4.2,4.2,0,0,1,1.5-.4,2.6,2.6,0,0,1,1.9.8,2.8,2.8,0,0,1,.8,2c0,.3-.1.5-.1.8l-1,5.1H1002l.9-4.9a2.5,2.5,0,0,0,.1-.8,1.5,1.5,0,0,0-1.7-1.7,2.3,2.3,0,0,0-1.7.7,4.1,4.1,0,0,0-1,2.1l-.9,4.6h-1.4Z"/><path d="M1004.6,631.8a9.7,9.7,0,0,0,1.5-2.4,9.2,9.2,0,0,0,.7-2.6h1.6a7,7,0,0,1-.8,2.7,6.6,6.6,0,0,1-1.7,2.3Z"/><path d="M1017.4,629l-1.6-.2a5,5,0,0,1-1.3-.7l.3-1.2a4.4,4.4,0,0,0,2.7.9,2.1,2.1,0,0,0,1.2-.3,1,1,0,0,0,.4-.9,1.3,1.3,0,0,0-.3-.8l-1.3-.7a3.4,3.4,0,0,1-1.6-1.1,1.9,1.9,0,0,1-.5-1.3,2.6,2.6,0,0,1,.8-1.9,3.8,3.8,0,0,1,2.2-.7,3.5,3.5,0,0,1,1.4.3,3.3,3.3,0,0,1,1.2.5l-.2,1.2a4.6,4.6,0,0,0-2.4-.8,1.6,1.6,0,0,0-1.2.4,1,1,0,0,0-.1,1.5l1,.7a5.2,5.2,0,0,1,1.9,1.2,1.8,1.8,0,0,1,.6,1.4,2,2,0,0,1-.9,1.8A3.3,3.3,0,0,1,1017.4,629Z"/><path d="M1024,620.4h1.4l-.3,1.3a6.9,6.9,0,0,1,1.3-1.1,4.1,4.1,0,0,1,1.7-.5,3.1,3.1,0,0,1,2.5,1.1,4.1,4.1,0,0,1,.9,2.8,5.3,5.3,0,0,1-.6,2.4,4.9,4.9,0,0,1-1.6,1.9,3.9,3.9,0,0,1-2.3.7,2.7,2.7,0,0,1-1.8-.5,2.6,2.6,0,0,1-1.1-1.4l-1.1,5.7h-1.4Zm2.9,7.4a3.3,3.3,0,0,0,1.6-.5,4,4,0,0,0,1.1-1.4,3,3,0,0,0,.5-1.9,2.9,2.9,0,0,0-.6-1.9,2.4,2.4,0,0,0-1.8-.7,3.3,3.3,0,0,0-2.8,1.8,4.1,4.1,0,0,0-.4,1.9,3.2,3.2,0,0,0,.6,2A2.5,2.5,0,0,0,1026.9,627.8Z"/><path d="M1037.6,629a4.3,4.3,0,0,1-3.1-1,3.4,3.4,0,0,1-1.1-2.8,5.4,5.4,0,0,1,.6-2.5,4.9,4.9,0,0,1,1.6-1.9,5.5,5.5,0,0,1,2.5-.7,4.7,4.7,0,0,1,1.7.4,3.2,3.2,0,0,1,1.6,3,7.7,7.7,0,0,1-.2,1.5h-6.5c0,1.8,1.1,2.8,3.1,2.8a5.5,5.5,0,0,0,2.5-.7v1.3a4,4,0,0,1-1.3.4A3.9,3.9,0,0,1,1037.6,629Zm2.4-5.1v-.4a2.5,2.5,0,0,0-.5-1.6,2.1,2.1,0,0,0-1.6-.5,2.4,2.4,0,0,0-1.8.7,3.2,3.2,0,0,0-1.2,1.8Z"/><path d="M1047.4,629a4,4,0,0,1-2.9-1.1,3.3,3.3,0,0,1-1.1-2.8,5.3,5.3,0,0,1,.6-2.4,4.9,4.9,0,0,1,1.7-1.8,4.6,4.6,0,0,1,2.6-.7l1.4.2,1.2.5-.3,1.3-1.1-.5a3.2,3.2,0,0,0-1.3-.2,3.3,3.3,0,0,0-1.7.4,3,3,0,0,0-1.2,1.3,3.7,3.7,0,0,0-.5,1.8,2.6,2.6,0,0,0,.8,2,2.8,2.8,0,0,0,2.1.7h1l1-.4v1.2l-1.1.4Z"/><path d="M1054.9,629a2.1,2.1,0,0,1-1.8-.7,2.5,2.5,0,0,1-.7-1.9,2.8,2.8,0,0,1,.1-.9l.9-5.1h1.5l-1,5a2.5,2.5,0,0,0-.1.8,1.4,1.4,0,0,0,1.6,1.6,2.5,2.5,0,0,0,1.8-.8,3.8,3.8,0,0,0,1-2l.9-4.6h1.4l-1.6,8.4h-1.3l.2-1.4a3.4,3.4,0,0,1-1.2,1.2A3.3,3.3,0,0,1,1054.9,629Z"/><path d="M1064.5,615.2h1.4l-2.6,13.6h-1.4Z"/><path d="M1069.9,629a3,3,0,0,1-2.4-1,3.9,3.9,0,0,1-1-2.8,4.8,4.8,0,0,1,.6-2.4,5.2,5.2,0,0,1,1.7-1.9,4,4,0,0,1,2.3-.8,3.5,3.5,0,0,1,1.8.5,4.2,4.2,0,0,1,1.1,1.5l.3-1.7h1.4l-1.6,8.4h-1.4l.2-1.4a3,3,0,0,1-1.3,1.2A3.3,3.3,0,0,1,1069.9,629Zm.5-1.2a3.3,3.3,0,0,0,1.6-.5,4,4,0,0,0,1.1-1.4,3,3,0,0,0,.5-1.9,2.9,2.9,0,0,0-.6-1.9,2.4,2.4,0,0,0-1.8-.7,3.3,3.3,0,0,0-2.8,1.8,4.1,4.1,0,0,0-.4,1.9,3.2,3.2,0,0,0,.6,2A2.5,2.5,0,0,0,1070.4,627.8Z"/><path d="M1080.5,629a2.4,2.4,0,0,1-1.8-.6,2.1,2.1,0,0,1-.6-1.6,3.1,3.1,0,0,1,.1-1l.8-4.2h-1.9l.3-1.2h1.8l.5-2.4h1.4l-.5,2.4h2.7l-.2,1.2h-2.7l-.8,4.2c0,.3-.1.5-.1.8a1.2,1.2,0,0,0,.3.9,1.3,1.3,0,0,0,1,.3h.8l.8-.3v1.2A4.2,4.2,0,0,1,1080.5,629Z"/><path d="M1088.6,629a4.5,4.5,0,0,1-3.1-1,3.8,3.8,0,0,1-1.1-2.8,5.4,5.4,0,0,1,.6-2.5,4.4,4.4,0,0,1,1.7-1.9,4.8,4.8,0,0,1,2.4-.7,4.7,4.7,0,0,1,1.7.4,3.2,3.2,0,0,1,1.6,3,3.9,3.9,0,0,1-.2,1.5h-6.4c0,1.8,1,2.8,3,2.8a6.3,6.3,0,0,0,2.6-.7v1.3a3.4,3.4,0,0,1-1.2.4A4.7,4.7,0,0,1,1088.6,629Zm2.4-5.1v-.4a2.1,2.1,0,0,0-.5-1.6,2,2,0,0,0-1.5-.5,2.6,2.6,0,0,0-1.9.7,3.2,3.2,0,0,0-1.2,1.8Z"/><path d="M1092.2,631.8a9.7,9.7,0,0,0,1.5-2.4,7,7,0,0,0,.8-2.6h1.6a9.2,9.2,0,0,1-.8,2.7,8.1,8.1,0,0,1-1.7,2.3Z"/><path d="M1107,629a4.3,4.3,0,0,1-3.1-1,3.4,3.4,0,0,1-1.1-2.8,7,7,0,0,1,.5-2.5,5.2,5.2,0,0,1,1.7-1.9,5.5,5.5,0,0,1,2.4-.7,4.8,4.8,0,0,1,1.8.4,3.2,3.2,0,0,1,1.6,3,7.7,7.7,0,0,1-.2,1.5h-6.5c0,1.8,1.1,2.8,3.1,2.8a5.9,5.9,0,0,0,2.5-.7v1.3a4,4,0,0,1-1.3.4A3.9,3.9,0,0,1,1107,629Zm2.4-5.1v-.4a2.5,2.5,0,0,0-.5-1.6,2.1,2.1,0,0,0-1.6-.5,2.8,2.8,0,0,0-1.9.7,3.7,3.7,0,0,0-1.1,1.8Z"/><path d="M1112.7,620.4h1.4l1.3,6.8,3.8-6.8h1.5l-4.9,8.4h-1.4Z"/><path d="M1124.6,629a3.2,3.2,0,0,1-2.5-1,4.3,4.3,0,0,1-.9-2.8,4.8,4.8,0,0,1,.6-2.4,4.9,4.9,0,0,1,1.6-1.9,4.3,4.3,0,0,1,2.4-.8,3.4,3.4,0,0,1,1.7.5,3.3,3.3,0,0,1,1.1,1.5l.4-1.7h1.4l-1.7,8.4h-1.3l.2-1.4a3.7,3.7,0,0,1-1.3,1.2A3.5,3.5,0,0,1,1124.6,629Zm.4-1.2a3,3,0,0,0,1.6-.5,3.3,3.3,0,0,0,1.2-1.4,3.8,3.8,0,0,0,.5-1.9,2.9,2.9,0,0,0-.7-1.9,2.1,2.1,0,0,0-1.8-.7,3,3,0,0,0-1.5.5,3,3,0,0,0-1.2,1.3,4.1,4.1,0,0,0-.5,1.9,2.7,2.7,0,0,0,.7,2A2.4,2.4,0,0,0,1125,627.8Z"/><path d="M1134.8,629a2.5,2.5,0,0,1-1.9-.7,2.9,2.9,0,0,1-.7-1.9c0-.3.1-.6.1-.9l1-5.1h1.4l-.9,5a2.5,2.5,0,0,0-.1.8c0,1.1.5,1.6,1.5,1.6a2.7,2.7,0,0,0,1.9-.8,3.8,3.8,0,0,0,1-2l.9-4.6h1.4l-1.6,8.4h-1.4l.3-1.4a4.9,4.9,0,0,1-1.3,1.2A2.9,2.9,0,0,1,1134.8,629Z"/><path d="M1144.4,615.2h1.4l-2.6,13.6h-1.4Z"/><path d="M1149.8,629a3.2,3.2,0,0,1-2.5-1,4.3,4.3,0,0,1-.9-2.8,4.8,4.8,0,0,1,.6-2.4,4.4,4.4,0,0,1,1.7-1.9,3.8,3.8,0,0,1,2.3-.8,3.1,3.1,0,0,1,1.7.5,3.3,3.3,0,0,1,1.1,1.5l.4-1.7h1.4l-1.7,8.4h-1.3l.2-1.4a3,3,0,0,1-1.3,1.2A3.3,3.3,0,0,1,1149.8,629Zm.4-1.2a3,3,0,0,0,1.6-.5,3.3,3.3,0,0,0,1.2-1.4,3.8,3.8,0,0,0,.5-1.9,2.5,2.5,0,0,0-.7-1.9,2.1,2.1,0,0,0-1.7-.7,3.3,3.3,0,0,0-2.8,1.8,4.1,4.1,0,0,0-.5,1.9,2.7,2.7,0,0,0,.7,2A2.4,2.4,0,0,0,1150.2,627.8Z"/><path d="M1160.4,629a2.4,2.4,0,0,1-1.8-.6,2.1,2.1,0,0,1-.6-1.6,3.1,3.1,0,0,1,.1-1l.8-4.2H1157l.2-1.2h1.9l.5-2.4h1.4l-.5,2.4h2.6l-.2,1.2h-2.6l-.8,4.2a2.2,2.2,0,0,0-.1.8,1.1,1.1,0,0,0,1.2,1.2h.8l.8-.3v1.2A3.8,3.8,0,0,1,1160.4,629Z"/><path d="M1168.5,629a4.3,4.3,0,0,1-3.1-1,3.4,3.4,0,0,1-1.1-2.8,5.3,5.3,0,0,1,.5-2.5,5.2,5.2,0,0,1,1.7-1.9,5.1,5.1,0,0,1,2.4-.7,5.3,5.3,0,0,1,1.8.4,3.2,3.2,0,0,1,1.6,3,7.7,7.7,0,0,1-.2,1.5h-6.5c0,1.8,1.1,2.8,3.1,2.8a5.9,5.9,0,0,0,2.5-.7v1.3a4,4,0,0,1-1.3.4A3.9,3.9,0,0,1,1168.5,629Zm2.4-5.1v-.4a2.5,2.5,0,0,0-.5-1.6,2.1,2.1,0,0,0-1.6-.5,2.8,2.8,0,0,0-1.9.7,3.7,3.7,0,0,0-1.1,1.8Z"/><path d="M869.4,103.2h1.5l-2.4,12.7H867Z"/><path d="M875.4,116.2a3.1,3.1,0,0,1-2.5-1.1,4.1,4.1,0,0,1-1-2.8,5.3,5.3,0,0,1,.6-2.4,6.1,6.1,0,0,1,1.7-1.9,4.8,4.8,0,0,1,2.3-.7,3.5,3.5,0,0,1,1.8.5,3.1,3.1,0,0,1,1.1,1.4l1.3-6.8h1.4l-2.6,13.5h-1.4l.3-1.3a4.9,4.9,0,0,1-1.3,1.2A5.9,5.9,0,0,1,875.4,116.2Zm.4-1.3a2.4,2.4,0,0,0,1.6-.5,3,3,0,0,0,1.2-1.3,4.1,4.1,0,0,0,.4-1.9,2.7,2.7,0,0,0-.6-1.9,2.1,2.1,0,0,0-1.8-.7,2.5,2.5,0,0,0-1.6.5,3,3,0,0,0-1.2,1.3,4.1,4.1,0,0,0-.4,1.9,2.7,2.7,0,0,0,.6,1.9A2.3,2.3,0,0,0,875.8,114.9Z"/><path d="M887,116.2a4.6,4.6,0,0,1-3.1-1,3.6,3.6,0,0,1-1.2-2.9,5,5,0,0,1,.6-2.4A5.2,5.2,0,0,1,885,108a4,4,0,0,1,2.4-.7,3.1,3.1,0,0,1,1.7.4,3.4,3.4,0,0,1,1.2,1.2,3.4,3.4,0,0,1,.5,1.7,8.8,8.8,0,0,1-.2,1.6h-6.5c0,1.8,1,2.7,3.1,2.7a5.7,5.7,0,0,0,2.5-.6v1.3l-1.2.4Zm2.3-5.1a.9.9,0,0,0,.1-.5,1.9,1.9,0,0,0-.6-1.5,1.8,1.8,0,0,0-1.5-.6,3.4,3.4,0,0,0-1.9.7,4,4,0,0,0-1.1,1.9Z"/><path d="M896.2,116.2a3.1,3.1,0,0,1-2.5-1.1,3.7,3.7,0,0,1-1-2.8,5.3,5.3,0,0,1,.6-2.4A6.1,6.1,0,0,1,895,108a4.8,4.8,0,0,1,2.3-.7,3.5,3.5,0,0,1,1.8.5,3.8,3.8,0,0,1,1.1,1.4l.3-1.6h1.4l-1.6,8.3h-1.4l.2-1.3a3.4,3.4,0,0,1-1.2,1.2A5.9,5.9,0,0,1,896.2,116.2Zm.4-1.3a2.5,2.5,0,0,0,1.6-.5,3.8,3.8,0,0,0,1.2-1.3,4.1,4.1,0,0,0,.4-1.9,2.7,2.7,0,0,0-.6-1.9,2.3,2.3,0,0,0-1.8-.7,2.4,2.4,0,0,0-1.6.5,3,3,0,0,0-1.2,1.3,4.1,4.1,0,0,0-.4,1.9,2.7,2.7,0,0,0,.6,1.9A2.1,2.1,0,0,0,896.6,114.9Z"/><path d="M906.7,116.2a2.6,2.6,0,0,1-1.8-.6,2.2,2.2,0,0,1-.6-1.7,3.8,3.8,0,0,1,.1-1l.8-4.1h-1.9l.3-1.2h1.8l.5-2.4h1.4l-.4,2.4h2.6l-.2,1.2h-2.7l-.8,4.1c0,.3-.1.6-.1.8a1.5,1.5,0,0,0,.3,1,1.3,1.3,0,0,0,1,.3h.8l.8-.3v1.2A5.9,5.9,0,0,1,906.7,116.2Z"/><path d="M914.8,116.2a5,5,0,0,1-3.1-1,3.8,3.8,0,0,1-1.1-2.9,5,5,0,0,1,.6-2.4,4.4,4.4,0,0,1,1.7-1.9,4,4,0,0,1,2.4-.7,3.3,3.3,0,0,1,1.7.4,3.4,3.4,0,0,1,1.2,1.2,3.3,3.3,0,0,1,.4,1.7,4.4,4.4,0,0,1-.2,1.6H912c0,1.8,1,2.7,3.1,2.7a6.1,6.1,0,0,0,2.5-.6v1.3l-1.2.4Zm2.4-5.1v-.5a1.8,1.8,0,0,0-.5-1.5,2,2,0,0,0-1.5-.6,3.2,3.2,0,0,0-1.9.7,3.5,3.5,0,0,0-1.2,1.9Z"/><path d="M918.4,118.9a7.9,7.9,0,0,0,1.6-2.3,9.2,9.2,0,0,0,.7-2.6h1.6a9.2,9.2,0,0,1-.8,2.7,7.6,7.6,0,0,1-1.7,2.2Z"/><path d="M930.4,107.6h1.4l-.3,1.3a3.7,3.7,0,0,1,1.3-1.2,5.3,5.3,0,0,1,1.7-.4,3.3,3.3,0,0,1,2.5,1.1,4.1,4.1,0,0,1,.9,2.8,5.3,5.3,0,0,1-.6,2.4,5.8,5.8,0,0,1-1.6,1.9,5.1,5.1,0,0,1-2.4.7,3.4,3.4,0,0,1-1.7-.5,2.6,2.6,0,0,1-1.1-1.4l-1.1,5.7h-1.5Zm2.9,7.3a2.1,2.1,0,0,0,1.5-.5,3,3,0,0,0,1.2-1.3,4.1,4.1,0,0,0,.5-1.9,2.7,2.7,0,0,0-.6-1.9,2.4,2.4,0,0,0-1.8-.7,2.4,2.4,0,0,0-1.6.5,3,3,0,0,0-1.2,1.3,4.1,4.1,0,0,0-.4,1.9,2.7,2.7,0,0,0,.6,1.9A2.1,2.1,0,0,0,933.3,114.9Z"/><path d="M939.5,115.9l1.7-8.3h1.3l-.3,1.7a5.3,5.3,0,0,1,1.1-1.4,2.5,2.5,0,0,1,1.4-.4,1.8,1.8,0,0,1,1.1.2l-.2,1.3-1.1-.2a2.3,2.3,0,0,0-1.8.9,5.3,5.3,0,0,0-1,2.4l-.7,3.8Z"/><path d="M950.1,116.2a4.1,4.1,0,0,1-1.9-.5,3.3,3.3,0,0,1-1.3-1.3,3.5,3.5,0,0,1-.5-2,5.4,5.4,0,0,1,.6-2.5,5.2,5.2,0,0,1,1.7-1.9,4.5,4.5,0,0,1,2.5-.7,4.1,4.1,0,0,1,1.9.5,3.3,3.3,0,0,1,1.3,1.3,4.6,4.6,0,0,1,.5,2,5.4,5.4,0,0,1-.6,2.5,5.2,5.2,0,0,1-1.7,1.9A5.5,5.5,0,0,1,950.1,116.2Zm.1-1.3a2.4,2.4,0,0,0,1.6-.5,3,3,0,0,0,1.2-1.3,4.1,4.1,0,0,0,.5-1.9,2.7,2.7,0,0,0-.7-1.9,2.1,2.1,0,0,0-1.7-.7,2.4,2.4,0,0,0-1.6.5,3,3,0,0,0-1.2,1.3,4.1,4.1,0,0,0-.5,1.9,2.4,2.4,0,0,0,.7,1.9A2.1,2.1,0,0,0,950.2,114.9Z"/><path d="M959.8,116.2a2.4,2.4,0,0,1-1.8-.6,1.9,1.9,0,0,1-.7-1.7c0-.3.1-.6.1-1l.8-4.1h-1.8l.2-1.2h1.9l.4-2.4h1.5l-.5,2.4h2.6l-.2,1.2h-2.6l-.8,4.1a2.5,2.5,0,0,0-.1.8,1.5,1.5,0,0,0,.3,1,1.2,1.2,0,0,0,.9.3h.8l.8-.3v1.2A5.8,5.8,0,0,1,959.8,116.2Z"/><path d="M967.3,116.2a3.5,3.5,0,0,1-1.8-.5,2.9,2.9,0,0,1-1.4-1.3,4.6,4.6,0,0,1-.5-2,5.4,5.4,0,0,1,.6-2.5,5.2,5.2,0,0,1,1.7-1.9,4.5,4.5,0,0,1,2.5-.7,4.1,4.1,0,0,1,1.9.5,3.3,3.3,0,0,1,1.3,1.3,3.5,3.5,0,0,1,.5,2,5.4,5.4,0,0,1-.6,2.5,4.6,4.6,0,0,1-4.2,2.6Zm.2-1.3a2.3,2.3,0,0,0,1.5-.5,3,3,0,0,0,1.2-1.3,4.1,4.1,0,0,0,.5-1.9,2.4,2.4,0,0,0-.7-1.9,2.1,2.1,0,0,0-1.7-.7,2.4,2.4,0,0,0-1.6.5,3,3,0,0,0-1.2,1.3,4.1,4.1,0,0,0-.5,1.9,2.7,2.7,0,0,0,.7,1.9A2.1,2.1,0,0,0,967.5,114.9Z"/><path d="M977,116.2a2.4,2.4,0,0,1-1.8-.6,2.2,2.2,0,0,1-.6-1.7,3.8,3.8,0,0,1,.1-1l.8-4.1h-1.9l.2-1.2h1.9l.5-2.4h1.4l-.5,2.4h2.7l-.3,1.2h-2.6l-.8,4.1a2.5,2.5,0,0,0-.1.8,1.5,1.5,0,0,0,.3,1,1.2,1.2,0,0,0,.9.3h.8l.9-.3v1.2A5.3,5.3,0,0,1,977,116.2Z"/><path d="M983.1,115.1l-2-7.5h1.5l1.5,6.1,3.8-6.1h1.5l-8,12.4h-1.5Z"/><path d="M991.3,107.6h1.4l-.3,1.3a4.1,4.1,0,0,1,1.4-1.2,4.7,4.7,0,0,1,1.6-.4,3.1,3.1,0,0,1,2.5,1.1,4.1,4.1,0,0,1,1,2.8,5.3,5.3,0,0,1-.6,2.4,6.1,6.1,0,0,1-1.7,1.9,4.8,4.8,0,0,1-2.3.7,3.5,3.5,0,0,1-1.8-.5,2.6,2.6,0,0,1-1.1-1.4l-1.1,5.7h-1.4Zm2.9,7.3a2.4,2.4,0,0,0,1.6-.5,3,3,0,0,0,1.2-1.3,4.1,4.1,0,0,0,.4-1.9,2.7,2.7,0,0,0-.6-1.9,2.1,2.1,0,0,0-1.8-.7,2.5,2.5,0,0,0-1.6.5,3,3,0,0,0-1.2,1.3,4.1,4.1,0,0,0-.4,1.9,2.7,2.7,0,0,0,.6,1.9A2.3,2.3,0,0,0,994.2,114.9Z"/><path d="M1004.9,116.2a5,5,0,0,1-3.1-1,3.8,3.8,0,0,1-1.1-2.9,5,5,0,0,1,.6-2.4,4.4,4.4,0,0,1,1.7-1.9,4,4,0,0,1,2.4-.7,3.3,3.3,0,0,1,1.7.4,3.4,3.4,0,0,1,1.2,1.2,3.3,3.3,0,0,1,.4,1.7,4.4,4.4,0,0,1-.2,1.6h-6.4q0,2.7,3,2.7a6.2,6.2,0,0,0,2.6-.6v1.3l-1.3.4Zm2.4-5.1v-.5a2.3,2.3,0,0,0-.5-1.5,2,2,0,0,0-1.5-.6,3.2,3.2,0,0,0-1.9.7,3.5,3.5,0,0,0-1.2,1.9Z"/><path class="b" d="M1064.8,269.6a233.8,233.8,0,0,1,11.7,28.3,222.6,222.6,0,0,1-30.3,200"/><polygon points="1047.4 487 1049 487.5 1046.2 497.7 1054.9 491.6 1055.8 493 1043.5 501.6 1047.4 487"/><path class="b" d="M723.2,247.3A184.5,184.5,0,0,1,870.5,174a181.6,181.6,0,0,1,44.6,5.5"/><polygon points="904.6 182.3 904.4 180.7 915 179.5 906.1 173.7 907 172.3 919.6 180.6 904.6 182.3"/><path class="b" d="M842.3,558.6A184.9,184.9,0,0,1,683.9,400.9"/><polygon points="690.5 409.6 689 410.4 684 401.1 681.8 411.5 680.3 411.2 683.3 396.4 690.5 409.6"/><line class="c" x1="388.1" y1="320.5" x2="520.4" y2="320.5"/><polygon points="510.8 325.7 510.3 324.2 520.3 320.5 510.3 316.9 510.8 315.4 525 320.5 510.8 325.7"/></svg>