<svg width="167" height="38" viewBox="0 0 167 38" fill="none" xmlns="http://www.w3.org/2000/svg">
<path d="M28.0836 19.8662C28.0836 27.279 22.1221 33.2691 14.7918 33.2691C7.46149 33.2691 1.5 27.279 1.5 19.8662C1.5 12.4534 7.46149 6.46338 14.7918 6.46338C22.1221 6.46338 28.0836 12.4534 28.0836 19.8662Z" stroke="#FFC120" stroke-width="3"/>
<g clip-path="url(#clip0)">
<path d="M20.0782 15.2124C20.0055 15.1391 19.9124 15.1025 19.7993 15.1025H17.7252C17.5876 14.4265 17.3288 13.8397 16.9488 13.3427H19.7749C19.8883 13.3427 19.9811 13.3061 20.0541 13.2329C20.1265 13.1597 20.1628 13.0659 20.1628 12.9518V11.705C20.1628 11.5909 20.1265 11.4973 20.0541 11.4239C19.981 11.3507 19.8882 11.314 19.7748 11.314H9.68279C9.56952 11.314 9.4766 11.3507 9.40378 11.4239C9.33117 11.4973 9.29468 11.5909 9.29468 11.705V13.3304C9.29468 13.4363 9.33308 13.5279 9.4099 13.6053C9.48671 13.6827 9.57768 13.7214 9.68279 13.7214H11.4417C13.1478 13.7214 14.2315 14.1816 14.6924 15.1023H9.68279C9.56952 15.1023 9.47647 15.1389 9.40378 15.2122C9.33117 15.2856 9.29468 15.3792 9.29468 15.4933V16.74C9.29468 16.854 9.331 16.9477 9.40378 17.0209C9.4766 17.0943 9.56969 17.1308 9.68279 17.1308H14.8624C14.6845 17.7991 14.27 18.3082 13.619 18.6586C12.9679 19.009 12.1088 19.1842 11.0414 19.1842H9.68279C9.57768 19.1842 9.48671 19.2229 9.4099 19.3003C9.33304 19.3777 9.29468 19.4694 9.29468 19.5752V21.1274C9.29468 21.2335 9.331 21.3231 9.40378 21.3963C10.9563 23.0583 12.97 25.3842 15.4445 28.3746C15.5174 28.4724 15.6184 28.5212 15.7478 28.5212H18.1131C18.283 28.5212 18.4004 28.4481 18.4649 28.3011C18.5457 28.1545 18.5299 28.016 18.4163 27.8856C16.0553 24.9688 14.1993 22.7853 12.8488 21.3351C14.2235 21.1722 15.3395 20.724 16.1967 19.9909C17.0538 19.2577 17.5754 18.3042 17.7615 17.131H19.7993C19.9124 17.131 20.0055 17.0945 20.0782 17.0211C20.151 16.948 20.1875 16.8542 20.1875 16.7402V15.4937C20.1875 15.3794 20.151 15.2858 20.0782 15.2124Z" fill="#FFC120"/>
</g>
<path d="M23.5706 5.29231C23.2559 5.25268 23.0391 5.47672 23.0864 5.79267C23.1336 6.10862 23.4271 6.3969 23.7418 6.43653C25.6062 6.67128 27.3509 8.38506 27.631 10.2568C27.6783 10.5728 27.9718 10.8611 28.2865 10.9007C28.6013 10.9403 28.818 10.7163 28.7707 10.4003C28.3961 7.89764 26.0633 5.60613 23.5706 5.29231Z" fill="#FFC120"/>
<path d="M23.2052 2.85103C22.8905 2.81141 22.6737 3.03544 22.721 3.35139C22.7683 3.66734 23.0617 3.95563 23.3765 3.99526C26.5814 4.39883 29.5807 7.34498 30.0624 10.5627C30.1097 10.8787 30.4031 11.167 30.7179 11.2066C31.0326 11.2462 31.2494 11.0222 31.2021 10.7062C30.626 6.85752 27.0386 3.33371 23.2052 2.85103Z" fill="#FFC120"/>
<path d="M22.8398 0.409815C22.5251 0.370193 22.3083 0.594227 22.3556 0.910177C22.4029 1.22613 22.6963 1.51441 23.0111 1.55404C27.7108 2.14581 31.7874 6.15022 32.4937 10.8687C32.541 11.1847 32.8345 11.473 33.1492 11.5126C33.4639 11.5522 33.6807 11.3282 33.6334 11.0122C32.8265 5.6215 28.1975 1.0844 22.8398 0.409815Z" fill="#FFC120"/>
<path d="M50.552 11.176C51.192 11.3787 51.6933 11.72 52.056 12.2C52.4187 12.6693 52.6 13.2507 52.6 13.944C52.6 14.9253 52.216 15.6827 51.448 16.216C50.6907 16.7387 49.5813 17 48.12 17H42.328V5.8H47.8C49.1653 5.8 50.2107 6.06133 50.936 6.584C51.672 7.10667 52.04 7.816 52.04 8.712C52.04 9.256 51.9067 9.74133 51.64 10.168C51.384 10.5947 51.0213 10.9307 50.552 11.176ZM44.904 7.752V10.392H47.48C48.12 10.392 48.6053 10.28 48.936 10.056C49.2667 9.832 49.432 9.50133 49.432 9.064C49.432 8.62667 49.2667 8.30133 48.936 8.088C48.6053 7.864 48.12 7.752 47.48 7.752H44.904ZM47.928 15.048C48.6107 15.048 49.1227 14.936 49.464 14.712C49.816 14.488 49.992 14.1413 49.992 13.672C49.992 12.744 49.304 12.28 47.928 12.28H44.904V15.048H47.928ZM57.8584 8.264C59.1917 8.264 60.2157 8.584 60.9304 9.224C61.645 9.85333 62.0024 10.808 62.0024 12.088V17H59.6664V15.928C59.197 16.728 58.3224 17.128 57.0424 17.128C56.381 17.128 55.805 17.016 55.3144 16.792C54.8344 16.568 54.4664 16.2587 54.2104 15.864C53.9544 15.4693 53.8264 15.0213 53.8264 14.52C53.8264 13.72 54.125 13.0907 54.7224 12.632C55.3304 12.1733 56.2637 11.944 57.5224 11.944H59.5064C59.5064 11.4 59.341 10.984 59.0104 10.696C58.6797 10.3973 58.1837 10.248 57.5224 10.248C57.0637 10.248 56.6104 10.3227 56.1624 10.472C55.725 10.6107 55.3517 10.8027 55.0424 11.048L54.1464 9.304C54.6157 8.97333 55.1757 8.71733 55.8264 8.536C56.4877 8.35467 57.165 8.264 57.8584 8.264ZM57.6664 15.448C58.093 15.448 58.4717 15.352 58.8024 15.16C59.133 14.9573 59.3677 14.664 59.5064 14.28V13.4H57.7944C56.7704 13.4 56.2584 13.736 56.2584 14.408C56.2584 14.728 56.381 14.984 56.6264 15.176C56.8824 15.3573 57.229 15.448 57.6664 15.448ZM69.4934 8.264C70.56 8.264 71.4187 8.584 72.0694 9.224C72.7307 9.864 73.0614 10.8133 73.0614 12.072V17H70.5654V12.456C70.5654 11.7733 70.416 11.2667 70.1174 10.936C69.8187 10.5947 69.3867 10.424 68.8214 10.424C68.192 10.424 67.6907 10.6213 67.3174 11.016C66.944 11.4 66.7574 11.976 66.7574 12.744V17H64.2614V5.128H66.7574V9.288C67.088 8.95733 67.488 8.70667 67.9574 8.536C68.4267 8.35467 68.9387 8.264 69.4934 8.264ZM75.3239 8.392H77.8199V17H75.3239V8.392ZM76.5719 7.192C76.1132 7.192 75.7399 7.05867 75.4519 6.792C75.1639 6.52533 75.0199 6.19467 75.0199 5.8C75.0199 5.40533 75.1639 5.07467 75.4519 4.808C75.7399 4.54133 76.1132 4.408 76.5719 4.408C77.0305 4.408 77.4039 4.536 77.6919 4.792C77.9799 5.048 78.1239 5.368 78.1239 5.752C78.1239 6.168 77.9799 6.51467 77.6919 6.792C77.4039 7.05867 77.0305 7.192 76.5719 7.192Z" fill="white"/>
<path d="M86.408 12.6L84.904 14.168V17H82.328V5.8H84.904V11.032L89.864 5.8H92.744L88.104 10.792L93.016 17H89.992L86.408 12.6ZM99.2278 8.264C100.294 8.264 101.153 8.584 101.804 9.224C102.465 9.864 102.796 10.8133 102.796 12.072V17H100.3V12.456C100.3 11.7733 100.15 11.2667 99.8518 10.936C99.5531 10.5947 99.1211 10.424 98.5558 10.424C97.9264 10.424 97.4251 10.6213 97.0518 11.016C96.6784 11.4 96.4918 11.976 96.4918 12.744V17H93.9958V5.128H96.4918V9.288C96.8224 8.95733 97.2224 8.70667 97.6918 8.536C98.1611 8.35467 98.6731 8.264 99.2278 8.264ZM108.53 8.264C109.864 8.264 110.888 8.584 111.602 9.224C112.317 9.85333 112.674 10.808 112.674 12.088V17H110.338V15.928C109.869 16.728 108.994 17.128 107.714 17.128C107.053 17.128 106.477 17.016 105.986 16.792C105.506 16.568 105.138 16.2587 104.882 15.864C104.626 15.4693 104.498 15.0213 104.498 14.52C104.498 13.72 104.797 13.0907 105.394 12.632C106.002 12.1733 106.936 11.944 108.194 11.944H110.178C110.178 11.4 110.013 10.984 109.682 10.696C109.352 10.3973 108.856 10.248 108.194 10.248C107.736 10.248 107.282 10.3227 106.834 10.472C106.397 10.6107 106.024 10.8027 105.714 11.048L104.818 9.304C105.288 8.97333 105.848 8.71733 106.498 8.536C107.16 8.35467 107.837 8.264 108.53 8.264ZM108.338 15.448C108.765 15.448 109.144 15.352 109.474 15.16C109.805 14.9573 110.04 14.664 110.178 14.28V13.4H108.466C107.442 13.4 106.93 13.736 106.93 14.408C106.93 14.728 107.053 14.984 107.298 15.176C107.554 15.3573 107.901 15.448 108.338 15.448ZM120.485 16.584C120.24 16.7653 119.936 16.904 119.573 17C119.221 17.0853 118.848 17.128 118.453 17.128C117.429 17.128 116.635 16.8667 116.069 16.344C115.515 15.8213 115.237 15.0533 115.237 14.04V10.504H113.909V8.584H115.237V6.488H117.733V8.584H119.877V10.504H117.733V14.008C117.733 14.3707 117.824 14.6533 118.005 14.856C118.197 15.048 118.464 15.144 118.805 15.144C119.2 15.144 119.536 15.0373 119.813 14.824L120.485 16.584ZM125.358 8.264C126.692 8.264 127.716 8.584 128.43 9.224C129.145 9.85333 129.502 10.808 129.502 12.088V17H127.166V15.928C126.697 16.728 125.822 17.128 124.542 17.128C123.881 17.128 123.305 17.016 122.814 16.792C122.334 16.568 121.966 16.2587 121.71 15.864C121.454 15.4693 121.326 15.0213 121.326 14.52C121.326 13.72 121.625 13.0907 122.222 12.632C122.83 12.1733 123.764 11.944 125.022 11.944H127.006C127.006 11.4 126.841 10.984 126.51 10.696C126.18 10.3973 125.684 10.248 125.022 10.248C124.564 10.248 124.11 10.3227 123.662 10.472C123.225 10.6107 122.852 10.8027 122.542 11.048L121.646 9.304C122.116 8.97333 122.676 8.71733 123.326 8.536C123.988 8.35467 124.665 8.264 125.358 8.264ZM125.166 15.448C125.593 15.448 125.972 15.352 126.302 15.16C126.633 14.9573 126.868 14.664 127.006 14.28V13.4H125.294C124.27 13.4 123.758 13.736 123.758 14.408C123.758 14.728 123.881 14.984 124.126 15.176C124.382 15.3573 124.729 15.448 125.166 15.448Z" fill="#FFC120"/>
<path d="M42.17 27.097C41.9273 26.525 41.806 26.1133 41.806 25.862L41.104 25.901V24.9H44.939V25.758C44.367 25.7407 44.081 25.9227 44.081 26.304C44.081 26.4427 44.1157 26.5943 44.185 26.759L45.381 29.697C45.485 29.9397 45.615 30.2603 45.771 30.659C45.823 30.7977 45.94 31.0967 46.122 31.556H46.135L46.759 29.762L47.747 27.045C47.9377 26.447 48.1153 26.0527 48.28 25.862V25.849L47.604 25.888L47.279 25.901V24.9H50.204V25.758C49.9007 25.7753 49.6407 25.8923 49.424 26.109C49.2073 26.317 49.008 26.6637 48.826 27.149L46.226 34.078H45.16L42.17 27.097ZM51.3084 34.208C50.7624 34.208 50.3291 34.0477 50.0084 33.727C49.6964 33.3977 49.5404 32.9817 49.5404 32.479C49.5404 31.7163 49.8957 31.14 50.6064 30.75C51.3171 30.3513 52.1707 30.1303 53.1674 30.087V29.411C53.1674 28.6223 52.8727 28.228 52.2834 28.228C51.9021 28.228 51.5901 28.3493 51.3474 28.592C51.4514 28.7133 51.5034 28.878 51.5034 29.086C51.5034 29.294 51.4297 29.4803 51.2824 29.645C51.1437 29.8097 50.9357 29.892 50.6584 29.892C50.3984 29.892 50.1947 29.8097 50.0474 29.645C49.9001 29.4717 49.8264 29.2593 49.8264 29.008C49.8264 28.67 49.9477 28.371 50.1904 28.111C50.4331 27.851 50.7624 27.6517 51.1784 27.513C51.6031 27.3657 52.0667 27.292 52.5694 27.292C54.1727 27.292 54.9744 28.1197 54.9744 29.775L54.9614 31.907C54.9614 32.323 54.9441 32.7043 54.9094 33.051C55.1954 33.025 55.4771 33.012 55.7544 33.012V34H53.2974C53.2801 33.8873 53.2627 33.688 53.2454 33.402H53.2324C52.7037 33.9393 52.0624 34.208 51.3084 34.208ZM52.1274 32.934C52.5174 32.934 52.8597 32.778 53.1544 32.466V31.01C52.6431 31.062 52.2184 31.192 51.8804 31.4C51.5511 31.608 51.3864 31.8897 51.3864 32.245C51.3864 32.479 51.4557 32.6523 51.5944 32.765C51.7417 32.8777 51.9194 32.934 52.1274 32.934ZM59.4908 34.208C59.1181 34.208 58.7541 34.1603 58.3988 34.065C58.0434 33.9697 57.7661 33.8483 57.5668 33.701H57.5538L57.5928 34.091H56.6048L56.5528 31.855H57.3978C57.4411 32.2537 57.6491 32.5917 58.0218 32.869C58.4031 33.1377 58.8668 33.272 59.4128 33.272C59.6554 33.272 59.8634 33.2157 60.0368 33.103C60.2188 32.9903 60.3098 32.83 60.3098 32.622C60.3098 32.466 60.2534 32.336 60.1408 32.232C60.0281 32.128 59.8938 32.0413 59.7378 31.972C59.5818 31.9027 59.2698 31.777 58.8018 31.595C58.2471 31.3783 57.8311 31.2007 57.5538 31.062C57.2764 30.9233 57.0251 30.7197 56.7998 30.451C56.5831 30.1737 56.4748 29.8183 56.4748 29.385C56.4748 29.0297 56.5614 28.696 56.7348 28.384C56.9168 28.0633 57.1898 27.8033 57.5538 27.604C57.9264 27.396 58.3814 27.292 58.9188 27.292C59.1701 27.292 59.4431 27.331 59.7378 27.409C60.0324 27.487 60.2794 27.5953 60.4788 27.734H60.4918L60.4788 27.357H61.4668V29.658H60.6218C60.5438 29.2073 60.3444 28.852 60.0238 28.592C59.7031 28.332 59.3088 28.202 58.8408 28.202C58.5981 28.202 58.3944 28.2583 58.2298 28.371C58.0651 28.4837 57.9828 28.657 57.9828 28.891C57.9828 29.1337 58.0781 29.3157 58.2688 29.437C58.4594 29.5497 58.7801 29.6797 59.2308 29.827C59.2828 29.8357 59.3954 29.8703 59.5688 29.931C60.3054 30.191 60.8688 30.4943 61.2588 30.841C61.6574 31.1877 61.8568 31.6427 61.8568 32.206C61.8568 32.6393 61.7441 33.0077 61.5188 33.311C61.3021 33.6057 61.0118 33.831 60.6478 33.987C60.2924 34.1343 59.9068 34.208 59.4908 34.208ZM65.5013 34.208C64.73 34.208 64.1753 33.9827 63.8373 33.532C63.508 33.0813 63.3433 32.349 63.3433 31.335V29.84C63.3433 29.476 63.3563 29.099 63.3823 28.709L62.4723 28.748V27.76C63.0183 27.76 63.4603 27.721 63.7983 27.643C64.1363 27.565 64.3617 27.474 64.4743 27.37H65.1893V31.348C65.1893 31.92 65.263 32.3403 65.4103 32.609C65.5577 32.8777 65.7917 33.012 66.1123 33.012C66.329 33.012 66.55 32.9513 66.7753 32.83C67.0093 32.7087 67.2043 32.5613 67.3603 32.388V29.84C67.3603 29.4327 67.3777 29.0557 67.4123 28.709L66.5023 28.748V27.76C67.0483 27.76 67.486 27.721 67.8153 27.643C68.1533 27.565 68.3787 27.474 68.4913 27.37H69.2063V31.907C69.2063 32.323 69.189 32.7043 69.1543 33.051C69.4317 33.025 69.7133 33.012 69.9993 33.012V34H67.5293L67.4513 33.324H67.4383C67.1177 33.6013 66.8057 33.818 66.5023 33.974C66.2077 34.13 65.874 34.208 65.5013 34.208ZM70.6385 33.155C70.8725 33.155 71.0415 33.1117 71.1455 33.025C71.2581 32.9297 71.3275 32.804 71.3535 32.648C71.3881 32.492 71.4055 32.2753 71.4055 31.998V26.655C71.4055 26.239 71.4228 25.862 71.4575 25.524L70.5475 25.563V24.575C71.0935 24.575 71.5355 24.536 71.8735 24.458C72.2115 24.38 72.4368 24.289 72.5495 24.185H73.2515V31.907C73.2515 32.323 73.2341 32.7043 73.1995 33.051C73.4855 33.025 73.7671 33.012 74.0445 33.012V34H70.6385V33.155ZM76.7293 26.213C76.4346 26.213 76.1919 26.1133 76.0013 25.914C75.8106 25.706 75.7153 25.4547 75.7153 25.16C75.7153 24.8653 75.8149 24.614 76.0143 24.406C76.2136 24.1893 76.4476 24.081 76.7163 24.081C76.9936 24.081 77.2233 24.185 77.4053 24.393C77.5959 24.601 77.6913 24.8567 77.6913 25.16C77.6913 25.4633 77.6003 25.7147 77.4183 25.914C77.2449 26.1133 77.0153 26.213 76.7293 26.213ZM74.8963 33.155C75.2256 33.155 75.4336 33.064 75.5203 32.882C75.6156 32.7 75.6633 32.4053 75.6633 31.998V29.84C75.6633 29.4327 75.6806 29.0557 75.7153 28.709L74.8053 28.748V27.76C75.3513 27.76 75.7933 27.721 76.1313 27.643C76.4693 27.565 76.6946 27.474 76.8073 27.37H77.5093V31.907C77.5093 32.323 77.4919 32.7043 77.4573 33.051C77.7346 33.025 78.0163 33.012 78.3023 33.012V34H74.8963V33.155ZM82.0833 33.103C82.3086 33.103 82.4949 33.038 82.6423 32.908C82.7983 32.778 82.9196 32.622 83.0063 32.44C83.0929 32.2493 83.2013 31.9763 83.3313 31.621L85.8663 24.666H86.7763L89.5453 31.751C89.6146 31.9243 89.6883 32.141 89.7663 32.401C89.8443 32.6523 89.8919 32.8647 89.9093 33.038C90.1953 33.012 90.4466 32.999 90.6633 32.999V34H87.1663V33.142C87.5823 33.142 87.7903 32.9687 87.7903 32.622C87.7903 32.4487 87.7426 32.2407 87.6473 31.998L87.3873 31.283L84.5663 31.335L84.3583 31.946C84.3323 32.0153 84.2716 32.1713 84.1763 32.414C84.0896 32.6567 84.0116 32.8517 83.9422 32.999C84.2196 32.973 84.5273 32.96 84.8653 32.96V34H82.0833V33.103ZM87.0623 30.36L86.4643 28.735C86.2129 28.0243 86.0483 27.4307 85.9703 26.954H85.9573C85.8186 27.578 85.6583 28.15 85.4763 28.67L84.8913 30.36H87.0623ZM93.6595 34.208C92.8882 34.208 92.3335 33.9827 91.9955 33.532C91.6662 33.0813 91.5015 32.349 91.5015 31.335V29.84C91.5015 29.476 91.5145 29.099 91.5405 28.709L90.6305 28.748V27.76C91.1765 27.76 91.6185 27.721 91.9565 27.643C92.2945 27.565 92.5199 27.474 92.6325 27.37H93.3475V31.348C93.3475 31.92 93.4212 32.3403 93.5685 32.609C93.7159 32.8777 93.9499 33.012 94.2705 33.012C94.4872 33.012 94.7082 32.9513 94.9335 32.83C95.1675 32.7087 95.3625 32.5613 95.5185 32.388V29.84C95.5185 29.4327 95.5359 29.0557 95.5705 28.709L94.6605 28.748V27.76C95.2065 27.76 95.6442 27.721 95.9735 27.643C96.3115 27.565 96.5369 27.474 96.6495 27.37H97.3645V31.907C97.3645 32.323 97.3472 32.7043 97.3125 33.051C97.5899 33.025 97.8715 33.012 98.1575 33.012V34H95.6875L95.6095 33.324H95.5965C95.2759 33.6013 94.9639 33.818 94.6605 33.974C94.3659 34.13 94.0322 34.208 93.6595 34.208ZM101.528 34.208C100.176 34.208 99.4999 33.376 99.4999 31.712L99.5259 28.579H98.6419V27.5C98.9192 27.5 99.1792 27.4133 99.4219 27.24C99.6732 27.0667 99.8856 26.8543 100.059 26.603C100.232 26.3517 100.354 26.109 100.423 25.875H101.385L101.372 27.5H103.023V28.501L101.372 28.54L101.359 31.738C101.359 32.5787 101.619 32.999 102.139 32.999C102.555 32.999 102.949 32.739 103.322 32.219L103.946 32.804C103.539 33.402 103.131 33.7877 102.724 33.961C102.317 34.1257 101.918 34.208 101.528 34.208ZM107.509 34.208C106.876 34.208 106.309 34.0737 105.806 33.805C105.303 33.5363 104.909 33.1507 104.623 32.648C104.337 32.1453 104.194 31.5603 104.194 30.893C104.194 30.191 104.341 29.567 104.636 29.021C104.931 28.475 105.325 28.0503 105.819 27.747C106.322 27.4437 106.872 27.292 107.47 27.292C108.094 27.292 108.653 27.4263 109.147 27.695C109.641 27.9637 110.031 28.3537 110.317 28.865C110.603 29.3677 110.746 29.957 110.746 30.633C110.746 31.3523 110.607 31.9807 110.33 32.518C110.061 33.0553 109.68 33.4713 109.186 33.766C108.701 34.0607 108.142 34.208 107.509 34.208ZM107.535 33.285C108.012 33.285 108.345 33.064 108.536 32.622C108.727 32.18 108.822 31.6253 108.822 30.958C108.822 30.2127 108.714 29.567 108.497 29.021C108.28 28.475 107.938 28.202 107.47 28.202C106.993 28.202 106.647 28.4273 106.43 28.878C106.213 29.3287 106.105 29.8833 106.105 30.542C106.105 31.296 106.222 31.9417 106.456 32.479C106.69 33.0163 107.05 33.285 107.535 33.285ZM111.687 33.155C112.017 33.155 112.225 33.064 112.311 32.882C112.407 32.7 112.454 32.4053 112.454 31.998V29.814C112.454 29.424 112.472 29.0557 112.506 28.709L111.596 28.748V27.76C112.142 27.76 112.584 27.721 112.922 27.643C113.26 27.565 113.486 27.474 113.598 27.37H114.235C114.235 27.3873 114.253 27.604 114.287 28.02H114.313C114.582 27.8033 114.885 27.63 115.223 27.5C115.561 27.3613 115.891 27.292 116.211 27.292C116.601 27.292 116.926 27.3657 117.186 27.513C117.455 27.6517 117.667 27.864 117.823 28.15C118.135 27.89 118.482 27.682 118.863 27.526C119.245 27.37 119.604 27.292 119.942 27.292C120.662 27.292 121.195 27.5 121.541 27.916C121.897 28.332 122.074 29.0253 122.074 29.996V31.907C122.074 32.323 122.057 32.7043 122.022 33.051C122.3 33.025 122.581 33.012 122.867 33.012V34H119.578V33.155C119.856 33.155 120.033 33.064 120.111 32.882C120.189 32.6913 120.228 32.3967 120.228 31.998V30.009C120.22 29.463 120.129 29.0773 119.955 28.852C119.782 28.618 119.531 28.501 119.201 28.501C118.82 28.501 118.447 28.644 118.083 28.93C118.161 29.2767 118.2 29.6883 118.2 30.165V31.907C118.2 32.323 118.183 32.7043 118.148 33.051C118.426 33.025 118.707 33.012 118.993 33.012V34H115.639V33.155C115.943 33.155 116.138 33.064 116.224 32.882C116.311 32.7 116.354 32.4053 116.354 31.998L116.341 29.97C116.341 29.4327 116.263 29.0557 116.107 28.839C115.951 28.6137 115.717 28.4967 115.405 28.488C115.024 28.488 114.656 28.6483 114.3 28.969V31.907C114.3 32.323 114.283 32.7043 114.248 33.051C114.526 33.025 114.786 33.012 115.028 33.012V34H111.687V33.155ZM125.271 34.208C124.725 34.208 124.292 34.0477 123.971 33.727C123.659 33.3977 123.503 32.9817 123.503 32.479C123.503 31.7163 123.859 31.14 124.569 30.75C125.28 30.3513 126.134 30.1303 127.13 30.087V29.411C127.13 28.6223 126.836 28.228 126.246 28.228C125.865 28.228 125.553 28.3493 125.31 28.592C125.414 28.7133 125.466 28.878 125.466 29.086C125.466 29.294 125.393 29.4803 125.245 29.645C125.107 29.8097 124.899 29.892 124.621 29.892C124.361 29.892 124.158 29.8097 124.01 29.645C123.863 29.4717 123.789 29.2593 123.789 29.008C123.789 28.67 123.911 28.371 124.153 28.111C124.396 27.851 124.725 27.6517 125.141 27.513C125.566 27.3657 126.03 27.292 126.532 27.292C128.136 27.292 128.937 28.1197 128.937 29.775L128.924 31.907C128.924 32.323 128.907 32.7043 128.872 33.051C129.158 33.025 129.44 33.012 129.717 33.012V34H127.26C127.243 33.8873 127.226 33.688 127.208 33.402H127.195C126.667 33.9393 126.025 34.208 125.271 34.208ZM126.09 32.934C126.48 32.934 126.823 32.778 127.117 32.466V31.01C126.606 31.062 126.181 31.192 125.843 31.4C125.514 31.608 125.349 31.8897 125.349 32.245C125.349 32.479 125.419 32.6523 125.557 32.765C125.705 32.8777 125.882 32.934 126.09 32.934ZM132.987 34.208C131.635 34.208 130.959 33.376 130.959 31.712L130.985 28.579H130.101V27.5C130.378 27.5 130.638 27.4133 130.881 27.24C131.132 27.0667 131.345 26.8543 131.518 26.603C131.691 26.3517 131.813 26.109 131.882 25.875H132.844L132.831 27.5H134.482V28.501L132.831 28.54L132.818 31.738C132.818 32.5787 133.078 32.999 133.598 32.999C134.014 32.999 134.408 32.739 134.781 32.219L135.405 32.804C134.998 33.402 134.59 33.7877 134.183 33.961C133.776 34.1257 133.377 34.208 132.987 34.208ZM138.864 34.208C138.231 34.208 137.672 34.0693 137.187 33.792C136.702 33.506 136.325 33.103 136.056 32.583C135.787 32.063 135.653 31.4563 135.653 30.763C135.653 30.1563 135.787 29.5887 136.056 29.06C136.333 28.5227 136.719 28.0937 137.213 27.773C137.707 27.4523 138.27 27.292 138.903 27.292C139.744 27.292 140.441 27.539 140.996 28.033C141.559 28.527 141.837 29.3503 141.828 30.503L137.564 30.581C137.564 31.3437 137.707 31.946 137.993 32.388C138.288 32.83 138.756 33.051 139.397 33.051C139.7 33.051 140.025 32.973 140.372 32.817C140.719 32.661 141.031 32.414 141.308 32.076L141.893 32.622C141.156 33.6793 140.147 34.208 138.864 34.208ZM140.034 29.671C140.008 28.6917 139.653 28.202 138.968 28.202C138.595 28.202 138.296 28.3363 138.071 28.605C137.854 28.865 137.711 29.2203 137.642 29.671H140.034ZM145.287 34.208C144.767 34.208 144.308 34.0737 143.909 33.805C143.519 33.5363 143.211 33.155 142.986 32.661C142.769 32.1583 142.661 31.5777 142.661 30.919C142.661 30.2257 142.795 29.606 143.064 29.06C143.333 28.5053 143.71 28.072 144.195 27.76C144.689 27.448 145.252 27.292 145.885 27.292C146.223 27.292 146.609 27.37 147.042 27.526V26.668C147.042 26.252 147.059 25.8707 147.094 25.524C146.808 25.55 146.5 25.563 146.171 25.563V24.575C146.717 24.575 147.159 24.536 147.497 24.458C147.835 24.38 148.06 24.289 148.173 24.185H148.875V31.907C148.875 32.323 148.858 32.7043 148.823 33.051C149.109 33.025 149.391 33.012 149.668 33.012V34H147.198L147.133 33.402H147.12C146.609 33.9393 145.998 34.208 145.287 34.208ZM145.963 33.025C146.18 33.025 146.383 32.9687 146.574 32.856C146.765 32.7433 146.921 32.5917 147.042 32.401V28.501C146.947 28.4317 146.812 28.3753 146.639 28.332C146.466 28.28 146.292 28.254 146.119 28.254C145.564 28.2627 145.166 28.501 144.923 28.969C144.689 29.437 144.572 30.022 144.572 30.724C144.572 31.348 144.685 31.8897 144.91 32.349C145.144 32.7997 145.495 33.025 145.963 33.025Z" fill="white"/>
<defs>
<clipPath id="clip0">
<rect width="17.0792" height="17.2074" fill="white" transform="translate(6.20142 11.314)"/>
</clipPath>
</defs>
</svg>
