<svg xmlns="http://www.w3.org/2000/svg" viewBox="0 0 32 32"><defs><style>.cls-1{fill:#5c1c93;}.cls-2{fill:#f7c852;}</style></defs><g id="Layer_2" data-name="Layer 2"><g id="Layer_1-2" data-name="Layer 1"><circle class="cls-1" cx="16" cy="16" r="16"/><path class="cls-2" d="M23.39,11l-.63.25,1.56.89-.09-.66Z"/><path class="cls-2" d="M22.12,11.49a2.55,2.55,0,0,1-.61.08l-.06.14,3.13,1.78.1-.13a2.06,2.06,0,0,1-.23-.55Z"/><path class="cls-2" d="M21.12,12.75l2.71,1.54a4.62,4.62,0,0,0,.41-.38l-3-1.7A2.34,2.34,0,0,0,21.12,12.75Z"/><path class="cls-2" d="M21.65,14.91a2.45,2.45,0,0,0,1.67-.29l-2.24-1.29A2.36,2.36,0,0,0,21.65,14.91Z"/><path class="cls-2" d="M27.36,10.83l-1.55-.89a1.31,1.31,0,0,0,.77-1.55l.55-.29a.24.24,0,0,0,.11-.35.24.24,0,0,0-.35-.1l-.53.28a1.26,1.26,0,0,0-.88-.5l0-.6a.26.26,0,0,0-.28-.24.27.27,0,0,0-.25.28l0,.61a1.34,1.34,0,0,0-1,1.44L22.4,8a1.68,1.68,0,0,0-2.24.62,1.61,1.61,0,0,0,2,2.31L24.55,10l.36,2.51a1.63,1.63,0,0,0,3,.55A1.6,1.6,0,0,0,27.36,10.83Z"/><path class="cls-2" d="M9.59,24H9.23a.62.62,0,0,1,.06-1.23,6.14,6.14,0,0,0,.93,0A.61.61,0,0,1,10.34,24,6.39,6.39,0,0,1,9.59,24Z"/><path class="cls-2" d="M11.87,23.66a.61.61,0,0,1-.18-1.2,6.28,6.28,0,0,0,1.68-.78.61.61,0,0,1,.67,1,7.51,7.51,0,0,1-2,.92A.57.57,0,0,1,11.87,23.66ZM15,21.78a.62.62,0,0,1-.44-1,9.5,9.5,0,0,0,1.18-1.48.61.61,0,1,1,1,.64,10.13,10.13,0,0,1-1.35,1.7A.61.61,0,0,1,15,21.78Zm.16-2.58a3.7,3.7,0,0,1-.47,0,5.28,5.28,0,0,1-1.53-.38.61.61,0,1,1,.46-1.13,4.83,4.83,0,0,0,1.19.3h.54a.61.61,0,0,1,0,1.22Zm1.8-.31a.61.61,0,0,1-.58-.41.76.76,0,0,1,0-.21.62.62,0,0,1,0-.33,3.49,3.49,0,0,0,.15-1,3.19,3.19,0,0,0-.08-.7.61.61,0,1,1,1.18-.3,4.15,4.15,0,0,1,.13,1c0,.11,0,.22,0,.34.25-.12.49-.27.74-.42a.61.61,0,0,1,.66,1,8.59,8.59,0,0,1-2,.95A.63.63,0,0,1,16.92,18.89ZM12,18a.63.63,0,0,1-.42-.17q-.15-.14-.3-.3a3.67,3.67,0,0,1-.92-1.73.61.61,0,1,1,1.2-.24,2.45,2.45,0,0,0,.63,1.15l.22.23a.6.6,0,0,1,0,.86A.6.6,0,0,1,12,18Zm4.26-2.71a.62.62,0,0,1-.48-.23,3.13,3.13,0,0,0-1.33-1,.63.63,0,0,1-.34-.8.62.62,0,0,1,.8-.34,4.44,4.44,0,0,1,1.84,1.43.61.61,0,0,1-.11.86A.64.64,0,0,1,16.25,15.27Zm-4.95-.52a.6.6,0,0,1-.39-.15.61.61,0,0,1-.08-.86A3.44,3.44,0,0,1,13,12.64a.6.6,0,0,1,.69.51.61.61,0,0,1-.51.7,2.27,2.27,0,0,0-1.4.68A.62.62,0,0,1,11.3,14.75Z"/><path class="cls-2" d="M20.07,17a.62.62,0,0,1-.47-.22.61.61,0,0,1,.07-.86c.25-.22.49-.44.71-.66a.62.62,0,0,1,.87.87c-.25.24-.51.48-.79.72A.58.58,0,0,1,20.07,17Z"/><path class="cls-2" d="M6.46,21.28l-1.76,1v2.07l1.76,1,1.76-1V22.31Z"/></g></g></svg>