<svg xmlns="http://www.w3.org/2000/svg" viewBox="0 0 32 32"><defs><style>.cls-1{fill:#5c1c93;}.cls-2{fill:#f7c852;}</style></defs><g id="Layer_2" data-name="Layer 2"><g id="Layer_1-2" data-name="Layer 1"><rect class="cls-1" width="32" height="32" rx="13.86"/><path class="cls-2" d="M23.07,10.92l-.64.26,1.59.9-.1-.68Z"/><path class="cls-2" d="M21.77,11.42a2.55,2.55,0,0,1-.61.08l-.07.15,3.19,1.8a1.13,1.13,0,0,1,.1-.13,2.28,2.28,0,0,1-.23-.56Z"/><path class="cls-2" d="M20.76,12.7l2.75,1.56a3.61,3.61,0,0,0,.42-.38l-3-1.73A3.1,3.1,0,0,0,20.76,12.7Z"/><path class="cls-2" d="M21.3,14.89A2.41,2.41,0,0,0,23,14.6l-2.28-1.31A2.37,2.37,0,0,0,21.3,14.89Z"/><path class="cls-2" d="M27.11,10.75l-1.59-.9a1.34,1.34,0,0,0,.79-1.59L26.87,8A.26.26,0,0,0,27,7.62a.25.25,0,0,0-.35-.11l-.54.29a1.38,1.38,0,0,0-.9-.51l0-.6a.26.26,0,0,0-.28-.25.27.27,0,0,0-.26.28l0,.63a1.37,1.37,0,0,0-1,1.46l-1.59-.93a1.69,1.69,0,0,0-2.28.62,1.64,1.64,0,0,0,2,2.35l2.43-.95.36,2.54a1.66,1.66,0,0,0,3.08.56A1.63,1.63,0,0,0,27.11,10.75Z"/><path class="cls-2" d="M9.05,24.13H8.68a.63.63,0,0,1-.59-.66.63.63,0,0,1,.66-.59,6.3,6.3,0,0,0,.94,0A.62.62,0,1,1,9.8,24.1Q9.43,24.13,9.05,24.13Z"/><path class="cls-2" d="M11.36,23.78a.62.62,0,0,1-.18-1.21,6.86,6.86,0,0,0,1.71-.8.63.63,0,0,1,.68,1.05,8.46,8.46,0,0,1-2,.94A.62.62,0,0,1,11.36,23.78Zm3.14-1.91a.62.62,0,0,1-.44-.18.63.63,0,0,1,0-.88,9.86,9.86,0,0,0,1.2-1.5.62.62,0,0,1,.85-.2.63.63,0,0,1,.2.86,10.36,10.36,0,0,1-1.37,1.72A.62.62,0,0,1,14.5,21.87Zm.17-2.61-.48,0a5.6,5.6,0,0,1-1.56-.4.62.62,0,1,1,.47-1.15,4.58,4.58,0,0,0,1.21.31h.55a.62.62,0,0,1,.64.59.61.61,0,0,1-.6.65Zm1.82-.32a.62.62,0,0,1-.59-.42.83.83,0,0,1,0-.22.53.53,0,0,1,0-.33A3.57,3.57,0,0,0,16,17a2.82,2.82,0,0,0-.09-.71.62.62,0,0,1,1.21-.3,4.29,4.29,0,0,1,.12,1c0,.12,0,.23,0,.35.25-.13.5-.27.75-.43a.62.62,0,0,1,.67,1.05,9.34,9.34,0,0,1-2,1A.64.64,0,0,1,16.49,18.94Zm-5-.93a.63.63,0,0,1-.42-.17q-.17-.15-.3-.3a3.74,3.74,0,0,1-.94-1.77.62.62,0,0,1,.49-.73.63.63,0,0,1,.73.49,2.4,2.4,0,0,0,.64,1.17l.23.23a.63.63,0,0,1,0,.88A.65.65,0,0,1,11.48,18Zm4.34-2.75a.6.6,0,0,1-.49-.24A3.41,3.41,0,0,0,14,14a.62.62,0,1,1,.46-1.15,4.57,4.57,0,0,1,1.87,1.45.62.62,0,0,1-.11.87A.6.6,0,0,1,15.82,15.26Zm-5-.53a.63.63,0,0,1-.48-1,3.48,3.48,0,0,1,2.19-1.12.62.62,0,0,1,.71.52.63.63,0,0,1-.53.71,2.3,2.3,0,0,0-1.41.68A.63.63,0,0,1,10.79,14.73Z"/><path class="cls-2" d="M19.69,17a.59.59,0,0,1-.47-.22.6.6,0,0,1,.07-.87c.25-.22.5-.45.72-.67a.62.62,0,1,1,.88.88c-.25.25-.52.49-.8.73A.6.6,0,0,1,19.69,17Z"/><path class="cls-2" d="M5.87,21.36,4.08,22.41v2.1l1.79,1,1.79-1v-2.1Z"/></g></g></svg>