<svg width="2229" height="1490" viewBox="0 0 2229 1490" fill="none" xmlns="http://www.w3.org/2000/svg">
<rect width="2229" height="1490" fill="#E0EEFF"/>
<path d="M67 57L55 69" stroke="#5498FF" stroke-width="2" stroke-linecap="round" stroke-linejoin="round"/>
<path d="M55 57L67 69" stroke="#5498FF" stroke-width="2" stroke-linecap="round" stroke-linejoin="round"/>
<path d="M187 60L182 55L177 60" stroke="#5498FF" stroke-width="2" stroke-linecap="round" stroke-linejoin="round"/>
<path d="M193 71H186C183.791 71 182 69.2091 182 67V55" stroke="#5498FF" stroke-width="2" stroke-linecap="round" stroke-linejoin="round"/>
<path d="M312 69L306 63L312 57" stroke="#5498FF" stroke-width="2" stroke-linecap="round" stroke-linejoin="round"/>
<path d="M439 57L427 69" stroke="#5498FF" stroke-width="2" stroke-linecap="round" stroke-linejoin="round"/>
<path d="M427 57L439 69" stroke="#5498FF" stroke-width="2" stroke-linecap="round" stroke-linejoin="round"/>
<path d="M560 69L554 63L560 57" stroke="#5498FF" stroke-width="2" stroke-linecap="round" stroke-linejoin="round"/>
<path d="M683 60L678 55L673 60" stroke="#5498FF" stroke-width="2" stroke-linecap="round" stroke-linejoin="round"/>
<path d="M689 71H682C679.791 71 678 69.2091 678 67V55" stroke="#5498FF" stroke-width="2" stroke-linecap="round" stroke-linejoin="round"/>
<path d="M807 60L802 55L797 60" stroke="#5498FF" stroke-width="2" stroke-linecap="round" stroke-linejoin="round"/>
<path d="M813 71H806C803.791 71 802 69.2091 802 67V55" stroke="#5498FF" stroke-width="2" stroke-linecap="round" stroke-linejoin="round"/>
<path d="M932 69L926 63L932 57" stroke="#5498FF" stroke-width="2" stroke-linecap="round" stroke-linejoin="round"/>
<path d="M1059 57L1047 69" stroke="#5498FF" stroke-width="2" stroke-linecap="round" stroke-linejoin="round"/>
<path d="M1047 57L1059 69" stroke="#5498FF" stroke-width="2" stroke-linecap="round" stroke-linejoin="round"/>
<path fill-rule="evenodd" clip-rule="evenodd" d="M1168 56C1168 54.8954 1168.9 54 1170 54H1184C1185.1 54 1186 54.8954 1186 56V70C1186 71.1046 1185.1 72 1184 72H1170C1168.9 72 1168 71.1046 1168 70V56Z" stroke="#5498FF" stroke-width="2" stroke-linecap="round" stroke-linejoin="round"/>
<path d="M1307 57L1295 69" stroke="#5498FF" stroke-width="2" stroke-linecap="round" stroke-linejoin="round"/>
<path d="M1295 57L1307 69" stroke="#5498FF" stroke-width="2" stroke-linecap="round" stroke-linejoin="round"/>
<path d="M1431 57L1419 69" stroke="#5498FF" stroke-width="2" stroke-linecap="round" stroke-linejoin="round"/>
<path d="M1419 57L1431 69" stroke="#5498FF" stroke-width="2" stroke-linecap="round" stroke-linejoin="round"/>
<path fill-rule="evenodd" clip-rule="evenodd" d="M1540 56C1540 54.8954 1540.9 54 1542 54H1556C1557.1 54 1558 54.8954 1558 56V70C1558 71.1046 1557.1 72 1556 72H1542C1540.9 72 1540 71.1046 1540 70V56Z" stroke="#5498FF" stroke-width="2" stroke-linecap="round" stroke-linejoin="round"/>
<path fill-rule="evenodd" clip-rule="evenodd" d="M1664 56C1664 54.8954 1664.9 54 1666 54H1680C1681.1 54 1682 54.8954 1682 56V70C1682 71.1046 1681.1 72 1680 72H1666C1664.9 72 1664 71.1046 1664 70V56Z" stroke="#5498FF" stroke-width="2" stroke-linecap="round" stroke-linejoin="round"/>
<path fill-rule="evenodd" clip-rule="evenodd" d="M1788 56C1788 54.8954 1788.9 54 1790 54H1804C1805.1 54 1806 54.8954 1806 56V70C1806 71.1046 1805.1 72 1804 72H1790C1788.9 72 1788 71.1046 1788 70V56Z" stroke="#5498FF" stroke-width="2" stroke-linecap="round" stroke-linejoin="round"/>
<path d="M1924 61L1929 66L1924 71" stroke="#5498FF" stroke-width="2" stroke-linecap="round" stroke-linejoin="round"/>
<path d="M1913 55V62C1913 64.2091 1914.79 66 1917 66H1929" stroke="#5498FF" stroke-width="2" stroke-linecap="round" stroke-linejoin="round"/>
<path d="M2047 60L2042 55L2037 60" stroke="#5498FF" stroke-width="2" stroke-linecap="round" stroke-linejoin="round"/>
<path d="M2053 71H2046C2043.79 71 2042 69.2091 2042 67V55" stroke="#5498FF" stroke-width="2" stroke-linecap="round" stroke-linejoin="round"/>
<path d="M2172 69L2166 63L2172 57" stroke="#5498FF" stroke-width="2" stroke-linecap="round" stroke-linejoin="round"/>
<path d="M67 181L55 193" stroke="#5498FF" stroke-width="2" stroke-linecap="round" stroke-linejoin="round"/>
<path d="M55 181L67 193" stroke="#5498FF" stroke-width="2" stroke-linecap="round" stroke-linejoin="round"/>
<path d="M182 193L188 187L182 181" stroke="#5498FF" stroke-width="2" stroke-linecap="round" stroke-linejoin="round"/>
<path d="M311 184L306 179L301 184" stroke="#5498FF" stroke-width="2" stroke-linecap="round" stroke-linejoin="round"/>
<path d="M317 195H310C307.791 195 306 193.209 306 191V179" stroke="#5498FF" stroke-width="2" stroke-linecap="round" stroke-linejoin="round"/>
<path d="M435 184L430 179L425 184" stroke="#5498FF" stroke-width="2" stroke-linecap="round" stroke-linejoin="round"/>
<path d="M441 195H434C431.791 195 430 193.209 430 191V179" stroke="#5498FF" stroke-width="2" stroke-linecap="round" stroke-linejoin="round"/>
<path d="M554 193L560 187L554 181" stroke="#5498FF" stroke-width="2" stroke-linecap="round" stroke-linejoin="round"/>
<path fill-rule="evenodd" clip-rule="evenodd" d="M672 180C672 178.895 672.895 178 674 178H688C689.105 178 690 178.895 690 180V194C690 195.105 689.105 196 688 196H674C672.895 196 672 195.105 672 194V180Z" stroke="#5498FF" stroke-width="2" stroke-linecap="round" stroke-linejoin="round"/>
<path fill-rule="evenodd" clip-rule="evenodd" d="M796 180C796 178.895 796.895 178 798 178H812C813.105 178 814 178.895 814 180V194C814 195.105 813.105 196 812 196H798C796.895 196 796 195.105 796 194V180Z" stroke="#5498FF" stroke-width="2" stroke-linecap="round" stroke-linejoin="round"/>
<path d="M932 193L926 187L932 181" stroke="#5498FF" stroke-width="2" stroke-linecap="round" stroke-linejoin="round"/>
<path d="M1056 193L1050 187L1056 181" stroke="#5498FF" stroke-width="2" stroke-linecap="round" stroke-linejoin="round"/>
<path d="M1183 181L1171 193" stroke="#5498FF" stroke-width="2" stroke-linecap="round" stroke-linejoin="round"/>
<path d="M1171 181L1183 193" stroke="#5498FF" stroke-width="2" stroke-linecap="round" stroke-linejoin="round"/>
<path d="M1304 193L1298 187L1304 181" stroke="#5498FF" stroke-width="2" stroke-linecap="round" stroke-linejoin="round"/>
<path d="M1428 185L1433 190L1428 195" stroke="#5498FF" stroke-width="2" stroke-linecap="round" stroke-linejoin="round"/>
<path d="M1417 179V186C1417 188.209 1418.79 190 1421 190H1433" stroke="#5498FF" stroke-width="2" stroke-linecap="round" stroke-linejoin="round"/>
<path fill-rule="evenodd" clip-rule="evenodd" d="M1540 180C1540 178.895 1540.9 178 1542 178H1556C1557.1 178 1558 178.895 1558 180V194C1558 195.105 1557.1 196 1556 196H1542C1540.9 196 1540 195.105 1540 194V180Z" stroke="#5498FF" stroke-width="2" stroke-linecap="round" stroke-linejoin="round"/>
<path d="M1676 193L1670 187L1676 181" stroke="#5498FF" stroke-width="2" stroke-linecap="round" stroke-linejoin="round"/>
<path d="M1799 184L1794 179L1789 184" stroke="#5498FF" stroke-width="2" stroke-linecap="round" stroke-linejoin="round"/>
<path d="M1805 195H1798C1795.79 195 1794 193.209 1794 191V179" stroke="#5498FF" stroke-width="2" stroke-linecap="round" stroke-linejoin="round"/>
<path d="M1927 181L1915 193" stroke="#5498FF" stroke-width="2" stroke-linecap="round" stroke-linejoin="round"/>
<path d="M1915 181L1927 193" stroke="#5498FF" stroke-width="2" stroke-linecap="round" stroke-linejoin="round"/>
<path d="M2048 193L2042 187L2048 181" stroke="#5498FF" stroke-width="2" stroke-linecap="round" stroke-linejoin="round"/>
<path d="M2172 193L2166 187L2172 181" stroke="#5498FF" stroke-width="2" stroke-linecap="round" stroke-linejoin="round"/>
<path fill-rule="evenodd" clip-rule="evenodd" d="M52 304C52 302.895 52.8954 302 54 302H68C69.1046 302 70 302.895 70 304V318C70 319.105 69.1046 320 68 320H54C52.8954 320 52 319.105 52 318V304Z" stroke="#5498FF" stroke-width="2" stroke-linecap="round" stroke-linejoin="round"/>
<path d="M182 317L188 311L182 305" stroke="#5498FF" stroke-width="2" stroke-linecap="round" stroke-linejoin="round"/>
<path d="M315 305L303 317" stroke="#5498FF" stroke-width="2" stroke-linecap="round" stroke-linejoin="round"/>
<path d="M303 305L315 317" stroke="#5498FF" stroke-width="2" stroke-linecap="round" stroke-linejoin="round"/>
<path d="M436 309L441 314L436 319" stroke="#5498FF" stroke-width="2" stroke-linecap="round" stroke-linejoin="round"/>
<path d="M425 303V310C425 312.209 426.791 314 429 314H441" stroke="#5498FF" stroke-width="2" stroke-linecap="round" stroke-linejoin="round"/>
<path d="M560 309L565 314L560 319" stroke="#5498FF" stroke-width="2" stroke-linecap="round" stroke-linejoin="round"/>
<path d="M549 303V310C549 312.209 550.791 314 553 314H565" stroke="#5498FF" stroke-width="2" stroke-linecap="round" stroke-linejoin="round"/>
<path d="M684 317L678 311L684 305" stroke="#5498FF" stroke-width="2" stroke-linecap="round" stroke-linejoin="round"/>
<path d="M802 317L808 311L802 305" stroke="#5498FF" stroke-width="2" stroke-linecap="round" stroke-linejoin="round"/>
<path d="M935 305L923 317" stroke="#5498FF" stroke-width="2" stroke-linecap="round" stroke-linejoin="round"/>
<path d="M923 305L935 317" stroke="#5498FF" stroke-width="2" stroke-linecap="round" stroke-linejoin="round"/>
<path d="M1056 309L1061 314L1056 319" stroke="#5498FF" stroke-width="2" stroke-linecap="round" stroke-linejoin="round"/>
<path d="M1045 303V310C1045 312.209 1046.79 314 1049 314H1061" stroke="#5498FF" stroke-width="2" stroke-linecap="round" stroke-linejoin="round"/>
<path d="M1179 308L1174 303L1169 308" stroke="#5498FF" stroke-width="2" stroke-linecap="round" stroke-linejoin="round"/>
<path d="M1185 319H1178C1175.79 319 1174 317.209 1174 315V303" stroke="#5498FF" stroke-width="2" stroke-linecap="round" stroke-linejoin="round"/>
<path d="M1303 308L1298 303L1293 308" stroke="#5498FF" stroke-width="2" stroke-linecap="round" stroke-linejoin="round"/>
<path d="M1309 319H1302C1299.79 319 1298 317.209 1298 315V303" stroke="#5498FF" stroke-width="2" stroke-linecap="round" stroke-linejoin="round"/>
<path d="M1428 317L1422 311L1428 305" stroke="#5498FF" stroke-width="2" stroke-linecap="round" stroke-linejoin="round"/>
<path d="M1546 317L1552 311L1546 305" stroke="#5498FF" stroke-width="2" stroke-linecap="round" stroke-linejoin="round"/>
<path d="M1675 308L1670 303L1665 308" stroke="#5498FF" stroke-width="2" stroke-linecap="round" stroke-linejoin="round"/>
<path d="M1681 319H1674C1671.79 319 1670 317.209 1670 315V303" stroke="#5498FF" stroke-width="2" stroke-linecap="round" stroke-linejoin="round"/>
<path d="M1803 305L1791 317" stroke="#5498FF" stroke-width="2" stroke-linecap="round" stroke-linejoin="round"/>
<path d="M1791 305L1803 317" stroke="#5498FF" stroke-width="2" stroke-linecap="round" stroke-linejoin="round"/>
<path d="M1918 317L1924 311L1918 305" stroke="#5498FF" stroke-width="2" stroke-linecap="round" stroke-linejoin="round"/>
<path d="M2042 317L2048 311L2042 305" stroke="#5498FF" stroke-width="2" stroke-linecap="round" stroke-linejoin="round"/>
<path fill-rule="evenodd" clip-rule="evenodd" d="M2160 304C2160 302.895 2160.9 302 2162 302H2176C2177.1 302 2178 302.895 2178 304V318C2178 319.105 2177.1 320 2176 320H2162C2160.9 320 2160 319.105 2160 318V304Z" stroke="#5498FF" stroke-width="2" stroke-linecap="round" stroke-linejoin="round"/>
<path d="M64 433L69 438L64 443" stroke="#5498FF" stroke-width="2" stroke-linecap="round" stroke-linejoin="round"/>
<path d="M53 427V434C53 436.209 54.7909 438 57 438H69" stroke="#5498FF" stroke-width="2" stroke-linecap="round" stroke-linejoin="round"/>
<path d="M188 433L193 438L188 443" stroke="#5498FF" stroke-width="2" stroke-linecap="round" stroke-linejoin="round"/>
<path d="M177 427V434C177 436.209 178.791 438 181 438H193" stroke="#5498FF" stroke-width="2" stroke-linecap="round" stroke-linejoin="round"/>
<path d="M312 433L317 438L312 443" stroke="#5498FF" stroke-width="2" stroke-linecap="round" stroke-linejoin="round"/>
<path d="M301 427V434C301 436.209 302.791 438 305 438H317" stroke="#5498FF" stroke-width="2" stroke-linecap="round" stroke-linejoin="round"/>
<path d="M439 429L427 441" stroke="#5498FF" stroke-width="2" stroke-linecap="round" stroke-linejoin="round"/>
<path d="M427 429L439 441" stroke="#5498FF" stroke-width="2" stroke-linecap="round" stroke-linejoin="round"/>
<path d="M560 433L565 438L560 443" stroke="#5498FF" stroke-width="2" stroke-linecap="round" stroke-linejoin="round"/>
<path d="M549 427V434C549 436.209 550.791 438 553 438H565" stroke="#5498FF" stroke-width="2" stroke-linecap="round" stroke-linejoin="round"/>
<path d="M684 441L678 435L684 429" stroke="#5498FF" stroke-width="2" stroke-linecap="round" stroke-linejoin="round"/>
<path d="M802 441L808 435L802 429" stroke="#5498FF" stroke-width="2" stroke-linecap="round" stroke-linejoin="round"/>
<path d="M932 433L937 438L932 443" stroke="#5498FF" stroke-width="2" stroke-linecap="round" stroke-linejoin="round"/>
<path d="M921 427V434C921 436.209 922.791 438 925 438H937" stroke="#5498FF" stroke-width="2" stroke-linecap="round" stroke-linejoin="round"/>
<path d="M1056 441L1050 435L1056 429" stroke="#5498FF" stroke-width="2" stroke-linecap="round" stroke-linejoin="round"/>
<path d="M1179 432L1174 427L1169 432" stroke="#5498FF" stroke-width="2" stroke-linecap="round" stroke-linejoin="round"/>
<path d="M1185 443H1178C1175.79 443 1174 441.209 1174 439V427" stroke="#5498FF" stroke-width="2" stroke-linecap="round" stroke-linejoin="round"/>
<path fill-rule="evenodd" clip-rule="evenodd" d="M1292 428C1292 426.895 1292.9 426 1294 426H1308C1309.1 426 1310 426.895 1310 428V442C1310 443.105 1309.1 444 1308 444H1294C1292.9 444 1292 443.105 1292 442V428Z" stroke="#5498FF" stroke-width="2" stroke-linecap="round" stroke-linejoin="round"/>
<path fill-rule="evenodd" clip-rule="evenodd" d="M1416 428C1416 426.895 1416.9 426 1418 426H1432C1433.1 426 1434 426.895 1434 428V442C1434 443.105 1433.1 444 1432 444H1418C1416.9 444 1416 443.105 1416 442V428Z" stroke="#5498FF" stroke-width="2" stroke-linecap="round" stroke-linejoin="round"/>
<path d="M1546 441L1552 435L1546 429" stroke="#5498FF" stroke-width="2" stroke-linecap="round" stroke-linejoin="round"/>
<path d="M1675 432L1670 427L1665 432" stroke="#5498FF" stroke-width="2" stroke-linecap="round" stroke-linejoin="round"/>
<path d="M1681 443H1674C1671.79 443 1670 441.209 1670 439V427" stroke="#5498FF" stroke-width="2" stroke-linecap="round" stroke-linejoin="round"/>
<path fill-rule="evenodd" clip-rule="evenodd" d="M1788 428C1788 426.895 1788.9 426 1790 426H1804C1805.1 426 1806 426.895 1806 428V442C1806 443.105 1805.1 444 1804 444H1790C1788.9 444 1788 443.105 1788 442V428Z" stroke="#5498FF" stroke-width="2" stroke-linecap="round" stroke-linejoin="round"/>
<path d="M1924 433L1929 438L1924 443" stroke="#5498FF" stroke-width="2" stroke-linecap="round" stroke-linejoin="round"/>
<path d="M1913 427V434C1913 436.209 1914.79 438 1917 438H1929" stroke="#5498FF" stroke-width="2" stroke-linecap="round" stroke-linejoin="round"/>
<path d="M2047 432L2042 427L2037 432" stroke="#5498FF" stroke-width="2" stroke-linecap="round" stroke-linejoin="round"/>
<path d="M2053 443H2046C2043.79 443 2042 441.209 2042 439V427" stroke="#5498FF" stroke-width="2" stroke-linecap="round" stroke-linejoin="round"/>
<path d="M2172 441L2166 435L2172 429" stroke="#5498FF" stroke-width="2" stroke-linecap="round" stroke-linejoin="round"/>
<path d="M67 553L55 565" stroke="#5498FF" stroke-width="2" stroke-linecap="round" stroke-linejoin="round"/>
<path d="M55 553L67 565" stroke="#5498FF" stroke-width="2" stroke-linecap="round" stroke-linejoin="round"/>
<path fill-rule="evenodd" clip-rule="evenodd" d="M176 552C176 550.895 176.895 550 178 550H192C193.105 550 194 550.895 194 552V566C194 567.105 193.105 568 192 568H178C176.895 568 176 567.105 176 566V552Z" stroke="#5498FF" stroke-width="2" stroke-linecap="round" stroke-linejoin="round"/>
<path fill-rule="evenodd" clip-rule="evenodd" d="M300 552C300 550.895 300.895 550 302 550H316C317.105 550 318 550.895 318 552V566C318 567.105 317.105 568 316 568H302C300.895 568 300 567.105 300 566V552Z" stroke="#5498FF" stroke-width="2" stroke-linecap="round" stroke-linejoin="round"/>
<path d="M436 565L430 559L436 553" stroke="#5498FF" stroke-width="2" stroke-linecap="round" stroke-linejoin="round"/>
<path d="M559 556L554 551L549 556" stroke="#5498FF" stroke-width="2" stroke-linecap="round" stroke-linejoin="round"/>
<path d="M565 567H558C555.791 567 554 565.209 554 563V551" stroke="#5498FF" stroke-width="2" stroke-linecap="round" stroke-linejoin="round"/>
<path d="M684 565L678 559L684 553" stroke="#5498FF" stroke-width="2" stroke-linecap="round" stroke-linejoin="round"/>
<path d="M807 556L802 551L797 556" stroke="#5498FF" stroke-width="2" stroke-linecap="round" stroke-linejoin="round"/>
<path d="M813 567H806C803.791 567 802 565.209 802 563V551" stroke="#5498FF" stroke-width="2" stroke-linecap="round" stroke-linejoin="round"/>
<path fill-rule="evenodd" clip-rule="evenodd" d="M920 552C920 550.895 920.895 550 922 550H936C937.105 550 938 550.895 938 552V566C938 567.105 937.105 568 936 568H922C920.895 568 920 567.105 920 566V552Z" stroke="#5498FF" stroke-width="2" stroke-linecap="round" stroke-linejoin="round"/>
<path d="M1059 553L1047 565" stroke="#5498FF" stroke-width="2" stroke-linecap="round" stroke-linejoin="round"/>
<path d="M1047 553L1059 565" stroke="#5498FF" stroke-width="2" stroke-linecap="round" stroke-linejoin="round"/>
<path d="M1183 553L1171 565" stroke="#5498FF" stroke-width="2" stroke-linecap="round" stroke-linejoin="round"/>
<path d="M1171 553L1183 565" stroke="#5498FF" stroke-width="2" stroke-linecap="round" stroke-linejoin="round"/>
<path d="M1298 565L1304 559L1298 553" stroke="#5498FF" stroke-width="2" stroke-linecap="round" stroke-linejoin="round"/>
<path d="M1428 557L1433 562L1428 567" stroke="#5498FF" stroke-width="2" stroke-linecap="round" stroke-linejoin="round"/>
<path d="M1417 551V558C1417 560.209 1418.79 562 1421 562H1433" stroke="#5498FF" stroke-width="2" stroke-linecap="round" stroke-linejoin="round"/>
<path d="M1552 557L1557 562L1552 567" stroke="#5498FF" stroke-width="2" stroke-linecap="round" stroke-linejoin="round"/>
<path d="M1541 551V558C1541 560.209 1542.79 562 1545 562H1557" stroke="#5498FF" stroke-width="2" stroke-linecap="round" stroke-linejoin="round"/>
<path fill-rule="evenodd" clip-rule="evenodd" d="M1664 552C1664 550.895 1664.9 550 1666 550H1680C1681.1 550 1682 550.895 1682 552V566C1682 567.105 1681.1 568 1680 568H1666C1664.9 568 1664 567.105 1664 566V552Z" stroke="#5498FF" stroke-width="2" stroke-linecap="round" stroke-linejoin="round"/>
<path fill-rule="evenodd" clip-rule="evenodd" d="M1788 552C1788 550.895 1788.9 550 1790 550H1804C1805.1 550 1806 550.895 1806 552V566C1806 567.105 1805.1 568 1804 568H1790C1788.9 568 1788 567.105 1788 566V552Z" stroke="#5498FF" stroke-width="2" stroke-linecap="round" stroke-linejoin="round"/>
<path d="M1927 553L1915 565" stroke="#5498FF" stroke-width="2" stroke-linecap="round" stroke-linejoin="round"/>
<path d="M1915 553L1927 565" stroke="#5498FF" stroke-width="2" stroke-linecap="round" stroke-linejoin="round"/>
<path d="M2048 565L2042 559L2048 553" stroke="#5498FF" stroke-width="2" stroke-linecap="round" stroke-linejoin="round"/>
<path d="M2171 556L2166 551L2161 556" stroke="#5498FF" stroke-width="2" stroke-linecap="round" stroke-linejoin="round"/>
<path d="M2177 567H2170C2167.79 567 2166 565.209 2166 563V551" stroke="#5498FF" stroke-width="2" stroke-linecap="round" stroke-linejoin="round"/>
<path d="M58 689L64 683L58 677" stroke="#5498FF" stroke-width="2" stroke-linecap="round" stroke-linejoin="round"/>
<path d="M188 681L193 686L188 691" stroke="#5498FF" stroke-width="2" stroke-linecap="round" stroke-linejoin="round"/>
<path d="M177 675V682C177 684.209 178.791 686 181 686H193" stroke="#5498FF" stroke-width="2" stroke-linecap="round" stroke-linejoin="round"/>
<path d="M315 677L303 689" stroke="#5498FF" stroke-width="2" stroke-linecap="round" stroke-linejoin="round"/>
<path d="M303 677L315 689" stroke="#5498FF" stroke-width="2" stroke-linecap="round" stroke-linejoin="round"/>
<path d="M436 681L441 686L436 691" stroke="#5498FF" stroke-width="2" stroke-linecap="round" stroke-linejoin="round"/>
<path d="M425 675V682C425 684.209 426.791 686 429 686H441" stroke="#5498FF" stroke-width="2" stroke-linecap="round" stroke-linejoin="round"/>
<path d="M563 677L551 689" stroke="#5498FF" stroke-width="2" stroke-linecap="round" stroke-linejoin="round"/>
<path d="M551 677L563 689" stroke="#5498FF" stroke-width="2" stroke-linecap="round" stroke-linejoin="round"/>
<path d="M684 681L689 686L684 691" stroke="#5498FF" stroke-width="2" stroke-linecap="round" stroke-linejoin="round"/>
<path d="M673 675V682C673 684.209 674.791 686 677 686H689" stroke="#5498FF" stroke-width="2" stroke-linecap="round" stroke-linejoin="round"/>
<path d="M808 681L813 686L808 691" stroke="#5498FF" stroke-width="2" stroke-linecap="round" stroke-linejoin="round"/>
<path d="M797 675V682C797 684.209 798.791 686 801 686H813" stroke="#5498FF" stroke-width="2" stroke-linecap="round" stroke-linejoin="round"/>
<path d="M932 681L937 686L932 691" stroke="#5498FF" stroke-width="2" stroke-linecap="round" stroke-linejoin="round"/>
<path d="M921 675V682C921 684.209 922.791 686 925 686H937" stroke="#5498FF" stroke-width="2" stroke-linecap="round" stroke-linejoin="round"/>
<path d="M1050 689L1056 683L1050 677" stroke="#5498FF" stroke-width="2" stroke-linecap="round" stroke-linejoin="round"/>
<path d="M1180 681L1185 686L1180 691" stroke="#5498FF" stroke-width="2" stroke-linecap="round" stroke-linejoin="round"/>
<path d="M1169 675V682C1169 684.209 1170.79 686 1173 686H1185" stroke="#5498FF" stroke-width="2" stroke-linecap="round" stroke-linejoin="round"/>
<path d="M1304 681L1309 686L1304 691" stroke="#5498FF" stroke-width="2" stroke-linecap="round" stroke-linejoin="round"/>
<path d="M1293 675V682C1293 684.209 1294.79 686 1297 686H1309" stroke="#5498FF" stroke-width="2" stroke-linecap="round" stroke-linejoin="round"/>
<path d="M1431 677L1419 689" stroke="#5498FF" stroke-width="2" stroke-linecap="round" stroke-linejoin="round"/>
<path d="M1419 677L1431 689" stroke="#5498FF" stroke-width="2" stroke-linecap="round" stroke-linejoin="round"/>
<path d="M1551 680L1546 675L1541 680" stroke="#5498FF" stroke-width="2" stroke-linecap="round" stroke-linejoin="round"/>
<path d="M1557 691H1550C1547.79 691 1546 689.209 1546 687V675" stroke="#5498FF" stroke-width="2" stroke-linecap="round" stroke-linejoin="round"/>
<path fill-rule="evenodd" clip-rule="evenodd" d="M1664 676C1664 674.895 1664.9 674 1666 674H1680C1681.1 674 1682 674.895 1682 676V690C1682 691.105 1681.1 692 1680 692H1666C1664.9 692 1664 691.105 1664 690V676Z" stroke="#5498FF" stroke-width="2" stroke-linecap="round" stroke-linejoin="round"/>
<path d="M1794 689L1800 683L1794 677" stroke="#5498FF" stroke-width="2" stroke-linecap="round" stroke-linejoin="round"/>
<path d="M1923 680L1918 675L1913 680" stroke="#5498FF" stroke-width="2" stroke-linecap="round" stroke-linejoin="round"/>
<path d="M1929 691H1922C1919.79 691 1918 689.209 1918 687V675" stroke="#5498FF" stroke-width="2" stroke-linecap="round" stroke-linejoin="round"/>
<path d="M2048 681L2053 686L2048 691" stroke="#5498FF" stroke-width="2" stroke-linecap="round" stroke-linejoin="round"/>
<path d="M2037 675V682C2037 684.209 2038.79 686 2041 686H2053" stroke="#5498FF" stroke-width="2" stroke-linecap="round" stroke-linejoin="round"/>
<path fill-rule="evenodd" clip-rule="evenodd" d="M2160 676C2160 674.895 2160.9 674 2162 674H2176C2177.1 674 2178 674.895 2178 676V690C2178 691.105 2177.1 692 2176 692H2162C2160.9 692 2160 691.105 2160 690V676Z" stroke="#5498FF" stroke-width="2" stroke-linecap="round" stroke-linejoin="round"/>
<path d="M63 804L58 799L53 804" stroke="#5498FF" stroke-width="2" stroke-linecap="round" stroke-linejoin="round"/>
<path d="M69 815H62C59.7909 815 58 813.209 58 811V799" stroke="#5498FF" stroke-width="2" stroke-linecap="round" stroke-linejoin="round"/>
<path d="M182 813L188 807L182 801" stroke="#5498FF" stroke-width="2" stroke-linecap="round" stroke-linejoin="round"/>
<path d="M311 804L306 799L301 804" stroke="#5498FF" stroke-width="2" stroke-linecap="round" stroke-linejoin="round"/>
<path d="M317 815H310C307.791 815 306 813.209 306 811V799" stroke="#5498FF" stroke-width="2" stroke-linecap="round" stroke-linejoin="round"/>
<path d="M436 813L430 807L436 801" stroke="#5498FF" stroke-width="2" stroke-linecap="round" stroke-linejoin="round"/>
<path fill-rule="evenodd" clip-rule="evenodd" d="M548 800C548 798.895 548.895 798 550 798H564C565.105 798 566 798.895 566 800V814C566 815.105 565.105 816 564 816H550C548.895 816 548 815.105 548 814V800Z" stroke="#5498FF" stroke-width="2" stroke-linecap="round" stroke-linejoin="round"/>
<path d="M684 805L689 810L684 815" stroke="#5498FF" stroke-width="2" stroke-linecap="round" stroke-linejoin="round"/>
<path d="M673 799V806C673 808.209 674.791 810 677 810H689" stroke="#5498FF" stroke-width="2" stroke-linecap="round" stroke-linejoin="round"/>
<path d="M807 804L802 799L797 804" stroke="#5498FF" stroke-width="2" stroke-linecap="round" stroke-linejoin="round"/>
<path d="M813 815H806C803.791 815 802 813.209 802 811V799" stroke="#5498FF" stroke-width="2" stroke-linecap="round" stroke-linejoin="round"/>
<path d="M932 813L926 807L932 801" stroke="#5498FF" stroke-width="2" stroke-linecap="round" stroke-linejoin="round"/>
<path d="M1050 813L1056 807L1050 801" stroke="#5498FF" stroke-width="2" stroke-linecap="round" stroke-linejoin="round"/>
<path d="M1174 813L1180 807L1174 801" stroke="#5498FF" stroke-width="2" stroke-linecap="round" stroke-linejoin="round"/>
<path d="M1307 801L1295 813" stroke="#5498FF" stroke-width="2" stroke-linecap="round" stroke-linejoin="round"/>
<path d="M1295 801L1307 813" stroke="#5498FF" stroke-width="2" stroke-linecap="round" stroke-linejoin="round"/>
<path d="M1422 813L1428 807L1422 801" stroke="#5498FF" stroke-width="2" stroke-linecap="round" stroke-linejoin="round"/>
<path d="M1552 813L1546 807L1552 801" stroke="#5498FF" stroke-width="2" stroke-linecap="round" stroke-linejoin="round"/>
<path d="M1670 813L1676 807L1670 801" stroke="#5498FF" stroke-width="2" stroke-linecap="round" stroke-linejoin="round"/>
<path d="M1800 813L1794 807L1800 801" stroke="#5498FF" stroke-width="2" stroke-linecap="round" stroke-linejoin="round"/>
<path d="M1924 805L1929 810L1924 815" stroke="#5498FF" stroke-width="2" stroke-linecap="round" stroke-linejoin="round"/>
<path d="M1913 799V806C1913 808.209 1914.79 810 1917 810H1929" stroke="#5498FF" stroke-width="2" stroke-linecap="round" stroke-linejoin="round"/>
<path d="M2048 805L2053 810L2048 815" stroke="#5498FF" stroke-width="2" stroke-linecap="round" stroke-linejoin="round"/>
<path d="M2037 799V806C2037 808.209 2038.79 810 2041 810H2053" stroke="#5498FF" stroke-width="2" stroke-linecap="round" stroke-linejoin="round"/>
<path d="M2172 813L2166 807L2172 801" stroke="#5498FF" stroke-width="2" stroke-linecap="round" stroke-linejoin="round"/>
<path d="M67 925L55 937" stroke="#5498FF" stroke-width="2" stroke-linecap="round" stroke-linejoin="round"/>
<path d="M55 925L67 937" stroke="#5498FF" stroke-width="2" stroke-linecap="round" stroke-linejoin="round"/>
<path d="M191 925L179 937" stroke="#5498FF" stroke-width="2" stroke-linecap="round" stroke-linejoin="round"/>
<path d="M179 925L191 937" stroke="#5498FF" stroke-width="2" stroke-linecap="round" stroke-linejoin="round"/>
<path d="M312 937L306 931L312 925" stroke="#5498FF" stroke-width="2" stroke-linecap="round" stroke-linejoin="round"/>
<path fill-rule="evenodd" clip-rule="evenodd" d="M424 924C424 922.895 424.895 922 426 922H440C441.105 922 442 922.895 442 924V938C442 939.105 441.105 940 440 940H426C424.895 940 424 939.105 424 938V924Z" stroke="#5498FF" stroke-width="2" stroke-linecap="round" stroke-linejoin="round"/>
<path d="M554 937L560 931L554 925" stroke="#5498FF" stroke-width="2" stroke-linecap="round" stroke-linejoin="round"/>
<path d="M684 937L678 931L684 925" stroke="#5498FF" stroke-width="2" stroke-linecap="round" stroke-linejoin="round"/>
<path d="M807 928L802 923L797 928" stroke="#5498FF" stroke-width="2" stroke-linecap="round" stroke-linejoin="round"/>
<path d="M813 939H806C803.791 939 802 937.209 802 935V923" stroke="#5498FF" stroke-width="2" stroke-linecap="round" stroke-linejoin="round"/>
<path fill-rule="evenodd" clip-rule="evenodd" d="M920 924C920 922.895 920.895 922 922 922H936C937.105 922 938 922.895 938 924V938C938 939.105 937.105 940 936 940H922C920.895 940 920 939.105 920 938V924Z" stroke="#5498FF" stroke-width="2" stroke-linecap="round" stroke-linejoin="round"/>
<path fill-rule="evenodd" clip-rule="evenodd" d="M1044 924C1044 922.895 1044.9 922 1046 922H1060C1061.1 922 1062 922.895 1062 924V938C1062 939.105 1061.1 940 1060 940H1046C1044.9 940 1044 939.105 1044 938V924Z" stroke="#5498FF" stroke-width="2" stroke-linecap="round" stroke-linejoin="round"/>
<path d="M1180 937L1174 931L1180 925" stroke="#5498FF" stroke-width="2" stroke-linecap="round" stroke-linejoin="round"/>
<path d="M1307 925L1295 937" stroke="#5498FF" stroke-width="2" stroke-linecap="round" stroke-linejoin="round"/>
<path d="M1295 925L1307 937" stroke="#5498FF" stroke-width="2" stroke-linecap="round" stroke-linejoin="round"/>
<path d="M1431 925L1419 937" stroke="#5498FF" stroke-width="2" stroke-linecap="round" stroke-linejoin="round"/>
<path d="M1419 925L1431 937" stroke="#5498FF" stroke-width="2" stroke-linecap="round" stroke-linejoin="round"/>
<path fill-rule="evenodd" clip-rule="evenodd" d="M1540 924C1540 922.895 1540.9 922 1542 922H1556C1557.1 922 1558 922.895 1558 924V938C1558 939.105 1557.1 940 1556 940H1542C1540.9 940 1540 939.105 1540 938V924Z" stroke="#5498FF" stroke-width="2" stroke-linecap="round" stroke-linejoin="round"/>
<path d="M1676 929L1681 934L1676 939" stroke="#5498FF" stroke-width="2" stroke-linecap="round" stroke-linejoin="round"/>
<path d="M1665 923V930C1665 932.209 1666.79 934 1669 934H1681" stroke="#5498FF" stroke-width="2" stroke-linecap="round" stroke-linejoin="round"/>
<path fill-rule="evenodd" clip-rule="evenodd" d="M1788 924C1788 922.895 1788.9 922 1790 922H1804C1805.1 922 1806 922.895 1806 924V938C1806 939.105 1805.1 940 1804 940H1790C1788.9 940 1788 939.105 1788 938V924Z" stroke="#5498FF" stroke-width="2" stroke-linecap="round" stroke-linejoin="round"/>
<path d="M1923 928L1918 923L1913 928" stroke="#5498FF" stroke-width="2" stroke-linecap="round" stroke-linejoin="round"/>
<path d="M1929 939H1922C1919.79 939 1918 937.209 1918 935V923" stroke="#5498FF" stroke-width="2" stroke-linecap="round" stroke-linejoin="round"/>
<path d="M2048 929L2053 934L2048 939" stroke="#5498FF" stroke-width="2" stroke-linecap="round" stroke-linejoin="round"/>
<path d="M2037 923V930C2037 932.209 2038.79 934 2041 934H2053" stroke="#5498FF" stroke-width="2" stroke-linecap="round" stroke-linejoin="round"/>
<path d="M2172 929L2177 934L2172 939" stroke="#5498FF" stroke-width="2" stroke-linecap="round" stroke-linejoin="round"/>
<path d="M2161 923V930C2161 932.209 2162.79 934 2165 934H2177" stroke="#5498FF" stroke-width="2" stroke-linecap="round" stroke-linejoin="round"/>
<path d="M64 1061L58 1055L64 1049" stroke="#5498FF" stroke-width="2" stroke-linecap="round" stroke-linejoin="round"/>
<path d="M188 1061L182 1055L188 1049" stroke="#5498FF" stroke-width="2" stroke-linecap="round" stroke-linejoin="round"/>
<path fill-rule="evenodd" clip-rule="evenodd" d="M300 1048C300 1046.9 300.895 1046 302 1046H316C317.105 1046 318 1046.9 318 1048V1062C318 1063.1 317.105 1064 316 1064H302C300.895 1064 300 1063.1 300 1062V1048Z" stroke="#5498FF" stroke-width="2" stroke-linecap="round" stroke-linejoin="round"/>
<path d="M430 1061L436 1055L430 1049" stroke="#5498FF" stroke-width="2" stroke-linecap="round" stroke-linejoin="round"/>
<path d="M554 1061L560 1055L554 1049" stroke="#5498FF" stroke-width="2" stroke-linecap="round" stroke-linejoin="round"/>
<path d="M687 1049L675 1061" stroke="#5498FF" stroke-width="2" stroke-linecap="round" stroke-linejoin="round"/>
<path d="M675 1049L687 1061" stroke="#5498FF" stroke-width="2" stroke-linecap="round" stroke-linejoin="round"/>
<path d="M802 1061L808 1055L802 1049" stroke="#5498FF" stroke-width="2" stroke-linecap="round" stroke-linejoin="round"/>
<path d="M932 1053L937 1058L932 1063" stroke="#5498FF" stroke-width="2" stroke-linecap="round" stroke-linejoin="round"/>
<path d="M921 1047V1054C921 1056.21 922.791 1058 925 1058H937" stroke="#5498FF" stroke-width="2" stroke-linecap="round" stroke-linejoin="round"/>
<path fill-rule="evenodd" clip-rule="evenodd" d="M1044 1048C1044 1046.9 1044.9 1046 1046 1046H1060C1061.1 1046 1062 1046.9 1062 1048V1062C1062 1063.1 1061.1 1064 1060 1064H1046C1044.9 1064 1044 1063.1 1044 1062V1048Z" stroke="#5498FF" stroke-width="2" stroke-linecap="round" stroke-linejoin="round"/>
<path d="M1183 1049L1171 1061" stroke="#5498FF" stroke-width="2" stroke-linecap="round" stroke-linejoin="round"/>
<path d="M1171 1049L1183 1061" stroke="#5498FF" stroke-width="2" stroke-linecap="round" stroke-linejoin="round"/>
<path d="M1304 1053L1309 1058L1304 1063" stroke="#5498FF" stroke-width="2" stroke-linecap="round" stroke-linejoin="round"/>
<path d="M1293 1047V1054C1293 1056.21 1294.79 1058 1297 1058H1309" stroke="#5498FF" stroke-width="2" stroke-linecap="round" stroke-linejoin="round"/>
<path d="M1428 1061L1422 1055L1428 1049" stroke="#5498FF" stroke-width="2" stroke-linecap="round" stroke-linejoin="round"/>
<path d="M1546 1061L1552 1055L1546 1049" stroke="#5498FF" stroke-width="2" stroke-linecap="round" stroke-linejoin="round"/>
<path d="M1675 1052L1670 1047L1665 1052" stroke="#5498FF" stroke-width="2" stroke-linecap="round" stroke-linejoin="round"/>
<path d="M1681 1063H1674C1671.79 1063 1670 1061.21 1670 1059V1047" stroke="#5498FF" stroke-width="2" stroke-linecap="round" stroke-linejoin="round"/>
<path d="M1803 1049L1791 1061" stroke="#5498FF" stroke-width="2" stroke-linecap="round" stroke-linejoin="round"/>
<path d="M1791 1049L1803 1061" stroke="#5498FF" stroke-width="2" stroke-linecap="round" stroke-linejoin="round"/>
<path fill-rule="evenodd" clip-rule="evenodd" d="M1912 1048C1912 1046.9 1912.9 1046 1914 1046H1928C1929.1 1046 1930 1046.9 1930 1048V1062C1930 1063.1 1929.1 1064 1928 1064H1914C1912.9 1064 1912 1063.1 1912 1062V1048Z" stroke="#5498FF" stroke-width="2" stroke-linecap="round" stroke-linejoin="round"/>
<path d="M2051 1049L2039 1061" stroke="#5498FF" stroke-width="2" stroke-linecap="round" stroke-linejoin="round"/>
<path d="M2039 1049L2051 1061" stroke="#5498FF" stroke-width="2" stroke-linecap="round" stroke-linejoin="round"/>
<path fill-rule="evenodd" clip-rule="evenodd" d="M2160 1048C2160 1046.9 2160.9 1046 2162 1046H2176C2177.1 1046 2178 1046.9 2178 1048V1062C2178 1063.1 2177.1 1064 2176 1064H2162C2160.9 1064 2160 1063.1 2160 1062V1048Z" stroke="#5498FF" stroke-width="2" stroke-linecap="round" stroke-linejoin="round"/>
<path d="M58 1185L64 1179L58 1173" stroke="#5498FF" stroke-width="2" stroke-linecap="round" stroke-linejoin="round"/>
<path d="M187 1176L182 1171L177 1176" stroke="#5498FF" stroke-width="2" stroke-linecap="round" stroke-linejoin="round"/>
<path d="M193 1187H186C183.791 1187 182 1185.21 182 1183V1171" stroke="#5498FF" stroke-width="2" stroke-linecap="round" stroke-linejoin="round"/>
<path d="M312 1177L317 1182L312 1187" stroke="#5498FF" stroke-width="2" stroke-linecap="round" stroke-linejoin="round"/>
<path d="M301 1171V1178C301 1180.21 302.791 1182 305 1182H317" stroke="#5498FF" stroke-width="2" stroke-linecap="round" stroke-linejoin="round"/>
<path fill-rule="evenodd" clip-rule="evenodd" d="M424 1172C424 1170.9 424.895 1170 426 1170H440C441.105 1170 442 1170.9 442 1172V1186C442 1187.1 441.105 1188 440 1188H426C424.895 1188 424 1187.1 424 1186V1172Z" stroke="#5498FF" stroke-width="2" stroke-linecap="round" stroke-linejoin="round"/>
<path d="M559 1176L554 1171L549 1176" stroke="#5498FF" stroke-width="2" stroke-linecap="round" stroke-linejoin="round"/>
<path d="M565 1187H558C555.791 1187 554 1185.21 554 1183V1171" stroke="#5498FF" stroke-width="2" stroke-linecap="round" stroke-linejoin="round"/>
<path d="M687 1173L675 1185" stroke="#5498FF" stroke-width="2" stroke-linecap="round" stroke-linejoin="round"/>
<path d="M675 1173L687 1185" stroke="#5498FF" stroke-width="2" stroke-linecap="round" stroke-linejoin="round"/>
<path d="M807 1176L802 1171L797 1176" stroke="#5498FF" stroke-width="2" stroke-linecap="round" stroke-linejoin="round"/>
<path d="M813 1187H806C803.791 1187 802 1185.21 802 1183V1171" stroke="#5498FF" stroke-width="2" stroke-linecap="round" stroke-linejoin="round"/>
<path d="M926 1185L932 1179L926 1173" stroke="#5498FF" stroke-width="2" stroke-linecap="round" stroke-linejoin="round"/>
<path fill-rule="evenodd" clip-rule="evenodd" d="M1044 1172C1044 1170.9 1044.9 1170 1046 1170H1060C1061.1 1170 1062 1170.9 1062 1172V1186C1062 1187.1 1061.1 1188 1060 1188H1046C1044.9 1188 1044 1187.1 1044 1186V1172Z" stroke="#5498FF" stroke-width="2" stroke-linecap="round" stroke-linejoin="round"/>
<path fill-rule="evenodd" clip-rule="evenodd" d="M1168 1172C1168 1170.9 1168.9 1170 1170 1170H1184C1185.1 1170 1186 1170.9 1186 1172V1186C1186 1187.1 1185.1 1188 1184 1188H1170C1168.9 1188 1168 1187.1 1168 1186V1172Z" stroke="#5498FF" stroke-width="2" stroke-linecap="round" stroke-linejoin="round"/>
<path fill-rule="evenodd" clip-rule="evenodd" d="M1292 1172C1292 1170.9 1292.9 1170 1294 1170H1308C1309.1 1170 1310 1170.9 1310 1172V1186C1310 1187.1 1309.1 1188 1308 1188H1294C1292.9 1188 1292 1187.1 1292 1186V1172Z" stroke="#5498FF" stroke-width="2" stroke-linecap="round" stroke-linejoin="round"/>
<path d="M1428 1177L1433 1182L1428 1187" stroke="#5498FF" stroke-width="2" stroke-linecap="round" stroke-linejoin="round"/>
<path d="M1417 1171V1178C1417 1180.21 1418.79 1182 1421 1182H1433" stroke="#5498FF" stroke-width="2" stroke-linecap="round" stroke-linejoin="round"/>
<path d="M1552 1177L1557 1182L1552 1187" stroke="#5498FF" stroke-width="2" stroke-linecap="round" stroke-linejoin="round"/>
<path d="M1541 1171V1178C1541 1180.21 1542.79 1182 1545 1182H1557" stroke="#5498FF" stroke-width="2" stroke-linecap="round" stroke-linejoin="round"/>
<path d="M1670 1185L1676 1179L1670 1173" stroke="#5498FF" stroke-width="2" stroke-linecap="round" stroke-linejoin="round"/>
<path d="M1799 1176L1794 1171L1789 1176" stroke="#5498FF" stroke-width="2" stroke-linecap="round" stroke-linejoin="round"/>
<path d="M1805 1187H1798C1795.79 1187 1794 1185.21 1794 1183V1171" stroke="#5498FF" stroke-width="2" stroke-linecap="round" stroke-linejoin="round"/>
<path d="M1924 1185L1918 1179L1924 1173" stroke="#5498FF" stroke-width="2" stroke-linecap="round" stroke-linejoin="round"/>
<path d="M2047 1176L2042 1171L2037 1176" stroke="#5498FF" stroke-width="2" stroke-linecap="round" stroke-linejoin="round"/>
<path d="M2053 1187H2046C2043.79 1187 2042 1185.21 2042 1183V1171" stroke="#5498FF" stroke-width="2" stroke-linecap="round" stroke-linejoin="round"/>
<path d="M2171 1176L2166 1171L2161 1176" stroke="#5498FF" stroke-width="2" stroke-linecap="round" stroke-linejoin="round"/>
<path d="M2177 1187H2170C2167.79 1187 2166 1185.21 2166 1183V1171" stroke="#5498FF" stroke-width="2" stroke-linecap="round" stroke-linejoin="round"/>
<path fill-rule="evenodd" clip-rule="evenodd" d="M52 1296C52 1294.9 52.8954 1294 54 1294H68C69.1046 1294 70 1294.9 70 1296V1310C70 1311.1 69.1046 1312 68 1312H54C52.8954 1312 52 1311.1 52 1310V1296Z" stroke="#5498FF" stroke-width="2" stroke-linecap="round" stroke-linejoin="round"/>
<path d="M182 1309L188 1303L182 1297" stroke="#5498FF" stroke-width="2" stroke-linecap="round" stroke-linejoin="round"/>
<path d="M315 1297L303 1309" stroke="#5498FF" stroke-width="2" stroke-linecap="round" stroke-linejoin="round"/>
<path d="M303 1297L315 1309" stroke="#5498FF" stroke-width="2" stroke-linecap="round" stroke-linejoin="round"/>
<path d="M439 1297L427 1309" stroke="#5498FF" stroke-width="2" stroke-linecap="round" stroke-linejoin="round"/>
<path d="M427 1297L439 1309" stroke="#5498FF" stroke-width="2" stroke-linecap="round" stroke-linejoin="round"/>
<path d="M560 1301L565 1306L560 1311" stroke="#5498FF" stroke-width="2" stroke-linecap="round" stroke-linejoin="round"/>
<path d="M549 1295V1302C549 1304.21 550.791 1306 553 1306H565" stroke="#5498FF" stroke-width="2" stroke-linecap="round" stroke-linejoin="round"/>
<path d="M678 1309L684 1303L678 1297" stroke="#5498FF" stroke-width="2" stroke-linecap="round" stroke-linejoin="round"/>
<path d="M811 1297L799 1309" stroke="#5498FF" stroke-width="2" stroke-linecap="round" stroke-linejoin="round"/>
<path d="M799 1297L811 1309" stroke="#5498FF" stroke-width="2" stroke-linecap="round" stroke-linejoin="round"/>
<path d="M926 1309L932 1303L926 1297" stroke="#5498FF" stroke-width="2" stroke-linecap="round" stroke-linejoin="round"/>
<path d="M1050 1309L1056 1303L1050 1297" stroke="#5498FF" stroke-width="2" stroke-linecap="round" stroke-linejoin="round"/>
<path d="M1179 1300L1174 1295L1169 1300" stroke="#5498FF" stroke-width="2" stroke-linecap="round" stroke-linejoin="round"/>
<path d="M1185 1311H1178C1175.79 1311 1174 1309.21 1174 1307V1295" stroke="#5498FF" stroke-width="2" stroke-linecap="round" stroke-linejoin="round"/>
<path d="M1304 1309L1298 1303L1304 1297" stroke="#5498FF" stroke-width="2" stroke-linecap="round" stroke-linejoin="round"/>
<path d="M1428 1301L1433 1306L1428 1311" stroke="#5498FF" stroke-width="2" stroke-linecap="round" stroke-linejoin="round"/>
<path d="M1417 1295V1302C1417 1304.21 1418.79 1306 1421 1306H1433" stroke="#5498FF" stroke-width="2" stroke-linecap="round" stroke-linejoin="round"/>
<path d="M1546 1309L1552 1303L1546 1297" stroke="#5498FF" stroke-width="2" stroke-linecap="round" stroke-linejoin="round"/>
<path d="M1676 1309L1670 1303L1676 1297" stroke="#5498FF" stroke-width="2" stroke-linecap="round" stroke-linejoin="round"/>
<path d="M1800 1301L1805 1306L1800 1311" stroke="#5498FF" stroke-width="2" stroke-linecap="round" stroke-linejoin="round"/>
<path d="M1789 1295V1302C1789 1304.21 1790.79 1306 1793 1306H1805" stroke="#5498FF" stroke-width="2" stroke-linecap="round" stroke-linejoin="round"/>
<path d="M1927 1297L1915 1309" stroke="#5498FF" stroke-width="2" stroke-linecap="round" stroke-linejoin="round"/>
<path d="M1915 1297L1927 1309" stroke="#5498FF" stroke-width="2" stroke-linecap="round" stroke-linejoin="round"/>
<path d="M2042 1309L2048 1303L2042 1297" stroke="#5498FF" stroke-width="2" stroke-linecap="round" stroke-linejoin="round"/>
<path d="M2171 1300L2166 1295L2161 1300" stroke="#5498FF" stroke-width="2" stroke-linecap="round" stroke-linejoin="round"/>
<path d="M2177 1311H2170C2167.79 1311 2166 1309.21 2166 1307V1295" stroke="#5498FF" stroke-width="2" stroke-linecap="round" stroke-linejoin="round"/>
<path d="M67 1421L55 1433" stroke="#5498FF" stroke-width="2" stroke-linecap="round" stroke-linejoin="round"/>
<path d="M55 1421L67 1433" stroke="#5498FF" stroke-width="2" stroke-linecap="round" stroke-linejoin="round"/>
<path fill-rule="evenodd" clip-rule="evenodd" d="M176 1420C176 1418.9 176.895 1418 178 1418H192C193.105 1418 194 1418.9 194 1420V1434C194 1435.1 193.105 1436 192 1436H178C176.895 1436 176 1435.1 176 1434V1420Z" stroke="#5498FF" stroke-width="2" stroke-linecap="round" stroke-linejoin="round"/>
<path d="M311 1424L306 1419L301 1424" stroke="#5498FF" stroke-width="2" stroke-linecap="round" stroke-linejoin="round"/>
<path d="M317 1435H310C307.791 1435 306 1433.21 306 1431V1419" stroke="#5498FF" stroke-width="2" stroke-linecap="round" stroke-linejoin="round"/>
<path d="M439 1421L427 1433" stroke="#5498FF" stroke-width="2" stroke-linecap="round" stroke-linejoin="round"/>
<path d="M427 1421L439 1433" stroke="#5498FF" stroke-width="2" stroke-linecap="round" stroke-linejoin="round"/>
<path d="M554 1433L560 1427L554 1421" stroke="#5498FF" stroke-width="2" stroke-linecap="round" stroke-linejoin="round"/>
<path d="M683 1424L678 1419L673 1424" stroke="#5498FF" stroke-width="2" stroke-linecap="round" stroke-linejoin="round"/>
<path d="M689 1435H682C679.791 1435 678 1433.21 678 1431V1419" stroke="#5498FF" stroke-width="2" stroke-linecap="round" stroke-linejoin="round"/>
<path d="M807 1424L802 1419L797 1424" stroke="#5498FF" stroke-width="2" stroke-linecap="round" stroke-linejoin="round"/>
<path d="M813 1435H806C803.791 1435 802 1433.21 802 1431V1419" stroke="#5498FF" stroke-width="2" stroke-linecap="round" stroke-linejoin="round"/>
<path d="M932 1425L937 1430L932 1435" stroke="#5498FF" stroke-width="2" stroke-linecap="round" stroke-linejoin="round"/>
<path d="M921 1419V1426C921 1428.21 922.791 1430 925 1430H937" stroke="#5498FF" stroke-width="2" stroke-linecap="round" stroke-linejoin="round"/>
<path d="M1056 1433L1050 1427L1056 1421" stroke="#5498FF" stroke-width="2" stroke-linecap="round" stroke-linejoin="round"/>
<path d="M1174 1433L1180 1427L1174 1421" stroke="#5498FF" stroke-width="2" stroke-linecap="round" stroke-linejoin="round"/>
<path d="M1298 1433L1304 1427L1298 1421" stroke="#5498FF" stroke-width="2" stroke-linecap="round" stroke-linejoin="round"/>
<path d="M1422 1433L1428 1427L1422 1421" stroke="#5498FF" stroke-width="2" stroke-linecap="round" stroke-linejoin="round"/>
<path d="M1555 1421L1543 1433" stroke="#5498FF" stroke-width="2" stroke-linecap="round" stroke-linejoin="round"/>
<path d="M1543 1421L1555 1433" stroke="#5498FF" stroke-width="2" stroke-linecap="round" stroke-linejoin="round"/>
<path d="M1676 1433L1670 1427L1676 1421" stroke="#5498FF" stroke-width="2" stroke-linecap="round" stroke-linejoin="round"/>
<path fill-rule="evenodd" clip-rule="evenodd" d="M1788 1420C1788 1418.9 1788.9 1418 1790 1418H1804C1805.1 1418 1806 1418.9 1806 1420V1434C1806 1435.1 1805.1 1436 1804 1436H1790C1788.9 1436 1788 1435.1 1788 1434V1420Z" stroke="#5498FF" stroke-width="2" stroke-linecap="round" stroke-linejoin="round"/>
<path d="M1923 1424L1918 1419L1913 1424" stroke="#5498FF" stroke-width="2" stroke-linecap="round" stroke-linejoin="round"/>
<path d="M1929 1435H1922C1919.79 1435 1918 1433.21 1918 1431V1419" stroke="#5498FF" stroke-width="2" stroke-linecap="round" stroke-linejoin="round"/>
<path d="M2048 1433L2042 1427L2048 1421" stroke="#5498FF" stroke-width="2" stroke-linecap="round" stroke-linejoin="round"/>
<path d="M2172 1433L2166 1427L2172 1421" stroke="#5498FF" stroke-width="2" stroke-linecap="round" stroke-linejoin="round"/>
</svg>
